<svg width="22" height="22" viewBox="0 0 22 22" fill="none" xmlns="http://www.w3.org/2000/svg">
<path d="M20.4253 8.73438H13.6753V1.98438C13.6753 1.1875 12.9722 0.484375 12.1753 0.484375H10.6753C9.83154 0.484375 9.17529 1.1875 9.17529 1.98438V8.73438H2.42529C1.58154 8.73438 0.925293 9.4375 0.925293 10.2344V11.7344C0.925293 12.5781 1.58154 13.2344 2.42529 13.2344H9.17529V19.9844C9.17529 20.8281 9.83154 21.4844 10.6753 21.4844H12.1753C12.9722 21.4844 13.6753 20.8281 13.6753 19.9844V13.2344H20.4253C21.2222 13.2344 21.9253 12.5781 21.9253 11.7344V10.2344C21.9253 9.4375 21.2222 8.73438 20.4253 8.73438Z" fill="#485799"/>
</svg>
