<svg width="22" height="24" viewBox="0 0 22 24" fill="none" xmlns="http://www.w3.org/2000/svg">
<path d="M16.0751 16.8976C15.9218 16.7443 15.6926 16.6018 15.412 16.5682V3.06079C15.412 2.24033 14.7325 1.56079 13.912 1.56079H3.41199C2.53994 1.56079 1.91199 2.26097 1.91199 3.06079V16.5674C1.3088 16.6322 0.911995 17.1605 0.911995 17.6858V18.3108V19.0608H1.66199H15.662H16.412V18.3108V17.6858C16.412 17.3481 16.2507 17.0732 16.0751 16.8976ZM6.41199 5.56079V5.06079H6.91199V5.56079H6.41199ZM6.41199 8.56079V8.06079H6.91199V8.56079H6.41199ZM6.91199 11.0608V11.5608H6.41199V11.0608H6.91199ZM8.91199 16.5608H8.41199V15.0608H8.91199V16.5608ZM10.912 11.0608V11.5608H10.412V11.0608H10.912ZM10.912 8.06079V8.56079H10.412V8.06079H10.912ZM10.912 5.06079V5.56079H10.412V5.06079H10.912Z" fill="#FF9500" stroke="white" stroke-width="1.5"/>
<path d="M20.4004 19.9942L20.3872 19.9795L20.3733 19.9655L18.0742 17.6664L18.0448 17.6371L18.0124 17.6111C17.9958 17.5979 17.9783 17.5843 17.9598 17.5707C18.3297 16.8335 18.5468 15.9954 18.5468 15.093C18.5468 12.0577 16.0498 9.56079 13.0146 9.56079C9.95405 9.56079 7.48243 12.0601 7.48243 15.093C7.48243 18.1511 9.95639 20.6251 13.0146 20.6251C13.8972 20.6251 14.7304 20.4208 15.4764 20.0489C15.5101 20.0924 15.5473 20.1347 15.5881 20.1755L17.8642 22.4517C18.3655 22.9529 19.197 22.9995 19.7178 22.4404L20.339 21.8192C20.8919 21.3043 20.8489 20.4924 20.4004 19.9942ZM13.0146 17.2858C11.7964 17.2858 10.8217 16.3111 10.8217 15.093C10.8217 13.894 11.8002 12.9001 13.0146 12.9001C14.2098 12.9001 15.2075 13.8978 15.2075 15.093C15.2075 16.3073 14.2136 17.2858 13.0146 17.2858Z" fill="#FF9500" stroke="white" stroke-width="1.5"/>
</svg>
