<svg width="22" height="22" viewBox="0 0 22 22" fill="none" xmlns="http://www.w3.org/2000/svg">
<path d="M21.5815 10.7814C21.5815 4.89469 16.769 0.0821945 10.8823 0.125163C5.03857 0.125163 0.269043 4.89469 0.269043 10.7814C0.269042 13.4884 1.30029 16.0236 2.97607 17.9142C3.19092 18.1291 3.53467 18.1291 3.74951 17.9142L5.46826 16.1955C5.64014 16.0236 5.64014 15.7228 5.46826 15.508C4.3081 14.1759 3.70654 12.5431 3.70654 10.7814C3.70654 6.74235 6.9292 3.56266 10.8394 3.56266C14.9644 3.51969 18.144 6.87126 18.1011 10.8244C18.1011 12.6291 17.4136 14.3478 16.1675 15.6799L14.3628 13.8752C13.7183 13.2306 12.644 13.7033 12.644 14.6056L12.644 20.4064C12.644 20.965 13.0737 21.4377 13.6753 21.4377L19.4331 21.4377C20.3354 21.4377 20.8081 20.3205 20.1636 19.6759L18.6167 18.1291C20.4214 16.1955 21.5386 13.6174 21.5815 10.7814Z" fill="#485799"/>
</svg>
