<svg width="19" height="22" viewBox="0 0 19 22" fill="none" xmlns="http://www.w3.org/2000/svg">
<mask id="path-1-outside-1_2087_2149" maskUnits="userSpaceOnUse" x="0.109375" y="-0.17511" width="19" height="22" fill="black">
<rect fill="white" x="0.109375" y="-0.17511" width="19" height="22"/>
<path fill-rule="evenodd" clip-rule="evenodd" d="M3.25913 3.44314C3.92227 2.58757 4.95181 1.82489 6.39542 1.82489C7.83904 1.82489 8.86858 2.58757 9.53171 3.44314C9.62403 3.56225 9.71031 3.68431 9.79078 3.808C9.87125 3.68431 9.95753 3.56225 10.0499 3.44314C10.713 2.58757 11.7425 1.82489 13.1861 1.82489C14.6298 1.82489 15.6593 2.58757 16.3224 3.44314C16.9726 4.282 17.3231 5.26696 17.4553 5.93889C17.5502 6.4215 17.236 6.88969 16.7534 6.98462C16.2708 7.07956 15.8026 6.7653 15.7076 6.2827C15.6172 5.82286 15.361 5.11015 14.9146 4.53429C14.4812 3.97514 13.9244 3.60605 13.1861 3.60605C12.4478 3.60605 11.891 3.97514 11.4577 4.53429C11.0363 5.07792 10.7844 5.74352 10.6814 6.20319V7.33531H14.2791C14.9089 7.33531 15.3849 7.91631 15.1367 8.49516C14.5803 9.79278 13.5653 10.8471 12.2956 11.4542H16.1657C16.7955 11.4542 17.2711 12.0331 17.0535 12.6241C16.215 14.902 14.3354 16.6766 11.9916 17.3708L12.2637 18.9696C12.3677 19.5801 11.8972 20.1374 11.2779 20.1374H8.30363C7.6843 20.1374 7.21389 19.5801 7.31781 18.9696L7.58995 17.3708C5.24613 16.6766 3.36646 14.9021 2.52789 12.6241C2.31032 12.0331 2.78592 11.4542 3.41573 11.4542H7.28558C6.01586 10.8471 5.00087 9.79278 4.44449 8.49516C4.1963 7.91631 4.67232 7.33531 5.30213 7.33531H8.90017V6.20319C8.79719 5.74352 8.54527 5.07792 8.12391 4.53429C7.69052 3.97514 7.13372 3.60605 6.39542 3.60605C5.65712 3.60605 5.10032 3.97514 4.66693 4.53429C4.22059 5.11015 3.96438 5.82286 3.87392 6.2827C3.77899 6.7653 3.3108 7.07956 2.82819 6.98462C2.34559 6.88969 2.03133 6.4215 2.12627 5.93889C2.25845 5.26696 2.60895 4.282 3.25913 3.44314Z"/>
</mask>
<path fill-rule="evenodd" clip-rule="evenodd" d="M3.25913 3.44314C3.92227 2.58757 4.95181 1.82489 6.39542 1.82489C7.83904 1.82489 8.86858 2.58757 9.53171 3.44314C9.62403 3.56225 9.71031 3.68431 9.79078 3.808C9.87125 3.68431 9.95753 3.56225 10.0499 3.44314C10.713 2.58757 11.7425 1.82489 13.1861 1.82489C14.6298 1.82489 15.6593 2.58757 16.3224 3.44314C16.9726 4.282 17.3231 5.26696 17.4553 5.93889C17.5502 6.4215 17.236 6.88969 16.7534 6.98462C16.2708 7.07956 15.8026 6.7653 15.7076 6.2827C15.6172 5.82286 15.361 5.11015 14.9146 4.53429C14.4812 3.97514 13.9244 3.60605 13.1861 3.60605C12.4478 3.60605 11.891 3.97514 11.4577 4.53429C11.0363 5.07792 10.7844 5.74352 10.6814 6.20319V7.33531H14.2791C14.9089 7.33531 15.3849 7.91631 15.1367 8.49516C14.5803 9.79278 13.5653 10.8471 12.2956 11.4542H16.1657C16.7955 11.4542 17.2711 12.0331 17.0535 12.6241C16.215 14.902 14.3354 16.6766 11.9916 17.3708L12.2637 18.9696C12.3677 19.5801 11.8972 20.1374 11.2779 20.1374H8.30363C7.6843 20.1374 7.21389 19.5801 7.31781 18.9696L7.58995 17.3708C5.24613 16.6766 3.36646 14.9021 2.52789 12.6241C2.31032 12.0331 2.78592 11.4542 3.41573 11.4542H7.28558C6.01586 10.8471 5.00087 9.79278 4.44449 8.49516C4.1963 7.91631 4.67232 7.33531 5.30213 7.33531H8.90017V6.20319C8.79719 5.74352 8.54527 5.07792 8.12391 4.53429C7.69052 3.97514 7.13372 3.60605 6.39542 3.60605C5.65712 3.60605 5.10032 3.97514 4.66693 4.53429C4.22059 5.11015 3.96438 5.82286 3.87392 6.2827C3.77899 6.7653 3.3108 7.07956 2.82819 6.98462C2.34559 6.88969 2.03133 6.4215 2.12627 5.93889C2.25845 5.26696 2.60895 4.282 3.25913 3.44314Z" fill="#FF9500"/>
<path d="M3.25913 3.44314L4.44471 4.36206V4.36205L3.25913 3.44314ZM9.53171 3.44314L8.34613 4.36205L8.34613 4.36206L9.53171 3.44314ZM9.79078 3.808L8.53345 4.626L9.79078 6.55861L11.0481 4.626L9.79078 3.808ZM10.0499 3.44314L11.2354 4.36206L11.2354 4.36206L10.0499 3.44314ZM16.3224 3.44314L17.508 2.52422V2.52422L16.3224 3.44314ZM17.4553 5.93889L18.9271 5.64936V5.64936L17.4553 5.93889ZM15.7076 6.2827L14.2358 6.57223L14.2359 6.57223L15.7076 6.2827ZM14.9146 4.53429L16.1002 3.61538L16.1002 3.61538L14.9146 4.53429ZM11.4577 4.53429L10.2721 3.61538V3.61538L11.4577 4.53429ZM10.6814 6.20319L9.21768 5.87527L9.1814 6.03722V6.20319H10.6814ZM10.6814 7.33531H9.1814V8.83531H10.6814V7.33531ZM15.1367 8.49516L13.7581 7.90406L13.7581 7.90406L15.1367 8.49516ZM12.2956 11.4542L11.6485 10.101L12.2956 12.9542V11.4542ZM17.0535 12.6241L18.4612 13.1423V13.1423L17.0535 12.6241ZM11.9916 17.3708L11.5656 15.9325L10.2895 16.3105L10.5129 17.6225L11.9916 17.3708ZM12.2637 18.9696L10.785 19.2213H10.785L12.2637 18.9696ZM7.31781 18.9696L5.83908 18.7179L7.31781 18.9696ZM7.58995 17.3708L9.06868 17.6225L9.292 16.3105L8.01591 15.9325L7.58995 17.3708ZM2.52789 12.6241L1.12024 13.1423H1.12024L2.52789 12.6241ZM7.28558 11.4542V12.9542L7.93265 10.101L7.28558 11.4542ZM4.44449 8.49516L5.82311 7.90405L4.44449 8.49516ZM8.90017 7.33531V8.83531H10.4002V7.33531H8.90017ZM8.90017 6.20319H10.4002V6.03722L10.3639 5.87527L8.90017 6.20319ZM8.12391 4.53429L9.30949 3.61538L9.30949 3.61538L8.12391 4.53429ZM4.66693 4.53429L3.48135 3.61538H3.48135L4.66693 4.53429ZM3.87392 6.2827L2.40213 5.99316H2.40213L3.87392 6.2827ZM2.82819 6.98462L2.53866 8.45642L2.82819 6.98462ZM2.12627 5.93889L3.59806 6.22843L3.59806 6.22843L2.12627 5.93889ZM6.39542 0.32489C4.35583 0.32489 2.92859 1.42107 2.07356 2.52422L4.44471 4.36205C4.91594 3.75407 5.54778 3.32489 6.39542 3.32489V0.32489ZM10.7173 2.52422C9.86225 1.42107 8.43501 0.32489 6.39542 0.32489V3.32489C7.24306 3.32489 7.8749 3.75407 8.34613 4.36205L10.7173 2.52422ZM11.0481 2.99C10.9464 2.83367 10.8363 2.67778 10.7173 2.52422L8.34613 4.36206C8.41176 4.44672 8.47422 4.53495 8.53345 4.626L11.0481 2.99ZM8.86428 2.52422C8.74526 2.67778 8.63516 2.83367 8.53345 2.99L11.0481 4.626C11.1073 4.53495 11.1698 4.44672 11.2354 4.36206L8.86428 2.52422ZM13.1861 0.32489C11.1466 0.32489 9.71931 1.42107 8.86428 2.52422L11.2354 4.36206C11.7067 3.75407 12.3385 3.32489 13.1861 3.32489V0.32489ZM17.508 2.52422C16.653 1.42107 15.2257 0.32489 13.1861 0.32489V3.32489C14.0338 3.32489 14.6656 3.75407 15.1369 4.36206L17.508 2.52422ZM18.9271 5.64936C18.7598 4.79892 18.3299 3.58465 17.508 2.52422L15.1369 4.36206C15.6153 4.97935 15.8864 5.73499 15.9835 6.22843L18.9271 5.64936ZM17.0429 8.45642C18.3384 8.20157 19.1819 6.94481 18.9271 5.64936L15.9835 6.22843C15.9185 5.89818 16.1336 5.5778 16.4638 5.51283L17.0429 8.45642ZM14.2359 6.57223C14.4907 7.86768 15.7475 8.71126 17.0429 8.45642L16.4638 5.51283C16.7941 5.44787 17.1145 5.66292 17.1794 5.99316L14.2359 6.57223ZM13.7291 5.45321C14.0038 5.80769 14.1806 6.29117 14.2358 6.57223L17.1794 5.99316C17.0538 5.35454 16.7181 4.41261 16.1002 3.61538L13.7291 5.45321ZM13.1861 5.10605C13.2915 5.10605 13.3606 5.12887 13.4242 5.16495C13.4984 5.20705 13.6028 5.2903 13.7291 5.45321L16.1002 3.61538C15.4705 2.80289 14.5148 2.10605 13.1861 2.10605V5.10605ZM12.6432 5.45321C12.7695 5.2903 12.8739 5.20705 12.9481 5.16495C13.0116 5.12887 13.0808 5.10605 13.1861 5.10605V2.10605C11.8575 2.10605 10.9018 2.80289 10.2721 3.61538L12.6432 5.45321ZM12.1451 6.53111C12.2118 6.23366 12.3865 5.78443 12.6432 5.45321L10.2721 3.61538C9.68608 4.37142 9.35701 5.25337 9.21768 5.87527L12.1451 6.53111ZM12.1814 7.33531V6.20319H9.1814V7.33531H12.1814ZM14.2791 5.83531H10.6814V8.83531H14.2791V5.83531ZM16.5153 9.08627C16.8699 8.25944 16.6975 7.39897 16.2279 6.78595C15.7746 6.1943 15.0563 5.83531 14.2791 5.83531V8.83531C14.1317 8.83531 13.9663 8.76682 13.8464 8.61039C13.7102 8.43258 13.6518 8.15204 13.7581 7.90406L16.5153 9.08627ZM12.9427 12.8075C14.5397 12.0439 15.8152 10.7192 16.5153 9.08627L13.7581 7.90406C13.3455 8.86635 12.591 9.65033 11.6485 10.101L12.9427 12.8075ZM16.1657 9.95424H12.2956V12.9542H16.1657V9.95424ZM18.4612 13.1423C19.1023 11.4008 17.6496 9.95424 16.1657 9.95424V12.9542C16.0165 12.9542 15.8571 12.8843 15.7445 12.7398C15.6203 12.5806 15.5623 12.3331 15.6459 12.1059L18.4612 13.1423ZM12.4176 18.809C15.218 17.9796 17.4599 15.8622 18.4612 13.1423L15.6459 12.1059C14.97 13.9418 13.4527 15.3736 11.5656 15.9325L12.4176 18.809ZM13.7425 18.7179L13.4703 17.1191L10.5129 17.6225L10.785 19.2213L13.7425 18.7179ZM11.2779 21.6374C12.8262 21.6374 14.0023 20.2443 13.7425 18.7179L10.785 19.2213C10.733 18.916 10.9682 18.6374 11.2779 18.6374V21.6374ZM8.30363 21.6374H11.2779V18.6374H8.30363V21.6374ZM5.83908 18.7179C5.57927 20.2443 6.7553 21.6374 8.30363 21.6374V18.6374C8.6133 18.6374 8.84851 18.916 8.79654 19.2213L5.83908 18.7179ZM6.11122 17.1191L5.83908 18.7179L8.79654 19.2213L9.06868 17.6225L6.11122 17.1191ZM1.12024 13.1423C2.12152 15.8623 4.36352 17.9796 7.16398 18.809L8.01591 15.9325C6.12873 15.3736 4.61139 13.9419 3.93554 12.1059L1.12024 13.1423ZM3.41573 9.95424C1.93179 9.95424 0.479175 11.4008 1.12024 13.1423L3.93554 12.1059C4.01918 12.3331 3.96115 12.5806 3.83698 12.7398C3.72432 12.8843 3.56495 12.9542 3.41573 12.9542V9.95424ZM7.28558 9.95424H3.41573V12.9542H7.28558V9.95424ZM3.06587 9.08627C3.76602 10.7192 5.04155 12.0439 6.63851 12.8075L7.93265 10.101C6.99018 9.65033 6.23571 8.86635 5.82311 7.90405L3.06587 9.08627ZM5.30213 5.83531C4.52495 5.83531 3.80659 6.1943 3.35333 6.78594C2.88369 7.39897 2.71135 8.25944 3.06587 9.08627L5.82311 7.90405C5.92944 8.15204 5.87102 8.43258 5.73479 8.61039C5.61495 8.76682 5.44951 8.83531 5.30213 8.83531V5.83531ZM8.90017 5.83531H5.30213V8.83531H8.90017V5.83531ZM7.40017 6.20319V7.33531H10.4002V6.20319H7.40017ZM6.93834 5.45321C7.19506 5.78443 7.36982 6.23366 7.43645 6.53111L10.3639 5.87527C10.2246 5.25337 9.89548 4.37142 9.30949 3.61538L6.93834 5.45321ZM6.39542 5.10605C6.5008 5.10605 6.56993 5.12887 6.63348 5.16495C6.70764 5.20705 6.81207 5.2903 6.93834 5.45321L9.30949 3.61538C8.67974 2.80289 7.72406 2.10605 6.39542 2.10605V5.10605ZM5.85251 5.45321C5.97878 5.2903 6.0832 5.20705 6.15737 5.16495C6.22092 5.12887 6.29005 5.10605 6.39542 5.10605V2.10605C5.06679 2.10605 4.1111 2.80289 3.48135 3.61538L5.85251 5.45321ZM5.34572 6.57223C5.40101 6.29117 5.57776 5.80768 5.85251 5.45321L3.48135 3.61538C2.86343 4.41261 2.52776 5.35454 2.40213 5.99316L5.34572 6.57223ZM2.53866 8.45642C3.83411 8.71126 5.09087 7.86768 5.34572 6.57223L2.40213 5.99316C2.4671 5.66292 2.78748 5.44787 3.11773 5.51283L2.53866 8.45642ZM0.654474 5.64936C0.399631 6.94481 1.24321 8.20157 2.53866 8.45642L3.11773 5.51283C3.44797 5.5778 3.66302 5.89818 3.59806 6.22843L0.654474 5.64936ZM2.07356 2.52422C1.25164 3.58465 0.821773 4.79892 0.654474 5.64936L3.59806 6.22843C3.69513 5.73499 3.96626 4.97935 4.44471 4.36206L2.07356 2.52422Z" fill="white" mask="url(#path-1-outside-1_2087_2149)"/>
</svg>
