<svg width="38" height="52" viewBox="0 0 38 52" fill="none" xmlns="http://www.w3.org/2000/svg">
<path fill-rule="evenodd" clip-rule="evenodd" d="M37.9982 18.6463C37.9982 8.34865 29.6495 0 19.3519 0C9.05419 0 0.70459 8.34865 0.70459 18.6463C0.70459 32.6286 18.9694 51.7797 18.9694 51.7797C18.9694 51.7797 37.9982 32.7574 37.9982 18.6463Z" fill="#A6262C"/>
<path fill-rule="evenodd" clip-rule="evenodd" d="M31.1346 19.7178C31.1346 26.1859 25.8915 31.431 19.4195 31.431C12.9478 31.431 7.70459 26.1859 7.70459 19.7178C7.70459 13.246 12.9478 8 19.4195 8C25.8915 8 31.1346 13.246 31.1346 19.7178Z" fill="#A6262C"/>
<path fill-rule="evenodd" clip-rule="evenodd" d="M0.70459 18.2942C10.4622 18.2892 32.2507 18.2778 37.8448 18.2747C37.7457 17.1529 37.5472 16.0602 37.2587 15.004L1.29349 15C1.00236 16.0633 0.803214 17.164 0.70459 18.2942Z" fill="#A6262C"/>
<path fill-rule="evenodd" clip-rule="evenodd" d="M31.1337 19.7178C31.1337 26.1859 25.8905 31.431 19.4188 31.431C12.9468 31.431 7.70459 26.1859 7.70459 19.7178C7.70459 13.246 12.9468 8 19.4188 8C25.8905 8 31.1337 13.246 31.1337 19.7178Z" fill="#A6262C"/>
<path fill-rule="evenodd" clip-rule="evenodd" d="M10.7046 17.3942C10.7046 16.0725 12.0253 15 13.6548 15C15.2818 15 16.6016 16.0725 16.6016 17.3942" fill="#A6262C"/>
<path fill-rule="evenodd" clip-rule="evenodd" d="M21.7046 17.3942C21.7046 16.0725 23.0234 15 24.6524 15C26.2792 15 27.6016 16.0725 27.6016 17.3942" fill="#A6262C"/>
<path fill-rule="evenodd" clip-rule="evenodd" d="M11.7046 22C11.7046 22 13.0953 27.4321 19.5106 27.4321C25.9254 27.4321 27.6745 22 27.6745 22" fill="#A6262C"/>
<path fill-rule="evenodd" clip-rule="evenodd" d="M37.9982 18.6463C37.9982 8.34865 29.6495 0 19.3519 0C9.05419 0 0.70459 8.34865 0.70459 18.6463C0.70459 32.6286 18.9694 51.7797 18.9694 51.7797C18.9694 51.7797 37.9982 32.7574 37.9982 18.6463Z" fill="#485799"/>
<path fill-rule="evenodd" clip-rule="evenodd" d="M31.1346 19.7178C31.1346 26.1859 25.8915 31.431 19.4195 31.431C12.9478 31.431 7.70459 26.1859 7.70459 19.7178C7.70459 13.246 12.9478 8 19.4195 8C25.8915 8 31.1346 13.246 31.1346 19.7178Z" fill="#FFFFFE"/>
<path fill-rule="evenodd" clip-rule="evenodd" d="M0.70459 18.2942C10.4622 18.2892 32.2507 18.2778 37.8448 18.2747C37.7457 17.1529 37.5472 16.0602 37.2587 15.004L1.29349 15C1.00236 16.0633 0.803214 17.164 0.70459 18.2942Z" fill="#D7C684"/>
<path fill-rule="evenodd" clip-rule="evenodd" d="M31.1337 19.7178C31.1337 26.1859 25.8905 31.431 19.4188 31.431C12.9468 31.431 7.70459 26.1859 7.70459 19.7178C7.70459 13.246 12.9468 8 19.4188 8C25.8905 8 31.1337 13.246 31.1337 19.7178Z" fill="#FFFFFE"/>
<path d="M10.7046 17.3942C10.7046 16.0725 12.0253 15 13.6548 15C15.2818 15 16.6016 16.0725 16.6016 17.3942" stroke="#69C4A0" stroke-width="1.5" stroke-linecap="round" stroke-linejoin="round"/>
<path d="M21.7046 17.3942C21.7046 16.0725 23.0234 15 24.6524 15C26.2792 15 27.6016 16.0725 27.6016 17.3942" stroke="#69C4A0" stroke-width="1.5" stroke-linecap="round" stroke-linejoin="round"/>
<path d="M11.7046 22C11.7046 22 13.0953 27.4321 19.5106 27.4321C25.9254 27.4321 27.6745 22 27.6745 22" stroke="#485799" stroke-width="1.5" stroke-linecap="round" stroke-linejoin="round"/>
<path fill-rule="evenodd" clip-rule="evenodd" d="M30.5623 18.346C30.2854 16.1011 29.4161 14.0502 28.1212 12.369C25.946 10.6846 22.0909 10.0383 19.2104 10.0014C16.0677 9.96129 11.7657 10.8062 9.75056 12.8567C8.70837 14.3598 7.98956 16.1217 7.70459 18.0347C7.87291 18.7222 10.467 21.3045 13.0559 21.4564C16.1457 21.6378 18.0371 17.9117 19.2104 17.9136C20.3839 17.9117 22.2756 21.6378 25.3651 21.4564C27.6515 21.3222 29.9421 19.2924 30.5623 18.346Z" fill="#A6262C"/>
<path fill-rule="evenodd" clip-rule="evenodd" d="M29.807 17.1297C29.5512 15.481 28.8684 14.0076 27.6726 12.7729C25.6643 11.5356 21.9861 11.028 19.327 11.001C16.4257 10.9716 12.4537 11.5923 10.5931 13.0982C9.63132 14.2018 8.96751 15.4962 8.70459 16.9011C8.86011 17.4061 11.2551 19.3027 13.6448 19.4141C16.4975 19.5476 18.2436 16.8108 19.327 16.812C20.41 16.8108 22.1563 19.5476 25.0088 19.4141C27.1193 19.3157 29.2342 17.8248 29.807 17.1297Z" fill="#D7C684"/>
</svg>
