<svg width="22" height="19" viewBox="0 0 22 19" fill="none" xmlns="http://www.w3.org/2000/svg">
<path fill-rule="evenodd" clip-rule="evenodd" d="M21.1378 6.85798L11.6104 11.7536C11.3323 11.8968 11.0178 11.8968 10.7396 11.7536L1.21226 6.85798C0.535365 6.51006 0.535365 5.35092 1.21226 5.003L10.7401 0.107362C10.8545 0.0480936 11.0496 0 11.1754 0C11.3013 0 11.4964 0.0480936 11.6109 0.107362L21.1378 5.00346C21.8147 5.35138 21.8147 6.51006 21.1378 6.85798ZM21.1382 13.073L11.6104 17.9649C11.3323 18.1076 11.0178 18.1076 10.7396 17.9649L1.21226 13.073C0.535365 12.7255 0.535365 11.5673 1.21226 11.2198L3.58857 10L10.1993 13.3946C10.509 13.5535 10.837 13.6341 11.1752 13.6341C11.5135 13.6341 11.8419 13.5535 12.1511 13.3946L18.7623 10L21.1382 11.2198C21.8151 11.5673 21.8151 12.7255 21.1382 13.073Z" fill="#485799"/>
</svg>
