<svg width="25" height="25" viewBox="0 0 25 25" fill="none" xmlns="http://www.w3.org/2000/svg">
<path d="M12.2279 0.622986C5.53845 0.622986 0.11853 6.04291 0.11853 12.7324C0.11853 19.4218 5.53845 24.8417 12.2279 24.8417C18.9174 24.8417 24.3373 19.4218 24.3373 12.7324C24.3373 6.04291 18.9174 0.622986 12.2279 0.622986ZM20.9681 8.43549H17.6967C17.3549 6.67767 16.8177 5.11517 16.1342 3.84564C18.2338 4.77338 19.9427 6.3847 20.9681 8.43549ZM12.2279 2.96674C13.1068 2.96674 14.5717 5.01752 15.3041 8.43549H9.10291C9.83533 5.01752 11.3002 2.96674 12.2279 2.96674ZM2.46228 12.7324C2.46228 12.0976 2.51111 11.414 2.65759 10.7792H6.41736C6.36853 11.4628 6.36853 12.0976 6.36853 12.7324C6.36853 13.416 6.36853 14.0507 6.41736 14.6855H2.65759C2.51111 14.0995 2.46228 13.416 2.46228 12.7324ZM3.43884 17.0292H6.71033C7.05212 18.8359 7.58923 20.3984 8.27283 21.6679C6.17322 20.7402 4.46423 19.08 3.43884 17.0292ZM6.71033 8.43549H3.43884C4.46423 6.3847 6.17322 4.77338 8.27283 3.84564C7.58923 5.11517 7.05212 6.67767 6.71033 8.43549ZM12.2279 22.498C11.3002 22.498 9.83533 20.496 9.10291 17.0292H15.3041C14.5717 20.496 13.1068 22.498 12.2279 22.498ZM15.6459 14.6855H8.76111C8.71228 14.0995 8.71228 13.416 8.71228 12.7324C8.71228 12.0488 8.71228 11.414 8.76111 10.7792H15.6459C15.6947 11.414 15.7435 12.0488 15.7435 12.7324C15.7435 13.416 15.6947 14.0995 15.6459 14.6855ZM16.1342 21.6679C16.8177 20.3984 17.3549 18.8359 17.6967 17.0292H20.9681C19.9427 19.08 18.2338 20.7402 16.1342 21.6679ZM17.9896 14.6855C18.0385 14.0507 18.0873 13.416 18.0873 12.7324C18.0873 12.0976 18.0385 11.4628 17.9896 10.7792H21.7982C21.8959 11.414 21.9935 12.0976 21.9935 12.7324C21.9935 13.416 21.8959 14.0995 21.7982 14.6855H17.9896Z" fill="#485799"/>
</svg>
