<svg width="27" height="29" viewBox="0 0 27 29" fill="none" xmlns="http://www.w3.org/2000/svg">
<path d="M26.1972 14.4955C26.1918 14.3705 26.1397 14.2521 26.0512 14.1637C24.5854 12.6978 22.4548 11.6524 20.2182 10.9642C18.1384 10.3243 15.928 9.98125 13.9923 9.90708L13.3562 2.46402C13.3437 1.38713 12.449 0.5 11.3694 0.5C10.2864 0.5 9.38934 1.39291 9.38256 2.47455L8.74217 16.3711L6.92709 15.4881C5.67478 14.8623 4.53484 14.5589 3.56009 14.6981C2.54331 14.8434 1.78793 15.4577 1.32158 16.4632L1.25738 16.5916C1.15778 16.7908 1.20193 17.0318 1.36567 17.1828L10.7342 25.8205V27.6966C10.7342 27.9727 10.9581 28.1966 11.2342 28.1966H23.7377C24.0138 28.1966 24.2377 27.9727 24.2377 27.6966V25.1168C24.901 24.337 25.3892 23.1461 25.7204 21.7001C26.0774 20.1416 26.2653 18.227 26.2653 16.0717C26.2653 16.0689 26.2653 16.0661 26.2652 16.0633C26.2651 16.0589 26.265 16.0544 26.2648 16.05L26.1972 14.4955Z" fill="#3566A2" stroke="#3566A2" stroke-linejoin="round"/>
</svg>
