<svg width="38" height="52" viewBox="0 0 38 52" fill="none" xmlns="http://www.w3.org/2000/svg">
<path fill-rule="evenodd" clip-rule="evenodd" d="M19.3516 0C9.05419 0 0.70459 8.34889 0.70459 18.6466C0.70459 32.6286 18.9694 51.7797 18.9694 51.7797C18.9694 51.7797 37.9982 32.7574 37.9982 18.6466C37.9982 8.34889 29.6495 0 19.3516 0Z" fill="#AAAAAA"/>
<path fill-rule="evenodd" clip-rule="evenodd" d="M31.0668 19.6009C31.0668 26.069 25.8236 31.3141 19.3516 31.3141C12.8799 31.3141 7.63672 26.069 7.63672 19.6009C7.63672 13.1292 12.8799 7.88313 19.3516 7.88313C25.8236 7.88313 31.0668 13.1292 31.0668 19.6009Z" fill="#FFFFFE"/>
<path fill-rule="evenodd" clip-rule="evenodd" d="M31.1342 19.6009C31.1342 26.069 25.891 31.3141 19.4193 31.3141C12.9473 31.3141 7.70508 26.069 7.70508 19.6009C7.70508 13.1292 12.9473 7.88313 19.4193 7.88313C25.891 7.88313 31.1342 13.1292 31.1342 19.6009Z" fill="#FFFFFE"/>
<path d="M11.0801 17.8376C11.0801 16.5159 12.4008 15.4434 14.0303 15.4434C15.6573 15.4434 16.9771 16.5159 16.9771 17.8376" stroke="#1A5763" stroke-width="1.5" stroke-linecap="round" stroke-linejoin="round"/>
<path d="M21.8621 17.8376C21.8621 16.5159 23.1809 15.4434 24.8099 15.4434C26.4367 15.4434 27.7591 16.5159 27.7591 17.8376" stroke="#1A5763" stroke-width="1.5" stroke-linecap="round" stroke-linejoin="round"/>
<path fill-rule="evenodd" clip-rule="evenodd" d="M0.770996 17.0071C10.5286 17.0021 32.3171 16.9907 37.9112 16.9876C37.8121 15.8658 37.6139 14.7728 37.3249 13.7169L1.35989 13.7129C1.06876 14.7762 0.86962 15.8769 0.770996 17.0071Z" fill="#727272"/>
<path fill-rule="evenodd" clip-rule="evenodd" d="M31.0894 17.8068C30.8049 15.7182 30.0453 13.8519 28.7149 12.2877C26.4809 10.7206 22.3885 10.0774 19.4302 10.043C16.2022 10.0061 11.7836 10.7922 9.71364 12.6997C8.64348 14.098 7.90522 15.7376 7.61267 17.5171C7.7855 18.157 10.45 20.5593 13.1088 20.7008C16.2823 20.8696 18.2249 17.4028 19.4302 17.4045C20.6353 17.4028 22.5781 20.8696 25.7512 20.7008C28.0994 20.5759 30.4522 18.6873 31.0894 17.8068Z" fill="#727272"/>
<path fill-rule="evenodd" clip-rule="evenodd" d="M30.0318 17.1824C29.7752 15.5388 28.9711 14.0371 27.7729 12.8062C25.7599 11.5729 22.1926 11.0997 19.5274 11.0727C16.6191 11.0433 12.6382 11.6621 10.7733 13.1633C9.80912 14.2638 9.14388 15.5539 8.88025 16.9543C9.03577 17.4579 11.4364 19.3486 13.8321 19.4598C16.6912 19.5925 18.4416 16.8645 19.5274 16.8659C20.6132 16.8645 22.3633 19.5925 25.2224 19.4598C27.3381 19.3614 29.4578 17.8754 30.0318 17.1824Z" fill="#AAAAAA"/>
<path fill-rule="evenodd" clip-rule="evenodd" d="M26.7678 22.5527C26.7678 22.5527 25.6644 29.227 19.4182 29.227C12.9301 29.227 12.0713 22.5527 12.0713 22.5527H26.7678Z" fill="#AAAAAA"/>
</svg>
