<svg width="15" height="14" viewBox="0 0 15 14" fill="none" xmlns="http://www.w3.org/2000/svg">
<path d="M2.01738 14.0003C9.02008 14.0003 14.7048 8.32645 14.7048 1.3128C14.7048 1.00654 14.4943 0.741305 14.1963 0.672945L11.3525 0.0166969C11.0435 -0.054386 10.7263 0.106952 10.6006 0.396785L9.28807 3.45928C9.17322 3.72724 9.24978 4.04169 9.47673 4.2249L11.1338 5.58114C10.1494 7.6784 8.42947 9.42292 6.28847 10.4264L4.9322 8.76943C4.74627 8.54248 4.43457 8.4659 4.16658 8.58074L1.10409 9.89324C0.811531 10.0218 0.650193 10.3389 0.721276 10.6479L1.37752 13.4917C1.44588 13.787 1.7084 14.0003 2.01738 14.0003Z" fill="#485799"/>
</svg>
