<svg width="22" height="17" viewBox="0 0 22 17" fill="none" xmlns="http://www.w3.org/2000/svg">
<mask id="path-1-outside-1_2087_2156" maskUnits="userSpaceOnUse" x="3.18384" y="4.19989" width="15" height="13" fill="black">
<rect fill="white" x="3.18384" y="4.19989" width="15" height="13"/>
<path fill-rule="evenodd" clip-rule="evenodd" d="M5.18384 6.19989V14.0635C5.18384 14.5661 5.59769 15.0095 6.12978 15.0095L15.5892 15.0095C16.0918 15.0095 16.5352 14.5661 16.5352 14.0635V6.19989H13.5882C13.2484 7.18722 12.155 7.91488 10.8595 7.91488C9.53954 7.91488 8.46212 7.18722 8.12868 6.19989H5.18384ZM6.60276 11.6987V13.5906H8.49465C8.49465 12.5264 7.63739 11.6987 6.60276 11.6987ZM15.1163 11.6987C14.0521 11.6987 13.2244 12.5264 13.2244 13.5906H15.1163V11.6987Z"/>
</mask>
<path fill-rule="evenodd" clip-rule="evenodd" d="M5.18384 6.19989V14.0635C5.18384 14.5661 5.59769 15.0095 6.12978 15.0095L15.5892 15.0095C16.0918 15.0095 16.5352 14.5661 16.5352 14.0635V6.19989H13.5882C13.2484 7.18722 12.155 7.91488 10.8595 7.91488C9.53954 7.91488 8.46212 7.18722 8.12868 6.19989H5.18384ZM6.60276 11.6987V13.5906H8.49465C8.49465 12.5264 7.63739 11.6987 6.60276 11.6987ZM15.1163 11.6987C14.0521 11.6987 13.2244 12.5264 13.2244 13.5906H15.1163V11.6987Z" fill="#FF9500"/>
<path d="M5.18384 6.19989V4.69989H3.68384V6.19989H5.18384ZM6.12978 15.0095L6.12978 13.5095H6.12978V15.0095ZM15.5892 15.0095V16.5095V15.0095ZM16.5352 6.19989H18.0352V4.69989H16.5352V6.19989ZM13.5882 6.19989V4.69989H12.518L12.1698 5.71186L13.5882 6.19989ZM8.12868 6.19989L9.54982 5.71994L9.20532 4.69989H8.12868V6.19989ZM6.60276 13.5906H5.10276V15.0906H6.60276V13.5906ZM6.60276 11.6987V10.1987H5.10276V11.6987H6.60276ZM8.49465 13.5906V15.0906H9.99465V13.5906H8.49465ZM13.2244 13.5906H11.7244V15.0906H13.2244V13.5906ZM15.1163 11.6987H16.6163V10.1987H15.1163V11.6987ZM15.1163 13.5906V15.0906H16.6163V13.5906H15.1163ZM3.68384 6.19989V14.0635H6.68384V6.19989H3.68384ZM3.68384 14.0635C3.68384 15.3639 4.73902 16.5095 6.12978 16.5095V13.5095C6.45636 13.5095 6.68384 13.7682 6.68384 14.0635H3.68384ZM6.12978 16.5095L15.5892 16.5095V13.5095L6.12978 13.5095L6.12978 16.5095ZM15.5892 16.5095C16.9202 16.5095 18.0352 15.3945 18.0352 14.0635H15.0352C15.0352 13.8704 15.1171 13.7372 15.19 13.6643C15.2629 13.5914 15.3962 13.5095 15.5892 13.5095V16.5095ZM18.0352 14.0635V6.19989H15.0352V14.0635H18.0352ZM16.5352 4.69989H13.5882V7.69989H16.5352V4.69989ZM12.1698 5.71186C12.0777 5.97942 11.6445 6.41488 10.8595 6.41488V9.41488C12.6656 9.41488 14.4192 8.39501 15.0065 6.68792L12.1698 5.71186ZM10.8595 6.41488C10.0498 6.41488 9.63774 5.98027 9.54982 5.71994L6.70753 6.67984C7.2865 8.39416 9.02929 9.41488 10.8595 9.41488V6.41488ZM8.12868 4.69989H5.18384V7.69989H8.12868V4.69989ZM8.10276 13.5906V11.6987H5.10276V13.5906H8.10276ZM8.49465 12.0906H6.60276V15.0906H8.49465V12.0906ZM6.60276 13.1987C6.82429 13.1987 6.99465 13.37 6.99465 13.5906H9.99465C9.99465 11.6827 8.45048 10.1987 6.60276 10.1987V13.1987ZM14.7244 13.5906C14.7244 13.4571 14.7727 13.3654 14.8319 13.3062C14.8911 13.247 14.9828 13.1987 15.1163 13.1987V10.1987C13.2237 10.1987 11.7244 11.6979 11.7244 13.5906H14.7244ZM15.1163 12.0906H13.2244V15.0906H15.1163V12.0906ZM13.6163 11.6987V13.5906H16.6163V11.6987H13.6163Z" fill="white" mask="url(#path-1-outside-1_2087_2156)"/>
<path d="M3.52829 1.07489C2.33043 1.07489 1.35938 2.04595 1.35938 3.24381C1.35938 4.44167 2.33043 5.41273 3.52829 5.41273H18.1905C19.3883 5.41273 20.3594 4.44167 20.3594 3.24381C20.3594 2.04595 19.3883 1.07489 18.1905 1.07489H3.52829Z" fill="#FF9500" stroke="white" stroke-width="1.5" stroke-linecap="round"/>
</svg>
