<svg width="33" height="20" viewBox="0 0 33 20" fill="none" xmlns="http://www.w3.org/2000/svg">
<path d="M7.46422 14.1602H5.93688V6.0918H7.46422C8.16149 6.0918 8.52672 5.22852 8.02867 4.73047L5.14 1.875C4.84117 1.54297 4.34313 1.54297 4.0443 1.875L1.15563 4.73047C0.657579 5.22852 1.02281 6.0918 1.72008 6.0918H3.28063V14.1602H1.72008C1.02281 14.1602 0.657579 15.0234 1.15563 15.5215L4.0443 18.377C4.34313 18.709 4.84117 18.709 5.14 18.377L8.02867 15.5215C8.52672 15.0234 8.16149 14.1602 7.46422 14.1602Z" fill="#485799"/>
<path d="M31.593 16.3177H12.8586V1.07812C12.8586 0.78125 12.6008 0.484375 12.343 0.484375H10.6243C10.3235 0.484375 10.1086 0.78125 10.1086 1.07812V18.8906C10.1086 19.237 10.3235 19.4844 10.6243 19.4844H31.593C31.8508 19.4844 32.1086 19.237 32.1086 18.8906V16.9115C32.1086 16.6146 31.8508 16.3177 31.593 16.3177ZM26.093 5.23438L22.4836 8.00521L18.7883 2.41406C18.5735 2.06771 18.1438 2.06771 17.929 2.46354L14.2336 9.58854V14.7344H30.7336L26.8665 5.48177C26.6946 5.13542 26.3508 5.03646 26.093 5.23438Z" fill="#485799"/>
</svg>
