<svg width="18" height="23" viewBox="0 0 18 23" fill="none" xmlns="http://www.w3.org/2000/svg">
<path d="M5.55507 17.4038C6.1931 18.3091 6.92362 19.3457 7.75785 20.5455C8.38283 21.4977 9.79948 21.4977 10.4244 20.5455C11.3199 19.2577 12.097 18.1578 12.7691 17.2065C14.0732 15.3606 14.9823 14.074 15.5943 13.0581C16.0678 12.2721 16.3914 11.605 16.5917 10.926C16.7936 10.2416 16.8594 9.58213 16.8594 8.82477C16.8594 4.54597 13.3882 1.07477 9.10938 1.07477C4.79157 1.07477 1.35938 4.54852 1.35938 8.82477C1.35938 9.58014 1.42244 10.2385 1.6202 10.9222C1.81657 11.601 2.13523 12.2683 2.60455 13.0553C3.23274 14.1086 4.17868 15.4508 5.55507 17.4038ZM9.10938 10.9914C7.88296 10.9914 6.94271 10.0512 6.94271 8.82477C6.94271 7.62868 7.88907 6.6581 9.10938 6.6581C10.2993 6.6581 11.276 7.63481 11.276 8.82477C11.276 10.0451 10.3055 10.9914 9.10938 10.9914Z" fill="#FF9C88" stroke="white" stroke-width="1.5"/>
</svg>
