<svg width="18" height="23" viewBox="0 0 18 23" fill="none" xmlns="http://www.w3.org/2000/svg">
<path d="M5.55507 17.4039C6.1931 18.3093 6.92362 19.3458 7.75785 20.5457C8.38283 21.4978 9.79948 21.4978 10.4244 20.5457C11.3199 19.2578 12.097 18.1579 12.7691 17.2066C14.0732 15.3608 14.9823 14.0741 15.5943 13.0583C16.0678 12.2722 16.3914 11.6051 16.5917 10.9261C16.7936 10.2417 16.8594 9.58225 16.8594 8.82489C16.8594 4.54609 13.3882 1.07489 9.10938 1.07489C4.79157 1.07489 1.35938 4.54864 1.35938 8.82489C1.35938 9.58027 1.42244 10.2387 1.6202 10.9223C1.81657 11.6012 2.13523 12.2685 2.60455 13.0554C3.23274 14.1087 4.17868 15.451 5.55507 17.4039ZM9.10938 10.9916C7.88296 10.9916 6.94271 10.0513 6.94271 8.82489C6.94271 7.6288 7.88907 6.65822 9.10938 6.65822C10.2993 6.65822 11.276 7.63494 11.276 8.82489C11.276 10.0452 10.3055 10.9916 9.10938 10.9916Z" fill="#419B77" stroke="white" stroke-width="1.5"/>
</svg>
