<svg width="21" height="20" viewBox="0 0 21 20" fill="none" xmlns="http://www.w3.org/2000/svg">
<path fill-rule="evenodd" clip-rule="evenodd" d="M12.7457 0C12.216 0 11.688 0.17933 11.2821 0.532776C10.4705 1.23972 10.4705 2.37506 11.2821 3.08201L13.1561 4.71405H2.77983C1.63193 4.71405 0.70459 5.51496 0.70459 6.5147V17.6153C0.70459 18.6151 1.63193 19.4227 2.77983 19.4227C3.92774 19.4227 4.84734 18.6151 4.84734 17.6153V8.32209H13.1483L11.2821 9.94739C10.4705 10.6543 10.4705 11.7964 11.2821 12.5034C12.0938 13.2103 13.3975 13.2103 14.2092 12.5034L19.6218 7.78932C20.5929 6.78083 20.1775 5.75327 19.6218 5.24009L14.2092 0.532776C13.8033 0.17933 13.2753 0 12.7457 0Z" fill="black"/>
</svg>
