<svg width="38" height="52" viewBox="0 0 38 52" fill="none" xmlns="http://www.w3.org/2000/svg">
<path fill-rule="evenodd" clip-rule="evenodd" d="M19.3516 0C9.05419 0 0.70459 8.34889 0.70459 18.6466C0.70459 32.6286 18.9694 51.7797 18.9694 51.7797C18.9694 51.7797 37.9982 32.7574 37.9982 18.6466C37.9982 8.34889 29.6495 0 19.3516 0Z" fill="#1A5763"/>
<path fill-rule="evenodd" clip-rule="evenodd" d="M31.1346 19.7178C31.1346 26.1859 25.8915 31.431 19.4195 31.431C12.9478 31.431 7.70459 26.1859 7.70459 19.7178C7.70459 13.246 12.9478 8 19.4195 8C25.8915 8 31.1346 13.246 31.1346 19.7178Z" fill="#FFFFFE"/>
<path fill-rule="evenodd" clip-rule="evenodd" d="M31.1337 19.7178C31.1337 26.1859 25.8905 31.431 19.4188 31.431C12.9468 31.431 7.70459 26.1859 7.70459 19.7178C7.70459 13.246 12.9468 8 19.4188 8C25.8905 8 31.1337 13.246 31.1337 19.7178Z" fill="#FFFFFE"/>
<path d="M10.7046 17.3942C10.7046 16.0725 12.0253 15 13.6548 15C15.2818 15 16.6016 16.0725 16.6016 17.3942" stroke="#1A5763" stroke-width="1.5" stroke-linecap="round" stroke-linejoin="round"/>
<path d="M21.7046 17.3942C21.7046 16.0725 23.0234 15 24.6524 15C26.2792 15 27.6016 16.0725 27.6016 17.3942" stroke="#1A5763" stroke-width="1.5" stroke-linecap="round" stroke-linejoin="round"/>
<path d="M11.7046 22C11.7046 22 13.0953 27.4321 19.5106 27.4321C25.9254 27.4321 27.6745 22 27.6745 22" stroke="#1A5763" stroke-width="1.5" stroke-linecap="round" stroke-linejoin="round"/>
<path fill-rule="evenodd" clip-rule="evenodd" d="M0.70459 17.2942C10.4622 17.2892 32.2507 17.2778 37.8448 17.2747C37.7457 16.1529 37.5475 15.06 37.2585 14.004L1.29349 14C1.00236 15.0633 0.803214 16.164 0.70459 17.2942Z" fill="#B55B2F"/>
<path fill-rule="evenodd" clip-rule="evenodd" d="M31.1813 17.765C30.8968 15.6764 30.1373 13.8101 28.8068 12.2459C26.5728 10.6788 22.4804 10.0356 19.5221 10.0012C16.2941 9.96426 11.8755 10.7504 9.80556 12.6579C8.7354 14.0562 7.99714 15.6958 7.70459 17.4753C7.87742 18.1152 10.5419 20.5175 13.2007 20.659C16.3742 20.8278 18.3169 17.3611 19.5221 17.3627C20.7272 17.3611 22.6701 20.8278 25.8431 20.659C28.1913 20.5341 30.5441 18.6455 31.1813 17.765Z" fill="#CDB442"/>
<path fill-rule="evenodd" clip-rule="evenodd" d="M29.8561 17.1107C29.5996 15.467 28.7954 13.9654 27.5972 12.7345C25.5842 11.5012 22.0169 11.028 19.3517 11.001C16.4435 10.9716 12.4625 11.5904 10.5976 13.0915C9.63346 14.192 8.96822 15.4822 8.70459 16.8826C8.86011 17.3862 11.2608 19.2769 13.6564 19.3881C16.5156 19.5208 18.2659 16.7928 19.3517 16.7942C20.4375 16.7928 22.1876 19.5208 25.0468 19.3881C27.1624 19.2897 29.2821 17.8037 29.8561 17.1107Z" fill="#B55B2F"/>
</svg>
