<svg width="20" height="18" viewBox="0 0 20 18" fill="none" xmlns="http://www.w3.org/2000/svg">
<path d="M2.42753 1.71942H2.38623L2.10938 2.82655H1.35938V2.82807V3.18145C1.35938 3.78265 1.86533 4.28859 2.46651 4.28859H2.78807V4.93154H2.46651C1.86531 4.93154 1.35938 5.43749 1.35938 6.03867V12.1105C1.35938 12.7117 1.86534 13.2176 2.46651 13.2176H2.78807V13.8605H2.46651C1.86531 13.8605 1.35938 14.3665 1.35938 14.9677V15.3271C1.35938 15.9283 1.86534 16.4342 2.46651 16.4342H17.4674C18.0686 16.4342 18.5745 15.9283 18.5745 15.3271V14.9677C18.5745 14.3665 18.0686 13.8605 17.4674 13.8605H17.1459V13.2176H17.4674C18.0686 13.2176 18.5745 12.7116 18.5745 12.1105V6.03867C18.5745 5.43747 18.0686 4.93154 17.4674 4.93154H17.1459V4.28859H17.4674C18.0686 4.28859 18.5745 3.78263 18.5745 3.18145V2.82655C18.5745 2.22535 18.0686 1.71942 17.4674 1.71942H2.42753Z" fill="#A13A3D" stroke="white" stroke-width="1.5"/>
</svg>
