<svg width="20" height="20" viewBox="0 0 20 20" fill="none" xmlns="http://www.w3.org/2000/svg">
<path d="M18.2848 13.5331L18.2849 13.5331L18.2802 13.5238C17.9581 12.8797 17.1829 12.6714 16.5865 12.9696L16.1457 13.19L14.6699 10.0857C14.5306 9.75735 14.2767 9.51468 14.0306 9.35862C13.8868 9.26744 13.7207 9.18982 13.542 9.13948C13.7159 8.94147 13.8594 8.66016 13.8594 8.32794V7.32794C13.8594 6.60271 13.2432 6.07794 12.6094 6.07794H9.64781C10.3758 5.57295 10.8537 4.72669 10.8281 3.75406C10.8221 2.28935 9.65818 1.1264 8.23478 1.07857C6.65225 0.997911 5.35938 2.24526 5.35938 3.79669C5.35938 3.80187 5.35925 3.80782 5.3591 3.8148C5.35831 3.85142 5.35692 3.91611 5.37029 4.04378C5.38268 4.16201 5.41014 4.36945 5.4682 4.78362C5.51628 5.1266 5.58665 5.62037 5.68947 6.33813L5.26833 6.50658C2.95911 7.43027 1.35938 9.67028 1.35938 12.2967C1.35938 15.7734 4.13266 18.5467 7.60938 18.5467C10.0247 18.5467 12.1369 17.1503 13.1841 15.1143L13.7431 16.3033L13.747 16.3115L13.7511 16.3196C14.174 17.1655 15.2065 17.571 16.101 17.1238L18.1635 16.0925C18.7822 15.7832 19.0265 15.0549 18.7205 14.4356L18.2848 13.5331ZM6.20526 9.93244C6.2558 10.2846 6.30936 10.6578 6.36614 11.0536C6.48433 11.9671 7.27797 12.5467 8.10938 12.5467H10.3226L10.3029 12.702C10.1326 14.0401 8.98795 15.0467 7.60938 15.0467C6.08609 15.0467 4.85938 13.82 4.85938 12.2967C4.85938 11.3073 5.3808 10.4327 6.20526 9.93244Z" fill="#FF9500" stroke="white" stroke-width="1.5"/>
</svg>
