<svg width="21" height="21" viewBox="0 0 21 21" fill="none" xmlns="http://www.w3.org/2000/svg">
<path d="M10.6618 7.5847V6.94665C10.9549 7.04271 11.2664 7.13889 11.5855 7.21825V7.90138C11.5051 7.87461 11.4242 7.84712 11.3426 7.81907C11.2672 7.79316 11.1905 7.76652 11.1127 7.7395C10.9658 7.68844 10.815 7.63604 10.6618 7.5847ZM9.16181 8.72783V9.5253C8.8706 9.49965 8.55711 9.48868 8.20491 9.49688V9.48224V8.65206C8.53198 8.64321 8.84219 8.66911 9.16181 8.72783ZM5.92685 6.77615C6.23823 6.65963 6.48457 6.56744 6.70491 6.49684V7.34364C6.40446 7.41198 6.09987 7.49872 5.78121 7.60219V6.83061C5.83133 6.8119 5.87983 6.79375 5.92685 6.77615ZM15.5424 8.0216V7.19445C15.875 7.11838 16.1948 7.02545 16.4993 6.92443V7.66663C16.1699 7.80171 15.8576 7.92322 15.5424 8.0216ZM13.0855 9.77449C13.3966 9.80607 13.715 9.81853 14.0424 9.8046V10.6376C13.719 10.646 13.4122 10.6194 13.0855 10.5591V9.77449ZM10.6618 12.0853V11.3881C10.7423 11.4148 10.8231 11.4423 10.9047 11.4704C10.9801 11.4963 11.0568 11.5229 11.1346 11.55C11.2815 11.601 11.4324 11.6534 11.5855 11.7048V12.3576C11.2895 12.2634 10.9796 12.1683 10.6618 12.0853ZM16.4993 12.3851C16.1609 12.5713 15.8471 12.7094 15.5424 12.8051V11.9553C15.8612 11.8862 16.1822 11.7933 16.4993 11.673V12.3851ZM7.95293 3.2007C7.44513 3.2007 6.9732 3.25617 6.52826 3.34675C6.37799 2.07009 5.29187 1.16367 4.08861 1.07772L4.07362 1.07665L4.0586 1.07618C2.56785 1.0296 1.3595 2.2376 1.3595 3.68509C1.3595 4.41036 1.64753 5.08837 2.15633 5.5702V18.0281C2.15633 18.9071 2.82413 19.5749 3.70316 19.5749H4.23438C5.05957 19.5749 5.78121 18.9274 5.78121 18.0281V15.4166C6.55049 15.138 7.50448 14.9267 8.81616 14.9267C9.53829 14.9267 10.2039 15.1499 11.0572 15.436C11.0896 15.4469 11.1223 15.4579 11.1552 15.4689C12.0278 15.7611 13.05 16.0888 14.2944 16.0888C16.0838 16.0888 17.5226 15.4493 18.7942 14.6015L18.8115 14.59L18.8281 14.5775C19.2922 14.2294 19.5598 13.6701 19.5598 13.0811V5.02747C19.6069 3.64282 18.1443 2.87923 17.0203 3.36095L17.0082 3.36611L16.9964 3.37169C15.8884 3.89308 14.6193 4.36275 13.4311 4.36275C12.7287 4.36275 12.0682 4.14226 11.2151 3.85743C11.1782 3.84514 11.1411 3.83273 11.1035 3.82021C10.2266 3.52791 9.19664 3.2007 7.95293 3.2007ZM5.78121 11.3973C6.10497 11.2949 6.40392 11.2132 6.70491 11.1522V11.9964C6.3928 12.0476 6.08517 12.1102 5.78121 12.1878V11.3973Z" fill="#FF9500" stroke="white" stroke-width="1.5" stroke-linecap="round"/>
</svg>
