<svg width="23" height="23" viewBox="0 0 23 23" fill="none" xmlns="http://www.w3.org/2000/svg">
<path d="M11.2767 11.5857L10.4375 12.217L9.30527 10.1261L9.30532 10.1261L9.30095 10.1183C8.65721 8.96332 7.22363 8.47536 5.98022 9.04803L5.2263 9.38976C5.22603 9.38989 5.22575 9.39001 5.22548 9.39013C4.62719 9.66005 4.16099 10.1524 3.9526 10.7808C3.72981 11.3986 3.804 12.0657 4.07721 12.622L4.0805 12.6287L4.08392 12.6354L6.17136 16.6762C6.17148 16.6764 6.1716 16.6766 6.17172 16.6769C6.49534 17.3059 7.11085 17.7933 7.84917 17.9463C8.5415 18.0898 9.29933 17.9694 9.89855 17.5186L12.5974 15.4884L15.3081 18.829C15.9877 19.6666 17.2445 19.8204 18.1063 19.1722C18.9681 18.5239 19.1171 17.3125 18.4375 16.475L14.823 12.0206L14.8179 12.0144L14.8128 12.0083C13.9499 10.9899 12.3751 10.7595 11.2767 11.5857Z" fill="#419B77" stroke="white" stroke-width="1.5"/>
<path d="M7.52848 6.11683C6.61426 4.69825 4.68881 4.25416 3.2279 5.1248C1.76699 5.99544 1.3237 7.85119 2.23793 9.26976C3.15215 10.6883 5.0776 11.1324 6.53851 10.2618C7.99942 9.39115 8.44271 7.5354 7.52848 6.11683Z" fill="#419B77" stroke="white" stroke-width="1.5"/>
<path d="M7.30466 1.63682C6.70739 0.961884 5.67198 0.886788 4.97955 1.45599C4.271 2.03844 4.18027 3.08176 4.79197 3.77299C8.50739 7.97154 13.4079 10.9175 19.4371 12.6228C20.2933 12.865 21.2248 12.4003 21.4919 11.523C21.7628 10.6334 21.2257 9.73568 20.3596 9.49069C14.9003 7.94655 10.5678 5.32427 7.30466 1.63682Z" fill="#419B77" stroke="white" stroke-width="1.5"/>
</svg>
