<svg width="15" height="20" viewBox="0 0 15 20" fill="none" xmlns="http://www.w3.org/2000/svg">
<path d="M5.25501 2.36595V2.70974C4.75976 2.86429 4.30419 3.13703 3.93048 3.51076C3.39683 4.0444 3.06891 4.74509 2.99738 5.48955C2.51399 5.67615 2.17097 6.14533 2.17097 6.69443V8.04708C2.17097 8.38708 2.30248 8.69644 2.5174 8.92704C1.86699 8.99366 1.35938 9.54336 1.35938 10.2113V12.9166C1.35938 13.6295 1.93755 14.2077 2.65044 14.2077H2.98256V14.6182C2.36898 14.7181 1.90044 15.2507 1.90044 15.8925V17.5156C1.90044 18.2285 2.47861 18.8067 3.1915 18.8067H11.8485C12.5613 18.8067 13.1395 18.2285 13.1395 17.5156V15.8925C13.1395 15.2507 12.671 14.7181 12.0574 14.6182V14.2077H12.3895C13.1024 14.2077 13.6806 13.6295 13.6806 12.9166V10.2113C13.6806 9.54336 13.173 8.99366 12.5226 8.92704C12.7375 8.69644 12.869 8.38708 12.869 8.04708V6.69443C12.869 6.14533 12.526 5.67615 12.0426 5.48955C11.9711 4.7451 11.6431 4.0444 11.1095 3.51074C10.7358 3.13704 10.2802 2.8643 9.78495 2.70975V2.36595C9.78495 1.65307 9.20677 1.07489 8.49389 1.07489H6.54607C5.83318 1.07489 5.25501 1.65307 5.25501 2.36595ZM6.37627 11.564C6.37627 10.933 6.88889 10.4203 7.51998 10.4203C8.15106 10.4203 8.66369 10.933 8.66369 11.564C8.66369 12.1951 8.15106 12.7078 7.51998 12.7078C6.88889 12.7078 6.37627 12.1951 6.37627 11.564Z" fill="#E43D48" stroke="white" stroke-width="1.5"/>
</svg>
