<svg width="23" height="20" viewBox="0 0 23 20" fill="none" xmlns="http://www.w3.org/2000/svg">
<path d="M21.5686 5.15255L21.5686 5.15253L21.5646 5.14614L19.5334 1.89614L19.5275 1.88679L19.5214 1.87761C19.2108 1.41169 18.6756 1.07489 18.0536 1.07489H5.42862C4.83122 1.07489 4.25457 1.39012 3.92958 1.87761L3.92202 1.88896L3.91487 1.90057L1.91678 5.14747C0.854504 6.83885 1.38323 9.1222 2.99112 10.096V10.6999V16.8249C2.99112 17.8016 3.7644 18.5749 4.74112 18.5749H18.7411C19.6713 18.5749 20.4911 17.8167 20.4911 16.8249V10.6999V10.0771C22.0754 9.09331 22.5937 6.82996 21.5686 5.15255ZM6.49112 10.7311V10.1884C6.7129 10.0803 6.92191 9.95175 7.11612 9.80582C7.75203 10.2837 8.54656 10.5749 9.42862 10.5749C10.2901 10.5749 11.079 10.2818 11.7121 9.80443C12.3573 10.2844 13.1655 10.5749 14.0224 10.5749C14.9044 10.5749 15.699 10.2837 16.3349 9.80582C16.5382 9.95859 16.7577 10.0923 16.9911 10.2035V10.7311V13.0749H6.49112V10.7311Z" fill="#3676C5" stroke="white" stroke-width="1.5"/>
</svg>
