<svg width="25" height="22" viewBox="0 0 25 22" fill="none" xmlns="http://www.w3.org/2000/svg">
<path d="M1.48505 21.4079H6.73268C7.16648 21.4079 7.51314 21.0899 7.51314 20.6927V6.86164C7.51314 6.46408 7.16616 6.14639 6.73268 6.14639L1.48505 6.14611C1.05125 6.14611 0.70459 6.4641 0.70459 6.86136V20.7321C0.704288 21.09 1.05127 21.408 1.48505 21.408V21.4079ZM2.26551 7.53715H5.95191V19.9771H2.26551V7.53715ZM23.5156 21.4079C23.9494 21.4079 24.2961 21.0899 24.2961 20.6927L24.2964 10.5181C24.2964 10.1206 23.9494 9.80286 23.5159 9.80286H18.2683C17.8345 9.80286 17.4878 10.1209 17.4878 10.5181V20.6927C17.4878 21.0902 17.8348 21.4079 18.2683 21.4079H23.5156ZM22.7352 19.9771H21.5642L22.7352 18.9039V19.9771ZM22.7352 17.7911L20.3499 19.9771H19.1356L22.7351 16.6783L22.7352 17.7911ZM19.0488 11.2334H20.2198L19.0488 12.3066V11.2334ZM19.0488 13.4192L21.4341 11.2332H22.6483L19.0488 14.5319L19.0488 13.4192ZM19.0488 15.6448L22.7352 12.2664V13.3398L19.0488 16.7182V15.6448ZM19.0488 17.8707L22.7352 14.4923V15.6051L19.0488 18.9835V17.8707ZM9.11759 20.6924V1.21767C9.11759 0.820112 9.46457 0.502413 9.89805 0.502413L15.1024 0.502136C15.5362 0.502136 15.8829 0.820126 15.8829 1.21739V20.6921C15.8829 21.0896 15.5359 21.4073 15.1024 21.4073L9.89805 21.4079C9.46455 21.4079 9.11759 21.0899 9.11759 20.6924V20.6924Z" fill="#078C8D"/>
</svg>
