<svg width="24" height="20" viewBox="0 0 24 20" fill="none" xmlns="http://www.w3.org/2000/svg">
<mask id="path-1-outside-1_2888_2391" maskUnits="userSpaceOnUse" x="0.311035" y="-0.17511" width="24" height="20" fill="black">
<rect fill="white" x="0.311035" y="-0.17511" width="24" height="20"/>
<path fill-rule="evenodd" clip-rule="evenodd" d="M16.311 17.8249H22.1096V17.1999C22.1096 17.0124 21.9221 16.8249 21.7346 16.8249H21.1096V10.5749C21.1096 10.1686 20.7659 9.82489 20.3596 9.82489H15.311V2.57489C15.311 2.16864 14.9673 1.82489 14.561 1.82489H4.06104C3.62354 1.82489 3.31104 2.16864 3.31104 2.57489V16.8249H2.68604C2.46729 16.8249 2.31104 17.0124 2.31104 17.1999V17.8249H12.1096H13.6096H15.1096H16.311ZM6.68604 3.82489C6.46729 3.82489 6.31104 4.01239 6.31104 4.19989V5.44989C6.31104 5.66864 6.46729 5.82489 6.68604 5.82489H7.93604C8.12354 5.82489 8.31104 5.66864 8.31104 5.44989V4.19989C8.31104 4.01239 8.12354 3.82489 7.93604 3.82489H6.68604ZM6.68604 6.82489C6.46729 6.82489 6.31104 7.01239 6.31104 7.19989V8.44989C6.31104 8.66864 6.46729 8.82489 6.68604 8.82489H7.93604C8.12354 8.82489 8.31104 8.66864 8.31104 8.44989V7.19989C8.31104 7.01239 8.12354 6.82489 7.93604 6.82489H6.68604ZM6.68604 11.8249H7.93604C8.12354 11.8249 8.31104 11.6686 8.31104 11.4499V10.1999C8.31104 10.0124 8.12354 9.82489 7.93604 9.82489H6.68604C6.46729 9.82489 6.31104 10.0124 6.31104 10.1999V11.4499C6.31104 11.6686 6.46729 11.8249 6.68604 11.8249ZM8.31104 16.8249H10.311V14.1999C10.311 14.0124 10.1235 13.8249 9.93604 13.8249H8.68604C8.46729 13.8249 8.31104 14.0124 8.31104 14.1999V16.8249ZM11.936 11.8249C12.1235 11.8249 12.311 11.6686 12.311 11.4499V10.1999C12.311 10.0124 12.1235 9.82489 11.936 9.82489H10.686C10.4673 9.82489 10.311 10.0124 10.311 10.1999V11.4499C10.311 11.6686 10.4673 11.8249 10.686 11.8249H11.936ZM11.936 8.82489C12.1235 8.82489 12.311 8.66864 12.311 8.44989V7.19989C12.311 7.01239 12.1235 6.82489 11.936 6.82489H10.686C10.4673 6.82489 10.311 7.01239 10.311 7.19989V8.44989C10.311 8.66864 10.4673 8.82489 10.686 8.82489H11.936ZM11.936 5.82489C12.1235 5.82489 12.311 5.66864 12.311 5.44989V4.19989C12.311 4.01239 12.1235 3.82489 11.936 3.82489H10.686C10.4673 3.82489 10.311 4.01239 10.311 4.19989V5.44989C10.311 5.66864 10.4673 5.82489 10.686 5.82489H11.936ZM17.7346 16.8249C17.9221 16.8249 18.1096 16.6686 18.1096 16.4499V15.1999C18.1096 15.0124 17.9221 14.8249 17.7346 14.8249H16.4846C16.2659 14.8249 16.1096 15.0124 16.1096 15.1999V16.4499C16.1096 16.6686 16.2659 16.8249 16.4846 16.8249H17.7346ZM17.7346 13.8249C17.9221 13.8249 18.1096 13.6686 18.1096 13.4499V12.1999C18.1096 12.0124 17.9221 11.8249 17.7346 11.8249H16.4846C16.2659 11.8249 16.1096 12.0124 16.1096 12.1999V13.4499C16.1096 13.6686 16.2659 13.8249 16.4846 13.8249H17.7346Z"/>
</mask>
<path fill-rule="evenodd" clip-rule="evenodd" d="M16.311 17.8249H22.1096V17.1999C22.1096 17.0124 21.9221 16.8249 21.7346 16.8249H21.1096V10.5749C21.1096 10.1686 20.7659 9.82489 20.3596 9.82489H15.311V2.57489C15.311 2.16864 14.9673 1.82489 14.561 1.82489H4.06104C3.62354 1.82489 3.31104 2.16864 3.31104 2.57489V16.8249H2.68604C2.46729 16.8249 2.31104 17.0124 2.31104 17.1999V17.8249H12.1096H13.6096H15.1096H16.311ZM6.68604 3.82489C6.46729 3.82489 6.31104 4.01239 6.31104 4.19989V5.44989C6.31104 5.66864 6.46729 5.82489 6.68604 5.82489H7.93604C8.12354 5.82489 8.31104 5.66864 8.31104 5.44989V4.19989C8.31104 4.01239 8.12354 3.82489 7.93604 3.82489H6.68604ZM6.68604 6.82489C6.46729 6.82489 6.31104 7.01239 6.31104 7.19989V8.44989C6.31104 8.66864 6.46729 8.82489 6.68604 8.82489H7.93604C8.12354 8.82489 8.31104 8.66864 8.31104 8.44989V7.19989C8.31104 7.01239 8.12354 6.82489 7.93604 6.82489H6.68604ZM6.68604 11.8249H7.93604C8.12354 11.8249 8.31104 11.6686 8.31104 11.4499V10.1999C8.31104 10.0124 8.12354 9.82489 7.93604 9.82489H6.68604C6.46729 9.82489 6.31104 10.0124 6.31104 10.1999V11.4499C6.31104 11.6686 6.46729 11.8249 6.68604 11.8249ZM8.31104 16.8249H10.311V14.1999C10.311 14.0124 10.1235 13.8249 9.93604 13.8249H8.68604C8.46729 13.8249 8.31104 14.0124 8.31104 14.1999V16.8249ZM11.936 11.8249C12.1235 11.8249 12.311 11.6686 12.311 11.4499V10.1999C12.311 10.0124 12.1235 9.82489 11.936 9.82489H10.686C10.4673 9.82489 10.311 10.0124 10.311 10.1999V11.4499C10.311 11.6686 10.4673 11.8249 10.686 11.8249H11.936ZM11.936 8.82489C12.1235 8.82489 12.311 8.66864 12.311 8.44989V7.19989C12.311 7.01239 12.1235 6.82489 11.936 6.82489H10.686C10.4673 6.82489 10.311 7.01239 10.311 7.19989V8.44989C10.311 8.66864 10.4673 8.82489 10.686 8.82489H11.936ZM11.936 5.82489C12.1235 5.82489 12.311 5.66864 12.311 5.44989V4.19989C12.311 4.01239 12.1235 3.82489 11.936 3.82489H10.686C10.4673 3.82489 10.311 4.01239 10.311 4.19989V5.44989C10.311 5.66864 10.4673 5.82489 10.686 5.82489H11.936ZM17.7346 16.8249C17.9221 16.8249 18.1096 16.6686 18.1096 16.4499V15.1999C18.1096 15.0124 17.9221 14.8249 17.7346 14.8249H16.4846C16.2659 14.8249 16.1096 15.0124 16.1096 15.1999V16.4499C16.1096 16.6686 16.2659 16.8249 16.4846 16.8249H17.7346ZM17.7346 13.8249C17.9221 13.8249 18.1096 13.6686 18.1096 13.4499V12.1999C18.1096 12.0124 17.9221 11.8249 17.7346 11.8249H16.4846C16.2659 11.8249 16.1096 12.0124 16.1096 12.1999V13.4499C16.1096 13.6686 16.2659 13.8249 16.4846 13.8249H17.7346Z" fill="#FF9500"/>
<path d="M22.1096 17.8249V19.3249H23.6096V17.8249H22.1096ZM21.1096 16.8249H19.6096V18.3249H21.1096V16.8249ZM15.311 9.82489H13.811V11.3249H15.311V9.82489ZM3.31104 16.8249V18.3249H4.81104V16.8249H3.31104ZM2.31104 17.8249H0.811035V19.3249H2.31104V17.8249ZM10.311 16.8249V18.3249H11.811V16.8249H10.311ZM8.31104 16.8249H6.81104V18.3249H8.31104V16.8249ZM16.311 19.3249H22.1096V16.3249H16.311V19.3249ZM23.6096 17.8249V17.1999H20.6096V17.8249H23.6096ZM23.6096 17.1999C23.6096 16.6183 23.3339 16.1622 23.0531 15.8814C22.7723 15.6006 22.3162 15.3249 21.7346 15.3249V18.3249C21.3405 18.3249 21.072 18.1429 20.9318 18.0027C20.7916 17.8625 20.6096 17.594 20.6096 17.1999H23.6096ZM21.7346 15.3249H21.1096V18.3249H21.7346V15.3249ZM22.6096 16.8249V10.5749H19.6096V16.8249H22.6096ZM22.6096 10.5749C22.6096 9.34021 21.5943 8.32489 20.3596 8.32489V11.3249C20.1334 11.3249 19.9478 11.2297 19.8263 11.1082C19.7048 10.9867 19.6096 10.8011 19.6096 10.5749H22.6096ZM20.3596 8.32489H15.311V11.3249H20.3596V8.32489ZM16.811 9.82489V2.57489H13.811V9.82489H16.811ZM16.811 2.57489C16.811 1.34021 15.7957 0.32489 14.561 0.32489V3.32489C14.3348 3.32489 14.1492 3.22969 14.0277 3.10821C13.9062 2.98672 13.811 2.80111 13.811 2.57489H16.811ZM14.561 0.32489H4.06104V3.32489H14.561V0.32489ZM4.06104 0.32489C2.75442 0.32489 1.81104 1.3815 1.81104 2.57489H4.81104C4.81104 2.95578 4.49265 3.32489 4.06104 3.32489V0.32489ZM1.81104 2.57489V16.8249H4.81104V2.57489H1.81104ZM3.31104 15.3249H2.68604V18.3249H3.31104V15.3249ZM2.68604 15.3249C1.55923 15.3249 0.811035 16.2659 0.811035 17.1999H3.81104C3.81104 17.7589 3.37534 18.3249 2.68604 18.3249V15.3249ZM0.811035 17.1999V17.8249H3.81104V17.1999H0.811035ZM2.31104 19.3249H12.1096V16.3249H2.31104V19.3249ZM12.1096 19.3249H13.6096V16.3249H12.1096V19.3249ZM13.6096 19.3249H15.1096V16.3249H13.6096V19.3249ZM15.1096 19.3249H16.311V16.3249H15.1096V19.3249ZM7.81104 4.19989C7.81104 4.75888 7.37534 5.32489 6.68604 5.32489V2.32489C5.55923 2.32489 4.81104 3.2659 4.81104 4.19989H7.81104ZM7.81104 5.44989V4.19989H4.81104V5.44989H7.81104ZM6.68604 4.32489C6.94356 4.32489 7.24113 4.42272 7.47716 4.65876C7.7132 4.8948 7.81104 5.19237 7.81104 5.44989H4.81104C4.81104 6.49707 5.63886 7.32489 6.68604 7.32489V4.32489ZM7.93604 4.32489H6.68604V7.32489H7.93604V4.32489ZM6.81104 5.44989C6.81104 4.76059 7.37704 4.32489 7.93604 4.32489V7.32489C8.87003 7.32489 9.81104 6.57669 9.81104 5.44989H6.81104ZM6.81104 4.19989V5.44989H9.81104V4.19989H6.81104ZM7.93604 5.32489C7.54194 5.32489 7.27339 5.14294 7.13319 5.00274C6.99298 4.86253 6.81104 4.59399 6.81104 4.19989H9.81104C9.81104 3.61829 9.53534 3.16225 9.25451 2.88142C8.97368 2.60059 8.51763 2.32489 7.93604 2.32489V5.32489ZM6.68604 5.32489H7.93604V2.32489H6.68604V5.32489ZM7.81104 7.19989C7.81104 7.75888 7.37534 8.32489 6.68604 8.32489V5.32489C5.55923 5.32489 4.81104 6.2659 4.81104 7.19989H7.81104ZM7.81104 8.44989V7.19989H4.81104V8.44989H7.81104ZM6.68604 7.32489C6.94356 7.32489 7.24113 7.42272 7.47716 7.65876C7.7132 7.8948 7.81104 8.19237 7.81104 8.44989H4.81104C4.81104 9.49707 5.63886 10.3249 6.68604 10.3249V7.32489ZM7.93604 7.32489H6.68604V10.3249H7.93604V7.32489ZM6.81104 8.44989C6.81104 7.76059 7.37704 7.32489 7.93604 7.32489V10.3249C8.87003 10.3249 9.81104 9.57669 9.81104 8.44989H6.81104ZM6.81104 7.19989V8.44989H9.81104V7.19989H6.81104ZM7.93604 8.32489C7.54194 8.32489 7.27339 8.14294 7.13319 8.00274C6.99298 7.86253 6.81104 7.59399 6.81104 7.19989H9.81104C9.81104 6.61829 9.53534 6.16225 9.25451 5.88142C8.97368 5.60059 8.51763 5.32489 7.93604 5.32489V8.32489ZM6.68604 8.32489H7.93604V5.32489H6.68604V8.32489ZM7.93604 10.3249H6.68604V13.3249H7.93604V10.3249ZM6.81104 11.4499C6.81104 10.7606 7.37704 10.3249 7.93604 10.3249V13.3249C8.87003 13.3249 9.81104 12.5767 9.81104 11.4499H6.81104ZM6.81104 10.1999V11.4499H9.81104V10.1999H6.81104ZM7.93604 11.3249C7.54194 11.3249 7.27339 11.1429 7.13319 11.0027C6.99298 10.8625 6.81104 10.594 6.81104 10.1999H9.81104C9.81104 9.61829 9.53534 9.16225 9.25451 8.88142C8.97368 8.60059 8.51763 8.32489 7.93604 8.32489V11.3249ZM6.68604 11.3249H7.93604V8.32489H6.68604V11.3249ZM7.81104 10.1999C7.81104 10.7589 7.37534 11.3249 6.68604 11.3249V8.32489C5.55923 8.32489 4.81104 9.2659 4.81104 10.1999H7.81104ZM7.81104 11.4499V10.1999H4.81104V11.4499H7.81104ZM6.68604 10.3249C6.94356 10.3249 7.24113 10.4227 7.47716 10.6588C7.7132 10.8948 7.81104 11.1924 7.81104 11.4499H4.81104C4.81104 12.4971 5.63886 13.3249 6.68604 13.3249V10.3249ZM10.311 15.3249H8.31104V18.3249H10.311V15.3249ZM8.81104 14.1999V16.8249H11.811V14.1999H8.81104ZM9.93604 15.3249C9.54194 15.3249 9.27339 15.1429 9.13319 15.0027C8.99298 14.8625 8.81104 14.594 8.81104 14.1999H11.811C11.811 13.6183 11.5353 13.1622 11.2545 12.8814C10.9737 12.6006 10.5176 12.3249 9.93604 12.3249V15.3249ZM8.68604 15.3249H9.93604V12.3249H8.68604V15.3249ZM9.81104 14.1999C9.81104 14.7589 9.37534 15.3249 8.68604 15.3249V12.3249C7.55923 12.3249 6.81104 13.2659 6.81104 14.1999H9.81104ZM9.81104 16.8249V14.1999H6.81104V16.8249H9.81104ZM10.811 11.4499C10.811 10.7606 11.377 10.3249 11.936 10.3249V13.3249C12.87 13.3249 13.811 12.5767 13.811 11.4499H10.811ZM10.811 10.1999V11.4499H13.811V10.1999H10.811ZM11.936 11.3249C11.5419 11.3249 11.2734 11.1429 11.1332 11.0027C10.993 10.8625 10.811 10.594 10.811 10.1999H13.811C13.811 9.61829 13.5353 9.16225 13.2545 8.88142C12.9737 8.60059 12.5176 8.32489 11.936 8.32489V11.3249ZM10.686 11.3249H11.936V8.32489H10.686V11.3249ZM11.811 10.1999C11.811 10.7589 11.3753 11.3249 10.686 11.3249V8.32489C9.55923 8.32489 8.81104 9.2659 8.81104 10.1999H11.811ZM11.811 11.4499V10.1999H8.81104V11.4499H11.811ZM10.686 10.3249C10.9436 10.3249 11.2411 10.4227 11.4772 10.6588C11.7132 10.8948 11.811 11.1924 11.811 11.4499H8.81104C8.81104 12.4971 9.63886 13.3249 10.686 13.3249V10.3249ZM11.936 10.3249H10.686V13.3249H11.936V10.3249ZM10.811 8.44989C10.811 7.76059 11.377 7.32489 11.936 7.32489V10.3249C12.87 10.3249 13.811 9.57669 13.811 8.44989H10.811ZM10.811 7.19989V8.44989H13.811V7.19989H10.811ZM11.936 8.32489C11.5419 8.32489 11.2734 8.14294 11.1332 8.00274C10.993 7.86253 10.811 7.59399 10.811 7.19989H13.811C13.811 6.61829 13.5353 6.16225 13.2545 5.88142C12.9737 5.60059 12.5176 5.32489 11.936 5.32489V8.32489ZM10.686 8.32489H11.936V5.32489H10.686V8.32489ZM11.811 7.19989C11.811 7.75888 11.3753 8.32489 10.686 8.32489V5.32489C9.55923 5.32489 8.81104 6.2659 8.81104 7.19989H11.811ZM11.811 8.44989V7.19989H8.81104V8.44989H11.811ZM10.686 7.32489C10.9436 7.32489 11.2411 7.42272 11.4772 7.65876C11.7132 7.8948 11.811 8.19237 11.811 8.44989H8.81104C8.81104 9.49707 9.63886 10.3249 10.686 10.3249V7.32489ZM11.936 7.32489H10.686V10.3249H11.936V7.32489ZM10.811 5.44989C10.811 4.76059 11.377 4.32489 11.936 4.32489V7.32489C12.87 7.32489 13.811 6.57669 13.811 5.44989H10.811ZM10.811 4.19989V5.44989H13.811V4.19989H10.811ZM11.936 5.32489C11.5419 5.32489 11.2734 5.14294 11.1332 5.00274C10.993 4.86253 10.811 4.59399 10.811 4.19989H13.811C13.811 3.61829 13.5353 3.16225 13.2545 2.88142C12.9737 2.60059 12.5176 2.32489 11.936 2.32489V5.32489ZM10.686 5.32489H11.936V2.32489H10.686V5.32489ZM11.811 4.19989C11.811 4.75888 11.3753 5.32489 10.686 5.32489V2.32489C9.55923 2.32489 8.81104 3.2659 8.81104 4.19989H11.811ZM11.811 5.44989V4.19989H8.81104V5.44989H11.811ZM10.686 4.32489C10.9436 4.32489 11.2411 4.42272 11.4772 4.65876C11.7132 4.8948 11.811 5.19237 11.811 5.44989H8.81104C8.81104 6.49707 9.63886 7.32489 10.686 7.32489V4.32489ZM11.936 4.32489H10.686V7.32489H11.936V4.32489ZM16.6096 16.4499C16.6096 15.7606 17.1756 15.3249 17.7346 15.3249V18.3249C18.6686 18.3249 19.6096 17.5767 19.6096 16.4499H16.6096ZM16.6096 15.1999V16.4499H19.6096V15.1999H16.6096ZM17.7346 16.3249C17.3405 16.3249 17.072 16.1429 16.9318 16.0027C16.7916 15.8625 16.6096 15.594 16.6096 15.1999H19.6096C19.6096 14.6183 19.3339 14.1622 19.0531 13.8814C18.7723 13.6006 18.3162 13.3249 17.7346 13.3249V16.3249ZM16.4846 16.3249H17.7346V13.3249H16.4846V16.3249ZM17.6096 15.1999C17.6096 15.7589 17.1739 16.3249 16.4846 16.3249V13.3249C15.3578 13.3249 14.6096 14.2659 14.6096 15.1999H17.6096ZM17.6096 16.4499V15.1999H14.6096V16.4499H17.6096ZM16.4846 15.3249C16.7421 15.3249 17.0397 15.4227 17.2757 15.6588C17.5118 15.8948 17.6096 16.1924 17.6096 16.4499H14.6096C14.6096 17.4971 15.4374 18.3249 16.4846 18.3249V15.3249ZM17.7346 15.3249H16.4846V18.3249H17.7346V15.3249ZM16.6096 13.4499C16.6096 12.7606 17.1756 12.3249 17.7346 12.3249V15.3249C18.6686 15.3249 19.6096 14.5767 19.6096 13.4499H16.6096ZM16.6096 12.1999V13.4499H19.6096V12.1999H16.6096ZM17.7346 13.3249C17.3405 13.3249 17.072 13.1429 16.9318 13.0027C16.7916 12.8625 16.6096 12.594 16.6096 12.1999H19.6096C19.6096 11.6183 19.3339 11.1622 19.0531 10.8814C18.7723 10.6006 18.3162 10.3249 17.7346 10.3249V13.3249ZM16.4846 13.3249H17.7346V10.3249H16.4846V13.3249ZM17.6096 12.1999C17.6096 12.7589 17.1739 13.3249 16.4846 13.3249V10.3249C15.3578 10.3249 14.6096 11.2659 14.6096 12.1999H17.6096ZM17.6096 13.4499V12.1999H14.6096V13.4499H17.6096ZM16.4846 12.3249C16.7421 12.3249 17.0397 12.4227 17.2757 12.6588C17.5118 12.8948 17.6096 13.1924 17.6096 13.4499H14.6096C14.6096 14.4971 15.4374 15.3249 16.4846 15.3249V12.3249ZM17.7346 12.3249H16.4846V15.3249H17.7346V12.3249Z" fill="white" mask="url(#path-1-outside-1_2888_2391)"/>
</svg>
