<svg width="24" height="25" viewBox="0 0 24 25" fill="none" xmlns="http://www.w3.org/2000/svg">
<path d="M23.2017 15.7698L21.1021 14.5979C21.3463 13.4261 21.3463 12.303 21.1021 11.1311L23.2017 9.95925C23.4459 9.81277 23.5435 9.5198 23.4459 9.27566C22.9088 7.51785 21.981 5.95535 20.8092 4.63699C20.6138 4.44167 20.3209 4.39285 20.0767 4.53933L17.9771 5.71121C17.0982 4.97878 16.1217 4.39285 15.0474 4.00222V1.60964C15.0474 1.3655 14.8521 1.12136 14.5592 1.07253C12.7525 0.633081 10.9459 0.681909 9.23689 1.07253C8.94392 1.12136 8.79743 1.3655 8.79743 1.60964V4.00222C7.67439 4.39285 6.69782 4.97878 5.81892 5.76003L3.71931 4.53933C3.47517 4.39285 3.1822 4.44167 2.98689 4.63699C1.81501 5.95535 0.887276 7.51785 0.350166 9.27566C0.25251 9.5198 0.350166 9.81277 0.594307 9.95925L2.69392 11.1311C2.4986 12.303 2.4986 13.4261 2.69392 14.5979L0.594307 15.7698C0.350166 15.9163 0.25251 16.2093 0.350166 16.4534C0.887276 18.2112 1.81501 19.7737 2.98689 21.0921C3.1822 21.2874 3.47517 21.3362 3.71931 21.1897L5.81892 20.0178C6.69782 20.7503 7.67439 21.3362 8.79743 21.7268V24.1194C8.79743 24.3636 8.99274 24.6077 9.23689 24.7053C11.0435 25.096 12.8502 25.0471 14.5592 24.7053C14.8521 24.6077 15.0474 24.3636 15.0474 24.1194V21.7268C16.1217 21.3362 17.0982 20.7503 17.9771 20.0178L20.0767 21.1897C20.3209 21.3362 20.6138 21.2874 20.8092 21.0921C22.0299 19.7737 22.9088 18.2112 23.4947 16.4534C23.5435 16.2093 23.4459 15.9163 23.2017 15.7698ZM11.9224 16.7464C9.72517 16.7464 8.01618 15.0374 8.01618 12.8401C8.01618 10.6917 9.72517 8.93386 11.9224 8.93386C14.0709 8.93386 15.8287 10.6917 15.8287 12.8401C15.8287 15.0374 14.0709 16.7464 11.9224 16.7464Z" fill="black"/>
</svg>
