<svg width="20" height="20" viewBox="0 0 20 20" fill="none" xmlns="http://www.w3.org/2000/svg">
<path d="M6.85938 17.6984V14.9484H7.10938H17.1094H17.8594V14.1984V7.19843V6.92146C18.3959 6.80561 18.8594 6.32741 18.8594 5.69843V4.69843C18.8594 4.3295 18.6825 4.02335 18.4835 3.82435C18.2844 3.62534 17.9783 3.44843 17.6094 3.44843H6.85938V2.69843C6.85938 2.3295 6.68246 2.02335 6.48346 1.82435C6.28445 1.62534 5.9783 1.44843 5.60938 1.44843H4.60938C3.88415 1.44843 3.35938 2.06461 3.35938 2.69843V3.44843H2.60938C1.88415 3.44843 1.35938 4.06461 1.35938 4.69843V5.69843C1.35938 6.39389 1.91391 6.94843 2.60938 6.94843H3.35938V17.6984C3.35938 18.3939 3.91391 18.9484 4.60938 18.9484H5.60938C6.24319 18.9484 6.85938 18.4237 6.85938 17.6984Z" fill="#FF9C88" stroke="white" stroke-width="1.5"/>
</svg>
