<svg width="16" height="20" viewBox="0 0 16 20" fill="none" xmlns="http://www.w3.org/2000/svg">
<path d="M5.13293 4.07489C5.13293 4.18372 5.13865 4.29114 5.14979 4.39688L4.35816 3.61435C3.69106 2.90801 2.55405 2.9055 1.88362 3.60682C1.18169 4.27782 1.1848 5.4162 1.89295 6.08306L4.63293 8.82305V16.8249C4.63293 17.8016 5.40622 18.5749 6.38293 18.5749H6.88293C7.35798 18.5749 7.80424 18.3771 8.12721 18.0515C8.44365 18.3756 8.88707 18.5749 9.38293 18.5749H9.88293C10.8131 18.5749 11.6329 17.8167 11.6329 16.8249V8.82073L14.3433 6.0815C15.0498 5.41443 15.0524 4.2773 14.351 3.60682C13.6806 2.9055 12.5436 2.908 11.8765 3.61435L11.1192 4.36291C11.1283 4.26819 11.1329 4.17212 11.1329 4.07489C11.1329 2.44193 9.7659 1.07489 8.13293 1.07489C6.46197 1.07489 5.13293 2.44871 5.13293 4.07489Z" fill="#FF9500" stroke="white" stroke-width="1.5" stroke-linecap="round"/>
</svg>
