<svg width="21" height="17" viewBox="0 0 21 17" fill="none" xmlns="http://www.w3.org/2000/svg">
<mask id="path-1-outside-1_2889_2406" maskUnits="userSpaceOnUse" x="3.03271" y="4.56177" width="15" height="13" fill="black">
<rect fill="white" x="3.03271" y="4.56177" width="15" height="13"/>
<path fill-rule="evenodd" clip-rule="evenodd" d="M5.03271 6.56177V14.4254C5.03271 14.9279 5.44657 15.3714 5.97866 15.3714L15.4381 15.3714C15.9407 15.3714 16.3841 14.9279 16.3841 14.4254V6.56177H13.437C13.0973 7.5491 12.0039 8.27676 10.7084 8.27676C9.38842 8.27676 8.311 7.5491 7.97755 6.56177H5.03271ZM6.45163 12.0605V13.9524H8.34353C8.34353 12.8882 7.48626 12.0605 6.45163 12.0605ZM14.9651 12.0605C13.901 12.0605 13.0733 12.8882 13.0733 13.9524H14.9651V12.0605Z"/>
</mask>
<path fill-rule="evenodd" clip-rule="evenodd" d="M5.03271 6.56177V14.4254C5.03271 14.9279 5.44657 15.3714 5.97866 15.3714L15.4381 15.3714C15.9407 15.3714 16.3841 14.9279 16.3841 14.4254V6.56177H13.437C13.0973 7.5491 12.0039 8.27676 10.7084 8.27676C9.38842 8.27676 8.311 7.5491 7.97755 6.56177H5.03271ZM6.45163 12.0605V13.9524H8.34353C8.34353 12.8882 7.48626 12.0605 6.45163 12.0605ZM14.9651 12.0605C13.901 12.0605 13.0733 12.8882 13.0733 13.9524H14.9651V12.0605Z" fill="#FF9C88"/>
<path d="M5.03271 6.56177V5.06177H3.53271V6.56177H5.03271ZM5.97866 15.3714L5.97866 13.8714H5.97866V15.3714ZM15.4381 15.3714V16.8714V15.3714ZM16.3841 6.56177H17.8841V5.06177H16.3841V6.56177ZM13.437 6.56177V5.06177H12.3668L12.0186 6.07374L13.437 6.56177ZM7.97755 6.56177L9.39869 6.08181L9.0542 5.06177H7.97755V6.56177ZM6.45163 13.9524H4.95163V15.4524H6.45163V13.9524ZM6.45163 12.0605V10.5605H4.95163V12.0605H6.45163ZM8.34353 13.9524V15.4524H9.84353V13.9524H8.34353ZM13.0733 13.9524H11.5733V15.4524H13.0733V13.9524ZM14.9651 12.0605H16.4651V10.5605H14.9651V12.0605ZM14.9651 13.9524V15.4524H16.4651V13.9524H14.9651ZM3.53271 6.56177V14.4254H6.53271V6.56177H3.53271ZM3.53271 14.4254C3.53271 15.7258 4.58789 16.8714 5.97866 16.8714V13.8714C6.30524 13.8714 6.53271 14.1301 6.53271 14.4254H3.53271ZM5.97866 16.8714L15.4381 16.8714V13.8714L5.97866 13.8714L5.97866 16.8714ZM15.4381 16.8714C16.7691 16.8714 17.8841 15.7564 17.8841 14.4254H14.8841C14.8841 14.2323 14.966 14.0991 15.0389 14.0262C15.1118 13.9532 15.245 13.8714 15.4381 13.8714V16.8714ZM17.8841 14.4254V6.56177H14.8841V14.4254H17.8841ZM16.3841 5.06177H13.437V8.06177H16.3841V5.06177ZM12.0186 6.07374C11.9266 6.3413 11.4934 6.77676 10.7084 6.77676V9.77676C12.5144 9.77676 14.2681 8.75689 14.8554 7.04979L12.0186 6.07374ZM10.7084 6.77676C9.89866 6.77676 9.48662 6.34215 9.39869 6.08181L6.55641 7.04172C7.13538 8.75604 8.87817 9.77676 10.7084 9.77676V6.77676ZM7.97755 5.06177H5.03271V8.06177H7.97755V5.06177ZM7.95163 13.9524V12.0605H4.95163V13.9524H7.95163ZM8.34353 12.4524H6.45163V15.4524H8.34353V12.4524ZM6.45163 13.5605C6.67316 13.5605 6.84353 13.7319 6.84353 13.9524H9.84353C9.84353 12.0446 8.29936 10.5605 6.45163 10.5605V13.5605ZM14.5733 13.9524C14.5733 13.8189 14.6216 13.7273 14.6808 13.6681C14.74 13.6089 14.8317 13.5605 14.9651 13.5605V10.5605C13.0725 10.5605 11.5733 12.0598 11.5733 13.9524H14.5733ZM14.9651 12.4524H13.0733V15.4524H14.9651V12.4524ZM13.4651 12.0605V13.9524H16.4651V12.0605H13.4651Z" fill="white" mask="url(#path-1-outside-1_2889_2406)"/>
<path d="M3.37717 1.43677C2.17931 1.43677 1.20825 2.40783 1.20825 3.60569C1.20825 4.80355 2.17931 5.77461 3.37717 5.77461H18.0393C19.2372 5.77461 20.2083 4.80355 20.2083 3.60569C20.2083 2.40783 19.2372 1.43677 18.0393 1.43677H3.37717Z" fill="#FF9C88" stroke="white" stroke-width="1.5"/>
</svg>
