<svg width="43" height="38" viewBox="0 0 43 38" fill="none" xmlns="http://www.w3.org/2000/svg">
<path d="M35.4528 21.848H35.2839V2.77836C35.2839 1.82923 34.4945 1.03981 33.5454 1.03981H18.9796C17.9682 1.03981 17.2411 1.84844 17.2411 2.77836V21.848H17.0722C16.3461 21.848 15.8539 22.4588 15.8539 23.0664V23.9334V24.6315H16.552H35.973H36.6712V23.9334V23.0664C36.6712 22.7093 36.4996 22.4106 36.3041 22.2151C36.1086 22.0196 35.8099 21.848 35.4528 21.848ZM22.799 6.58867V5.21052H24.1772V6.58867H22.799ZM22.799 10.7503V9.37216H24.1772V10.7503H22.799ZM24.1772 13.5338V14.912H22.799V13.5338H24.1772ZM29.726 13.5338V14.912H28.3479V13.5338H29.726ZM29.726 9.37216V10.7503H28.3479V9.37216H29.726ZM29.726 5.21052V6.58867H28.3479V5.21052H29.726Z" fill="#E16634" stroke="white" stroke-width="1.39628"/>
<path d="M19.1039 16.0166L19.1039 16.0165L19.0982 16.0099L17.4834 14.1731C17.8301 14.0515 18.1324 13.7958 18.2852 13.4202C18.5194 12.922 18.4474 12.3471 18.0791 11.9174L16.4901 10.0635C16.8278 9.93696 17.1102 9.68646 17.2768 9.35331L17.2932 9.32053L17.306 9.28622C17.4689 8.852 17.4568 8.2096 16.981 7.77295L13.4801 4.0175L13.4718 4.00854L13.4631 3.99988C12.9983 3.53509 12.204 3.53509 11.7392 3.99988L11.7306 4.00854L11.7222 4.0175L8.22137 7.77295C7.74554 8.2096 7.73348 8.852 7.89632 9.28622L7.90918 9.32053L7.92557 9.35331C8.09215 9.68646 8.37453 9.93696 8.71224 10.0635L7.12324 11.9174C6.7549 12.3471 6.68298 12.922 6.91715 13.4203C7.06998 13.7958 7.37222 14.0515 7.71895 14.1731L6.10417 16.0099L6.10413 16.0099L6.09844 16.0166C5.73 16.4464 5.65814 17.0215 5.89255 17.5199C6.12582 18.0904 6.71347 18.354 7.20495 18.354H10.8275L10.0131 19.6149L9.98529 19.658L9.96404 19.7048C9.60519 20.4942 10.1607 21.4604 11.08 21.4604H14.1224C15.0416 21.4604 15.5971 20.4942 15.2383 19.7048L15.2192 19.6628L15.1948 19.6236L14.4012 18.354H17.9974C18.4889 18.354 19.0765 18.0904 19.3098 17.5199C19.5442 17.0215 19.4723 16.4464 19.1039 16.0166Z" fill="#E16634" stroke="white" stroke-width="1.39628"/>
<path d="M41.8715 27.4622L41.8716 27.4622L41.8658 27.4556L40.5644 25.9753C40.831 25.8486 41.0578 25.6304 41.1816 25.3279C41.398 24.8651 41.3306 24.3302 40.9889 23.9316L40.4588 24.3859L40.9889 23.9316L39.7056 22.4344C39.9635 22.3065 40.1774 22.0966 40.3109 21.8295L40.3273 21.7968L40.3402 21.7624C40.4897 21.3637 40.4819 20.766 40.0378 20.3563L37.0251 17.1245L37.0168 17.1155L37.0081 17.1069C36.57 16.6687 35.8245 16.6687 35.3864 17.1069L35.3777 17.1155L35.3694 17.1245L32.3567 20.3563C31.9126 20.766 31.9048 21.3637 32.0543 21.7625L32.0672 21.7968L32.0835 21.8295C32.2171 22.0966 32.431 22.3065 32.6889 22.4344L31.4056 23.9316L31.9357 24.3859L31.4056 23.9316C31.0639 24.3302 30.9965 24.8651 31.2129 25.3279C31.3366 25.6304 31.5635 25.8486 31.8301 25.9753L30.5287 27.4556L30.5286 27.4556L30.5229 27.4622C30.1811 27.861 30.1138 28.396 30.3304 28.8589C30.5502 29.3937 31.0978 29.6353 31.5495 29.6353H34.4918L33.8868 30.5719L33.859 30.6151L33.8377 30.6618C33.5011 31.4024 34.0211 32.3108 34.887 32.3108H37.5074C38.3734 32.3108 38.8934 31.4024 38.5567 30.6618L38.5376 30.6198L38.5132 30.5807L37.9223 29.6353H40.845C41.2967 29.6353 41.8443 29.3937 42.064 28.859C42.2807 28.3961 42.2133 27.861 41.8715 27.4622Z" fill="#E16634" stroke="white" stroke-width="1.39628"/>
<path d="M1.02656 20.2329L0.773054 20.4424V20.7712V29.9512C0.773054 30.7269 1.38907 31.3429 2.1648 31.3429H7.02005C7.78135 31.3429 8.36845 30.6973 8.36845 29.9512V25.8206C8.37168 25.8161 8.37581 25.8112 8.38072 25.8063C8.38563 25.8014 8.39055 25.7973 8.395 25.794H11.1257C11.1263 25.7945 11.1268 25.7951 11.1274 25.7957C11.1295 25.7979 11.1314 25.8003 11.1331 25.8028C11.1333 25.8032 11.1336 25.8036 11.1338 25.8039V29.9512C11.1338 30.7546 11.8215 31.3429 12.5256 31.3429H17.4242C18.1282 31.3429 18.8159 30.7546 18.8159 29.9512V20.7278V20.3965L18.5592 20.187L10.5597 13.6576C10.3367 13.4523 10.0419 13.3537 9.79449 13.3537C9.53655 13.3537 9.227 13.4342 8.98388 13.6595L1.02656 20.2329Z" fill="#E16634" stroke="white" stroke-width="1.39628"/>
<path d="M14.106 26.1275L13.8525 26.3369V26.6657V35.8457C13.8525 36.6214 14.4685 37.2374 15.2443 37.2374H20.0995C20.8608 37.2374 21.4479 36.5918 21.4479 35.8457V31.7151C21.4511 31.7107 21.4553 31.7058 21.4602 31.7008C21.4651 31.6959 21.47 31.6918 21.4745 31.6886H24.2052C24.2057 31.6891 24.2063 31.6896 24.2069 31.6902C24.209 31.6924 24.2109 31.6948 24.2125 31.6973C24.2128 31.6977 24.2131 31.6981 24.2133 31.6985V35.8457C24.2133 36.6491 24.901 37.2374 25.605 37.2374H30.5036C31.2077 37.2374 31.8954 36.6491 31.8954 35.8457V26.6224V26.291L31.6387 26.0815L23.6391 19.5521C23.4162 19.3468 23.1213 19.2482 22.874 19.2482C22.616 19.2482 22.3065 19.3287 22.0633 19.554L14.106 26.1275Z" fill="#E16634" stroke="white" stroke-width="1.39628"/>
</svg>
