<svg width="20" height="18" viewBox="0 0 20 18" fill="none" xmlns="http://www.w3.org/2000/svg">
<mask id="path-1-outside-1_2887_2223" maskUnits="userSpaceOnUse" x="0.109375" y="0.161499" width="20" height="18" fill="black">
<rect fill="white" x="0.109375" y="0.161499" width="20" height="18"/>
<path fill-rule="evenodd" clip-rule="evenodd" d="M10.7268 3.55598C12.3206 1.93098 14.8518 1.64973 16.5706 3.11848C18.5393 4.80598 18.6331 7.80598 16.8831 9.61848L10.8206 15.8685C10.4456 16.2747 9.78932 16.2747 9.41432 15.8685L3.35182 9.61848C1.60182 7.80598 1.69557 4.80598 3.66432 3.11848C5.38307 1.64973 7.94557 1.93098 9.50807 3.55598L10.1331 4.18098L10.7268 3.55598ZM11.1091 7.88855H13.3403C13.6037 7.88855 13.8362 8.12097 13.8362 8.38438V9.37604C13.8362 9.65494 13.6037 9.87186 13.3403 9.87186H11.1091V12.1031C11.1091 12.382 10.8767 12.5989 10.6133 12.5989H9.62162C9.34272 12.5989 9.1258 12.382 9.1258 12.1031V9.87186H6.89457C6.61567 9.87186 6.39874 9.65494 6.39874 9.37604V8.38438C6.39874 8.12097 6.61567 7.88855 6.89457 7.88855H9.1258V5.65733C9.1258 5.39392 9.34272 5.1615 9.62162 5.1615H10.6133C10.8767 5.1615 11.1091 5.39392 11.1091 5.65733V7.88855Z"/>
</mask>
<path fill-rule="evenodd" clip-rule="evenodd" d="M10.7268 3.55598C12.3206 1.93098 14.8518 1.64973 16.5706 3.11848C18.5393 4.80598 18.6331 7.80598 16.8831 9.61848L10.8206 15.8685C10.4456 16.2747 9.78932 16.2747 9.41432 15.8685L3.35182 9.61848C1.60182 7.80598 1.69557 4.80598 3.66432 3.11848C5.38307 1.64973 7.94557 1.93098 9.50807 3.55598L10.1331 4.18098L10.7268 3.55598ZM11.1091 7.88855H13.3403C13.6037 7.88855 13.8362 8.12097 13.8362 8.38438V9.37604C13.8362 9.65494 13.6037 9.87186 13.3403 9.87186H11.1091V12.1031C11.1091 12.382 10.8767 12.5989 10.6133 12.5989H9.62162C9.34272 12.5989 9.1258 12.382 9.1258 12.1031V9.87186H6.89457C6.61567 9.87186 6.39874 9.65494 6.39874 9.37604V8.38438C6.39874 8.12097 6.61567 7.88855 6.89457 7.88855H9.1258V5.65733C9.1258 5.39392 9.34272 5.1615 9.62162 5.1615H10.6133C10.8767 5.1615 11.1091 5.39392 11.1091 5.65733V7.88855Z" fill="#A13A3D"/>
<path d="M16.5706 3.11848L17.5468 1.97959L17.545 1.97813L16.5706 3.11848ZM10.7268 3.55598L9.65591 2.50567L9.64754 2.5142L9.63932 2.52286L10.7268 3.55598ZM16.8831 9.61848L17.9598 10.6629L17.9622 10.6604L16.8831 9.61848ZM10.8206 15.8685L9.74388 14.8241L9.73095 14.8374L9.71836 14.8511L10.8206 15.8685ZM9.41432 15.8685L10.5165 14.8511L10.5039 14.8374L10.491 14.8241L9.41432 15.8685ZM3.35182 9.61848L2.27271 10.6604L2.27513 10.6629L3.35182 9.61848ZM3.66432 3.11848L2.68984 1.97813L2.68813 1.9796L3.66432 3.11848ZM9.50807 3.55598L8.42682 4.59564L8.43701 4.60624L8.44741 4.61664L9.50807 3.55598ZM10.1331 4.18098L9.07241 5.24164L10.1606 6.32985L11.2206 5.21411L10.1331 4.18098ZM11.1091 7.88855H9.60911V9.38855H11.1091V7.88855ZM11.1091 9.87186V8.37186H9.60911V9.87186H11.1091ZM9.1258 9.87186H10.6258V8.37186H9.1258V9.87186ZM9.1258 7.88855V9.38855H10.6258V7.88855H9.1258ZM17.545 1.97813C15.1422 -0.0752113 11.7203 0.400793 9.65591 2.50567L11.7977 4.60629C12.9208 3.46117 14.5614 3.37467 15.5961 4.25883L17.545 1.97813ZM17.9622 10.6604C20.3029 8.23608 20.1808 4.23732 17.5468 1.9796L15.5944 4.25737C16.8979 5.37464 16.9633 7.37589 15.804 8.57659L17.9622 10.6604ZM11.8973 16.9129L17.9598 10.6629L15.8064 8.57409L9.74388 14.8241L11.8973 16.9129ZM8.31211 16.8859C9.28106 17.9356 10.9538 17.9356 11.9228 16.8859L9.71836 14.8511C9.93731 14.6139 10.2976 14.6139 10.5165 14.8511L8.31211 16.8859ZM2.27513 10.6629L8.33763 16.9129L10.491 14.8241L4.42851 8.57409L2.27513 10.6629ZM2.68813 1.9796C0.0541186 4.23732 -0.0679848 8.23608 2.27272 10.6604L4.43092 8.57659C3.27162 7.37589 3.33702 5.37464 4.6405 4.25737L2.68813 1.9796ZM10.5893 2.51632C8.5469 0.392199 5.08691 -0.0702753 2.68984 1.97813L4.6388 4.25883C5.67922 3.36974 7.34424 3.46976 8.42682 4.59564L10.5893 2.51632ZM11.1937 3.12032L10.5687 2.49532L8.44741 4.61664L9.07241 5.24164L11.1937 3.12032ZM9.63932 2.52286L9.04557 3.14786L11.2206 5.21411L11.8143 4.58911L9.63932 2.52286ZM13.3403 6.38855H11.1091V9.38855H13.3403V6.38855ZM15.3362 8.38438C15.3362 7.29254 14.4322 6.38855 13.3403 6.38855V9.38855C13.0277 9.38855 12.7819 9.25392 12.6264 9.09835C12.4708 8.94278 12.3362 8.69703 12.3362 8.38438H15.3362ZM15.3362 9.37604V8.38438H12.3362V9.37604H15.3362ZM13.3403 11.3719C14.4016 11.3719 15.3362 10.5136 15.3362 9.37604H12.3362C12.3362 8.79626 12.8059 8.37186 13.3403 8.37186V11.3719ZM11.1091 11.3719H13.3403V8.37186H11.1091V11.3719ZM12.6091 12.1031V9.87186H9.60911V12.1031H12.6091ZM10.6133 14.0989C11.6745 14.0989 12.6091 13.2407 12.6091 12.1031H9.60911C9.60911 11.5233 10.0788 11.0989 10.6133 11.0989V14.0989ZM9.62162 14.0989H10.6133V11.0989H9.62162V14.0989ZM7.6258 12.1031C7.6258 13.2104 8.51429 14.0989 9.62162 14.0989V11.0989C10.1711 11.0989 10.6258 11.5536 10.6258 12.1031H7.6258ZM7.6258 9.87186V12.1031H10.6258V9.87186H7.6258ZM6.89457 11.3719H9.1258V8.37186H6.89457V11.3719ZM4.89874 9.37604C4.89874 10.4834 5.78724 11.3719 6.89457 11.3719V8.37186C7.44409 8.37186 7.89874 8.82651 7.89874 9.37604H4.89874ZM4.89874 8.38438V9.37604H7.89874V8.38438H4.89874ZM6.89457 6.38855C5.75699 6.38855 4.89874 7.32312 4.89874 8.38438H7.89874C7.89874 8.91882 7.47434 9.38855 6.89457 9.38855V6.38855ZM9.1258 6.38855H6.89457V9.38855H9.1258V6.38855ZM7.6258 5.65733V7.88855H10.6258V5.65733H7.6258ZM9.62162 3.6615C8.48405 3.6615 7.6258 4.59607 7.6258 5.65733H10.6258C10.6258 6.19177 10.2014 6.6615 9.62162 6.6615V3.6615ZM10.6133 3.6615H9.62162V6.6615H10.6133V3.6615ZM12.6091 5.65733C12.6091 4.56549 11.7051 3.6615 10.6133 3.6615V6.6615C10.3006 6.6615 10.0549 6.52687 9.89931 6.3713C9.74374 6.21572 9.60911 5.96998 9.60911 5.65733H12.6091ZM12.6091 7.88855V5.65733H9.60911V7.88855H12.6091Z" fill="white" mask="url(#path-1-outside-1_2887_2223)"/>
</svg>
