<svg width="22" height="18" viewBox="0 0 22 18" fill="none" xmlns="http://www.w3.org/2000/svg">
<path d="M19.8593 6.05145H19.8464L19.8335 6.0519C19.1711 6.07474 17.1716 6.17671 15.1059 7.16614L15.0882 7.0932C14.5295 4.79268 13.3701 2.67243 11.8193 1.32844L11.7993 1.31109L11.7781 1.2952C11.5563 1.12885 11.3008 1.07489 11.0937 1.07489C10.8867 1.07489 10.6311 1.12885 10.4093 1.2952L10.3882 1.31109L10.3682 1.32844C8.81739 2.67243 7.65798 4.79268 7.09928 7.0932L7.08157 7.16613C5.01581 6.17671 3.01637 6.07474 2.35395 6.0519L2.34103 6.05145H2.3281C2.02506 6.05145 1.77043 6.19478 1.60726 6.37278C1.45983 6.53362 1.3241 6.79739 1.35965 7.11156C1.36962 8.13836 1.64592 11.3761 4.34597 13.8483C7.15518 16.5525 9.99685 16.5517 11.0774 16.5515C11.0883 16.5515 11.0989 16.5515 11.1093 16.5515C11.1195 16.5515 11.1298 16.5515 11.1402 16.5515C12.2218 16.5517 15.0324 16.5524 17.8415 13.8483C20.5973 11.325 20.8258 8.00327 20.8589 7.07822L20.8593 7.06484V7.05145C20.8593 6.74503 20.7137 6.50138 20.5616 6.34925C20.4094 6.19711 20.1658 6.05145 19.8593 6.05145Z" fill="#3676C5" stroke="white" stroke-width="1.5"/>
</svg>
