<svg width="48" height="37" viewBox="0 0 48 37" fill="none" xmlns="http://www.w3.org/2000/svg">
<path d="M24.7635 4.54667V0H22.7046V4.54667C23.0864 4.52548 23.4166 4.51515 23.7343 4.51515C24.0521 4.51515 24.3817 4.52548 24.7635 4.54667Z" fill="#D7C684"/>
<path d="M15.7599 6.93545L13.4876 3L11.7046 4.02972L13.9769 7.96568C14.5463 7.59317 15.1446 7.247 15.7599 6.93545Z" fill="#D7C684"/>
<path d="M7.64004 15.0558C7.95262 14.4389 8.29879 13.8401 8.67079 13.2723L4.73482 11L3.70459 12.7835L7.64004 15.0558Z" fill="#D7C684"/>
<path d="M43.6406 36.0558L44.6708 34.2728L40.7353 32C40.4228 32.6164 40.0766 33.2157 39.7046 33.784L43.6406 36.0558Z" fill="#D7C684"/>
<path d="M0.70459 22.0005V24.06H5.25126C5.23007 23.6781 5.21974 23.348 5.21974 23.0302C5.21974 22.712 5.23007 22.3818 5.25126 22H0.70459V22.0005Z" fill="#D7C684"/>
<path d="M47.2513 24.0594V22H42.7046C42.7258 22.3818 42.7361 22.712 42.7361 23.0302C42.7361 23.348 42.7258 23.6781 42.7046 24.06H47.2513V24.0594Z" fill="#D7C684"/>
<path d="M3.70459 34.2728L4.73482 36.0558L8.67079 33.784C8.29879 33.2157 7.95262 32.6164 7.64004 32L3.70459 34.2728Z" fill="#D7C684"/>
<path d="M39.7046 13.2723C40.0766 13.8401 40.4228 14.4389 40.7353 15.0558L44.6708 12.7835L43.6406 11L39.7046 13.2723Z" fill="#D7C684"/>
<path d="M34.4876 7.96568L36.7599 4.02972L34.9769 3L32.7046 6.93545C33.3199 7.247 33.9182 7.59317 34.4876 7.96568Z" fill="#D7C684"/>
<path fill-rule="evenodd" clip-rule="evenodd" d="M32.8288 15.2958H29.8631C30.3927 14.7662 30.7104 14.0248 30.7104 13.1775C30.7104 11.3769 29.3335 10 27.5329 10C26.4738 10 24.5673 10.9533 23.2963 12.2243C22.0253 10.9533 20.1188 10 19.0596 10C17.259 10 15.8821 11.3769 15.8821 13.1775C15.8821 14.0248 16.1998 14.7662 16.7294 15.2958H13.7638C13.1283 15.2958 12.7046 15.7195 12.7046 16.355V19.3207C12.7046 19.4266 12.8105 19.5325 12.9164 19.5325H21.8134C22.0253 19.5325 22.2371 19.3207 22.2371 19.1088V15.7195C22.2371 15.5077 22.4489 15.2958 22.6608 15.2958H23.9318C24.1436 15.2958 24.3554 15.5077 24.3554 15.7195V19.1088C24.3554 19.3207 24.5673 19.5325 24.7791 19.5325H33.6761C33.782 19.5325 33.8879 19.4266 33.8879 19.3207V16.355C33.8879 15.7195 33.4643 15.2958 32.8288 15.2958ZM18.7638 14.1183C18.1283 14.1183 17.7046 13.6947 17.7046 13.0592C17.7046 12.4237 18.1283 12 18.7638 12C19.3993 12 21.3058 13.271 21.8353 13.9065C21.5176 14.0124 18.7638 14.1183 18.7638 14.1183ZM24.7046 13.9065C25.0223 14.0124 27.7762 14.1183 27.7762 14.1183C28.4117 14.1183 28.8353 13.6947 28.8353 13.0592C28.8353 12.4237 28.4117 12 27.7762 12C27.1407 12 25.3401 13.1651 24.7046 13.9065Z" fill="#E16634"/>
<path d="M21.7543 22H13.9164C13.8105 22 13.7046 22.1059 13.7046 22.2118V30.4733C13.7046 31.1088 14.1283 31.5325 14.7638 31.5325H21.7543C21.9661 31.5325 22.1779 31.3207 22.1779 31.1088V22.4237C22.1779 22.2118 21.9661 22 21.7543 22Z" fill="#E16634"/>
<path d="M32.9661 22H25.1283C24.9164 22 24.7046 22.2118 24.7046 22.4237V31.1088C24.7046 31.3207 24.9164 31.5325 25.1283 31.5325H32.1188C32.7543 31.5325 33.1779 31.1088 33.1779 30.4733V22.2118C33.1779 22.1059 33.072 22 32.9661 22Z" fill="#E16634"/>
</svg>
