<svg width="23" height="16" viewBox="0 0 23 16" fill="none" xmlns="http://www.w3.org/2000/svg">
<path d="M22.4976 6.98351C20.3882 2.84288 16.1694 0.0303802 11.4038 0.0303802C6.59912 0.0303802 2.38037 2.84288 0.270996 6.98351C0.192871 7.13976 0.153809 7.37413 0.153809 7.56944C0.153809 7.72569 0.192871 7.96007 0.270996 8.11632C2.38037 12.2569 6.59912 15.0304 11.4038 15.0304C16.1694 15.0304 20.3882 12.2569 22.4976 8.11632C22.5757 7.96007 22.6147 7.72569 22.6147 7.53038C22.6147 7.37413 22.5757 7.13976 22.4976 6.98351ZM11.4038 13.1554C8.27881 13.1554 5.77881 10.6554 5.77881 7.53038C5.77881 4.44444 8.27881 1.90538 11.4038 1.90538C14.4897 1.90538 17.0288 4.44444 17.0288 7.53038V7.56944C17.0288 10.6554 14.4897 13.1554 11.4038 13.1554ZM11.4038 3.78038C11.0913 3.81944 10.6616 3.85851 10.3882 3.93663C10.5835 4.21007 10.7788 4.71788 10.7788 5.06944C10.7788 6.08507 9.91943 6.90538 8.90381 6.90538C8.55225 6.90538 8.04443 6.74913 7.771 6.55382C7.69287 6.82726 7.65381 7.25694 7.65381 7.53038C7.65381 9.60069 9.3335 11.2804 11.4038 11.2804C13.4741 11.2804 15.1538 9.60069 15.1538 7.53038C15.1538 5.46007 13.4741 3.78038 11.4038 3.78038Z" fill="#485799"/>
</svg>
