<svg width="38" height="52" viewBox="0 0 38 52" fill="none" xmlns="http://www.w3.org/2000/svg">
<path fill-rule="evenodd" clip-rule="evenodd" d="M37.6281 18.4608C37.6281 8.26507 29.3612 0 19.1663 0C8.97235 0 0.70459 8.26507 0.70459 18.4608C0.70459 32.3031 18.7886 51.263 18.7886 51.263C18.7886 51.263 37.6281 32.4308 37.6281 18.4608Z" fill="#5B4178"/>
<path fill-rule="evenodd" clip-rule="evenodd" d="M30.9 19.6004C30.9 26.004 25.7095 31.1972 19.3023 31.1972C12.8951 31.1972 7.70459 26.004 7.70459 19.6004C7.70459 13.1932 12.8951 8 19.3023 8C25.7095 8 30.9 13.1932 30.9 19.6004Z" fill="white"/>
<path fill-rule="evenodd" clip-rule="evenodd" d="M15.4186 15.7634C15.4186 16.7364 15.0346 17.526 14.5625 17.526C14.0877 17.526 13.7046 16.7364 13.7046 15.7634C13.7046 14.7895 14.0877 14 14.5625 14C15.0346 14 15.4186 14.7895 15.4186 15.7634Z" fill="#5B4178"/>
<path fill-rule="evenodd" clip-rule="evenodd" d="M25.4204 15.7634C25.4204 16.7364 25.0364 17.526 24.5625 17.526C24.0904 17.526 23.7046 16.7364 23.7046 15.7634C23.7046 14.7895 24.0904 14 24.5625 14C25.0364 14 25.4204 14.7895 25.4204 15.7634Z" fill="#5B4178"/>
<path fill-rule="evenodd" clip-rule="evenodd" d="M26.4011 21C26.4011 21 25.2977 27.6743 19.0515 27.6743C12.5634 27.6743 11.7046 21 11.7046 21H26.4011Z" fill="#5B4178"/>
</svg>
