<svg width="49" height="30" viewBox="0 0 49 30" fill="none" xmlns="http://www.w3.org/2000/svg">
<path fill-rule="evenodd" clip-rule="evenodd" d="M12.3031 10.2993C12.3031 11.5685 11.2746 12.5985 10.0039 12.5985C8.73466 12.5985 7.70459 11.5685 7.70459 10.2993C7.70459 9.02854 8.73466 8 10.0039 8C11.2746 8 12.3031 9.02854 12.3031 10.2993Z" fill="#E43D48"/>
<path fill-rule="evenodd" clip-rule="evenodd" d="M13.4915 21.1845C13.4608 20.5928 13.0791 20.0793 12.5273 19.9137V16.5568C12.5181 15.1481 11.419 14.0077 10.0625 14H9.32824C7.96708 14.0031 6.86496 15.145 6.85576 16.5568V19.8754C6.19664 19.9643 5.70306 20.5483 5.70459 21.2381V22.0919V23.7888H5.72759V27.7312C5.77817 28.4547 6.35912 29.0142 7.0581 29.0142C7.75708 29.0142 8.33802 28.4547 8.38861 27.7312V23.7888H10.8458V27.7312C10.8458 28.4931 11.4405 29.1093 12.1747 29.1093C12.889 29.1093 13.4639 28.5191 13.4915 27.7849V21.1845Z" fill="#E43D48"/>
<path fill-rule="evenodd" clip-rule="evenodd" d="M22.3031 10.2993C22.3031 11.5685 21.2731 12.5985 20.0039 12.5985C18.7331 12.5985 17.7046 11.5685 17.7046 10.2993C17.7046 9.02854 18.7331 8 20.0039 8C21.2731 8 22.3031 9.02854 22.3031 10.2993Z" fill="#E43D48"/>
<path fill-rule="evenodd" clip-rule="evenodd" d="M23.493 21.1845C23.4608 20.5928 23.0807 20.0793 22.5273 19.9137V16.5568C22.5196 15.1481 21.4206 14.0077 20.0625 14H19.3298C17.9686 14.0031 16.865 15.145 16.8573 16.5568V19.8754C16.1982 19.9643 15.7031 20.5483 15.7046 21.2381V22.0919V23.7888H15.7276V27.7312C15.7797 28.4547 16.3607 29.0142 17.0596 29.0142C17.7571 29.0142 18.338 28.4547 18.3901 27.7312V23.7888H20.8473V27.7312C20.8473 28.4931 21.442 29.1093 22.1747 29.1093C22.8906 29.1093 23.4639 28.5191 23.493 27.7849V21.1845Z" fill="#E43D48"/>
<path fill-rule="evenodd" clip-rule="evenodd" d="M31.3031 10.2993C31.3031 11.5685 30.2731 12.5985 29.0039 12.5985C27.7331 12.5985 26.7046 11.5685 26.7046 10.2993C26.7046 9.02854 27.7331 8 29.0039 8C30.2731 8 31.3031 9.02854 31.3031 10.2993Z" fill="#E43D48"/>
<path fill-rule="evenodd" clip-rule="evenodd" d="M33.4915 21.1845C33.4593 20.5928 33.0791 20.0793 32.5258 19.9137V16.5568C32.5181 15.1481 31.4191 14.0077 30.061 14H29.3283C27.9671 14.0031 26.8634 15.145 26.8558 16.5568V19.8754C26.1966 19.9643 25.7015 20.5483 25.7046 21.2381V22.0919V23.7888H25.7261V27.7312C25.7782 28.4547 26.3591 29.0142 27.0581 29.0142C27.7571 29.0142 28.3365 28.4547 28.3886 27.7312V23.7888H30.8458V27.7312C30.8458 28.4931 31.4405 29.1093 32.1747 29.1093C32.8891 29.1093 33.4639 28.5191 33.4915 27.7849V21.1845Z" fill="#E43D48"/>
<path fill-rule="evenodd" clip-rule="evenodd" d="M41.3031 10.2993C41.3031 11.5685 40.2746 12.5985 39.0039 12.5985C37.7331 12.5985 36.7046 11.5685 36.7046 10.2993C36.7046 9.02854 37.7331 8 39.0039 8C40.2746 8 41.3031 9.02854 41.3031 10.2993Z" fill="#E43D48"/>
<path fill-rule="evenodd" clip-rule="evenodd" d="M43.4915 21.1845C43.4593 20.5928 43.0791 20.0793 42.5258 19.9137V16.5568C42.5181 15.1481 41.419 14.0077 40.0609 14H39.3282C37.9671 14.0031 36.8634 15.145 36.8558 16.5568V19.8754C36.1966 19.9643 35.7031 20.5483 35.7046 21.2381V22.0919V23.7888H35.7261V27.7312C35.7782 28.4547 36.3591 29.0142 37.0581 29.0142C37.7571 29.0142 38.338 28.4547 38.3886 27.7312V23.7888H40.8458V27.7312C40.8458 28.4931 41.4405 29.1093 42.1747 29.1093C42.889 29.1093 43.4639 28.5191 43.4915 27.7849V21.1845Z" fill="#E43D48"/>
<mask id="mask0_0_208920" style="mask-type:alpha" maskUnits="userSpaceOnUse" x="0" y="0" width="49" height="24">
<path fill-rule="evenodd" clip-rule="evenodd" d="M0.70459 0H48.2228V23.8021H0.70459V0Z" fill="white"/>
</mask>
<g mask="url(#mask0_0_208920)">
<path fill-rule="evenodd" clip-rule="evenodd" d="M46.4901 21.4296C46.0869 21.9186 45.4968 22.1976 44.876 22.1899H44.2445V22.2053H5.40366H5.17833H4.83804C4.19271 22.2083 3.57958 21.9048 3.1749 21.3821C2.77023 20.8594 2.61541 20.1742 2.7549 19.5182L5.27184 7.73365C5.49257 6.7235 6.35556 6.0046 7.35498 6H42.6396C43.6666 6.00307 44.5464 6.76336 44.7365 7.81029L46.9377 19.6638C47.045 20.2923 46.881 20.9376 46.4901 21.4296ZM48.1597 19.2357L48.1459 19.2204L45.9447 7.37453C45.6075 5.54584 44.0716 4.21993 42.2766 4.2092H25.1409V0.708175C25.1409 0.317299 24.8359 0 24.4588 0C24.0817 0 23.7767 0.317299 23.7767 0.708175V4.2092H6.97058C5.21394 4.21686 3.69489 5.47839 3.30248 7.25343L0.793208 19.0609C0.54642 20.2136 0.817734 21.4231 1.53051 22.3443C2.24481 23.2671 3.32241 23.8036 4.46131 23.802H4.79394H5.01927H43.8601H44.2326H44.4916C45.5999 23.8066 46.6514 23.2977 47.3611 22.4148C48.0708 21.5319 48.3636 20.3654 48.1597 19.2357Z" fill="#E43D48"/>
</g>
</svg>
