<svg width="17" height="25" viewBox="0 0 17 25" fill="none" xmlns="http://www.w3.org/2000/svg">
<mask id="path-1-outside-1_2353_2889" maskUnits="userSpaceOnUse" x="-0.13916" y="-0.17511" width="17" height="25" fill="black">
<rect fill="white" x="-0.13916" y="-0.17511" width="17" height="25"/>
<path fill-rule="evenodd" clip-rule="evenodd" d="M8.41732 1.82489L5.33879 4.76882L4.60022 17.4292H3.65523V18.7875H1.86084V22.8249H14.9738V18.7875H13.1794V17.4292H12.2265L11.4958 4.76882L8.41732 1.82489Z"/>
</mask>
<path fill-rule="evenodd" clip-rule="evenodd" d="M8.41732 1.82489L5.33879 4.76882L4.60022 17.4292H3.65523V18.7875H1.86084V22.8249H14.9738V18.7875H13.1794V17.4292H12.2265L11.4958 4.76882L8.41732 1.82489Z" fill="#FF9500"/>
<path d="M5.33879 4.76882L4.30209 3.68472C4.02805 3.94679 3.86342 4.30292 3.84134 4.68146L5.33879 4.76882ZM8.41732 1.82489L9.45401 0.740795C8.87412 0.186255 7.96052 0.186255 7.38062 0.740795L8.41732 1.82489ZM4.60022 17.4292V18.9292C5.39472 18.9292 6.05141 18.3097 6.09768 17.5166L4.60022 17.4292ZM3.65523 17.4292V15.9292C2.82681 15.9292 2.15523 16.6008 2.15523 17.4292H3.65523ZM3.65523 18.7875V20.2875C4.48366 20.2875 5.15523 19.6159 5.15523 18.7875H3.65523ZM1.86084 18.7875V17.2875C1.03241 17.2875 0.36084 17.9591 0.36084 18.7875H1.86084ZM1.86084 22.8249H0.36084C0.36084 23.6533 1.03241 24.3249 1.86084 24.3249L1.86084 22.8249ZM14.9738 22.8249V24.3249C15.8022 24.3249 16.4738 23.6533 16.4738 22.8249H14.9738ZM14.9738 18.7875H16.4738C16.4738 17.9591 15.8022 17.2875 14.9738 17.2875V18.7875ZM13.1794 18.7875H11.6794C11.6794 19.6159 12.351 20.2875 13.1794 20.2875V18.7875ZM13.1794 17.4292H14.6794C14.6794 16.6008 14.0078 15.9292 13.1794 15.9292V17.4292ZM12.2265 17.4292L10.729 17.5156C10.7748 18.3092 11.4316 18.9292 12.2265 18.9292V17.4292ZM11.4958 4.76882L12.9934 4.68239C12.9715 4.30352 12.8068 3.94701 12.5325 3.68472L11.4958 4.76882ZM6.37549 5.85291L9.45401 2.90899L7.38062 0.740795L4.30209 3.68472L6.37549 5.85291ZM6.09768 17.5166L6.83624 4.85617L3.84134 4.68146L3.10277 17.3419L6.09768 17.5166ZM4.60022 15.9292H3.65523V18.9292H4.60022V15.9292ZM2.15523 17.4292V18.7875H5.15523V17.4292H2.15523ZM3.65523 17.2875H1.86084V20.2875H3.65523V17.2875ZM0.36084 18.7875V22.8249H3.36084V18.7875H0.36084ZM1.86084 24.3249H14.9738V21.3249H1.86084V24.3249ZM16.4738 22.8249V18.7875H13.4738V22.8249H16.4738ZM14.9738 17.2875H13.1794V20.2875H14.9738V17.2875ZM14.6794 18.7875V17.4292H11.6794V18.7875H14.6794ZM13.1794 15.9292H12.2265V18.9292H13.1794V15.9292ZM9.99833 4.85524L10.729 17.5156L13.724 17.3428L12.9934 4.68239L9.99833 4.85524ZM7.38062 2.90899L10.4591 5.85291L12.5325 3.68472L9.45401 0.740795L7.38062 2.90899Z" fill="white" mask="url(#path-1-outside-1_2353_2889)"/>
</svg>
