<svg width="20" height="18" viewBox="0 0 20 18" fill="none" xmlns="http://www.w3.org/2000/svg">
<mask id="path-1-outside-1_2087_2168" maskUnits="userSpaceOnUse" x="0.109375" y="-0.17511" width="20" height="18" fill="black">
<rect fill="white" x="0.109375" y="-0.17511" width="20" height="18"/>
<path fill-rule="evenodd" clip-rule="evenodd" d="M18.1094 12.3869V9.82489V8.82489V7.4494V6.32489C18.1094 5.54364 17.3906 4.82489 16.6094 4.82489H14.1094V3.32489C14.1094 2.54364 13.3906 1.82489 12.6094 1.82489H7.60938C6.79688 1.82489 6.10938 2.54364 6.10938 3.32489V4.82489H3.60938C2.79688 4.82489 2.10938 5.54364 2.10938 6.32489V7.4494V8.82489V9.82489V12.3869V14.3249C2.10938 15.1374 2.79688 15.8249 3.60938 15.8249H16.6094C17.3906 15.8249 18.1094 15.1374 18.1094 14.3249V12.3869ZM12.1094 4.82489H8.10938V3.82489H12.1094V4.82489ZM7.88078 8.0827C8.44132 7.27606 9.15226 6.82489 10.246 6.82489C11.3945 6.82489 12.6386 7.74091 12.6386 8.93036C12.6386 9.91612 11.9783 10.2997 11.4786 10.5901C11.1744 10.7669 10.9296 10.9091 10.9296 11.1315V11.1999C10.9296 11.3913 10.7792 11.528 10.6015 11.528H9.60343C9.4257 11.528 9.27531 11.3913 9.27531 11.1999V11.0768C9.27531 10.2438 9.89595 9.89931 10.3845 9.62814C10.3931 9.62339 10.4016 9.61866 10.4101 9.61395C10.8202 9.38153 11.08 9.23114 11.08 8.91669C11.08 8.50653 10.5605 8.24677 10.1366 8.24677C9.60343 8.24677 9.34367 8.49286 9.00187 8.91669C8.8925 9.05341 8.68742 9.08075 8.5507 8.97137L7.96281 8.5202C7.81242 8.4245 7.78507 8.21942 7.88078 8.0827ZM9.15226 12.8815C9.15226 12.362 9.57609 11.9382 10.1093 11.9382C10.6288 11.9382 11.0527 12.362 11.0527 12.8815C11.0527 13.4011 10.6288 13.8249 10.1093 13.8249C9.57609 13.8249 9.15226 13.4011 9.15226 12.8815Z"/>
</mask>
<path fill-rule="evenodd" clip-rule="evenodd" d="M18.1094 12.3869V9.82489V8.82489V7.4494V6.32489C18.1094 5.54364 17.3906 4.82489 16.6094 4.82489H14.1094V3.32489C14.1094 2.54364 13.3906 1.82489 12.6094 1.82489H7.60938C6.79688 1.82489 6.10938 2.54364 6.10938 3.32489V4.82489H3.60938C2.79688 4.82489 2.10938 5.54364 2.10938 6.32489V7.4494V8.82489V9.82489V12.3869V14.3249C2.10938 15.1374 2.79688 15.8249 3.60938 15.8249H16.6094C17.3906 15.8249 18.1094 15.1374 18.1094 14.3249V12.3869ZM12.1094 4.82489H8.10938V3.82489H12.1094V4.82489ZM7.88078 8.0827C8.44132 7.27606 9.15226 6.82489 10.246 6.82489C11.3945 6.82489 12.6386 7.74091 12.6386 8.93036C12.6386 9.91612 11.9783 10.2997 11.4786 10.5901C11.1744 10.7669 10.9296 10.9091 10.9296 11.1315V11.1999C10.9296 11.3913 10.7792 11.528 10.6015 11.528H9.60343C9.4257 11.528 9.27531 11.3913 9.27531 11.1999V11.0768C9.27531 10.2438 9.89595 9.89931 10.3845 9.62814C10.3931 9.62339 10.4016 9.61866 10.4101 9.61395C10.8202 9.38153 11.08 9.23114 11.08 8.91669C11.08 8.50653 10.5605 8.24677 10.1366 8.24677C9.60343 8.24677 9.34367 8.49286 9.00187 8.91669C8.8925 9.05341 8.68742 9.08075 8.5507 8.97137L7.96281 8.5202C7.81242 8.4245 7.78507 8.21942 7.88078 8.0827ZM9.15226 12.8815C9.15226 12.362 9.57609 11.9382 10.1093 11.9382C10.6288 11.9382 11.0527 12.362 11.0527 12.8815C11.0527 13.4011 10.6288 13.8249 10.1093 13.8249C9.57609 13.8249 9.15226 13.4011 9.15226 12.8815Z" fill="#419B77"/>
<path d="M14.1094 4.82489H12.6094V6.32489H14.1094V4.82489ZM6.10938 4.82489V6.32489H7.60938V4.82489H6.10938ZM8.10938 4.82489H6.60938V6.32489H8.10938V4.82489ZM12.1094 4.82489V6.32489H13.6094V4.82489H12.1094ZM8.10938 3.82489V2.32489H6.60938V3.82489H8.10938ZM12.1094 3.82489H13.6094V2.32489H12.1094V3.82489ZM7.88078 8.0827L9.10963 8.9429L9.11256 8.93869L7.88078 8.0827ZM11.4786 10.5901L10.7251 9.2931L10.7251 9.2931L11.4786 10.5901ZM10.3845 9.62814L11.1125 10.9397L11.1125 10.9397L10.3845 9.62814ZM10.4101 9.61395L11.1385 10.9252L11.1496 10.919L10.4101 9.61395ZM9.00187 8.91669L7.83424 7.97505L7.83057 7.97964L9.00187 8.91669ZM8.5507 8.97137L9.48774 7.80007L9.47593 7.79062L9.46393 7.78141L8.5507 8.97137ZM7.96281 8.5202L8.87604 7.33024L8.82374 7.2901L8.76812 7.25471L7.96281 8.5202ZM16.6094 9.82489V12.3869H19.6094V9.82489H16.6094ZM16.6094 8.82489V9.82489H19.6094V8.82489H16.6094ZM16.6094 7.4494V8.82489H19.6094V7.4494H16.6094ZM16.6094 6.32489V7.4494H19.6094V6.32489H16.6094ZM16.6094 6.32489C16.5736 6.32489 16.5565 6.31671 16.5589 6.31778C16.5599 6.31822 16.5641 6.32025 16.5706 6.32477C16.5771 6.32928 16.5844 6.33528 16.5917 6.34258C16.599 6.34989 16.605 6.3572 16.6095 6.36369C16.614 6.37018 16.616 6.37439 16.6165 6.37537C16.6176 6.37776 16.6094 6.36064 16.6094 6.32489H19.6094C19.6094 5.47516 19.2251 4.73339 18.713 4.22126C18.2009 3.70913 17.4591 3.32489 16.6094 3.32489V6.32489ZM14.1094 6.32489H16.6094V3.32489H14.1094V6.32489ZM12.6094 3.32489V4.82489H15.6094V3.32489H12.6094ZM12.6094 3.32489C12.5736 3.32489 12.5565 3.31671 12.5589 3.31778C12.5599 3.31822 12.5641 3.32025 12.5706 3.32477C12.5771 3.32928 12.5844 3.33528 12.5917 3.34258C12.599 3.34989 12.605 3.3572 12.6095 3.36369C12.614 3.37018 12.616 3.37439 12.6165 3.37537C12.6176 3.37776 12.6094 3.36064 12.6094 3.32489H15.6094C15.6094 2.47516 15.2251 1.73339 14.713 1.22126C14.2009 0.70913 13.4591 0.32489 12.6094 0.32489V3.32489ZM7.60938 3.32489H12.6094V0.32489H7.60938V3.32489ZM7.60938 3.32489C7.60938 3.35036 7.6038 3.362 7.60486 3.35957C7.60532 3.3585 7.60692 3.35517 7.61023 3.35029C7.61354 3.34542 7.61781 3.34014 7.62284 3.33503C7.62787 3.32994 7.63268 3.326 7.63664 3.32324C7.64057 3.32049 7.64273 3.31954 7.64248 3.31966C7.64214 3.31981 7.63902 3.32115 7.63302 3.32247C7.62685 3.32382 7.61874 3.32489 7.60938 3.32489V0.32489C5.94846 0.32489 4.60938 1.73534 4.60938 3.32489H7.60938ZM7.60938 4.82489V3.32489H4.60938V4.82489H7.60938ZM3.60938 6.32489H6.10938V3.32489H3.60938V6.32489ZM3.60938 6.32489C3.60938 6.35036 3.6038 6.362 3.60486 6.35957C3.60532 6.3585 3.60692 6.35517 3.61023 6.35029C3.61354 6.34542 3.61781 6.34014 3.62284 6.33503C3.62787 6.32994 3.63268 6.326 3.63664 6.32324C3.64057 6.32049 3.64273 6.31954 3.64248 6.31966C3.64214 6.31981 3.63902 6.32115 3.63302 6.32247C3.62685 6.32382 3.61874 6.32489 3.60938 6.32489V3.32489C1.94846 3.32489 0.609375 4.73534 0.609375 6.32489H3.60938ZM3.60938 7.4494V6.32489H0.609375V7.4494H3.60938ZM3.60938 8.82489V7.4494H0.609375V8.82489H3.60938ZM3.60938 9.82489V8.82489H0.609375V9.82489H3.60938ZM3.60938 12.3869V9.82489H0.609375V12.3869H3.60938ZM3.60938 14.3249V12.3869H0.609375V14.3249H3.60938ZM3.60938 14.3249C3.61385 14.3249 3.61806 14.3254 3.6215 14.3261C3.62482 14.3268 3.62656 14.3275 3.62674 14.3276C3.62685 14.3277 3.62555 14.3271 3.62324 14.3255C3.62091 14.3239 3.61815 14.3217 3.61535 14.3189C3.61255 14.3161 3.61033 14.3134 3.60873 14.311C3.60716 14.3087 3.6066 14.3074 3.60665 14.3075C3.60673 14.3077 3.60745 14.3094 3.60815 14.3128C3.60888 14.3162 3.60938 14.3204 3.60938 14.3249H0.609375C0.609375 15.9658 1.96845 17.3249 3.60938 17.3249V14.3249ZM16.6094 14.3249H3.60938V17.3249H16.6094V14.3249ZM16.6094 14.3249C16.6094 14.3155 16.6104 14.3074 16.6118 14.3012C16.6131 14.2952 16.6145 14.2921 16.6146 14.2918C16.6147 14.2915 16.6138 14.2937 16.611 14.2976C16.6083 14.3016 16.6043 14.3064 16.5992 14.3114C16.5941 14.3165 16.5888 14.3207 16.584 14.324C16.5791 14.3273 16.5758 14.3289 16.5747 14.3294C16.5723 14.3305 16.5839 14.3249 16.6094 14.3249V17.3249C18.1989 17.3249 19.6094 15.9858 19.6094 14.3249H16.6094ZM16.6094 12.3869V14.3249H19.6094V12.3869H16.6094ZM8.10938 6.32489H12.1094V3.32489H8.10938V6.32489ZM6.60938 3.82489V4.82489H9.60938V3.82489H6.60938ZM12.1094 2.32489H8.10938V5.32489H12.1094V2.32489ZM13.6094 4.82489V3.82489H10.6094V4.82489H13.6094ZM10.246 5.32489C9.48372 5.32489 8.77449 5.48479 8.13498 5.84007C7.5019 6.19178 7.02445 6.68643 6.64899 7.22672L9.11256 8.93869C9.29765 8.67234 9.45595 8.53808 9.59191 8.46254C9.72144 8.39058 9.91455 8.32489 10.246 8.32489V5.32489ZM14.1386 8.93036C14.1386 7.7854 13.5399 6.86637 12.8315 6.27783C12.1287 5.69387 11.1968 5.32489 10.246 5.32489V8.32489C10.4437 8.32489 10.7081 8.41392 10.9144 8.58533C11.1152 8.75216 11.1386 8.88586 11.1386 8.93036H14.1386ZM12.2322 11.8871C12.4556 11.7573 12.9553 11.4799 13.366 11.0188C13.8279 10.5003 14.1386 9.80657 14.1386 8.93036H11.1386C11.1386 9.00507 11.1269 9.02794 11.1297 9.02073C11.1324 9.01377 11.1356 9.01247 11.126 9.02325C11.1127 9.03812 11.0812 9.06871 11.0125 9.11661C10.939 9.16789 10.8567 9.21663 10.7251 9.2931L12.2322 11.8871ZM12.4296 11.1315C12.4296 11.3694 12.3596 11.5775 12.2675 11.735C12.1846 11.8768 12.0968 11.9562 12.0689 11.9802C12.04 12.0051 12.0308 12.0082 12.0676 11.9849C12.1042 11.9616 12.1503 11.9346 12.2322 11.8871L10.7251 9.2931C10.6133 9.35803 10.3383 9.5114 10.1111 9.70711C9.86392 9.92002 9.42961 10.3894 9.42961 11.1315H12.4296ZM12.4296 11.1999V11.1315H9.42961V11.1999H12.4296ZM10.6015 13.028C11.5664 13.028 12.4296 12.2604 12.4296 11.1999H9.42961C9.42961 10.5222 9.99207 10.028 10.6015 10.028V13.028ZM9.60343 13.028H10.6015V10.028H9.60343V13.028ZM7.77531 11.1999C7.77531 12.2604 8.63856 13.028 9.60343 13.028V10.028C10.2128 10.028 10.7753 10.5222 10.7753 11.1999H7.77531ZM7.77531 11.0768V11.1999H10.7753V11.0768H7.77531ZM9.65659 8.31661C9.25979 8.53684 7.77531 9.26629 7.77531 11.0768H10.7753C10.7753 11.0612 10.7769 11.0854 10.7588 11.1277C10.7418 11.1673 10.7231 11.1865 10.7263 11.1832C10.7332 11.176 10.7606 11.1502 10.8293 11.105C10.9018 11.0574 10.9835 11.0112 11.1125 10.9397L9.65659 8.31661ZM9.68164 8.3027C9.67344 8.30726 9.66514 8.31186 9.65658 8.31662L11.1125 10.9397C11.121 10.9349 11.1298 10.9301 11.1385 10.9252L9.68164 8.3027ZM9.58 8.91669C9.58 8.77681 9.61171 8.61518 9.68951 8.4585C9.76239 8.31173 9.84881 8.22358 9.88821 8.18765C9.92302 8.15592 9.93511 8.15249 9.88804 8.18215C9.84091 8.21185 9.77902 8.24746 9.67056 8.30892L11.1496 10.919C11.3052 10.8308 11.6418 10.6485 11.9095 10.4045C12.2608 10.0842 12.58 9.58935 12.58 8.91669H9.58ZM10.1366 9.74677C10.0769 9.74677 10.0314 9.73752 9.96271 9.6939C9.9021 9.65538 9.58 9.41507 9.58 8.91669H12.58C12.58 8.00815 11.9981 7.43287 11.5718 7.16194C11.1374 6.88589 10.6202 6.74677 10.1366 6.74677V9.74677ZM10.1695 9.85832C10.2058 9.81326 10.2359 9.77705 10.262 9.74683C10.288 9.71671 10.3073 9.69581 10.3215 9.68132C10.3503 9.65181 10.3486 9.65837 10.321 9.67651C10.3066 9.68598 10.2871 9.69728 10.2633 9.70831C10.2393 9.71941 10.215 9.72831 10.1918 9.7349C10.1439 9.74849 10.12 9.74677 10.1366 9.74677V6.74677C9.60768 6.74677 9.11703 6.87803 8.67396 7.16907C8.28687 7.42333 8.01127 7.75556 7.83425 7.97506L10.1695 9.85832ZM7.61366 10.1427C8.42731 10.7936 9.57065 10.6069 10.1732 9.85373L7.83057 7.97964C8.21434 7.49993 8.94752 7.3679 9.48774 7.80007L7.61366 10.1427ZM7.04958 9.71017L7.63747 10.1613L9.46393 7.78141L8.87604 7.33024L7.04958 9.71017ZM6.65193 7.22251C6.1135 7.9917 6.21876 9.18832 7.1575 9.7857L8.76812 7.25471C9.40607 7.66068 9.45665 8.44714 9.10963 8.9429L6.65193 7.22251ZM10.1093 10.4382C8.76177 10.4382 7.65226 11.5195 7.65226 12.8815H10.6523C10.6523 13.2045 10.3904 13.4382 10.1093 13.4382V10.4382ZM12.5527 12.8815C12.5527 11.5336 11.4573 10.4382 10.1093 10.4382V13.4382C9.8004 13.4382 9.55265 13.1904 9.55265 12.8815H12.5527ZM10.1093 15.3249C11.4573 15.3249 12.5527 14.2295 12.5527 12.8815H9.55265C9.55265 12.5726 9.8004 12.3249 10.1093 12.3249V15.3249ZM7.65226 12.8815C7.65226 14.2435 8.76177 15.3249 10.1093 15.3249V12.3249C10.3904 12.3249 10.6523 12.5586 10.6523 12.8815H7.65226Z" fill="white" mask="url(#path-1-outside-1_2087_2168)"/>
</svg>
