<svg width="39" height="53" viewBox="0 0 39 53" fill="none" xmlns="http://www.w3.org/2000/svg">
<path fill-rule="evenodd" clip-rule="evenodd" d="M38.1601 18.7274C38.1601 8.38495 29.7751 0 19.4329 0C9.09049 0 0.70459 8.38495 0.70459 18.7274C0.70459 32.7705 19.0486 52.0048 19.0486 52.0048C19.0486 52.0048 38.1601 32.8998 38.1601 18.7274Z" fill="#A03A3D"/>
<path fill-rule="evenodd" clip-rule="evenodd" d="M31.2363 19.7687C31.2363 26.265 25.9705 31.5329 19.4704 31.5329C12.9703 31.5329 7.70459 26.265 7.70459 19.7687C7.70459 13.2688 12.9703 8 19.4704 8C25.9705 8 31.2363 13.2688 31.2363 19.7687Z" fill="#69C4A0"/>
<path fill-rule="evenodd" clip-rule="evenodd" d="M31.2358 19.7687C31.2358 26.265 25.9696 31.5329 19.47 31.5329C12.9699 31.5329 7.70459 26.265 7.70459 19.7687C7.70459 13.2688 12.9699 8 19.47 8C25.9696 8 31.2358 13.2688 31.2358 19.7687Z" fill="#FFFFFE"/>
<path d="M10.7046 18.4046C10.7046 17.0772 12.0313 16 13.6678 16C15.3017 16 16.6275 17.0772 16.6275 18.4046" stroke="#69C4A0" stroke-width="1.05"/>
<path d="M21.7046 18.4046C21.7046 17.0772 23.0294 16 24.6652 16C26.2993 16 27.6275 17.0772 27.6275 18.4046" stroke="#69C4A0" stroke-width="1.05"/>
<path d="M11.7046 22C11.7046 22 13.1011 27.4558 19.5445 27.4558C25.9872 27.4558 27.7437 22 27.7437 22" stroke="#69C4A0" stroke-width="1.05" stroke-linecap="round" stroke-linejoin="round"/>
<path fill-rule="evenodd" clip-rule="evenodd" d="M0.70459 18.3085C10.5044 18.3035 32.3879 18.2921 38.006 18.289C37.9067 17.1623 37.7074 16.0648 37.4174 15.004L1.29605 15C1.00365 16.0679 0.803643 17.1734 0.70459 18.3085Z" fill="#A6262C"/>
<path fill-rule="evenodd" clip-rule="evenodd" d="M31.036 18.1744C30.7534 15.9757 29.8662 13.967 28.5442 12.3205C26.3239 10.6707 22.3889 10.0375 19.449 10.0013C16.241 9.96204 11.8496 10.7897 9.79255 12.7979C8.72893 14.2701 7.99508 15.9959 7.70459 17.8694C7.87603 18.5427 10.524 21.0719 13.1665 21.2207C16.3205 21.3986 18.2511 17.7489 19.449 17.7508C20.6464 17.7489 22.5775 21.3986 25.731 21.2207C28.0647 21.0893 30.4029 19.1013 31.036 18.1744Z" fill="#A6262C"/>
<path fill-rule="evenodd" clip-rule="evenodd" d="M0.70459 18.3085C10.5044 18.3035 32.3879 18.2921 38.006 18.289C37.9067 17.1623 37.7074 16.0648 37.4174 15.004L1.29605 15C1.00365 16.0679 0.803643 17.1734 0.70459 18.3085Z" fill="#CDB442"/>
<path fill-rule="evenodd" clip-rule="evenodd" d="M31.036 18.1744C30.7534 15.9757 29.8662 13.967 28.5442 12.3205C26.3239 10.6707 22.3889 10.0375 19.449 10.0013C16.241 9.96204 11.8496 10.7897 9.79255 12.7979C8.72893 14.2701 7.99508 15.9959 7.70459 17.8694C7.87603 18.5427 10.524 21.0719 13.1665 21.2207C16.3205 21.3986 18.2511 17.7489 19.449 17.7508C20.6464 17.7489 22.5775 21.3986 25.731 21.2207C28.0647 21.0893 30.4029 19.1013 31.036 18.1744Z" fill="#B55B2F"/>
<path fill-rule="evenodd" clip-rule="evenodd" d="M29.5445 17.485C29.2918 15.7406 28.4994 14.1472 27.3186 12.8409C25.3354 11.532 21.8207 11.0296 19.1947 11.0011C16.3293 10.9699 12.4069 11.6266 10.5699 13.2195C9.61964 14.3874 8.96413 15.7568 8.70459 17.243C8.85793 17.7774 11.2233 19.7837 13.5834 19.9018C16.4005 20.0427 18.1248 17.1476 19.1947 17.149C20.2645 17.1476 21.9891 20.0427 24.8061 19.9018C26.8905 19.7975 28.9787 18.2202 29.5445 17.485Z" fill="#69C4A0"/>
</svg>
