<svg width="38" height="55" viewBox="0 0 38 55" fill="none" xmlns="http://www.w3.org/2000/svg">
<circle cx="17.1738" cy="16.533" r="7.73157" transform="rotate(-75 17.1738 16.533)" stroke="#EC694C" stroke-width="2.1" stroke-linecap="round"/>
<circle cx="17.1546" cy="16.5026" r="13.4314" transform="rotate(-75 17.1546 16.5026)" stroke="#EC694C" stroke-opacity="0.299088" stroke-width="2.1" stroke-linecap="round"/>
<path d="M36.5507 38.768C36.4992 38.6133 36.4123 38.4728 36.2971 38.3575C35.2867 37.3472 32.5605 34.9766 28.9082 34.5461L28.2043 24.4985C28.1817 23.0974 27.0206 21.95 25.6146 21.95C24.2065 21.95 23.044 23.1008 23.0248 24.5047L22.9728 25.3793C22.5269 24.589 21.6783 24.05 20.7146 24.05C19.3038 24.05 18.1397 25.2051 18.1247 26.6126L17.4995 40.118L16.3489 39.5582C15.0027 38.8859 13.7046 38.5402 12.5407 38.7183C11.3001 38.9082 10.3825 39.666 9.8319 40.8075L9.76544 40.9404C9.55695 41.3574 9.64837 41.8619 9.98991 42.1792L19.5246 51.0377V52.75C19.5246 53.3299 19.9947 53.8 20.5746 53.8H33.5246C34.1045 53.8 34.5746 53.3299 34.5746 52.75V50.2594C34.9461 49.761 35.2331 49.1444 35.462 48.5021C35.7539 47.6828 35.9831 46.7288 36.16 45.7217C36.514 43.7064 36.6746 41.3864 36.6746 39.31C36.6746 39.1971 36.6564 39.085 36.6207 38.978L36.5507 38.768Z" fill="white" stroke="black" stroke-width="2.1" stroke-linejoin="round"/>
</svg>
