<svg width="37" height="51" viewBox="0 0 37 51" fill="none" xmlns="http://www.w3.org/2000/svg">
<circle cx="14.9461" cy="14.2418" r="6.72917" transform="rotate(-75 14.9461 14.2418)" stroke="#EC694C" stroke-width="2.1" stroke-linecap="round"/>
<circle cx="15.0219" cy="14.7339" r="11.69" transform="rotate(-75 15.0219 14.7339)" stroke="#EC694C" stroke-opacity="0.299088" stroke-width="2.1" stroke-linecap="round"/>
<path d="M35.6036 34.9544C35.5922 34.6919 35.4828 34.4433 35.2971 34.2575C33.6933 32.6538 31.395 31.5373 29.0359 30.8114C27.0025 30.1858 24.8536 29.8287 22.9218 29.7162L22.3041 22.4894C22.2767 21.0924 21.1176 19.95 19.7146 19.95C18.3038 19.95 17.1396 21.1051 17.1247 22.5127L16.4992 36.0878L15.349 35.5283C14.0137 34.8613 12.7168 34.494 11.5511 34.6606C10.2974 34.8396 9.37662 35.6076 8.82854 36.7842L8.76544 36.9104C8.55629 37.3287 8.64901 37.8349 8.99285 38.152L18.5246 46.9401V48.65C18.5246 49.2299 18.9947 49.7 19.5746 49.7H32.5246C33.1045 49.7 33.5746 49.2299 33.5746 48.65V46.1672C34.2757 45.2688 34.7663 44.0011 35.0968 42.5582C35.4778 40.8949 35.6746 38.8702 35.6746 36.61C35.6746 36.5948 35.6743 36.5796 35.6736 36.5644L35.6036 34.9544Z" stroke="black" stroke-width="2.1" stroke-linejoin="round"/>
</svg>
