<svg width="38" height="52" viewBox="0 0 38 52" fill="none" xmlns="http://www.w3.org/2000/svg">
<mask id="mask0_1648_2019" style="mask-type:alpha" maskUnits="userSpaceOnUse" x="0" y="0" width="38" height="52">
<path fill-rule="evenodd" clip-rule="evenodd" d="M37.6281 18.7656C37.6281 8.56987 29.3612 0.30481 19.1663 0.30481C8.97235 0.30481 0.70459 8.56987 0.70459 18.7656C0.70459 32.6079 18.7886 51.5678 18.7886 51.5678C18.7886 51.5678 37.6281 32.7356 37.6281 18.7656Z" fill="#5B4178"/>
</mask>
<g mask="url(#mask0_1648_2019)">
<rect x="0.70459" y="-1.21985" width="6.15383" height="53.2334" fill="#FB0032"/>
<rect x="6.85864" y="-1.21985" width="6.15383" height="53.2334" fill="#FC7428"/>
<rect x="13.0123" y="-1.21985" width="6.15383" height="53.2334" fill="#FEDD3A"/>
<rect x="19.1664" y="-1.21985" width="6.15383" height="53.2334" fill="#1AA742"/>
<rect x="25.3203" y="-1.21985" width="6.15383" height="53.2334" fill="#105AF6"/>
<rect x="31.4744" y="-1.21985" width="6.15383" height="53.2334" fill="#7A0CA0"/>
</g>
<path fill-rule="evenodd" clip-rule="evenodd" d="M30.9 19.9052C30.9 26.3088 25.7095 31.502 19.3023 31.502C12.8951 31.502 7.70459 26.3088 7.70459 19.9052C7.70459 13.498 12.8951 8.30481 19.3023 8.30481C25.7095 8.30481 30.9 13.498 30.9 19.9052Z" fill="white"/>
<path fill-rule="evenodd" clip-rule="evenodd" d="M15.4186 16.0683C15.4186 17.0412 15.0346 17.8308 14.5625 17.8308C14.0877 17.8308 13.7046 17.0412 13.7046 16.0683C13.7046 15.0944 14.0877 14.3048 14.5625 14.3048C15.0346 14.3048 15.4186 15.0944 15.4186 16.0683Z" fill="#5B4178"/>
<path fill-rule="evenodd" clip-rule="evenodd" d="M25.4204 16.0683C25.4204 17.0412 25.0364 17.8308 24.5625 17.8308C24.0904 17.8308 23.7046 17.0412 23.7046 16.0683C23.7046 15.0944 24.0904 14.3048 24.5625 14.3048C25.0364 14.3048 25.4204 15.0944 25.4204 16.0683Z" fill="#5B4178"/>
<path fill-rule="evenodd" clip-rule="evenodd" d="M26.4011 21.3048C26.4011 21.3048 25.2977 27.9791 19.0515 27.9791C12.5634 27.9791 11.7046 21.3048 11.7046 21.3048H26.4011Z" fill="#5B4178"/>
</svg>
