<svg width="23" height="20" viewBox="0 0 23 20" fill="none" xmlns="http://www.w3.org/2000/svg">
<path d="M19.1461 5.67677C19.5879 5.19215 19.8594 4.54585 19.8594 3.82489C19.8594 2.31693 18.6173 1.07489 17.1094 1.07489C15.5625 1.07489 14.3594 2.32459 14.3594 3.82489C14.3594 4.53944 14.6203 5.18321 15.0539 5.66792C14.4575 5.8336 13.9645 6.30625 13.8176 6.93086L12.8594 10.8055V2.32489C12.8594 1.95597 12.6825 1.64982 12.4835 1.45081C12.2844 1.2518 11.9783 1.07489 11.6094 1.07489H10.6094C9.88415 1.07489 9.35938 1.69108 9.35938 2.32489V17.3249C9.35938 18.0204 9.91391 18.5749 10.6094 18.5749H11.6094C12.2432 18.5749 12.8594 18.0501 12.8594 17.3249V14.1876C13.1355 14.4287 13.499 14.5749 13.8906 14.5749H14.8594V17.0749C14.8594 17.9266 15.5077 18.5749 16.3594 18.5749H17.8594C18.6592 18.5749 19.3594 17.9469 19.3594 17.0749V14.5749H20.2969C21.2257 14.5749 22.0735 13.7603 21.8048 12.733L20.3699 6.93087C20.2237 6.30914 19.74 5.84822 19.1461 5.67677ZM7.15396 5.6681C7.59111 5.18446 7.85938 4.54156 7.85938 3.82489C7.85938 2.31693 6.61734 1.07489 5.10938 1.07489C3.56254 1.07489 2.35938 2.32459 2.35938 3.82489C2.35938 4.53748 2.61888 5.17967 3.05034 5.66393C2.08171 5.89957 1.35938 6.77009 1.35938 7.82489V12.0749C1.35938 12.7499 1.76651 13.2971 2.35938 13.4951V17.0749C2.35938 17.9266 3.00766 18.5749 3.85938 18.5749H6.35938C7.1592 18.5749 7.85938 17.9469 7.85938 17.0749V13.4903C8.42987 13.2912 8.85938 12.7579 8.85938 12.0749V7.82489C8.85938 6.75892 8.10563 5.90686 7.15396 5.6681Z" fill="#FF9500" stroke="white" stroke-width="1.5"/>
</svg>
