<svg width="17" height="17" viewBox="0 0 17 17" fill="none" xmlns="http://www.w3.org/2000/svg">
<path d="M16.5796 14.6562L12.7983 10.875C12.7046 10.8125 12.6108 10.75 12.5171 10.75H12.1108C13.0796 9.625 13.7046 8.125 13.7046 6.5C13.7046 2.9375 10.7671 0 7.20459 0C3.61084 0 0.70459 2.9375 0.70459 6.5C0.70459 10.0938 3.61084 13 7.20459 13C8.82959 13 10.2983 12.4062 11.4546 11.4375V11.8438C11.4546 11.9375 11.4858 12.0312 11.5483 12.125L15.3296 15.9062C15.4858 16.0625 15.7358 16.0625 15.8608 15.9062L16.5796 15.1875C16.7358 15.0625 16.7358 14.8125 16.5796 14.6562ZM7.20459 11.5C4.42334 11.5 2.20459 9.28125 2.20459 6.5C2.20459 3.75 4.42334 1.5 7.20459 1.5C9.95459 1.5 12.2046 3.75 12.2046 6.5C12.2046 9.28125 9.95459 11.5 7.20459 11.5Z" fill="black"/>
</svg>
