<svg width="30" height="29" viewBox="0 0 30 29" fill="none" xmlns="http://www.w3.org/2000/svg">
<path fill-rule="evenodd" clip-rule="evenodd" d="M15.6573 28.8948C17.9909 28.5324 19.1351 25.8022 18.0645 23.7008C16.7561 21.1293 18.6253 18.1273 21.514 18.1273H26.0283C28.0561 18.1273 29.6987 16.4507 29.7044 14.4286C29.676 5.50186 21.5536 -1.52169 12.2757 0.285199C6.64561 1.38407 2.10859 5.90969 0.998434 11.5229C-1.0973 22.1149 8.45814 30.0107 15.6573 28.8948ZM15.5171 7.62506C14.5146 7.62506 13.7046 6.8151 13.7046 5.81253C13.7046 4.80996 14.5146 4 15.5171 4C16.5197 4 17.3296 4.80996 17.3296 5.81253C17.3296 6.8151 16.5197 7.62506 15.5171 7.62506ZM5.70459 8.81253C5.70459 9.8151 6.51455 10.6251 7.51712 10.6251C8.51969 10.6251 9.32965 9.8151 9.32965 8.81253C9.32965 7.80996 8.51969 7 7.51712 7C6.51455 7 5.70459 7.80996 5.70459 8.81253ZM22.5171 10.6251C21.5146 10.6251 20.7046 9.8151 20.7046 8.81253C20.7046 7.80996 21.5146 7 22.5171 7C23.5197 7 24.3296 7.80996 24.3296 8.81253C24.3296 9.8151 23.5197 10.6251 22.5171 10.6251ZM4.70459 16.8125C4.70459 17.8151 5.51455 18.6251 6.51712 18.6251C7.51969 18.6251 8.32965 17.8151 8.32965 16.8125C8.32965 15.81 7.51969 15 6.51712 15C5.51455 15 4.70459 15.81 4.70459 16.8125Z" fill="#084655"/>
</svg>
