<svg width="23" height="23" viewBox="0 0 23 23" fill="none" xmlns="http://www.w3.org/2000/svg">
<path d="M16.0503 18.7676C16.6948 18.123 16.2222 17.0059 15.3198 17.0059H13.1284V12.666H17.4253V14.9004C17.4253 15.8027 18.5425 16.2754 19.187 15.6309L22.5815 12.2363C23.0112 11.8066 23.0112 11.1621 22.5815 10.7754L19.187 7.33789C18.5425 6.69336 17.4253 7.16602 17.4253 8.06836V10.2598H13.0854V5.96289H15.3198C16.2222 5.96289 16.6948 4.8457 16.0503 4.20117L12.6128 0.806641C12.2261 0.376953 11.5815 0.376953 11.1519 0.806641L7.75732 4.20117C7.11279 4.8457 7.58545 5.96289 8.48779 5.96289H10.7222V10.2598H6.38232V8.06836C6.38232 7.16602 5.26514 6.69336 4.62061 7.33789L1.22607 10.7324C0.796387 11.1621 0.796387 11.8066 1.22607 12.1934L4.62061 15.6309C5.26514 16.2754 6.38232 15.8027 6.38232 14.9004V12.666H10.7222V17.0059H8.48779C7.58545 17.0059 7.11279 18.123 7.75732 18.7676L11.1948 22.1621C11.5815 22.5918 12.2261 22.5918 12.6558 22.1621L16.0503 18.7676Z" fill="#485799"/>
</svg>
