<svg width="23" height="20" viewBox="0 0 23 20" fill="none" xmlns="http://www.w3.org/2000/svg">
<path d="M19.1462 5.67677C19.588 5.19215 19.8595 4.54585 19.8595 3.82489C19.8595 2.31693 18.6175 1.07489 17.1095 1.07489C15.5627 1.07489 14.3595 2.32459 14.3595 3.82489C14.3595 4.53944 14.6204 5.18321 15.054 5.66792C14.4576 5.8336 13.9646 6.30625 13.8177 6.93086L12.8595 10.8055V2.32489C12.8595 1.95597 12.6826 1.64982 12.4836 1.45081C12.2846 1.2518 11.9784 1.07489 11.6095 1.07489H10.6095C9.88427 1.07489 9.3595 1.69108 9.3595 2.32489V17.3249C9.3595 18.0204 9.91403 18.5749 10.6095 18.5749H11.6095C12.2433 18.5749 12.8595 18.0501 12.8595 17.3249V14.1876C13.1356 14.4287 13.4991 14.5749 13.8907 14.5749H14.8595V17.0749C14.8595 17.9266 15.5078 18.5749 16.3595 18.5749H17.8595C18.6593 18.5749 19.3595 17.9469 19.3595 17.0749V14.5749H20.297C21.2258 14.5749 22.0736 13.7603 21.8049 12.733L20.37 6.93087C20.2239 6.30914 19.7401 5.84822 19.1462 5.67677ZM7.15408 5.6681C7.59124 5.18446 7.8595 4.54156 7.8595 3.82489C7.8595 2.31693 6.61746 1.07489 5.1095 1.07489C3.56266 1.07489 2.3595 2.32459 2.3595 3.82489C2.3595 4.53748 2.619 5.17967 3.05046 5.66393C2.08183 5.89957 1.3595 6.77009 1.3595 7.82489V12.0749C1.3595 12.7499 1.76663 13.2971 2.3595 13.4951V17.0749C2.3595 17.9266 3.00778 18.5749 3.8595 18.5749H6.3595C7.15932 18.5749 7.8595 17.9469 7.8595 17.0749V13.4903C8.42999 13.2912 8.8595 12.7579 8.8595 12.0749V7.82489C8.8595 6.75892 8.10575 5.90686 7.15408 5.6681Z" fill="#419B77" stroke="white" stroke-width="1.5"/>
</svg>
