<svg width="18" height="20" viewBox="0 0 18 20" fill="none" xmlns="http://www.w3.org/2000/svg">
<path d="M16.0823 16.754C15.929 16.6007 15.6998 16.4582 15.4192 16.4246V2.91718C15.4192 2.09671 14.7397 1.41718 13.9192 1.41718H3.41919C2.54713 1.41718 1.91919 2.11735 1.91919 2.91718V16.4238C1.316 16.4886 0.919189 17.0169 0.919189 17.5422V18.1672V18.9172H1.66919H15.6692H16.4192V18.1672V17.5422C16.4192 17.2045 16.2579 16.9296 16.0823 16.754ZM6.41919 5.41718V4.91718H6.91919V5.41718H6.41919ZM6.41919 8.41718V7.91718H6.91919V8.41718H6.41919ZM6.91919 10.9172V11.4172H6.41919V10.9172H6.91919ZM8.91919 16.4172H8.41919V14.9172H8.91919V16.4172ZM10.9192 10.9172V11.4172H10.4192V10.9172H10.9192ZM10.9192 7.91718V8.41718H10.4192V7.91718H10.9192ZM10.9192 4.91718V5.41718H10.4192V4.91718H10.9192Z" fill="#FF9C88" stroke="white" stroke-width="1.5"/>
</svg>
