<svg width="30" height="54" viewBox="0 0 30 54" fill="none" xmlns="http://www.w3.org/2000/svg">
<circle cx="13.1128" cy="8.59183" r="6.59183" transform="rotate(90 13.1128 8.59183)" fill="white" stroke="#EC694C" stroke-opacity="0.196514" stroke-width="2.1" stroke-linecap="round"/>
<circle cx="13.1128" cy="15.5918" r="6.59183" transform="rotate(90 13.1128 15.5918)" fill="white" stroke="#EC694C" stroke-opacity="0.504398" stroke-width="2.1" stroke-linecap="round"/>
<circle cx="13.1128" cy="21.5918" r="6.59183" transform="rotate(90 13.1128 21.5918)" fill="white" stroke="#EC694C" stroke-width="2.1" stroke-linecap="round"/>
<path d="M28.6036 37.9544C28.5922 37.6919 28.4828 37.4433 28.2971 37.2575C26.6933 35.6538 24.395 34.5373 22.0359 33.8114C20.0025 33.1858 17.8536 32.8287 15.9218 32.7162L15.3041 25.4894C15.2767 24.0924 14.1176 22.95 12.7146 22.95C11.3038 22.95 10.1396 24.1051 10.1247 25.5127L9.49915 39.0878L8.34901 38.5283C7.01367 37.8613 5.71679 37.494 4.5511 37.6606C3.29745 37.8396 2.37662 38.6076 1.82854 39.7842L1.76544 39.9104C1.55629 40.3287 1.64901 40.8349 1.99285 41.152L11.5246 49.9401V51.65C11.5246 52.2299 11.9947 52.7 12.5746 52.7H25.5246C26.1045 52.7 26.5746 52.2299 26.5746 51.65V49.1672C27.2757 48.2688 27.7663 47.0011 28.0968 45.5582C28.4778 43.8949 28.6746 41.8702 28.6746 39.61C28.6746 39.5948 28.6743 39.5796 28.6736 39.5644L28.6036 37.9544Z" fill="white" stroke="black" stroke-width="2.1" stroke-linejoin="round"/>
</svg>
