<svg width="27" height="27" viewBox="0 0 27 27" fill="none" xmlns="http://www.w3.org/2000/svg">
<path fill-rule="evenodd" clip-rule="evenodd" d="M13.7827 26.1562C21.005 26.1562 26.8608 20.3025 26.8608 13.0781C26.8608 5.85788 21.005 0 13.7827 0C6.56036 0 0.70459 5.85788 0.70459 13.0781C0.70459 20.3025 6.56036 26.1562 13.7827 26.1562ZM15.0835 15.707H12.1304C11.781 15.707 11.4976 15.4237 11.4976 15.0742V14.8633C11.4976 12.7498 13.0617 11.8746 14.2901 11.1872L14.3797 11.1371C15.4434 10.5407 16.0953 10.1351 16.0953 9.34542C16.0953 8.30072 14.7628 7.6074 13.6855 7.6074C12.2516 7.6074 11.6057 8.30026 10.6636 9.49512C10.4503 9.76565 10.0593 9.81519 9.78478 9.60703L7.95499 8.21956C7.68772 8.01692 7.62535 7.64098 7.81183 7.36222C9.25115 5.21062 11.0841 4 13.9579 4C16.9304 4 20.1031 6.3202 20.1031 9.37889C20.1031 11.9049 18.4063 12.8841 17.1233 13.6245C16.3434 14.0746 15.7164 14.4364 15.7164 15.0039V15.0742C15.7164 15.4237 15.433 15.707 15.0835 15.707ZM11.7046 19.4258C11.7046 20.7633 12.7927 21.8516 14.1304 21.8516C15.468 21.8516 16.5561 20.7633 16.5561 19.4258C16.5561 18.0882 15.468 17 14.1304 17C12.7927 17 11.7046 18.0882 11.7046 19.4258Z" fill="#D7C684"/>
</svg>
