<svg width="40" height="30" viewBox="0 0 40 30" fill="none" xmlns="http://www.w3.org/2000/svg">
<path fill-rule="evenodd" clip-rule="evenodd" d="M12.3031 10.2993C12.3031 11.5685 11.2746 12.5985 10.0039 12.5985C8.73466 12.5985 7.70459 11.5685 7.70459 10.2993C7.70459 9.02854 8.73466 8 10.0039 8C11.2746 8 12.3031 9.02854 12.3031 10.2993Z" fill="#E43D48"/>
<mask id="mask0_0_208934" style="mask-type:alpha" maskUnits="userSpaceOnUse" x="5" y="14" width="9" height="16">
<path fill-rule="evenodd" clip-rule="evenodd" d="M5.70459 14H13.493V29.109H5.70459V14Z" fill="white"/>
</mask>
<g mask="url(#mask0_0_208934)">
<path fill-rule="evenodd" clip-rule="evenodd" d="M13.493 21.1845C13.4608 20.5912 13.0807 20.0793 12.5273 19.9137V16.5553C12.5196 15.1481 11.4206 14.0061 10.0625 14H9.32978C7.96861 14.0031 6.86496 15.145 6.85729 16.5553V19.8754C6.19664 19.9628 5.70306 20.5483 5.70459 21.2381V22.0904V23.7872H5.72759V27.7312C5.7797 28.4547 6.36065 29.0127 7.05963 29.0127C7.75708 29.0127 8.33802 28.4547 8.39014 27.7312V23.7872H10.8473V27.7312C10.8473 28.4931 11.442 29.1093 12.1747 29.1093C12.8906 29.1093 13.4639 28.5191 13.493 27.7834V21.1845Z" fill="#E43D48"/>
</g>
<path fill-rule="evenodd" clip-rule="evenodd" d="M22.3031 10.2993C22.3031 11.5685 21.2731 12.5985 20.0039 12.5985C18.7331 12.5985 17.7046 11.5685 17.7046 10.2993C17.7046 9.02854 18.7331 8 20.0039 8C21.2731 8 22.3031 9.02854 22.3031 10.2993Z" fill="#E43D48"/>
<mask id="mask1_0_208934" style="mask-type:alpha" maskUnits="userSpaceOnUse" x="15" y="14" width="9" height="16">
<path fill-rule="evenodd" clip-rule="evenodd" d="M15.7046 14H23.4915V29.109H15.7046V14Z" fill="white"/>
</mask>
<g mask="url(#mask1_0_208934)">
<path fill-rule="evenodd" clip-rule="evenodd" d="M23.4915 21.1845C23.4593 20.5912 23.0791 20.0793 22.5258 19.9137V16.5553C22.5181 15.1481 21.4191 14.0061 20.061 14H19.3283C17.9671 14.0031 16.8634 15.145 16.8558 16.5553V19.8754C16.1966 19.9628 15.7015 20.5483 15.7046 21.2381V22.0904V23.7872H15.7261V27.7312C15.7782 28.4547 16.3591 29.0127 17.0581 29.0127C17.7571 29.0127 18.3365 28.4547 18.3886 27.7312V23.7872H20.8458V27.7312C20.8458 28.4931 21.4405 29.1093 22.1747 29.1093C22.8891 29.1093 23.4623 28.5191 23.4915 27.7834V21.1845Z" fill="#E43D48"/>
</g>
<path fill-rule="evenodd" clip-rule="evenodd" d="M32.3031 10.2993C32.3031 11.5685 31.2746 12.5985 30.0039 12.5985C28.7331 12.5985 27.7046 11.5685 27.7046 10.2993C27.7046 9.02854 28.7331 8 30.0039 8C31.2746 8 32.3031 9.02854 32.3031 10.2993Z" fill="#E43D48"/>
<mask id="mask2_0_208934" style="mask-type:alpha" maskUnits="userSpaceOnUse" x="25" y="14" width="9" height="16">
<path fill-rule="evenodd" clip-rule="evenodd" d="M25.7046 14H33.4915V29.109H25.7046V14Z" fill="white"/>
</mask>
<g mask="url(#mask2_0_208934)">
<path fill-rule="evenodd" clip-rule="evenodd" d="M33.4915 21.1845C33.4593 20.5912 33.0791 20.0793 32.5258 19.9137V16.5553C32.5181 15.1481 31.419 14.0061 30.0609 14H29.3282C27.9671 14.0031 26.8634 15.145 26.8558 16.5553V19.8754C26.1966 19.9628 25.7031 20.5483 25.7046 21.2381V22.0904V23.7872H25.7261V27.7312C25.7782 28.4547 26.3591 29.0127 27.0581 29.0127C27.7571 29.0127 28.338 28.4547 28.3886 27.7312V23.7872H30.8458V27.7312C30.8458 28.4931 31.4405 29.1093 32.1747 29.1093C32.889 29.1093 33.4639 28.5191 33.4915 27.7834V21.1845Z" fill="#E43D48"/>
</g>
<mask id="mask3_0_208934" style="mask-type:alpha" maskUnits="userSpaceOnUse" x="0" y="0" width="40" height="24">
<path fill-rule="evenodd" clip-rule="evenodd" d="M0.70459 0H39.0258V23.8034H0.70459V0Z" fill="white"/>
</mask>
<g mask="url(#mask3_0_208934)">
<path fill-rule="evenodd" clip-rule="evenodd" d="M37.293 21.4296C36.8899 21.9186 36.2997 22.1991 35.6789 22.1915H35.0474V22.2068H5.40366H5.17833H4.83804C4.19271 22.2083 3.57958 21.9064 3.1749 21.3836C2.77023 20.8594 2.61541 20.1742 2.7549 19.5197L5.27184 7.73518C5.49257 6.72504 6.35556 6.0046 7.35498 6H33.4425C34.4695 6.0046 35.3494 6.76489 35.5394 7.81182L37.7406 19.6638C37.8479 20.2923 37.6839 20.9376 37.293 21.4296ZM38.9626 19.2371L38.9488 19.2217L36.7477 7.37591C36.4104 5.54722 34.8745 4.22131 33.0796 4.21058H20.5424V0.708023C20.5424 0.317147 20.2374 -0.000152588 19.8603 -0.000152588C19.4832 -0.000152588 19.1782 0.317147 19.1782 0.708023V4.21058H6.97058C5.21394 4.21671 3.69489 5.47824 3.30248 7.25481L0.793208 19.0623C0.54642 20.215 0.817734 21.4244 1.53051 22.3457C2.24481 23.2685 3.32241 23.8034 4.46131 23.8034H4.79394H5.01927H34.663H35.0355H35.2945C36.4028 23.8065 37.4543 23.2976 38.164 22.4147C38.8737 21.5317 39.1665 20.3668 38.9626 19.2371Z" fill="#E43D48"/>
</g>
</svg>
