<svg width="58" height="30" viewBox="0 0 58 30" fill="none" xmlns="http://www.w3.org/2000/svg">
<path fill-rule="evenodd" clip-rule="evenodd" d="M11.3031 10.2993C11.3031 11.5685 10.2746 12.5985 9.00386 12.5985C7.73466 12.5985 6.70459 11.5685 6.70459 10.2993C6.70459 9.03007 7.73466 8 9.00386 8C10.2746 8 11.3031 9.03007 11.3031 10.2993Z" fill="#E43D48"/>
<path fill-rule="evenodd" clip-rule="evenodd" d="M13.4915 21.186C13.4593 20.5928 13.0791 20.0793 12.5258 19.9153V16.5568C12.5181 15.1496 11.419 14.0077 10.0625 14H9.32824C7.96708 14.0031 6.86496 15.1466 6.85576 16.5568V19.8769C6.19664 19.9643 5.70306 20.5483 5.70459 21.2381V22.0919V23.7888H5.72759V27.7328C5.77817 28.4547 6.35912 29.0142 7.0581 29.0142C7.75708 29.0142 8.33802 28.4547 8.38861 27.7328V23.7888H10.8458V27.7328C10.8458 28.4931 11.4405 29.1093 12.1747 29.1093C12.889 29.1093 13.4639 28.5191 13.4915 27.7849V21.186Z" fill="#E43D48"/>
<path fill-rule="evenodd" clip-rule="evenodd" d="M21.3031 10.2993C21.3031 11.5685 20.2746 12.5985 19.0039 12.5985C17.7347 12.5985 16.7046 11.5685 16.7046 10.2993C16.7046 9.03007 17.7347 8 19.0039 8C20.2746 8 21.3031 9.03007 21.3031 10.2993Z" fill="#E43D48"/>
<path fill-rule="evenodd" clip-rule="evenodd" d="M23.493 21.186C23.4608 20.5928 23.0807 20.0793 22.5273 19.9153V16.5568C22.5196 15.1496 21.4206 14.0077 20.0625 14H19.3298C17.9686 14.0031 16.865 15.1466 16.8573 16.5568V19.8769C16.1966 19.9643 15.7031 20.5483 15.7046 21.2381V22.0919V23.7888H15.7276V27.7328C15.7797 28.4547 16.3607 29.0142 17.0596 29.0142C17.7571 29.0142 18.338 28.4547 18.3901 27.7328V23.7888H20.8473V27.7328C20.8473 28.4931 21.442 29.1093 22.1747 29.1093C22.8906 29.1093 23.4639 28.5191 23.493 27.7849V21.186Z" fill="#E43D48"/>
<path fill-rule="evenodd" clip-rule="evenodd" d="M31.3031 10.2993C31.3031 11.5685 30.2731 12.5985 29.0039 12.5985C27.7331 12.5985 26.7046 11.5685 26.7046 10.2993C26.7046 9.03007 27.7331 8 29.0039 8C30.2731 8 31.3031 9.03007 31.3031 10.2993Z" fill="#E43D48"/>
<path fill-rule="evenodd" clip-rule="evenodd" d="M32.4915 21.186C32.4593 20.5928 32.0791 20.0793 31.5258 19.9153V16.5568C31.5181 15.1496 30.4191 14.0077 29.061 14H28.3283C26.9671 14.0031 25.8634 15.1466 25.8558 16.5568V19.8769C25.1966 19.9643 24.7015 20.5483 24.7046 21.2381V22.0919V23.7888H24.7261V27.7328C24.7782 28.4547 25.3591 29.0142 26.0581 29.0142C26.7571 29.0142 27.3365 28.4547 27.3886 27.7328V23.7888H29.8458V27.7328C29.8458 28.4931 30.4405 29.1093 31.1747 29.1093C31.8891 29.1093 32.4623 28.5191 32.4915 27.7849V21.186Z" fill="#E43D48"/>
<path fill-rule="evenodd" clip-rule="evenodd" d="M41.3031 10.2993C41.3031 11.5685 40.2746 12.5985 39.0039 12.5985C37.7331 12.5985 36.7046 11.5685 36.7046 10.2993C36.7046 9.03007 37.7331 8 39.0039 8C40.2746 8 41.3031 9.03007 41.3031 10.2993Z" fill="#E43D48"/>
<path fill-rule="evenodd" clip-rule="evenodd" d="M42.4915 21.186C42.4593 20.5928 42.0791 20.0793 41.5258 19.9153V16.5568C41.5181 15.1496 40.419 14.0077 39.0609 14H38.3282C36.9671 14.0031 35.8634 15.1466 35.8558 16.5568V19.8769C35.1966 19.9643 34.7031 20.5483 34.7046 21.2381V22.0919V23.7888H34.7261V27.7328C34.7782 28.4547 35.3591 29.0142 36.0581 29.0142C36.7571 29.0142 37.338 28.4547 37.3886 27.7328V23.7888H39.8458V27.7328C39.8458 28.4931 40.4405 29.1093 41.1747 29.1093C41.889 29.1093 42.4639 28.5191 42.4915 27.7849V21.186Z" fill="#E43D48"/>
<path fill-rule="evenodd" clip-rule="evenodd" d="M51.3031 10.2993C51.3031 11.5685 50.2746 12.5985 49.0039 12.5985C47.7347 12.5985 46.7046 11.5685 46.7046 10.2993C46.7046 9.03007 47.7347 8 49.0039 8C50.2746 8 51.3031 9.03007 51.3031 10.2993Z" fill="#E43D48"/>
<path fill-rule="evenodd" clip-rule="evenodd" d="M52.4915 21.186C52.4593 20.5928 52.0791 20.0793 51.5258 19.9153V16.5568C51.5181 15.1496 50.419 14.0077 49.0625 14H48.3282C46.9671 14.0031 45.865 15.1466 45.8558 16.5568V19.8769C45.1966 19.9643 44.7031 20.5483 44.7046 21.2381V22.0919V23.7888H44.7276V27.7328C44.7782 28.4547 45.3591 29.0142 46.0581 29.0142C46.7571 29.0142 47.338 28.4547 47.3886 27.7328V23.7888H49.8458V27.7328C49.8458 28.4931 50.4405 29.1093 51.1747 29.1093C51.889 29.1093 52.4639 28.5191 52.4915 27.7849V21.186Z" fill="#E43D48"/>
<mask id="mask0_0_208904" style="mask-type:alpha" maskUnits="userSpaceOnUse" x="0" y="0" width="58" height="24">
<path fill-rule="evenodd" clip-rule="evenodd" d="M0.70459 0H57.4199V23.8036H0.70459V0Z" fill="white"/>
</mask>
<g mask="url(#mask0_0_208904)">
<path fill-rule="evenodd" clip-rule="evenodd" d="M55.6872 21.4296C55.284 21.9186 54.6939 22.1976 54.0731 22.1899H53.4415V22.2068H5.40366H5.17833H4.83804C4.19271 22.2083 3.57958 21.9048 3.1749 21.3821C2.77023 20.8594 2.61541 20.1742 2.7549 19.5182L5.27184 7.73518C5.49257 6.72504 6.35556 6.0046 7.35498 6H51.8367C52.8637 6.0046 53.7435 6.76336 53.9336 7.81029L56.1348 19.6638C56.2421 20.2923 56.078 20.9376 55.6872 21.4296ZM57.3568 19.2357L57.343 19.2204L55.1418 7.37606C54.8046 5.54737 53.2687 4.21993 51.4737 4.2092H29.7395V0.708175C29.7395 0.317299 29.4345 0 29.0574 0C28.6803 0 28.3753 0.317299 28.3753 0.708175V4.2092H6.97058C5.21394 4.21686 3.69489 5.47839 3.30248 7.25343L0.793208 19.0609C0.54642 20.2152 0.817734 21.4246 1.53051 22.3458C2.24481 23.2686 3.32241 23.8036 4.46131 23.8036H4.79394H5.01927H53.0571H53.4296H53.6887C54.7969 23.8066 55.8485 23.2977 56.5582 22.4148C57.2679 21.5319 57.5607 20.3654 57.3568 19.2357Z" fill="#E43D48"/>
</g>
</svg>
