<svg width="38" height="52" viewBox="0 0 38 52" fill="none" xmlns="http://www.w3.org/2000/svg">
<path fill-rule="evenodd" clip-rule="evenodd" d="M37.6272 18.4608C37.6272 8.26507 29.3612 0 19.1663 0C8.97055 0 0.70459 8.26507 0.70459 18.4608C0.70459 32.3031 18.7877 51.263 18.7877 51.263C18.7877 51.263 37.6272 32.4308 37.6272 18.4608Z" fill="#2F5262"/>
<path fill-rule="evenodd" clip-rule="evenodd" d="M30.9018 19.6004C30.9018 26.004 25.7113 31.1972 19.3041 31.1972C12.8969 31.1972 7.70459 26.004 7.70459 19.6004C7.70459 13.1932 12.8969 8 19.3041 8C25.7113 8 30.9018 13.1932 30.9018 19.6004Z" fill="white"/>
<path fill-rule="evenodd" clip-rule="evenodd" d="M14.4932 15.8336C14.4932 16.8479 14.0921 17.6681 13.5993 17.6681C13.1057 17.6681 12.7046 16.8479 12.7046 15.8336C12.7046 14.821 13.1057 14 13.5993 14C14.0921 14 14.4932 14.821 14.4932 15.8336Z" fill="#2F5262"/>
<path fill-rule="evenodd" clip-rule="evenodd" d="M25.495 15.8336C25.495 16.8479 25.0939 17.6681 24.5985 17.6681C24.103 17.6681 23.7046 16.8479 23.7046 15.8336C23.7046 14.821 24.103 14 24.5985 14C25.0939 14 25.495 14.821 25.495 15.8336Z" fill="#2F5262"/>
<path fill-rule="evenodd" clip-rule="evenodd" d="M27.0468 21C27.0468 21 25.8967 27.945 19.3743 27.945C12.5993 27.945 11.7046 21 11.7046 21H27.0468Z" fill="#2F5262"/>
<path fill-rule="evenodd" clip-rule="evenodd" d="M12.7046 22.1654H25.3616V21H12.7046V22.1654Z" fill="white"/>
</svg>
