<svg width="16" height="16" viewBox="0 0 16 16" fill="none" xmlns="http://www.w3.org/2000/svg">
<path d="M2.35107 1.93935L3.05818 2.64645L2.35107 1.93935ZM3.76529 1.93935L4.47239 1.23224V1.23224L3.76529 1.93935ZM2.35107 3.35356L1.64397 4.06067L1.64397 4.06067L2.35107 3.35356ZM6.79041 7.7929L7.49752 8.5L8.20462 7.7929L7.49752 7.08579L6.79041 7.7929ZM1.64397 12.9393L0.936861 12.2322H0.93686L1.64397 12.9393ZM1.64397 14.3536L0.93686 15.0607L0.936861 15.0607L1.64397 14.3536ZM3.05818 14.3536L3.76529 15.0607L3.76529 15.0607L3.05818 14.3536ZM8.20462 9.20711L8.91173 8.5L8.20462 7.7929L7.49752 8.5L8.20462 9.20711ZM14.3535 12.5276L15.0606 11.8205L15.0606 11.8205L14.3535 12.5276ZM9.61884 7.7929L8.91173 7.08579L8.20462 7.7929L8.91173 8.5L9.61884 7.7929ZM13.6464 3.76532L14.3535 4.47242V4.47242L13.6464 3.76532ZM13.6464 2.3511L14.3535 1.644L14.3535 1.644L13.6464 2.3511ZM12.2322 2.3511L11.5251 1.644L11.5251 1.644L12.2322 2.3511ZM8.20462 6.37868L7.49752 7.08579L8.20462 7.7929L8.91173 7.08579L8.20462 6.37868ZM3.05818 2.64645L3.05818 2.64645L4.47239 1.23224C3.69135 0.451192 2.42502 0.451192 1.64397 1.23224L3.05818 2.64645ZM3.05818 2.64645H3.05818L1.64397 1.23224C0.862919 2.01329 0.862919 3.27962 1.64397 4.06067L3.05818 2.64645ZM7.49752 7.08579L3.05818 2.64645L1.64397 4.06067L6.0833 8.5L7.49752 7.08579ZM2.35107 13.6464L7.49752 8.5L6.0833 7.08579L0.936861 12.2322L2.35107 13.6464ZM2.35107 13.6464V13.6464L0.93686 12.2322C0.155812 13.0133 0.155812 14.2796 0.93686 15.0607L2.35107 13.6464ZM2.35107 13.6464H2.35107L0.936861 15.0607C1.71791 15.8417 2.98424 15.8417 3.76529 15.0607L2.35107 13.6464ZM7.49752 8.5L2.35107 13.6464L3.76529 15.0607L8.91173 9.91422L7.49752 8.5ZM13.6464 13.2347L8.91173 8.5L7.49752 9.91422L12.2322 14.6489L13.6464 13.2347ZM13.6464 13.2347L12.2322 14.6489C13.0133 15.43 14.2796 15.43 15.0606 14.6489L13.6464 13.2347ZM13.6464 13.2347L13.6464 13.2347L15.0606 14.6489C15.8417 13.8679 15.8417 12.6015 15.0606 11.8205L13.6464 13.2347ZM8.91173 8.5L13.6464 13.2347L15.0606 11.8205L10.3259 7.08579L8.91173 8.5ZM12.9393 3.05821L8.91173 7.08579L10.3259 8.5L14.3535 4.47242L12.9393 3.05821ZM12.9393 3.05821V3.05821L14.3535 4.47242C15.1346 3.69138 15.1346 2.42505 14.3535 1.644L12.9393 3.05821ZM12.9393 3.05821L12.9393 3.05821L14.3535 1.644C13.5725 0.86295 12.3061 0.862949 11.5251 1.644L12.9393 3.05821ZM8.91173 7.08579L12.9393 3.05821L11.5251 1.644L7.49752 5.67158L8.91173 7.08579ZM3.05818 2.64645L7.49752 7.08579L8.91173 5.67158L4.47239 1.23224L3.05818 2.64645Z" fill="black"/>
</svg>
