<svg width="32" height="29" viewBox="0 0 32 29" fill="none" xmlns="http://www.w3.org/2000/svg">
<mask id="mask0_0_208977" style="mask-type:alpha" maskUnits="userSpaceOnUse" x="0" y="0" width="32" height="29">
<path fill-rule="evenodd" clip-rule="evenodd" d="M0.70459 0H31.388V28.8142H0.70459V0Z" fill="white"/>
</mask>
<g mask="url(#mask0_0_208977)">
<path fill-rule="evenodd" clip-rule="evenodd" d="M22.7046 22.3516C23.1549 22.1073 23.4723 21.6861 23.5929 21.1748C23.9058 21.5686 24.3622 21.8311 24.8979 21.8616L22.7046 22.3516ZM10.7046 25.4083C11.2037 25.1488 11.5456 24.6711 11.6402 24.0972L20.6943 22C20.9965 22.4854 21.4987 22.8181 22.1016 22.8593L10.7046 25.4083ZM7.70459 26.3546C8.15943 26.1104 8.47996 25.6876 8.60054 25.1717C8.91496 25.5686 9.37438 25.8326 9.91317 25.8586L7.70459 26.3546ZM7.70459 11.16L12.7155 10V15.8656L7.70459 17.0256V11.16ZM14.7046 10.1295L19.5812 9V14.8656L14.7046 15.9951V10.1295ZM20.7046 8.45576L22.4537 8.04976C23.0414 7.91391 23.6534 8.06197 24.1357 8.4237C25.4636 9.41734 26.5366 10.7742 27.1762 12.4211L27.3196 12.7874L20.7046 14.3199V8.45576ZM7.11106 17.8656L2.70459 18.8867V13.0211L7.11106 12V17.8656ZM31.3699 21.3627C31.2783 20.9506 30.8753 20.6957 30.4587 20.7842L26.2735 21.7198C26.8062 21.4375 27.171 20.9124 27.2275 20.2836L27.4869 20.2241C28.595 19.9676 29.5383 19.2426 30.0695 18.2353C30.6021 17.2279 30.6723 16.0389 30.2587 14.9766L28.998 11.7362C27.1923 7.09621 22.4821 4.36105 17.6162 5.01126L18.6145 2.99347C18.7854 2.64852 18.6709 2.22879 18.3473 2.01816L15.4596 0.125524C15.107 -0.106476 14.6338 -0.00726504 14.4033 0.343788C14.1729 0.697893 14.2706 1.16952 14.6231 1.4L16.9462 2.92326L15.7404 5.35926L3.84735 7.77542C2.02645 8.14631 0.704662 9.76421 0.704662 11.6233V21.4894C0.704662 22.6921 1.24498 23.8124 2.18671 24.5603C2.89187 25.1205 3.74508 25.4151 4.62119 25.4151C4.86845 25.4151 5.11877 25.3754 5.36603 25.3281C5.67587 25.7646 6.15208 26.0607 6.71835 26.0943L1.30145 27.3062C0.890873 27.3993 0.631399 27.8068 0.722978 28.2189C0.802346 28.573 1.11677 28.8142 1.46629 28.8142C1.52277 28.8142 1.57771 28.8096 1.63419 28.7974L30.7914 22.2739C31.202 22.1823 31.4615 21.7733 31.3699 21.3627Z" fill="#E43D48"/>
</g>
</svg>
