<svg width="20" height="18" viewBox="0 0 20 18" fill="none" xmlns="http://www.w3.org/2000/svg">
<mask id="path-1-outside-1_2889_2398" maskUnits="userSpaceOnUse" x="-0.330566" y="0.186768" width="20" height="18" fill="black">
<rect fill="white" x="-0.330566" y="0.186768" width="20" height="18"/>
<path fill-rule="evenodd" clip-rule="evenodd" d="M10.2869 3.58125C11.8806 1.95625 14.4119 1.675 16.1306 3.14375C18.0994 4.83125 18.1931 7.83125 16.4431 9.64375L10.3806 15.8938C10.0056 16.3 9.34938 16.3 8.97438 15.8938L2.91188 9.64375C1.16188 7.83125 1.25563 4.83125 3.22438 3.14375C4.94313 1.675 7.50563 1.95625 9.06813 3.58125L9.69313 4.20625L10.2869 3.58125ZM10.6692 7.91382H12.9004C13.1638 7.91382 13.3962 8.14624 13.3962 8.40965V9.40131C13.3962 9.68021 13.1638 9.89713 12.9004 9.89713H10.6692V12.1284C10.6692 12.4073 10.4367 12.6242 10.1733 12.6242H9.18168C8.90278 12.6242 8.68585 12.4073 8.68585 12.1284V9.89713H6.45463C6.17573 9.89713 5.9588 9.68021 5.9588 9.40131V8.40965C5.9588 8.14624 6.17573 7.91382 6.45463 7.91382H8.68585V5.6826C8.68585 5.41919 8.90278 5.18677 9.18168 5.18677H10.1733C10.4367 5.18677 10.6692 5.41919 10.6692 5.6826V7.91382Z"/>
</mask>
<path fill-rule="evenodd" clip-rule="evenodd" d="M10.2869 3.58125C11.8806 1.95625 14.4119 1.675 16.1306 3.14375C18.0994 4.83125 18.1931 7.83125 16.4431 9.64375L10.3806 15.8938C10.0056 16.3 9.34938 16.3 8.97438 15.8938L2.91188 9.64375C1.16188 7.83125 1.25563 4.83125 3.22438 3.14375C4.94313 1.675 7.50563 1.95625 9.06813 3.58125L9.69313 4.20625L10.2869 3.58125ZM10.6692 7.91382H12.9004C13.1638 7.91382 13.3962 8.14624 13.3962 8.40965V9.40131C13.3962 9.68021 13.1638 9.89713 12.9004 9.89713H10.6692V12.1284C10.6692 12.4073 10.4367 12.6242 10.1733 12.6242H9.18168C8.90278 12.6242 8.68585 12.4073 8.68585 12.1284V9.89713H6.45463C6.17573 9.89713 5.9588 9.68021 5.9588 9.40131V8.40965C5.9588 8.14624 6.17573 7.91382 6.45463 7.91382H8.68585V5.6826C8.68585 5.41919 8.90278 5.18677 9.18168 5.18677H10.1733C10.4367 5.18677 10.6692 5.41919 10.6692 5.6826V7.91382Z" fill="#FF9C88"/>
<path d="M16.1306 3.14375L17.1068 2.00486L17.1051 2.0034L16.1306 3.14375ZM10.2869 3.58125L9.21597 2.53094L9.2076 2.53947L9.19938 2.54813L10.2869 3.58125ZM16.4431 9.64375L17.5198 10.6881L17.5222 10.6856L16.4431 9.64375ZM10.3806 15.8938L9.30394 14.8494L9.29101 14.8627L9.27842 14.8763L10.3806 15.8938ZM8.97438 15.8938L10.0766 14.8763L10.064 14.8627L10.0511 14.8494L8.97438 15.8938ZM2.91188 9.64375L1.83277 10.6856L1.83519 10.6881L2.91188 9.64375ZM3.22438 3.14375L2.2499 2.0034L2.24819 2.00486L3.22438 3.14375ZM9.06813 3.58125L7.98688 4.62091L7.99707 4.63151L8.00747 4.64191L9.06813 3.58125ZM9.69313 4.20625L8.63246 5.26691L9.72067 6.35512L10.7806 5.23937L9.69313 4.20625ZM10.6692 7.91382H9.16917V9.41382H10.6692V7.91382ZM10.6692 9.89713V8.39713H9.16917V9.89713H10.6692ZM8.68585 9.89713H10.1859V8.39713H8.68585V9.89713ZM8.68585 7.91382V9.41382H10.1859V7.91382H8.68585ZM17.1051 2.0034C14.7023 -0.0499427 11.2804 0.426062 9.21597 2.53094L11.3578 4.63156C12.4809 3.48644 14.1215 3.39994 15.1561 4.2841L17.1051 2.0034ZM17.5222 10.6856C19.8629 8.26134 19.7408 4.26259 17.1068 2.00486L15.1544 4.28263C16.4579 5.39991 16.5233 7.40115 15.364 8.60186L17.5222 10.6856ZM11.4573 16.9381L17.5198 10.6881L15.3664 8.59936L9.30394 14.8494L11.4573 16.9381ZM7.87217 16.9112C8.84112 17.9609 10.5139 17.9609 11.4828 16.9112L9.27842 14.8763C9.49736 14.6391 9.85764 14.6391 10.0766 14.8763L7.87217 16.9112ZM1.83519 10.6881L7.89769 16.9381L10.0511 14.8494L3.98856 8.59936L1.83519 10.6881ZM2.24819 2.00486C-0.385823 4.26259 -0.507926 8.26134 1.83277 10.6856L3.99098 8.60186C2.83168 7.40115 2.89707 5.39991 4.20056 4.28263L2.24819 2.00486ZM10.1494 2.54159C8.10695 0.417468 4.64697 -0.0450068 2.2499 2.0034L4.19885 4.2841C5.23928 3.39501 6.9043 3.49503 7.98688 4.62091L10.1494 2.54159ZM10.7538 3.14559L10.1288 2.52059L8.00747 4.64191L8.63246 5.26691L10.7538 3.14559ZM9.19938 2.54813L8.60563 3.17313L10.7806 5.23937L11.3744 4.61437L9.19938 2.54813ZM12.9004 6.41382H10.6692V9.41382H12.9004V6.41382ZM14.8962 8.40965C14.8962 7.31781 13.9922 6.41382 12.9004 6.41382V9.41382C12.5877 9.41382 12.342 9.27919 12.1864 9.12362C12.0309 8.96805 11.8962 8.7223 11.8962 8.40965H14.8962ZM14.8962 9.40131V8.40965H11.8962V9.40131H14.8962ZM12.9004 11.3971C13.9616 11.3971 14.8962 10.5389 14.8962 9.40131H11.8962C11.8962 8.82153 12.366 8.39713 12.9004 8.39713V11.3971ZM10.6692 11.3971H12.9004V8.39713H10.6692V11.3971ZM12.1692 12.1284V9.89713H9.16917V12.1284H12.1692ZM10.1733 14.1242C11.2346 14.1242 12.1692 13.2659 12.1692 12.1284H9.16917C9.16917 11.5486 9.6389 11.1242 10.1733 11.1242V14.1242ZM9.18168 14.1242H10.1733V11.1242H9.18168V14.1242ZM7.18585 12.1284C7.18585 13.2357 8.07435 14.1242 9.18168 14.1242V11.1242C9.73121 11.1242 10.1859 11.5788 10.1859 12.1284H7.18585ZM7.18585 9.89713V12.1284H10.1859V9.89713H7.18585ZM6.45463 11.3971H8.68585V8.39713H6.45463V11.3971ZM4.4588 9.40131C4.4588 10.5086 5.3473 11.3971 6.45463 11.3971V8.39713C7.00415 8.39713 7.4588 8.85178 7.4588 9.40131H4.4588ZM4.4588 8.40965V9.40131H7.4588V8.40965H4.4588ZM6.45463 6.41382C5.31705 6.41382 4.4588 7.34839 4.4588 8.40965H7.4588C7.4588 8.94409 7.0344 9.41382 6.45463 9.41382V6.41382ZM8.68585 6.41382H6.45463V9.41382H8.68585V6.41382ZM7.18585 5.6826V7.91382H10.1859V5.6826H7.18585ZM9.18168 3.68677C8.04411 3.68677 7.18585 4.62133 7.18585 5.6826H10.1859C10.1859 6.21704 9.76145 6.68677 9.18168 6.68677V3.68677ZM10.1733 3.68677H9.18168V6.68677H10.1733V3.68677ZM12.1692 5.6826C12.1692 4.59076 11.2652 3.68677 10.1733 3.68677V6.68677C9.86069 6.68677 9.61494 6.55214 9.45937 6.39656C9.3038 6.24099 9.16917 5.99525 9.16917 5.6826H12.1692ZM12.1692 7.91382V5.6826H9.16917V7.91382H12.1692Z" fill="white" mask="url(#path-1-outside-1_2889_2398)"/>
</svg>
