<svg width="38" height="52" viewBox="0 0 38 52" fill="none" xmlns="http://www.w3.org/2000/svg">
<path fill-rule="evenodd" clip-rule="evenodd" d="M37.95 18.6214C37.95 8.33693 29.6113 0 19.3269 0C9.04424 0 0.70459 8.33693 0.70459 18.6214C0.70459 32.584 18.9459 51.7088 18.9459 51.7088C18.9459 51.7088 37.95 32.7128 37.95 18.6214Z" fill="#AAAAAA"/>
<path fill-rule="evenodd" clip-rule="evenodd" d="M31.1026 19.7013C31.1026 26.1606 25.8661 31.3989 19.4031 31.3989C12.9402 31.3989 7.70459 26.1606 7.70459 19.7013C7.70459 13.2384 12.9402 8 19.4031 8C25.8661 8 31.1026 13.2384 31.1026 19.7013Z" fill="white"/>
<path d="M10.7046 17.3911C10.7046 16.0713 12.0226 15 13.6508 15C15.2744 15 16.5933 16.0713 16.5933 17.3911" stroke="#AAAAAA" stroke-width="1.2" stroke-linecap="round" stroke-linejoin="round"/>
<path d="M21.7046 17.3911C21.7046 16.0713 23.0226 15 24.649 15C26.2726 15 27.5933 16.0713 27.5933 17.3911" stroke="#AAAAAA" stroke-width="1.2" stroke-linecap="round" stroke-linejoin="round"/>
<path d="M11.7046 22C11.7046 22 13.0933 27.4243 19.5009 27.4243C25.9067 27.4243 27.6528 22 27.6528 22" stroke="#AAAAAA" stroke-width="1.2" stroke-linecap="round" stroke-linejoin="round"/>
</svg>
