<svg width="14" height="17" viewBox="0 0 14 17" fill="none" xmlns="http://www.w3.org/2000/svg">
<path fill-rule="evenodd" clip-rule="evenodd" d="M4.5612 0.189442L7.74022 3.3685C7.99082 3.6191 7.81099 4.04575 7.45973 4.04575L5.07427 4.04598L5.07427 16.6033C5.07427 16.8224 4.89664 17 4.67755 17H3.88411C3.66502 17 3.48739 16.8224 3.48739 16.6033L3.48739 4.04598L1.10171 4.04565C0.748538 4.04562 0.572034 3.61755 0.821179 3.36841L4.00011 0.189474C4.15505 0.0345383 4.40626 0.0345058 4.5612 0.189442ZM11.0742 13.0273L13.4599 13.0276C13.8131 13.0277 13.9896 13.4557 13.7405 13.7049L10.5615 16.8838C10.4066 17.0387 10.1554 17.0387 10.0005 16.8838L6.82144 13.7047C6.57081 13.4542 6.75067 13.0275 7.10194 13.0275L9.48736 13.0273L9.48736 0.469973C9.48736 0.250885 9.66496 0.0732517 9.88408 0.0732517H10.6775C10.8966 0.0732517 11.0742 0.250885 11.0742 0.469973L11.0742 13.0273Z" fill="black"/>
</svg>
