<svg width="22" height="20" viewBox="0 0 22 20" fill="none" xmlns="http://www.w3.org/2000/svg">
<path d="M18.8906 11.5749V11.5733C18.9119 11.5744 18.9328 11.5749 18.9531 11.5749C19.2748 11.5749 19.6225 11.435 19.8585 11.199L19.8761 11.1813L19.8926 11.1625L20.5068 10.4605C20.6465 10.3365 20.7302 10.1921 20.7773 10.0913C20.8368 9.96378 20.8906 9.79183 20.8906 9.60614C20.8906 9.38565 20.8176 9.1893 20.7529 9.05979C20.698 8.95007 20.5952 8.77985 20.4258 8.64797L12.4638 1.61901C12.2834 1.44541 12.0594 1.31862 11.8614 1.23523C11.658 1.14959 11.3993 1.07489 11.1406 1.07489C10.8759 1.07489 10.6133 1.14462 10.3989 1.23258C10.1934 1.31689 9.96753 1.44447 9.7862 1.61902L1.8242 8.64798C1.65482 8.77986 1.55201 8.95008 1.49715 9.05979C1.43239 9.1893 1.35938 9.38565 1.35938 9.60614C1.35938 9.79183 1.41321 9.96378 1.47271 10.0913C1.51976 10.1921 1.6035 10.3365 1.74321 10.4605L2.35744 11.1625L2.37389 11.1813L2.39154 11.199C2.49169 11.2991 2.61476 11.3905 2.74674 11.4604C2.86898 11.5251 3.0641 11.6061 3.29688 11.6061C3.3287 11.6061 3.36 11.6046 3.39062 11.6017V17.3249C3.39062 18.0204 3.94516 18.5749 4.64062 18.5749H17.6406C18.2744 18.5749 18.8906 18.0501 18.8906 17.3249V11.5749ZM12.1406 13.0749H11.3906V13.8249V15.0749H10.8906V13.8249V13.0749H10.1406H8.89062V12.5749H10.1406H10.8906V11.8249V10.5749H11.3906V11.8249V12.5749H12.1406H13.3906V13.0749H12.1406Z" fill="#E43D48" stroke="white" stroke-width="1.5"/>
</svg>
