<svg width="29" height="17" viewBox="0 0 29 17" fill="none" xmlns="http://www.w3.org/2000/svg">
<path fill-rule="evenodd" clip-rule="evenodd" d="M21.6383 16.694C21.4423 16.8873 21.1755 17 20.8921 17H1.76718L1.64893 16.991C1.32937 16.9442 0.982806 16.7182 0.834516 16.4468C0.762792 16.3154 0.70459 16.0873 0.70459 15.9377C0.70459 15.7654 0.780205 15.508 0.873361 15.3631L10.4358 0.488091C10.6314 0.183946 10.9681 0 11.3297 0C11.6912 0 12.0279 0.183946 12.2235 0.488091L16.8172 7.6339L19.5434 3.39317C19.7009 3.14817 19.9722 3 20.2634 3C20.5547 3 20.8259 3.14817 20.9834 3.39317L28.6863 15.3754C28.7613 15.4921 28.8222 15.6994 28.8222 15.8381C28.8222 15.9587 28.7753 16.1423 28.7176 16.2481C28.5675 16.5231 28.2795 16.694 27.9663 16.694H21.6383ZM8.96828 9.53503L7.70459 8.27134L11.0933 3L13.9285 7.41004H11.0933L8.96828 9.53503Z" fill="#485799"/>
</svg>
