<svg width="34" height="33" viewBox="0 0 34 33" fill="none" xmlns="http://www.w3.org/2000/svg">
<mask id="path-1-inside-1_391_2724" fill="white">
<path fill-rule="evenodd" clip-rule="evenodd" d="M33.3457 8.56627L23.7046 3L21.2716 7.2141L15.7046 4L15.6867 4.03114L8.70453 2.2132e-07L0.0931082 14.9154L7.07525 18.9466L3.98175 24.3046L18.8816 32.9071L19.0375 32.637L19.3457 32.815L22.2833 27.7269L25.2183 29.4214L33.8297 14.506L30.8947 12.8115L33.3457 8.56627Z"/>
</mask>
<path fill-rule="evenodd" clip-rule="evenodd" d="M33.3457 8.56627L23.7046 3L21.2716 7.2141L15.7046 4L15.6867 4.03114L8.70453 2.2132e-07L0.0931082 14.9154L7.07525 18.9466L3.98175 24.3046L18.8816 32.9071L19.0375 32.637L19.3457 32.815L22.2833 27.7269L25.2183 29.4214L33.8297 14.506L30.8947 12.8115L33.3457 8.56627Z" fill="white"/>
<path d="M23.7046 3L24.2046 2.13398L23.3386 1.63398L22.8386 2.5L23.7046 3ZM33.3457 8.56627L34.2117 9.06627L34.7117 8.20024L33.8457 7.70024L33.3457 8.56627ZM21.2716 7.2141L20.7716 8.08013L21.6377 8.58013L22.1377 7.7141L21.2716 7.2141ZM15.7046 4L16.2046 3.13398L15.3386 2.63398L14.8386 3.5L15.7046 4ZM15.6867 4.03114L15.1867 4.89717L16.0527 5.39717L16.5527 4.53114L15.6867 4.03114ZM8.70453 2.2132e-07L9.20453 -0.866025L8.3385 -1.36602L7.8385 -0.5L8.70453 2.2132e-07ZM0.0931082 14.9154L-0.772917 14.4154L-1.27292 15.2814L-0.406892 15.7814L0.0931082 14.9154ZM7.07525 18.9466L7.94127 19.4466L8.44127 18.5805L7.57525 18.0805L7.07525 18.9466ZM3.98175 24.3046L3.11573 23.8046L2.61573 24.6707L3.48175 25.1707L3.98175 24.3046ZM18.8816 32.9071L18.3816 33.7731L19.2476 34.2731L19.7476 33.4071L18.8816 32.9071ZM19.0375 32.637L19.5375 31.771L18.6714 31.271L18.1714 32.137L19.0375 32.637ZM19.3457 32.815L18.8457 33.681L19.7117 34.181L20.2117 33.315L19.3457 32.815ZM22.2833 27.7269L22.7833 26.8609L21.9173 26.3609L21.4173 27.2269L22.2833 27.7269ZM25.2183 29.4214L24.7183 30.2875L25.5843 30.7875L26.0843 29.9214L25.2183 29.4214ZM33.8297 14.506L34.6957 15.006L35.1957 14.14L34.3297 13.64L33.8297 14.506ZM30.8947 12.8115L30.0287 12.3115L29.5287 13.1775L30.3947 13.6775L30.8947 12.8115ZM23.2046 3.86603L32.8457 9.43229L33.8457 7.70024L24.2046 2.13398L23.2046 3.86603ZM22.1377 7.7141L24.5707 3.5L22.8386 2.5L20.4056 6.7141L22.1377 7.7141ZM21.7716 6.34808L16.2046 3.13398L15.2046 4.86603L20.7716 8.08013L21.7716 6.34808ZM14.8386 3.5L14.8206 3.53114L16.5527 4.53114L16.5707 4.5L14.8386 3.5ZM16.1867 3.16512L9.20453 -0.866025L8.20453 0.866026L15.1867 4.89717L16.1867 3.16512ZM7.8385 -0.5L-0.772917 14.4154L0.959134 15.4154L9.57055 0.5L7.8385 -0.5ZM-0.406892 15.7814L6.57525 19.8126L7.57525 18.0805L0.593108 14.0494L-0.406892 15.7814ZM6.20922 18.4466L3.11573 23.8046L4.84778 24.8046L7.94127 19.4466L6.20922 18.4466ZM3.48175 25.1707L18.3816 33.7731L19.3816 32.041L4.48175 23.4386L3.48175 25.1707ZM19.7476 33.4071L19.9035 33.137L18.1714 32.137L18.0155 32.4071L19.7476 33.4071ZM19.8457 31.949L19.5375 31.771L18.5375 33.503L18.8457 33.681L19.8457 31.949ZM21.4173 27.2269L18.4797 32.315L20.2117 33.315L23.1493 28.2269L21.4173 27.2269ZM21.7833 28.5929L24.7183 30.2875L25.7183 28.5554L22.7833 26.8609L21.7833 28.5929ZM26.0843 29.9214L34.6957 15.006L32.9637 14.006L24.3523 28.9214L26.0843 29.9214ZM34.3297 13.64L31.3947 11.9455L30.3947 13.6775L33.3297 15.372L34.3297 13.64ZM32.4797 8.06627L30.0287 12.3115L31.7607 13.3115L34.2117 9.06627L32.4797 8.06627Z" fill="#979797" mask="url(#path-1-inside-1_391_2724)"/>
</svg>
