<svg width="27" height="23" viewBox="0 0 27 23" fill="none" xmlns="http://www.w3.org/2000/svg">
<path d="M19.3579 1.91017V4.15626H7.49268V1.91017C7.49268 0.884776 6.22314 0.347667 5.49072 1.08009L1.2915 5.32814C0.803223 5.76759 0.803223 6.50001 1.2915 6.93946L5.49072 11.1875C6.22314 11.9199 7.49268 11.3828 7.49268 10.3574V8.06251H19.3579V10.3574C19.3579 11.3828 20.6274 11.9199 21.3599 11.1875L25.5591 6.93946C26.0474 6.50001 26.0474 5.76759 25.5591 5.32814L21.3599 1.08009C20.6274 0.347667 19.3579 0.884776 19.3579 1.91017Z" fill="#485799"/>
<path fill-rule="evenodd" clip-rule="evenodd" d="M26.582 15.2185L26.7271 21.4846C26.7533 22.1815 26.2064 22.7363 25.5201 22.7122L2.44876 22.4957C1.74302 22.506 1.13301 21.9339 1.10684 21.237L0.961697 14.9709C0.935527 14.274 1.48246 13.7192 2.18821 13.7089L5.38837 13.7441L5.52392 18.4587C5.51676 18.6366 5.67401 18.771 5.85453 18.782L6.50548 18.7862C6.68576 18.7972 6.81865 18.6449 6.82581 18.467L6.69051 13.7524L9.23948 13.7835L9.29495 15.9975C9.30725 16.1408 9.44504 16.3097 9.62557 16.3208L10.2765 16.3249C10.457 16.336 10.5897 16.1836 10.5968 16.0058L10.5219 13.8263L13.0906 13.8229L13.2259 18.5376C13.2187 18.7154 13.3762 18.8498 13.5568 18.8608L14.1724 18.845C14.3526 18.856 14.5209 18.7237 14.4927 18.5259L14.373 13.8657L16.9417 13.8624L16.9972 16.0763C16.99 16.2541 17.1473 16.3886 17.3278 16.3996L17.9434 16.3838C18.1237 16.3948 18.2566 16.2424 18.2637 16.0646L18.1888 13.8852L20.7928 13.9018L20.8928 18.5964C20.8856 18.7742 21.0431 18.9086 21.2234 18.9197L21.8743 18.9238C22.0549 18.9349 22.1877 18.7825 22.1949 18.6047L22.0399 13.9246L25.2401 13.9598C25.9458 13.9495 26.5558 14.5216 26.582 15.2185Z" fill="#485799"/>
</svg>
