<svg width="28" height="29" viewBox="0 0 28 29" fill="none" xmlns="http://www.w3.org/2000/svg">
<mask id="mask0_0_208970" style="mask-type:alpha" maskUnits="userSpaceOnUse" x="0" y="0" width="28" height="29">
<path fill-rule="evenodd" clip-rule="evenodd" d="M0.70459 0H27.9919V28.6919H0.70459V0Z" fill="white"/>
</mask>
<g mask="url(#mask0_0_208970)">
<path fill-rule="evenodd" clip-rule="evenodd" d="M19.1894 11C20.9976 11 22.4708 12.4703 22.4708 14.2828V18.4385H14.7046V11H19.1894ZM19.7579 21.3818H9.36144C9.00039 21.3818 8.70459 21.0875 8.70459 20.7264C8.70459 20.3625 9.00039 20.0681 9.36144 20.0681H19.7579C20.119 20.0681 20.4133 20.3625 20.4133 20.7264C20.4133 21.0875 20.119 21.3818 19.7579 21.3818ZM5.70459 18.4385V14.2828C5.70459 12.4703 7.17779 11 8.98594 11H13.4708V18.4385H5.70459ZM27.9694 0.479224C27.8708 0.132674 27.5098 -0.0746758 27.1589 0.0239242L16.2056 3.09212C15.8083 2.48457 15.1253 2.08147 14.3481 2.08147C13.1475 2.08147 12.1702 3.03992 12.1369 4.23327L1.18356 7.29857C0.83556 7.39717 0.63256 7.75822 0.72826 8.10912C0.80946 8.39767 1.07191 8.58762 1.36191 8.58762C1.41991 8.58762 1.47936 8.57747 1.53881 8.56297L12.4907 5.49622C12.7705 5.92687 13.1939 6.25602 13.6913 6.40972V9.88102H9.20641C6.67326 9.88102 4.61281 11.9429 4.61281 14.4761V24.0983C4.61281 26.6314 6.67326 28.6919 9.20641 28.6919H19.4898C20.718 28.6919 21.8693 28.2134 22.7393 27.3477C23.6049 26.4777 24.0834 25.3264 24.0834 24.0983V19.2886V19.2857V19.2814V14.4761C24.0834 11.9429 22.023 9.88102 19.4898 9.88102H15.005V6.40972C15.888 6.13712 16.5333 5.31932 16.5594 4.35507L27.5127 1.28687C27.8607 1.19262 28.0637 0.828674 27.9694 0.479224Z" fill="#E43D48"/>
</g>
</svg>
