<svg width="38" height="52" viewBox="0 0 38 52" fill="none" xmlns="http://www.w3.org/2000/svg">
<mask id="mask0_1648_2016" style="mask-type:alpha" maskUnits="userSpaceOnUse" x="0" y="0" width="38" height="52">
<path fill-rule="evenodd" clip-rule="evenodd" d="M37.1515 19.0799C37.1515 8.88408 28.8846 0.619019 18.6898 0.619019C8.49579 0.619019 0.228027 8.88408 0.228027 19.0799C0.228027 32.9221 18.3121 51.882 18.3121 51.882C18.3121 51.882 37.1515 33.0498 37.1515 19.0799Z" fill="#5B4178"/>
</mask>
<g mask="url(#mask0_1648_2016)">
<rect x="0.228027" y="-0.90564" width="6.15383" height="53.2334" fill="#FB0032"/>
<rect x="6.38208" y="-0.90564" width="6.15383" height="53.2334" fill="#FC7428"/>
<rect x="12.5358" y="-0.90564" width="6.15383" height="53.2334" fill="#FEDD3A"/>
<rect x="18.6898" y="-0.90564" width="6.15383" height="53.2334" fill="#1AA742"/>
<rect x="24.8438" y="-0.90564" width="6.15383" height="53.2334" fill="#105AF6"/>
<rect x="30.9978" y="-0.90564" width="6.15383" height="53.2334" fill="#7A0CA0"/>
</g>
<path fill-rule="evenodd" clip-rule="evenodd" d="M30.4234 20.2194C30.4234 26.623 25.2329 31.8162 18.8257 31.8162C12.4185 31.8162 7.22803 26.623 7.22803 20.2194C7.22803 13.8122 12.4185 8.61902 18.8257 8.61902C25.2329 8.61902 30.4234 13.8122 30.4234 20.2194Z" fill="white"/>
<path d="M10.7227 22.7392C10.7227 22.7392 12.1339 28.2516 18.644 28.2516C25.1536 28.2516 26.9286 22.7392 26.9286 22.7392" stroke="#105AF6" stroke-width="1.5" stroke-linecap="round" stroke-linejoin="round"/>
<path fill-rule="evenodd" clip-rule="evenodd" d="M30.4235 19.0312C30.1425 16.7531 29.2603 14.6719 27.9463 12.9659C25.739 11.2566 21.8269 10.6008 18.9038 10.5633C15.7147 10.5226 11.3492 11.38 9.30423 13.4608C8.24664 14.9861 7.5172 16.7741 7.22803 18.7153C7.39884 19.413 10.0313 22.0334 12.6584 22.1876C15.7939 22.3716 17.7132 18.5905 18.9038 18.5924C20.0947 18.5905 22.0143 22.3716 25.1495 22.1876C27.4697 22.0514 29.7942 19.9916 30.4235 19.0312Z" fill="#FB0032"/>
<path fill-rule="evenodd" clip-rule="evenodd" d="M29.6574 17.7969C29.3978 16.1239 28.705 14.6287 27.4915 13.3758C25.4535 12.1202 21.7209 11.6051 19.0226 11.5777C16.0784 11.5478 12.0477 12.1777 10.1596 13.7058C9.18359 14.8257 8.50997 16.1393 8.24316 17.565C8.40098 18.0774 10.8313 20.002 13.2564 20.1151C16.1513 20.2506 17.9231 17.4733 19.0226 17.4745C20.1215 17.4733 21.8937 20.2506 24.7883 20.1151C26.93 20.0153 29.0762 18.5023 29.6574 17.7969Z" fill="#FEDD3A"/>
</svg>
