<svg width="38" height="52" viewBox="0 0 38 52" fill="none" xmlns="http://www.w3.org/2000/svg">
<mask id="mask0_1648_2021" style="mask-type:alpha" maskUnits="userSpaceOnUse" x="0" y="0" width="38" height="52">
<path fill-rule="evenodd" clip-rule="evenodd" d="M37.1515 18.6273C37.1515 8.43157 28.8846 0.166504 18.6898 0.166504C8.49579 0.166504 0.228027 8.43157 0.228027 18.6273C0.228027 32.4696 18.3121 51.4295 18.3121 51.4295C18.3121 51.4295 37.1515 32.5973 37.1515 18.6273Z" fill="#5B4178"/>
</mask>
<g mask="url(#mask0_1648_2021)">
<rect x="0.228027" y="-1.35815" width="7.38461" height="53.2334" fill="#FC639A"/>
<rect x="7.61292" y="-1.35815" width="7.38461" height="53.2334" fill="#DBDBDB"/>
<rect x="14.9971" y="-1.35815" width="7.38461" height="53.2334" fill="#D600D2"/>
<rect x="22.382" y="-1.35815" width="7.38461" height="53.2334" fill="#1B191B"/>
<rect x="29.7668" y="-1.35815" width="7.38461" height="53.2334" fill="#2739B4"/>
</g>
<path fill-rule="evenodd" clip-rule="evenodd" d="M30.4234 19.7669C30.4234 26.1705 25.2329 31.3637 18.8257 31.3637C12.4185 31.3637 7.22803 26.1705 7.22803 19.7669C7.22803 13.3597 12.4185 8.1665 18.8257 8.1665C25.2329 8.1665 30.4234 13.3597 30.4234 19.7669Z" fill="white"/>
<path d="M10.7227 22.2867C10.7227 22.2867 12.1339 27.7991 18.644 27.7991C25.1536 27.7991 26.9286 22.2867 26.9286 22.2867" stroke="#2739B4" stroke-width="1.5" stroke-linecap="round" stroke-linejoin="round"/>
<path fill-rule="evenodd" clip-rule="evenodd" d="M30.4235 18.5787C30.1425 16.3006 29.2603 14.2194 27.9463 12.5134C25.739 10.8041 21.8269 10.1483 18.9038 10.1108C15.7147 10.0701 11.3492 10.9275 9.30423 13.0083C8.24664 14.5336 7.5172 16.3216 7.22803 18.2628C7.39884 18.9605 10.0313 21.5809 12.6584 21.7351C15.7939 21.9191 17.7132 18.1379 18.9038 18.1399C20.0947 18.1379 22.0143 21.9191 25.1495 21.7351C27.4697 21.5989 29.7942 19.5391 30.4235 18.5787Z" fill="#2739B4"/>
<path fill-rule="evenodd" clip-rule="evenodd" d="M29.6574 17.3444C29.3978 15.6714 28.705 14.1762 27.4915 12.9232C25.4535 11.6677 21.7209 11.1526 19.0226 11.1252C16.0784 11.0953 12.0477 11.7252 10.1596 13.2533C9.18359 14.3732 8.50997 15.6868 8.24316 17.1125C8.40098 17.6249 10.8313 19.5495 13.2564 19.6626C16.1513 19.7981 17.9231 17.0208 19.0226 17.022C20.1215 17.0208 21.8937 19.7981 24.7883 19.6626C26.93 19.5628 29.0762 18.0498 29.6574 17.3444Z" fill="#FC639A"/>
</svg>
