<svg width="20" height="20" viewBox="0 0 20 20" fill="none" xmlns="http://www.w3.org/2000/svg">
<path d="M17.8594 5.16221V4.32489C17.8594 3.6747 17.488 3.15614 17.0447 2.78141C16.5977 2.40355 15.9951 2.09653 15.3153 1.85316C13.9493 1.36408 12.1098 1.07489 10.1094 1.07489C8.0939 1.07489 6.254 1.36392 4.89103 1.8534C4.21274 2.097 3.61252 2.40442 3.16768 2.78307C2.72576 3.15922 2.35938 3.67747 2.35938 4.32489V5.15722C1.75723 5.36473 1.35938 5.93825 1.35938 6.57489V9.07489C1.35938 9.74985 1.76651 10.2971 2.35938 10.4951V14.8249C2.35938 15.5321 2.76483 16.1327 3.35938 16.4103V16.8249C3.35938 17.8016 4.13266 18.5749 5.10938 18.5749H6.10938C7.03955 18.5749 7.85938 17.8167 7.85938 16.8249V16.5749H12.3594V16.8249C12.3594 17.8016 13.1327 18.5749 14.1094 18.5749H15.1094C16.0396 18.5749 16.8594 17.8167 16.8594 16.8249V16.478C17.4742 16.2539 17.8594 15.6704 17.8594 15.0436V10.4903C18.4299 10.2912 18.8594 9.7579 18.8594 9.07489V6.57489C18.8594 5.92923 18.4385 5.37084 17.8594 5.16221ZM5.60938 13.5749C5.52743 13.5749 5.46808 13.5448 5.42877 13.5055C5.38946 13.4662 5.35938 13.4068 5.35938 13.3249C5.35938 13.1926 5.47621 13.0749 5.60938 13.0749C5.65282 13.0749 5.71797 13.0957 5.77826 13.156C5.83856 13.2163 5.85938 13.2814 5.85938 13.3249C5.85938 13.4581 5.7417 13.5749 5.60938 13.5749ZM6.10938 10.0749C6.02743 10.0749 5.96808 10.0448 5.92877 10.0055C5.88946 9.96619 5.85938 9.90684 5.85938 9.82489V5.82489C5.85938 5.69257 5.97621 5.57489 6.10938 5.57489H14.1094C14.1528 5.57489 14.218 5.59571 14.2783 5.656C14.3386 5.71629 14.3594 5.78144 14.3594 5.82489V9.82489C14.3594 9.95805 14.2417 10.0749 14.1094 10.0749H6.10938ZM14.6094 13.5749C14.5274 13.5749 14.4681 13.5448 14.4288 13.5055C14.3895 13.4662 14.3594 13.4068 14.3594 13.3249C14.3594 13.1926 14.4762 13.0749 14.6094 13.0749C14.6528 13.0749 14.718 13.0957 14.7783 13.156C14.8386 13.2163 14.8594 13.2814 14.8594 13.3249C14.8594 13.4581 14.7417 13.5749 14.6094 13.5749Z" fill="#61BBFF" stroke="white" stroke-width="1.5"/>
</svg>
