<svg width="22" height="18" viewBox="0 0 22 18" fill="none" xmlns="http://www.w3.org/2000/svg">
<path d="M20.8594 7.56267C20.8594 6.7422 20.1798 6.06267 19.3594 6.06267H17.6146L14.5041 1.81845C13.9483 1.00355 12.8469 0.838007 12.0754 1.42376C11.2643 1.98385 11.1041 3.08744 11.697 3.85673L13.2958 6.06267H8.89172L10.4905 3.85673C11.0834 3.08744 10.9232 1.98385 10.1121 1.42376C9.34055 0.838007 8.23921 1.00355 7.68342 1.81845L4.57293 6.06267H2.85938C1.98732 6.06267 1.35938 6.76284 1.35938 7.56267V8.06267C1.35938 8.77185 1.80884 9.33999 2.45096 9.51029L3.17853 14.6313C3.32376 15.7657 4.27763 16.5627 5.39062 16.5627H16.7969C17.9092 16.5627 18.8625 15.7667 19.0087 14.6334L19.765 9.50757C20.3818 9.33657 20.8594 8.78287 20.8594 8.06267V7.56267Z" fill="#3676C5" stroke="white" stroke-width="1.5"/>
</svg>
