<svg width="64" height="25" viewBox="0 0 64 25" fill="none" xmlns="http://www.w3.org/2000/svg">
<rect x="1.20459" y="0.5" width="62" height="24" rx="12" stroke="black"/>
<path d="M9.98479 12.5049L15.7046 5.57143L21.4244 12.5049L15.7046 19.4038L9.98479 12.5049Z" fill="black" stroke="#AAAAAA" stroke-width="2"/>
<path d="M26.9849 12.5049L32.7047 5.57143L38.4245 12.5049L32.7047 19.4038L26.9849 12.5049Z" fill="black" stroke="#AAAAAA" stroke-width="2"/>
<path fill-rule="evenodd" clip-rule="evenodd" d="M55.4278 18.3391C56.3163 18.3391 56.8746 17.3752 56.4298 16.6042L50.6473 6.57804C50.2031 5.80803 49.0884 5.80661 48.6433 6.57804L42.8607 16.6042C42.4167 17.3738 42.9725 18.3391 43.8627 18.3391H55.4278ZM50.3425 13.856H49.1725C49.019 13.856 48.8922 13.7359 48.8838 13.5825L48.705 10.305C48.696 10.1393 48.8279 10 48.9938 10H50.5213C50.6872 10 50.8191 10.1393 50.81 10.305L50.6313 13.5825C50.6229 13.7359 50.4961 13.856 50.3425 13.856ZM48.7046 16.1086C48.7046 16.7208 49.2009 17.2172 49.8132 17.2172C50.4254 17.2172 50.9218 16.7208 50.9218 16.1086C50.9218 15.4963 50.4254 15 49.8132 15C49.2009 15 48.7046 15.4963 48.7046 16.1086Z" fill="#E43D48"/>
</svg>
