<svg width="21" height="21" viewBox="0 0 21 21" fill="none" xmlns="http://www.w3.org/2000/svg">
<path d="M10.6617 7.5847V6.94665C10.9547 7.04271 11.2662 7.13889 11.5854 7.21825V7.90138C11.5049 7.87461 11.424 7.84712 11.3424 7.81907C11.2671 7.79316 11.1904 7.76652 11.1126 7.7395C10.9657 7.68844 10.8148 7.63604 10.6617 7.5847ZM9.16168 8.72783V9.5253C8.87048 9.49965 8.55699 9.48868 8.20479 9.49688V9.48224V8.65206C8.53185 8.64321 8.84207 8.66911 9.16168 8.72783ZM5.92673 6.77615C6.2381 6.65963 6.48445 6.56744 6.70479 6.49684V7.34364C6.40434 7.41198 6.09975 7.49872 5.78109 7.60219V6.83061C5.83121 6.8119 5.87971 6.79375 5.92673 6.77615ZM15.5423 8.0216V7.19445C15.8749 7.11838 16.1947 7.02545 16.4992 6.92443V7.66663C16.1698 7.80171 15.8574 7.92322 15.5423 8.0216ZM13.0854 9.77449C13.3965 9.80607 13.7149 9.81853 14.0423 9.8046V10.6376C13.7189 10.646 13.4121 10.6194 13.0854 10.5591V9.77449ZM10.6617 12.0853V11.3881C10.7421 11.4148 10.823 11.4423 10.9046 11.4704C10.98 11.4963 11.0567 11.5229 11.1345 11.55C11.2814 11.601 11.4322 11.6534 11.5854 11.7048V12.3576C11.2894 12.2634 10.9794 12.1683 10.6617 12.0853ZM16.4992 12.3851C16.1608 12.5713 15.847 12.7094 15.5423 12.8051V11.9553C15.8611 11.8862 16.1821 11.7933 16.4992 11.673V12.3851ZM7.95281 3.2007C7.44501 3.2007 6.97307 3.25617 6.52814 3.34675C6.37787 2.07009 5.29175 1.16367 4.08849 1.07772L4.0735 1.07665L4.05848 1.07618C2.56773 1.0296 1.35938 2.2376 1.35938 3.68509C1.35938 4.41036 1.6474 5.08837 2.15621 5.5702V18.0281C2.15621 18.9071 2.82401 19.5749 3.70304 19.5749H4.23426C5.05945 19.5749 5.78109 18.9274 5.78109 18.0281V15.4166C6.55037 15.138 7.50436 14.9267 8.81604 14.9267C9.53817 14.9267 10.2038 15.1499 11.0571 15.436C11.0895 15.4469 11.1221 15.4579 11.1551 15.4689C12.0276 15.7611 13.0498 16.0888 14.2943 16.0888C16.0837 16.0888 17.5224 15.4493 18.794 14.6015L18.8114 14.59L18.828 14.5775C19.2921 14.2294 19.5596 13.6701 19.5596 13.0811V5.02747C19.6068 3.64282 18.1441 2.87923 17.0201 3.36095L17.0081 3.36611L16.9962 3.37169C15.8883 3.89308 14.6192 4.36275 13.431 4.36275C12.7286 4.36275 12.0681 4.14226 11.2149 3.85743C11.1781 3.84514 11.1409 3.83273 11.1034 3.82021C10.2265 3.52791 9.19652 3.2007 7.95281 3.2007ZM5.78109 11.3973C6.10484 11.2949 6.4038 11.2132 6.70479 11.1522V11.9964C6.39268 12.0476 6.08504 12.1102 5.78109 12.1878V11.3973Z" fill="#69C5A0" stroke="white" stroke-width="1.5"/>
</svg>
