<svg width="23" height="22" viewBox="0 0 23 22" fill="none" xmlns="http://www.w3.org/2000/svg">
<path d="M10.3726 9.71094C9.81396 10.2266 9.81396 11.1289 10.3726 11.6445C10.8882 12.2031 11.7905 12.2031 12.3062 11.6445C12.8647 11.1289 12.8647 10.2266 12.3062 9.71094C11.7905 9.15234 10.8882 9.15234 10.3726 9.71094ZM11.3608 0C5.47412 0 0.70459 4.8125 0.70459 10.6562C0.70459 16.543 5.47412 21.3125 11.3608 21.3125C17.2046 21.3125 22.0171 16.543 22.0171 10.6562C22.0171 4.8125 17.2046 0 11.3608 0ZM16.7749 6.40234L13.939 12.5898C13.7671 12.8906 13.5522 13.1055 13.2515 13.2773L7.06396 16.1133C6.3335 16.4141 5.60303 15.6836 5.90381 14.9531L8.73975 8.76562C8.91162 8.46484 9.12646 8.25 9.42725 8.07812L15.6147 5.24219C16.3452 4.94141 17.0757 5.67188 16.7749 6.40234Z" fill="#485799"/>
</svg>
