<svg width="20" height="19" viewBox="0 0 20 19" fill="none" xmlns="http://www.w3.org/2000/svg">
<path d="M11.1094 11.0749H10.3594V11.8249V13.0749H9.85938V11.8249V11.0749H9.10938H7.85938V10.5749H9.10938H9.85938V9.82489V8.57489H10.3594V9.82489V10.5749H11.1094H12.3594V11.0749H11.1094ZM16.6094 4.07489H14.8594V3.32489C14.8594 2.09818 13.8361 1.07489 12.6094 1.07489H7.60938C6.34127 1.07489 5.35938 2.10839 5.35938 3.32489V4.07489H3.60938C2.34127 4.07489 1.35938 5.10839 1.35938 6.32489V15.3249C1.35938 16.5829 2.35141 17.5749 3.60938 17.5749H16.6094C17.8259 17.5749 18.8594 16.593 18.8594 15.3249V6.32489C18.8594 5.09818 17.8361 4.07489 16.6094 4.07489Z" fill="#E43D48" stroke="white" stroke-width="1.5"/>
</svg>
