<svg width="38" height="53" viewBox="0 0 38 53" fill="none" xmlns="http://www.w3.org/2000/svg">
<mask id="mask0_1648_2024" style="mask-type:alpha" maskUnits="userSpaceOnUse" x="0" y="0" width="38" height="53">
<path fill-rule="evenodd" clip-rule="evenodd" d="M37.95 19.3981C37.95 9.11367 29.6113 0.776733 19.3269 0.776733C9.04424 0.776733 0.70459 9.11367 0.70459 19.3981C0.70459 33.3607 18.9459 52.4855 18.9459 52.4855C18.9459 52.4855 37.95 33.4895 37.95 19.3981Z" fill="#C45F2A"/>
</mask>
<g mask="url(#mask0_1648_2024)">
<rect x="0.70459" y="0.776733" width="15.2608" height="51.7088" fill="#FC0085"/>
<rect x="22.6715" y="0.776733" width="15.2786" height="51.7088" fill="#1CADF9"/>
<rect x="13.3868" y="0.776733" width="12.0335" height="51.7088" fill="#FED038"/>
</g>
<path fill-rule="evenodd" clip-rule="evenodd" d="M31.1026 20.478C31.1026 26.9373 25.8661 32.1757 19.4031 32.1757C12.9402 32.1757 7.70459 26.9373 7.70459 20.478C7.70459 14.0151 12.9402 8.77673 19.4031 8.77673C25.8661 8.77673 31.1026 14.0151 31.1026 20.478Z" fill="white"/>
<path fill-rule="evenodd" clip-rule="evenodd" d="M15.4186 16.4025C15.4186 17.3755 15.0346 18.165 14.5625 18.165C14.0877 18.165 13.7046 17.3755 13.7046 16.4025C13.7046 15.4286 14.0877 14.639 14.5625 14.639C15.0346 14.639 15.4186 15.4286 15.4186 16.4025Z" fill="#0A339C"/>
<path fill-rule="evenodd" clip-rule="evenodd" d="M25.4204 16.4025C25.4204 17.3755 25.0364 18.165 24.5625 18.165C24.0904 18.165 23.7046 17.3755 23.7046 16.4025C23.7046 15.4286 24.0904 14.639 24.5625 14.639C25.0364 14.639 25.4204 15.4286 25.4204 16.4025Z" fill="#0A339C"/>
<path fill-rule="evenodd" clip-rule="evenodd" d="M26.4011 21.639C26.4011 21.639 25.2977 28.3133 19.0515 28.3133C12.5634 28.3133 11.7046 21.639 11.7046 21.639H26.4011Z" fill="#0A339C"/>
</svg>
