<svg width="37" height="47" viewBox="0 0 37 47" fill="none" xmlns="http://www.w3.org/2000/svg">
<path d="M30.1566 34.0344C30.2779 33.8014 30.3075 33.5313 30.2395 33.2776C29.6525 31.0868 28.2204 28.9708 26.5403 27.1626C25.0921 25.604 23.4097 24.2204 21.7929 23.157L24.8714 16.5896C25.5462 15.3661 25.1135 13.7972 23.8985 13.0957C22.6767 12.3903 21.0909 12.8086 20.3743 14.0201L13.045 25.4637L12.3287 24.4041C11.5057 23.1588 10.5662 22.1923 9.47344 21.7536C8.2982 21.2819 7.11678 21.4865 6.0538 22.2315L5.93605 22.3093C5.54576 22.5669 5.37296 23.0517 5.51222 23.4982L9.37289 35.8748L8.51793 37.3556C8.22798 37.8578 8.40005 38.5 8.90226 38.7899L20.1173 45.2649C20.6195 45.5549 21.2617 45.3828 21.5516 44.8806L22.793 42.7304C23.8494 42.303 24.9081 41.4504 25.9158 40.3661C27.0774 39.1161 28.2602 37.461 29.3903 35.5037C29.3979 35.4905 29.4052 35.4772 29.4122 35.4637L30.1566 34.0344Z" stroke="black" stroke-width="2.1" stroke-linejoin="round"/>
<path d="M11.6555 0.38113L11.0854 1.08511C10.8386 1.38666 10.8911 1.83083 11.2004 2.06813L15.0043 4.99885L15.2456 7.29443L12.1341 10.952C11.8838 11.2481 11.9248 11.6935 12.226 11.9374L12.93 12.5075C13.2252 12.7492 13.6614 12.7033 13.9028 12.4053L18.8947 6.24073C19.1364 5.94549 19.0906 5.50936 18.7925 5.26797L12.6282 0.278892C12.333 0.0371981 11.8969 0.0830409 11.6555 0.38113Z" fill="#EC694C"/>
<path d="M0.735954 16.1122C2.70191 7.64541 8.12694 3.93127 16.6003 5.26497C17.255 5.36802 17.7022 5.98228 17.5992 6.63696C17.4961 7.29164 16.8818 7.73883 16.2272 7.63578C9.00431 6.49891 4.75674 9.40693 3.07376 16.655C2.92386 17.3006 2.27901 17.7024 1.63344 17.5525C0.987875 17.4026 0.586056 16.7578 0.735954 16.1122Z" fill="#EC694C"/>
</svg>
