<svg width="67" height="30" viewBox="0 0 67 30" fill="none" xmlns="http://www.w3.org/2000/svg">
<mask id="mask0_0_208892" style="mask-type:alpha" maskUnits="userSpaceOnUse" x="0" y="0" width="67" height="30">
<path fill-rule="evenodd" clip-rule="evenodd" d="M0.70459 0H66.6164V29.1236H0.70459V0Z" fill="white"/>
</mask>
<g mask="url(#mask0_0_208892)">
<path fill-rule="evenodd" clip-rule="evenodd" d="M66.5391 19.2214L64.338 7.3756C64.0023 5.54691 62.4648 4.221 60.6699 4.21027H34.3371V0.707717C34.3371 0.316842 34.0321 -0.000457764 33.655 -0.000457764C33.2779 -0.000457764 32.9729 0.316842 32.9729 0.707717V4.21027H6.96966C5.21455 4.2164 3.69396 5.47794 3.30309 7.25451L0.793818 19.062C0.54703 20.2147 0.818344 21.4241 1.53112 22.3454C2.24389 23.2682 3.32148 23.8031 4.46039 23.8031H5.09958V27.7471C5.1517 28.4691 5.73265 29.0286 6.43163 29.0286C7.13061 29.0286 7.71002 28.4691 7.76214 27.7471V23.8031H10.2116V27.7471C10.2116 28.5074 10.8064 29.1236 11.5406 29.1236C12.2733 29.1236 12.8681 28.5074 12.8681 27.7471V23.8031H14.965V27.7471C15.0171 28.4691 15.5981 29.0286 16.297 29.0286C16.996 29.0286 17.577 28.4691 17.6275 27.7471V23.8031H20.0847V27.7471C20.0847 28.5074 20.6794 29.1236 21.4137 29.1236C22.1464 29.1236 22.7411 28.5074 22.7411 27.7471V23.8031H24.8534V27.7471C24.8534 28.5074 25.4466 29.1236 26.1808 29.1236C26.9135 29.1236 27.5083 28.5074 27.5083 27.7471V23.8031H29.9884V27.7471C29.9884 28.5074 30.5816 29.1236 31.3159 29.1236C32.0486 29.1236 32.6433 28.5074 32.6433 27.7471V23.8031H34.7402V27.7471C34.7402 28.5074 35.335 29.1236 36.0692 29.1236C36.8019 29.1236 37.3967 28.5074 37.3967 27.7471V23.8031H39.817V27.7471C39.817 28.5074 40.4118 29.1236 41.1445 29.1236C41.8787 29.1236 42.4719 28.5074 42.4719 27.7471V23.8031H44.5704V27.7471C44.5704 28.5074 45.1651 29.1236 45.8978 29.1236C46.6305 29.1236 47.2253 28.5074 47.2253 27.7471V23.8031H49.6824V27.7471C49.6824 28.5074 50.2772 29.1236 51.0099 29.1236C51.7441 29.1236 52.3373 28.5074 52.3373 27.7471V23.8031H54.4358V27.7471C54.4358 28.5074 55.0305 29.1236 55.7632 29.1236C56.4975 29.1236 57.0907 28.5074 57.0907 27.7471V23.8031H59.5478V27.7471C59.5478 28.5074 60.1426 29.1236 60.8768 29.1236C61.6095 29.1236 62.2043 28.5074 62.2043 27.7471V23.8031H62.8864C63.9931 23.8062 65.0446 23.2973 65.7543 22.4144C66.464 21.5314 66.7568 20.3665 66.5529 19.2368L66.5391 19.2214ZM64.8835 21.4296C64.4818 21.9186 63.8902 22.1976 63.2709 22.1915H62.5888V21.3607C62.5827 20.7429 62.1856 20.2003 61.6124 20.0286V16.6717C61.6047 15.2615 60.5026 14.118 59.1414 14.1149H58.4072C57.0475 14.118 55.9439 15.2615 55.9362 16.6717V19.9918C55.2756 20.0792 54.782 20.6632 54.7835 21.353V22.2068H52.7219V21.3607C52.7173 20.7429 52.3202 20.2003 51.747 20.0286V16.6717C51.7393 15.2615 50.6356 14.118 49.2745 14.1149H48.5418C47.1806 14.118 46.077 15.2615 46.0693 16.6717V19.9918C45.4102 20.0792 44.9166 20.6632 44.9181 21.353V22.2068H42.8427V21.3607C42.8365 20.7429 42.4395 20.2003 41.8662 20.0286V16.6717C41.8586 15.2615 40.7549 14.118 39.3953 14.1149H38.661C37.3213 14.1471 36.2483 15.2799 36.2407 16.6717V19.9918C35.58 20.0792 35.0864 20.6632 35.088 21.353V22.2068H32.9911V21.3607C32.9849 20.7429 32.5894 20.2003 32.0162 20.0286V16.6717C32.007 15.2615 30.9033 14.118 29.5437 14.1149H28.8462C27.4851 14.118 26.3829 15.2615 26.3738 16.6717V19.9918C25.7177 20.0869 25.2318 20.6739 25.2379 21.3607V22.2145H23.1256V21.3607C23.1195 20.7429 22.7225 20.2003 22.1492 20.0286V16.6717C22.1416 15.2645 21.0425 14.1226 19.6844 14.1149H18.9517C17.5905 14.118 16.4869 15.2615 16.4792 16.6717V19.9918C15.8201 20.0792 15.3265 20.6632 15.3281 21.353V22.2068H13.2587V21.3607C13.2541 20.7429 12.8571 20.2003 12.2838 20.0286V16.6717C12.2762 15.2676 11.1863 14.1302 9.83433 14.1149H9.1001C7.74047 14.118 6.63682 15.2615 6.62915 16.6717V19.9918C5.96849 20.0792 5.47492 20.6632 5.47645 21.353V22.2068H4.83879C4.19193 22.2083 3.57879 21.9064 3.17411 21.3836C2.76944 20.8594 2.61463 20.1742 2.75565 19.5197L5.27105 7.73518C5.49331 6.72504 6.3563 6.0046 7.35419 6H61.0329C62.0615 6.0046 62.9413 6.76489 63.1314 7.81182L65.3311 19.6638C65.4399 20.2923 65.2759 20.9376 64.8835 21.4296Z" fill="#E43D48"/>
</g>
<path fill-rule="evenodd" clip-rule="evenodd" d="M11.3031 10.2993C11.3031 11.5685 10.2746 12.5985 9.00386 12.5985C7.73313 12.5985 6.70459 11.5685 6.70459 10.2993C6.70459 9.03007 7.73313 8 9.00386 8C10.2746 8 11.3031 9.03007 11.3031 10.2993Z" fill="#E43D48"/>
<path fill-rule="evenodd" clip-rule="evenodd" d="M60.3031 10.2993C60.3031 11.5685 59.2746 12.5985 58.0039 12.5985C56.7347 12.5985 55.7046 11.5685 55.7046 10.2993C55.7046 9.03007 56.7347 8 58.0039 8C59.2746 8 60.3031 9.03007 60.3031 10.2993Z" fill="#E43D48"/>
<path fill-rule="evenodd" clip-rule="evenodd" d="M50.3031 10.2993C50.3031 11.5685 49.2746 12.5985 48.0039 12.5985C46.7347 12.5985 45.7046 11.5685 45.7046 10.2993C45.7046 9.03007 46.7347 8 48.0039 8C49.2746 8 50.3031 9.03007 50.3031 10.2993Z" fill="#E43D48"/>
<path fill-rule="evenodd" clip-rule="evenodd" d="M41.3031 10.2993C41.3031 11.5685 40.2731 12.5985 39.0039 12.5985C37.7331 12.5985 36.7046 11.5685 36.7046 10.2993C36.7046 9.03007 37.7331 8 39.0039 8C40.2731 8 41.3031 9.03007 41.3031 10.2993Z" fill="#E43D48"/>
<path fill-rule="evenodd" clip-rule="evenodd" d="M31.3031 10.2993C31.3031 11.5685 30.2731 12.5985 29.0039 12.5985C27.7331 12.5985 26.7046 11.5685 26.7046 10.2993C26.7046 9.03007 27.7331 8 29.0039 8C30.2731 8 31.3031 9.03007 31.3031 10.2993Z" fill="#E43D48"/>
<path fill-rule="evenodd" clip-rule="evenodd" d="M21.3031 10.2993C21.3031 11.5685 20.2746 12.5985 19.0039 12.5985C17.7347 12.5985 16.7046 11.5685 16.7046 10.2993C16.7046 9.03007 17.7347 8 19.0039 8C20.2746 8 21.3031 9.03007 21.3031 10.2993Z" fill="#E43D48"/>
</svg>
