<svg width="14" height="21" viewBox="0 0 14 21" fill="none" xmlns="http://www.w3.org/2000/svg">
<path d="M4.10979 14.3758C4.18044 14.47 4.26431 14.556 4.35927 14.6298C4.15256 14.9514 3.99417 15.3639 3.99417 15.8873C3.99417 17.035 4.75566 17.6492 5.1181 17.9416C5.129 17.9504 5.13954 17.9589 5.14968 17.9671L5.1583 17.9741L5.16711 17.9808C5.25422 18.0471 5.31376 18.0946 5.35729 18.1328C5.3629 18.1378 5.36799 18.1423 5.3726 18.1465C5.41015 18.8178 5.95493 19.3386 6.63673 19.3386C7.34341 19.3386 7.90294 18.7791 7.90294 18.0724C7.90294 16.9247 7.14144 16.3104 6.779 16.0181C6.7681 16.0093 6.75757 16.0008 6.74742 15.9926L6.73881 15.9856L6.72999 15.9789C6.68505 15.9447 6.64745 15.9155 6.6156 15.8899C6.6519 15.8596 6.69493 15.8246 6.7474 15.7821L6.74742 15.7821L6.75226 15.7781C6.77199 15.7619 6.79419 15.744 6.81845 15.7245C7.01424 15.5672 7.34392 15.3022 7.58754 14.8996H8.15087C8.58448 14.8996 8.95221 14.6811 9.18109 14.3758L8.58101 13.9259L9.18109 14.3758C9.44924 14.0181 9.48128 13.5836 9.36118 13.2238L9.35834 13.2153L9.3553 13.2069L9.18747 12.7415C9.60769 12.4543 9.99216 12.0944 10.3183 11.6551C10.3185 11.6548 10.3188 11.6545 10.319 11.6541L11.3327 10.2968L11.3336 10.2956C13.0522 7.98438 12.816 4.72919 10.7804 2.69353L10.7804 2.69353L10.778 2.69122C8.52878 0.46152 4.86247 0.4208 2.57152 2.63269L2.57152 2.63269L2.56964 2.63451C0.440796 4.70426 0.182274 8.0216 1.99821 10.3902C1.99826 10.3903 1.99831 10.3904 1.99837 10.3904L3.01117 11.7123C3.01154 11.7128 3.01192 11.7133 3.01229 11.7138C3.32294 12.1229 3.6913 12.4641 4.10222 12.7371L3.93424 13.2105L3.93183 13.2173L3.92955 13.2241C3.80989 13.5831 3.84134 14.0178 4.10979 14.3758Z" fill="#A13A3D" stroke="white" stroke-width="1.5"/>
</svg>
