<svg width="18" height="18" viewBox="0 0 18 18" fill="none" xmlns="http://www.w3.org/2000/svg">
<path d="M8.10938 10.0749H7.35938V10.8249V12.0749H6.85938V5.57489H9.60938C10.8202 5.57489 11.8594 6.6141 11.8594 7.82489C11.8594 9.06187 10.8252 10.0749 9.60938 10.0749H8.10938ZM8.10938 6.07489H7.35938V6.82489V8.82489V9.57489H8.10938H9.60938C10.5396 9.57489 11.3594 8.81673 11.3594 7.82489C11.3594 6.87943 10.5548 6.07489 9.60938 6.07489H8.10938ZM14.6094 1.07489H3.60938C2.34127 1.07489 1.35938 2.10839 1.35938 3.32489V14.3249C1.35938 15.5829 2.35141 16.5749 3.60938 16.5749H14.6094C15.8259 16.5749 16.8594 15.593 16.8594 14.3249V3.32489C16.8594 2.09818 15.8361 1.07489 14.6094 1.07489Z" fill="#61BBFF" stroke="white" stroke-width="1.5"/>
</svg>
