<svg width="22" height="16" viewBox="0 0 22 16" fill="none" xmlns="http://www.w3.org/2000/svg">
<path d="M14.3594 5.30108C13.9451 4.42766 13.3395 3.5649 12.5984 2.8511C11.555 1.8462 10.1752 1.07489 8.60938 1.07489H8.57812C7.0123 1.07489 5.63249 1.8462 4.5891 2.8511C3.54558 3.85613 2.77089 5.15648 2.42028 6.36609L2.42027 6.36609L2.41948 6.36885C2.21932 7.06943 2.46056 7.67607 2.90759 8.07489H2.67188C1.89379 8.07489 1.35938 8.74524 1.35938 9.41864C1.35938 9.98552 1.71025 10.4653 2.18894 10.6705L2.25331 10.6981L2.32168 10.7133L4.41189 11.1778L3.52435 12.6965L3.51876 12.706L3.51345 12.7158C3.07174 13.5256 3.59587 14.5749 4.60938 14.5749H5.73438C6.19627 14.5749 6.59143 14.3334 6.815 13.9608L6.81664 13.958L7.80105 12.3013C8.43368 12.4708 9.07013 12.5749 10.1094 12.5749C11.1249 12.5749 11.7562 12.4706 12.3865 12.3014L13.3709 13.958L13.3725 13.9608C13.5961 14.3334 13.9912 14.5749 14.4531 14.5749H15.5781C16.4988 14.5749 17.2148 13.5862 16.6579 12.6875L15.5918 10.85C16.062 10.5648 16.5076 10.1957 16.8636 9.7152C17.2449 9.22269 17.5038 8.67527 17.6587 8.10614H18.3281C19.7111 8.10614 20.8594 6.95785 20.8594 5.57489C20.8594 5.17029 20.7262 4.7613 20.5515 4.42685C20.3779 4.09451 20.1204 3.75374 19.7914 3.52432L18.2641 2.43334L18.2126 2.39661L18.1558 2.36901C16.6886 1.65637 14.6944 2.40642 14.3718 4.15777L14.3594 4.22514V4.29364V4.29437V4.2951V4.29583V4.29656V4.29729V4.29802V4.29875V4.29948V4.3002V4.30093V4.30165V4.30238V4.3031V4.30382V4.30455V4.30527V4.30599V4.30671V4.30743V4.30815V4.30887V4.30958V4.3103V4.31102V4.31173V4.31245V4.31316V4.31387V4.31459V4.3153V4.31601V4.31672V4.31743V4.31814V4.31885V4.31955V4.32026V4.32097V4.32167V4.32238V4.32308V4.32379V4.32449V4.32519V4.3259V4.3266V4.3273V4.328V4.3287V4.3294V4.33009V4.33079V4.33149V4.33218V4.33288V4.33358V4.33427V4.33496V4.33566V4.33635V4.33704V4.33773V4.33842V4.33911V4.3398V4.34049V4.34118V4.34186V4.34255V4.34324V4.34392V4.34461V4.34529V4.34598V4.34666V4.34734V4.34802V4.3487V4.34938V4.35006V4.35074V4.35142V4.3521V4.35278V4.35346V4.35413V4.35481V4.35548V4.35616V4.35683V4.3575V4.35818V4.35885V4.35952V4.36019V4.36086V4.36153V4.3622V4.36287V4.36354V4.36421V4.36487V4.36554V4.36621V4.36687V4.36754V4.3682V4.36886V4.36953V4.37019V4.37085V4.37151V4.37217V4.37283V4.37349V4.37415V4.37481V4.37547V4.37613V4.37678V4.37744V4.3781V4.37875V4.37941V4.38006V4.38071V4.38137V4.38202V4.38267V4.38332V4.38397V4.38462V4.38527V4.38592V4.38657V4.38722V4.38787V4.38852V4.38916V4.38981V4.39045V4.3911V4.39174V4.39239V4.39303V4.39368V4.39432V4.39496V4.3956V4.39624V4.39688V4.39752V4.39816V4.3988V4.39944V4.40008V4.40072V4.40135V4.40199V4.40263V4.40326V4.4039V4.40453V4.40517V4.4058V4.40643V4.40707V4.4077V4.40833V4.40896V4.40959V4.41022V4.41085V4.41148V4.41211V4.41274V4.41337V4.41399V4.41462V4.41525V4.41587V4.4165V4.41712V4.41775V4.41837V4.419V4.41962V4.42024V4.42087V4.42149V4.42211V4.42273V4.42335V4.42397V4.42459V4.42521V4.42583V4.42645V4.42706V4.42768V4.4283V4.42892V4.42953V4.43015V4.43076V4.43138V4.43199V4.43261V4.43322V4.43383V4.43445V4.43506V4.43567V4.43628V4.43689V4.4375V4.43811V4.43872V4.43933V4.43994V4.44055V4.44116V4.44177V4.44238V4.44298V4.44359V4.4442V4.4448V4.44541V4.44601V4.44662V4.44722V4.44782V4.44843V4.44903V4.44963V4.45024V4.45084V4.45144V4.45204V4.45264V4.45324V4.45384V4.45444V4.45504V4.45564V4.45624V4.45684V4.45743V4.45803V4.45863V4.45923V4.45982V4.46042V4.46101V4.46161V4.4622V4.4628V4.46339V4.46399V4.46458V4.46517V4.46577V4.46636V4.46695V4.46754V4.46813V4.46872V4.46932V4.46991V4.4705V4.47109V4.47167V4.47226V4.47285V4.47344V4.47403V4.47462V4.4752V4.47579V4.47638V4.47696V4.47755V4.47814V4.47872V4.47931V4.47989V4.48048V4.48106V4.48164V4.48223V4.48281V4.48339V4.48398V4.48456V4.48514V4.48572V4.4863V4.48689V4.48747V4.48805V4.48863V4.48921V4.48979V4.49037V4.49095V4.49152V4.4921V4.49268V4.49326V4.49384V4.49441V4.49499V4.49557V4.49614V4.49672V4.4973V4.49787V4.49845V4.49902V4.4996V4.50017V4.50075V4.50132V4.5019V4.50247V4.50304V4.50362V4.50419V4.50476V4.50533V4.50591V4.50648V4.50705V4.50762V4.50819V4.50876V4.50933V4.5099V4.51047V4.51104V4.51161V4.51218V4.51275V4.51332V4.51389V4.51446V4.51503V4.51559V4.51616V4.51673V4.5173V4.51786V4.51843V4.519V4.51956V4.52013V4.52069V4.52126V4.52183V4.52239V4.52296V4.52352V4.52409V4.52465V4.52522V4.52578V4.52634V4.52691V4.52747V4.52803V4.5286V4.52916V4.52972V4.53029V4.53085V4.53141V4.53197V4.53253V4.53309V4.53366V4.53422V4.53478V4.53534V4.5359V4.53646V4.53702V4.53758V4.53814V4.5387V4.53926V4.53982V4.54038V4.54094V4.5415V4.54206V4.54261V4.54317V4.54373V4.54429V4.54485V4.54541V4.54596V4.54652V4.54708V4.54764V4.54819V4.54875V4.54931V4.54986V4.55042V4.55098V4.55153V4.55209V4.55264V4.5532V4.55376V4.55431V4.55487V4.55542V4.55598V4.55653V4.55709V4.55764V4.5582V4.55875V4.55931V4.55986V4.56041V4.56097V4.56152V4.56208V4.56263V4.56318V4.56374V4.56429V4.56484V4.5654V4.56595V4.5665V4.56706V4.56761V4.56816V4.56871V4.56927V4.56982V4.57037V4.57092V4.57148V4.57203V4.57258V4.57313V4.57368V4.57423V4.57479V4.57534V4.57589V4.57644V4.57699V4.57754V4.57809V4.57865V4.5792V4.57975V4.5803V4.58085V4.5814V4.58195V4.5825V4.58305V4.5836V4.58415V4.5847V4.58525V4.5858V4.58635V4.5869V4.58745V4.588V4.58855V4.5891V4.58965V4.5902V4.59075V4.5913V4.59185V4.5924V4.59295V4.5935V4.59405V4.5946V4.59515V4.5957V4.59625V4.5968V4.59735V4.5979V4.59845V4.599V4.59955V4.6001V4.60065V4.6012V4.60175V4.60229V4.60284V4.60339V4.60394V4.60449V4.60504V4.60559V4.60614V5.30108ZM17.1094 4.57489C17.1681 4.57489 17.2337 4.5995 17.2842 4.65003C17.3348 4.70056 17.3594 4.76621 17.3594 4.82489C17.3594 4.9141 17.3242 4.96999 17.2954 5.00007C17.2623 5.03464 17.1985 5.07489 17.1094 5.07489C16.9905 5.07489 16.9343 5.02298 16.9228 5.01147C16.9113 4.99996 16.8594 4.94381 16.8594 4.82489C16.8594 4.73581 16.8996 4.672 16.9342 4.63887C16.9643 4.61004 17.0202 4.57489 17.1094 4.57489Z" fill="#69C5A0" stroke="white" stroke-width="1.5"/>
</svg>
