<svg width="23" height="20" viewBox="0 0 23 20" fill="none" xmlns="http://www.w3.org/2000/svg">
<path d="M3.20033 10.4313L1.43243 16.6655C1.36825 16.8262 1.32812 17.025 1.32812 17.1984C1.32812 18.1587 2.14763 18.9484 3.10938 18.9484C3.51585 18.9484 3.8867 18.7819 4.16221 18.5627C4.43306 18.3473 4.67562 18.0302 4.7721 17.6403L5.6381 14.6445L6.35938 15.1292V17.1672C6.35938 18.1439 7.13266 18.9172 8.10938 18.9172C8.51463 18.9172 8.89893 18.7733 9.20362 18.5288L9.07767 18.9172H10.1094H20.1094H21.3176L20.7815 17.8344L17.594 11.3969L17.5874 11.3836L17.5803 11.3705C16.9548 10.2238 15.2587 10.0474 14.5267 11.2848C14.5265 11.2851 14.5263 11.2854 14.5262 11.2856L13.8913 12.357L12.7763 11.7657L12.0966 8.31032C11.974 7.62616 11.6088 6.93354 11.1699 6.35986C11.0517 6.2054 10.9242 6.05438 10.7892 5.90999C11.926 5.81893 12.8594 4.87229 12.8594 3.66718C12.8594 2.44046 11.8361 1.41718 10.6094 1.41718C9.34127 1.41718 8.35938 2.45067 8.35938 3.66718C8.35938 3.99502 8.42675 4.3048 8.54866 4.58366C8.17666 4.48109 7.77941 4.41718 7.35938 4.41718H5.10938H5.06784L5.02655 4.42176C4.62425 4.46646 4.13604 4.64235 3.79779 4.9806L3.78014 4.99825L3.76369 5.01705L2.01369 7.01705L1.82812 7.22912V7.32498C1.36202 8.16488 1.77065 9.13528 2.53263 9.54498L3.32755 9.98267L3.20033 10.4313ZM10.146 15.6233L9.85938 16.5069V14.1672C9.85938 13.9202 9.78891 13.6855 9.69699 13.4896L11.4597 14.4602C11.2146 14.5172 10.9904 14.6263 10.8036 14.7591C10.5274 14.9555 10.2709 15.2484 10.1479 15.6175L10.1478 15.6175L10.146 15.6233Z" fill="#FF9C88" stroke="white" stroke-width="1.5"/>
</svg>
