<svg width="15" height="14" viewBox="0 0 15 14" fill="none" xmlns="http://www.w3.org/2000/svg">
<path fill-rule="evenodd" clip-rule="evenodd" d="M6.02217 0C5.35497 0.924211 4.8956 2.31599 4.65771 3.87186H1.70459C2.48388 2.01521 4.06982 0.579665 6.02217 0ZM9.54442 4.15624C9.14794 1.71445 8.21278 0 7.12451 0C6.03623 0 5.10107 1.71445 4.70459 4.15624H9.54442ZM14.0249 3.87186C13.2428 2.01521 11.6597 0.579665 9.70459 0C10.3718 0.924211 10.8312 2.31599 11.0718 3.87186H14.0249ZM9.8616 8.49999C9.91904 7.93945 9.95185 7.35703 9.95185 6.75C9.95185 6.14296 9.91904 5.56055 9.8616 5H4.79482C4.73741 5.56055 4.70459 6.14296 4.70459 6.75C4.70459 7.35703 4.73741 7.93945 4.79482 8.49999H9.8616ZM14.0733 6.75C14.0733 7.35703 13.9886 7.93945 13.8382 8.49999H10.7046C10.762 7.92577 10.7948 7.33788 10.7948 6.75C10.7948 6.16211 10.762 5.57422 10.7046 5H13.8409C13.9886 5.56055 14.0733 6.14296 14.0733 6.75ZM4.07334 8.49999C4.01865 7.92577 3.98583 7.33788 3.98583 6.75C3.98583 6.16211 4.01865 5.57422 4.07606 5H0.939735C0.792095 5.56055 0.70459 6.14296 0.70459 6.75C0.70459 7.35703 0.792095 7.93945 0.939735 8.49999H4.07334ZM9.54442 9C9.14794 11.4418 8.21278 13.1562 7.12451 13.1562C6.03623 13.1562 5.10107 11.4418 4.70459 9H9.54442ZM9.70459 12.8719C11.6569 12.2922 13.2429 10.8566 14.0249 9H11.0718C10.8312 10.5559 10.3718 11.9476 9.70459 12.8719ZM4.65771 9C4.89833 10.5559 5.35772 11.9476 6.02489 12.8719C4.06982 12.2922 2.48664 10.8566 1.70459 9H4.65771Z" fill="#485799"/>
</svg>
