<svg width="27" height="20" viewBox="0 0 27 20" fill="none" xmlns="http://www.w3.org/2000/svg">
<path d="M9.18073 11.1531C9.70353 11.1531 10.2083 11.0675 10.6811 10.9093C10.2231 11.0735 9.72561 11.1531 9.18073 11.1531ZM9.18073 11.1531C8.56593 11.1531 7.97926 11.0377 7.44111 10.8272C7.95878 11.0458 8.54807 11.1531 9.18073 11.1531ZM11.4307 10.6531H11.298C12.8511 9.87564 13.9307 8.27068 13.9307 6.40308C13.9307 3.80136 11.7824 1.65308 9.18073 1.65308C6.54395 1.65308 4.43073 3.80518 4.43073 6.40308C4.43073 8.26854 5.49343 9.87502 7.04939 10.6531H6.89948H6.36823C3.63428 10.6531 1.43073 12.9024 1.43073 15.6218V16.9031C1.43073 18.161 2.42276 19.1531 3.68073 19.1531H14.6807C15.8972 19.1531 16.9307 18.1712 16.9307 16.9031V15.6218C16.9307 12.8951 14.6887 10.6531 11.962 10.6531H11.4307Z" fill="#FF9C88" stroke="white" stroke-width="1.5"/>
<mask id="path-2-outside-1_3506_2022" maskUnits="userSpaceOnUse" x="12.8858" y="2.77466" width="14" height="17" fill="black">
<rect fill="white" x="12.8858" y="2.77466" width="14" height="17"/>
<path fill-rule="evenodd" clip-rule="evenodd" d="M16.2354 4.83775C15.9284 4.7232 15.5847 4.76633 15.3155 4.9532C15.0464 5.14007 14.8858 5.44697 14.8858 5.77466V17.0316C14.8858 17.5839 15.3335 18.0316 15.8858 18.0316C16.4381 18.0316 16.8858 17.5839 16.8858 17.0316V12.2004L24.2536 9.72618C24.6551 9.59135 24.9281 9.21824 24.9351 8.79478C24.9422 8.37132 24.6817 7.98936 24.2849 7.8413L16.2354 4.83775Z"/>
</mask>
<path fill-rule="evenodd" clip-rule="evenodd" d="M16.2354 4.83775C15.9284 4.7232 15.5847 4.76633 15.3155 4.9532C15.0464 5.14007 14.8858 5.44697 14.8858 5.77466V17.0316C14.8858 17.5839 15.3335 18.0316 15.8858 18.0316C16.4381 18.0316 16.8858 17.5839 16.8858 17.0316V12.2004L24.2536 9.72618C24.6551 9.59135 24.9281 9.21824 24.9351 8.79478C24.9422 8.37132 24.6817 7.98936 24.2849 7.8413L16.2354 4.83775Z" fill="#FF9C88"/>
<path d="M15.3155 4.9532L14.4601 3.72101H14.4601L15.3155 4.9532ZM16.2354 4.83775L15.711 6.24311L15.711 6.24311L16.2354 4.83775ZM16.8858 12.2004L16.4083 10.7785L15.3858 11.1218V12.2004H16.8858ZM24.2536 9.72618L24.7311 11.1481L24.2536 9.72618ZM24.9351 8.79478L26.4349 8.81964V8.81964L24.9351 8.79478ZM24.2849 7.8413L24.8093 6.43595V6.43595L24.2849 7.8413ZM16.1709 6.18539C16.0363 6.27882 15.8645 6.30039 15.711 6.24311L16.7598 3.4324C15.9922 3.14601 15.1331 3.25383 14.4601 3.72101L16.1709 6.18539ZM16.3858 5.77466C16.3858 5.9385 16.3055 6.09195 16.1709 6.18539L14.4601 3.72101C13.7872 4.18818 13.3858 4.95543 13.3858 5.77466H16.3858ZM16.3858 17.0316V5.77466H13.3858V17.0316H16.3858ZM15.8858 16.5316C16.1619 16.5316 16.3858 16.7554 16.3858 17.0316H13.3858C13.3858 18.4123 14.5051 19.5316 15.8858 19.5316V16.5316ZM15.3858 17.0316C15.3858 16.7554 15.6097 16.5316 15.8858 16.5316V19.5316C17.2665 19.5316 18.3858 18.4123 18.3858 17.0316H15.3858ZM15.3858 12.2004V17.0316H18.3858V12.2004H15.3858ZM23.7761 8.30422L16.4083 10.7785L17.3633 13.6224L24.7311 11.1481L23.7761 8.30422ZM23.4353 8.76992C23.4389 8.55819 23.5754 8.37163 23.7761 8.30422L24.7311 11.1481C25.7348 10.8111 26.4174 9.87829 26.4349 8.81964L23.4353 8.76992ZM23.7605 9.24666C23.5621 9.17263 23.4318 8.98165 23.4353 8.76992L26.4349 8.81964C26.4525 7.76099 25.8012 6.8061 24.8093 6.43595L23.7605 9.24666ZM15.711 6.24311L23.7605 9.24666L24.8093 6.43595L16.7598 3.4324L15.711 6.24311Z" fill="white" mask="url(#path-2-outside-1_3506_2022)"/>
</svg>
