<svg width="23" height="24" viewBox="0 0 23 24" fill="none" xmlns="http://www.w3.org/2000/svg">
<path d="M11.7961 0.859375C5.64185 0.859375 0.655518 5.8457 0.655518 12C0.655518 18.1543 5.64185 23.1406 11.7961 23.1406C17.9504 23.1406 22.9368 18.1543 22.9368 12C22.9368 5.8457 17.9504 0.859375 11.7961 0.859375ZM19.8372 8.04688H16.8274C16.5129 6.42969 16.0188 4.99219 15.3899 3.82422C17.3215 4.67773 18.8938 6.16016 19.8372 8.04688ZM11.7961 3.01562C12.6047 3.01562 13.9524 4.90234 14.6262 8.04688H8.92114C9.59497 4.90234 10.9426 3.01562 11.7961 3.01562ZM2.81177 12C2.81177 11.416 2.85669 10.7871 2.99146 10.2031H6.45044C6.40552 10.832 6.40552 11.416 6.40552 12C6.40552 12.6289 6.40552 13.2129 6.45044 13.7969H2.99146C2.85669 13.2578 2.81177 12.6289 2.81177 12ZM3.71021 15.9531H6.71997C7.03442 17.6152 7.52856 19.0527 8.15747 20.2207C6.22583 19.3672 4.65356 17.8398 3.71021 15.9531ZM6.71997 8.04688H3.71021C4.65356 6.16016 6.22583 4.67773 8.15747 3.82422C7.52856 4.99219 7.03442 6.42969 6.71997 8.04688ZM11.7961 20.9844C10.9426 20.9844 9.59497 19.1426 8.92114 15.9531H14.6262C13.9524 19.1426 12.6047 20.9844 11.7961 20.9844ZM14.9407 13.7969H8.60669C8.56177 13.2578 8.56177 12.6289 8.56177 12C8.56177 11.3711 8.56177 10.7871 8.60669 10.2031H14.9407C14.9856 10.7871 15.0305 11.3711 15.0305 12C15.0305 12.6289 14.9856 13.2578 14.9407 13.7969ZM15.3899 20.2207C16.0188 19.0527 16.5129 17.6152 16.8274 15.9531H19.8372C18.8938 17.8398 17.3215 19.3672 15.3899 20.2207ZM17.0969 13.7969C17.1418 13.2129 17.1868 12.6289 17.1868 12C17.1868 11.416 17.1418 10.832 17.0969 10.2031H20.6008C20.6907 10.7871 20.7805 11.416 20.7805 12C20.7805 12.6289 20.6907 13.2578 20.6008 13.7969H17.0969Z" fill="#49B87A"/>
</svg>
