<svg width="23" height="22" viewBox="0 0 23 22" fill="none" xmlns="http://www.w3.org/2000/svg">
<path d="M11.1948 0.253906L2.25732 3.60547C1.44092 3.90625 0.925293 4.67969 0.925293 5.53906V15.207C0.925293 15.9805 1.35498 16.7109 2.04248 17.0547L10.98 21.5234C11.5815 21.8242 12.2261 21.8242 12.8276 21.5234L21.7651 17.0547C22.4526 16.7109 22.8823 15.9805 22.8823 15.207V5.53906C22.8823 4.67969 22.3667 3.90625 21.5503 3.60547L12.6128 0.253906C12.1831 0.0820312 11.6675 0.0820312 11.1948 0.253906ZM11.9253 2.91797L20.1753 6.01172V6.05469L11.9253 9.40625L3.67529 6.05469V6.01172L11.9253 2.91797ZM13.3003 18.2148V11.8125L20.1753 9.01953V14.7773L13.3003 18.2148Z" fill="#485799"/>
</svg>
