<svg width="68" height="23" viewBox="0 0 68 23" fill="none" xmlns="http://www.w3.org/2000/svg">
<path d="M4.15767 11.2217L11.7046 2.0734L19.2515 11.2217L11.7046 20.3244L4.15767 11.2217Z" fill="black" stroke="#AAAAAA" stroke-width="2.63888"/>
<path d="M27.1577 11.2217L34.7046 2.0734L42.2515 11.2217L34.7046 20.3244L27.1577 11.2217Z" fill="black" stroke="#AAAAAA" stroke-width="2.63888"/>
<path fill-rule="evenodd" clip-rule="evenodd" d="M65.3489 20.0813C66.6508 20.0813 67.469 18.6689 66.8171 17.5391L58.3436 2.84704C57.6926 1.71869 56.0592 1.71662 55.407 2.84704L46.9333 17.5391C46.2828 18.6668 47.0972 20.0813 48.4016 20.0813H65.3489ZM58.1048 13.6504H56.3903C56.1653 13.6504 55.9794 13.4745 55.9672 13.2497L55.7052 8.44689C55.692 8.20413 55.8852 8 56.1283 8H58.3667C58.6098 8 58.8031 8.20413 58.7899 8.44689L58.5279 13.2497C58.5156 13.4745 58.3298 13.6504 58.1048 13.6504ZM55.7046 16.6245C55.7046 17.5217 56.4319 18.249 57.3291 18.249C58.2263 18.249 58.9536 17.5217 58.9536 16.6245C58.9536 15.7273 58.2263 15 57.3291 15C56.4319 15 55.7046 15.7273 55.7046 16.6245Z" fill="#E43D48"/>
</svg>
