<svg width="22" height="22" viewBox="0 0 22 22" fill="none" xmlns="http://www.w3.org/2000/svg">
<path d="M21.6382 18.2949L17.5366 14.1934C17.3315 14.0293 17.0854 13.9062 16.8394 13.9062H16.1831C17.2905 12.4707 17.9878 10.666 17.9878 8.65625C17.9878 3.98047 14.1323 0.125 9.45654 0.125C4.73975 0.125 0.925293 3.98047 0.925293 8.65625C0.925293 13.373 4.73975 17.1875 9.45654 17.1875C11.4253 17.1875 13.23 16.5312 14.7065 15.3828V16.0801C14.7065 16.3262 14.7886 16.5723 14.9937 16.7773L19.0542 20.8379C19.4644 21.248 20.0796 21.248 20.4487 20.8379L21.5972 19.6895C22.0073 19.3203 22.0073 18.7051 21.6382 18.2949ZM9.45654 13.9062C6.54443 13.9062 4.20654 11.5684 4.20654 8.65625C4.20654 5.78516 6.54443 3.40625 9.45654 3.40625C12.3276 3.40625 14.7065 5.78516 14.7065 8.65625C14.7065 11.5684 12.3276 13.9062 9.45654 13.9062Z" fill="#485799"/>
</svg>
