<svg width="24" height="16" viewBox="0 0 24 16" fill="none" xmlns="http://www.w3.org/2000/svg">
<path d="M6.10938 11.9077H6.38144L8.97926 14.2746L8.99347 14.2876L9.00832 14.2998C10.0022 15.1162 11.3493 15.1097 12.3198 14.4318L12.3632 14.4701L12.3746 14.4802L12.3864 14.4898C13.1942 15.1461 14.4193 15.0594 15.0977 14.2244L15.0977 14.2244L15.1027 14.2181L15.6433 13.5381C16.3329 13.8177 17.1463 13.6056 17.6476 13.0208L17.6635 13.0023L17.6781 12.9827L17.955 12.6136C18.1246 12.3953 18.2366 12.1479 18.291 11.8917L18.8281 12.6973V12.3766C19.1436 12.7186 19.5951 12.939 20.1094 12.939H22.1094H22.8594V12.189V4.18896V3.43896H22.1094H19.1094H18.42L16.921 1.93988C16.6178 1.63675 16.1848 1.40771 15.6719 1.40771H13.0719H12.9844H11.1406H8.51562C8.00267 1.40771 7.56968 1.63675 7.26654 1.93988L5.76746 3.43896H5.10938H2.10938H1.35938V4.18896V12.1577V12.9077H2.10938H4.10938C4.78539 12.9077 5.40311 12.5073 5.69022 11.9077H6.10938ZM20.6094 10.439C20.6985 10.439 20.7623 10.4792 20.7954 10.5138C20.8242 10.5439 20.8594 10.5998 20.8594 10.689C20.8594 10.7476 20.8348 10.8133 20.7842 10.8638C20.7337 10.9144 20.6681 10.939 20.6094 10.939C20.5202 10.939 20.4643 10.9038 20.4342 10.875C20.3996 10.8419 20.3594 10.778 20.3594 10.689C20.3594 10.57 20.4113 10.5139 20.4228 10.5024C20.4343 10.4909 20.4905 10.439 20.6094 10.439ZM3.60938 10.939C3.52017 10.939 3.46428 10.9038 3.4342 10.875C3.39963 10.8419 3.35938 10.778 3.35938 10.689C3.35938 10.57 3.41129 10.5139 3.42279 10.5024C3.4343 10.4909 3.49045 10.439 3.60938 10.439C3.69846 10.439 3.76227 10.4792 3.7954 10.5138C3.82423 10.5439 3.85938 10.5998 3.85938 10.689C3.85938 10.7476 3.83477 10.8133 3.78424 10.8638C3.7337 10.9144 3.66805 10.939 3.60938 10.939Z" fill="#A13A3D" stroke="white" stroke-width="1.5"/>
</svg>
