<svg width="20" height="18" viewBox="0 0 20 18" fill="none" xmlns="http://www.w3.org/2000/svg">
<path d="M16.906 7.79147L16.906 7.79142L16.8978 7.78705C16.7697 7.71923 16.6303 7.64673 16.4759 7.57489H17.1094C18.0396 7.57489 18.8594 6.81673 18.8594 5.82489V2.82489C18.8594 1.87943 18.0548 1.07489 17.1094 1.07489H3.10938C2.11754 1.07489 1.35938 1.89471 1.35938 2.82489V5.82489C1.35938 6.8016 2.13266 7.57489 3.10938 7.57489H3.7245C3.5871 7.63798 3.46085 7.70118 3.34228 7.76052C3.32984 7.76675 3.31749 7.77293 3.30521 7.77907L3.29324 7.78506L3.28149 7.79147C2.98719 7.95199 2.796 8.0348 2.44994 8.08118C1.81679 8.16232 1.35938 8.70793 1.35938 9.32489V10.3249C1.35938 10.8153 1.63511 11.2356 2.04157 11.4409C1.62252 11.7672 1.35938 12.2769 1.35938 12.8249V14.8249C1.35938 15.8016 2.13266 16.5749 3.10938 16.5749H17.1094C18.0396 16.5749 18.8594 15.8167 18.8594 14.8249V12.8249C18.8594 12.2681 18.5803 11.7602 18.1578 11.4367C18.5495 11.2348 18.8072 10.8364 18.8548 10.4077L18.8594 10.3664V10.3249V9.32489V9.2782L18.8536 9.23186C18.7873 8.70122 18.3812 8.16357 17.7375 8.08117C17.3915 8.03479 17.2003 7.95199 16.906 7.79147ZM11.7245 7.57489C11.5871 7.63798 11.4608 7.70118 11.3423 7.76052C11.3298 7.76675 11.3175 7.77293 11.3052 7.77907C11.089 7.88715 10.9484 7.9523 10.7877 7.99783C10.6325 8.0418 10.4297 8.07489 10.1094 8.07489C9.77155 8.07489 9.56918 8.0414 9.41539 7.99783C9.25411 7.95213 9.11873 7.88912 8.881 7.77817C8.75753 7.71292 8.62359 7.6436 8.47592 7.57489H11.7245ZM7.66391 11.0749H4.51369C4.59607 11.0374 4.67335 11.0008 4.74631 10.9663C4.78685 10.9471 4.82605 10.9285 4.86404 10.9108C4.92118 10.8841 4.97205 10.86 5.01839 10.838C5.19074 10.7563 5.30043 10.7044 5.43736 10.661C5.58829 10.6132 5.78407 10.5749 6.10938 10.5749C6.41701 10.5749 6.61313 10.6127 6.76577 10.661C6.92341 10.7109 7.05562 10.7771 7.2689 10.8838C7.28075 10.8897 7.29285 10.8958 7.30521 10.902C7.41836 10.9585 7.53694 11.0171 7.66391 11.0749ZM12.1094 12.4864L10.2825 11.5729C11.5436 11.5443 12.3073 11.2054 12.881 10.9028C12.9313 10.8793 12.9767 10.8578 13.0184 10.838C13.1907 10.7563 13.3004 10.7044 13.4374 10.661C13.5883 10.6132 13.7841 10.5749 14.1094 10.5749C14.417 10.5749 14.6131 10.6127 14.7658 10.661C14.9234 10.7109 15.0556 10.7771 15.2689 10.8838C15.2808 10.8897 15.2928 10.8958 15.3052 10.902L15.3143 10.9065L15.3235 10.9108C15.3615 10.9285 15.4007 10.9471 15.4412 10.9663C15.5141 11.0008 15.5914 11.0374 15.6738 11.0749H15.1094H14.9323L14.774 11.1541L12.1094 12.4864Z" fill="#E16634" stroke="white" stroke-width="1.5"/>
</svg>
