<svg width="22" height="20" viewBox="0 0 22 20" fill="none" xmlns="http://www.w3.org/2000/svg">
<path d="M0.875 3.32489C0.875 3.9235 1.28583 4.4177 1.84375 4.54374V15.1069C1.26797 15.2411 0.875 15.7764 0.875 16.3249V17.3249C0.875 18.0204 1.42954 18.5749 2.125 18.5749H9.625H10.375V17.8249V15.5749H10.875V17.8249V18.5749H11.625H19.125C19.7588 18.5749 20.375 18.0501 20.375 17.3249V16.3249C20.375 15.956 20.1981 15.6498 19.9991 15.4508C19.847 15.2987 19.6324 15.1596 19.375 15.1024V4.54792C19.9115 4.43208 20.375 3.95388 20.375 3.32489V2.32489C20.375 1.95597 20.1981 1.64982 19.9991 1.45081C19.8001 1.2518 19.4939 1.07489 19.125 1.07489H2.125C1.39977 1.07489 0.875 1.69108 0.875 2.32489V3.32489ZM10.375 6.07489V5.57489H10.875V6.07489H10.375ZM10.375 9.07489V8.57489H10.875V9.07489H10.375ZM6.375 6.07489V5.57489H6.875V6.07489H6.375ZM6.875 8.57489V9.07489H6.375V8.57489H6.875ZM8.49971 13.0749C8.80227 12.199 9.62452 11.5749 10.625 11.5749C11.6041 11.5749 12.4377 12.2013 12.7468 13.0749H8.49971ZM14.875 8.57489V9.07489H14.375V8.57489H14.875ZM14.875 5.57489V6.07489H14.375V5.57489H14.875Z" fill="#5D2E92" stroke="white" stroke-width="1.5"/>
</svg>
