<svg width="30" height="30" viewBox="0 0 30 30" fill="none" xmlns="http://www.w3.org/2000/svg">
<path fill-rule="evenodd" clip-rule="evenodd" d="M12.3031 10.2993C12.3031 11.57 11.2731 12.5985 10.0039 12.5985C8.73313 12.5985 7.70459 11.57 7.70459 10.2993C7.70459 9.03007 8.73313 8 10.0039 8C11.2731 8 12.3031 9.03007 12.3031 10.2993Z" fill="#E43D48"/>
<mask id="mask0_0_208952" style="mask-type:alpha" maskUnits="userSpaceOnUse" x="6" y="14" width="9" height="16">
<path fill-rule="evenodd" clip-rule="evenodd" d="M6.70459 14H14.493V29.1087H6.70459V14Z" fill="white"/>
</mask>
<g mask="url(#mask0_0_208952)">
<path fill-rule="evenodd" clip-rule="evenodd" d="M14.493 21.1845C14.4608 20.5912 14.0807 20.0777 13.5273 19.9137V16.5553C13.5196 15.1481 12.4206 14.0061 11.0625 14H10.3298C8.96861 14.0015 7.86496 15.145 7.85729 16.5553V19.8754C7.19817 19.9628 6.70306 20.5468 6.70459 21.2381V22.0904V23.7872H6.72759V27.7312C6.7797 28.4532 7.36065 29.0127 8.05963 29.0127C8.75708 29.0127 9.33802 28.4532 9.39014 27.7312V23.7872H11.8473V27.7312C11.8473 28.4931 12.442 29.1093 13.1747 29.1093C13.8906 29.1093 14.4639 28.5176 14.493 27.7834V21.1845Z" fill="#E43D48"/>
</g>
<path fill-rule="evenodd" clip-rule="evenodd" d="M22.3031 10.2993C22.3031 11.57 21.2731 12.5985 20.0039 12.5985C18.7331 12.5985 17.7046 11.57 17.7046 10.2993C17.7046 9.03007 18.7331 8 20.0039 8C21.2731 8 22.3031 9.03007 22.3031 10.2993Z" fill="#E43D48"/>
<mask id="mask1_0_208952" style="mask-type:alpha" maskUnits="userSpaceOnUse" x="16" y="14" width="9" height="16">
<path fill-rule="evenodd" clip-rule="evenodd" d="M16.7046 14H24.4915V29.1087H16.7046V14Z" fill="white"/>
</mask>
<g mask="url(#mask1_0_208952)">
<path fill-rule="evenodd" clip-rule="evenodd" d="M24.4915 21.1845C24.4593 20.5912 24.0791 20.0777 23.5258 19.9137V16.5553C23.5181 15.1481 22.4191 14.0061 21.061 14H20.3283C18.9671 14.0015 17.8634 15.145 17.8558 16.5553V19.8754C17.1966 19.9628 16.7015 20.5468 16.7046 21.2381V22.0904V23.7872H16.7261V27.7312C16.7782 28.4532 17.3591 29.0127 18.0581 29.0127C18.7571 29.0127 19.3365 28.4532 19.3886 27.7312V23.7872H21.8458V27.7312C21.8458 28.4931 22.4405 29.1093 23.1747 29.1093C23.8891 29.1093 24.4639 28.5176 24.4915 27.7834V21.1845Z" fill="#E43D48"/>
</g>
<mask id="mask2_0_208952" style="mask-type:alpha" maskUnits="userSpaceOnUse" x="0" y="0" width="30" height="24">
<path fill-rule="evenodd" clip-rule="evenodd" d="M0.70459 0H29.8287V23.8025H0.70459V0Z" fill="white"/>
</mask>
<g mask="url(#mask2_0_208952)">
<path fill-rule="evenodd" clip-rule="evenodd" d="M28.0958 21.4296C27.6927 21.9186 27.1025 22.1991 26.4817 22.1915H25.8502V22.2068H5.40354H5.17821H4.83792C4.19259 22.2083 3.57945 21.9064 3.17478 21.3836C2.77011 20.8594 2.61529 20.1742 2.75478 19.5197L5.27172 7.73518C5.49245 6.72504 6.35544 6.0046 7.35486 6H24.2453C25.2723 6.0046 26.1522 6.76489 26.3422 7.81182L28.5434 19.6638C28.6507 20.2923 28.4867 20.9376 28.0958 21.4296ZM29.7662 19.2372L29.7524 19.2219L27.5512 7.37606C27.214 5.54737 25.6781 4.22146 23.8831 4.21073H15.9445V0.708175C15.9445 0.317299 15.6394 0 15.2624 0C14.8853 0 14.5802 0.317299 14.5802 0.708175V4.21073H6.97119C5.21455 4.21686 3.6955 5.47839 3.30309 7.25496L0.793818 19.0625C0.54703 20.2152 0.818344 21.4246 1.53112 22.3458C2.24542 23.2686 3.32302 23.8036 4.46192 23.8036H4.79455H5.01988H25.4665H25.839H26.0981C27.2063 23.8066 28.2578 23.2977 28.9675 22.4148C29.6772 21.5319 29.97 20.3669 29.7662 19.2372Z" fill="#E43D48"/>
</g>
</svg>
