<svg width="24" height="20" viewBox="0 0 24 20" fill="none" xmlns="http://www.w3.org/2000/svg">
<path d="M22.7667 15.9078L22.7607 15.8978L22.7544 15.8881L13.7652 1.90488C13.4634 1.38468 12.8688 1.07489 12.311 1.07489C11.7357 1.07489 11.1335 1.37411 10.8256 1.90492L1.8364 15.8881L1.83013 15.8978L1.82417 15.9078C1.70613 16.1045 1.52979 16.4652 1.52979 16.8561C1.52979 17.0167 1.56513 17.1773 1.59527 17.2879C1.62768 17.4067 1.6747 17.5418 1.73396 17.6603L1.74125 17.6749L1.74917 17.6891C1.91404 17.9859 2.17532 18.199 2.41675 18.3345C2.65933 18.4705 2.96483 18.5749 3.27979 18.5749H3.31104H21.311C21.9164 18.5749 22.5052 18.2507 22.8292 17.7108L22.844 17.6861L22.8569 17.6603C22.9161 17.5418 22.9631 17.4067 22.9955 17.2879C23.0257 17.1773 23.061 17.0167 23.061 16.8561C23.061 16.4652 22.8847 16.1045 22.7667 15.9078ZM12.3072 6.07918L13.5923 8.07489H12.311H12.0004L11.7807 8.29456L10.3042 9.77107L10.0573 9.53048L12.3072 6.07918Z" fill="#FF9500" stroke="white" stroke-width="1.5"/>
</svg>
