<svg width="45" height="40" viewBox="0 0 45 40" fill="none" xmlns="http://www.w3.org/2000/svg">
<path fill-rule="evenodd" clip-rule="evenodd" d="M41.1281 39.203C43.9508 39.203 45.7248 36.1408 44.3115 33.691L25.9398 1.83652C24.5283 -0.609929 20.9868 -0.614415 19.5728 1.83652L1.20053 33.691C-0.209997 36.136 1.55586 39.203 4.38402 39.203H41.1281ZM24.9085 25.2509H21.1914C20.7034 25.2509 20.3005 24.8694 20.274 24.3822L19.706 13.9689C19.6773 13.4426 20.0962 13 20.6233 13H25.4765C26.0036 13 26.4226 13.4426 26.3939 13.9689L25.8259 24.3822C25.7994 24.8694 25.3965 25.2509 24.9085 25.2509ZM19.7046 30.5221C19.7046 32.4674 21.2815 34.0443 23.2267 34.0443C25.172 34.0443 26.7489 32.4674 26.7489 30.5221C26.7489 28.5769 25.172 27 23.2267 27C21.2815 27 19.7046 28.5769 19.7046 30.5221Z" fill="#EC694C"/>
</svg>
