<svg width="30" height="20" viewBox="0 0 30 20" fill="none" xmlns="http://www.w3.org/2000/svg">
<path fill-rule="evenodd" clip-rule="evenodd" d="M19.7046 5C19.7046 7.76339 17.468 10 14.7046 10C11.9412 10 9.70459 7.76339 9.70459 5C9.70459 2.23661 11.9412 0 14.7046 0C17.468 0 19.7046 2.23661 19.7046 5ZM7.41888 5.85714C7.41888 7.43304 6.13763 8.71429 4.56173 8.71429C2.98584 8.71429 1.70459 7.43304 1.70459 5.85714C1.70459 4.28125 2.98584 3 4.56173 3C6.13763 3 7.41888 4.28125 7.41888 5.85714ZM27.4189 5.85714C27.4189 7.43304 26.1376 8.71429 24.5617 8.71429C22.9858 8.71429 21.7046 7.43304 21.7046 5.85714C21.7046 4.28125 22.9858 3 24.5617 3C26.1376 3 27.4189 4.28125 27.4189 5.85714ZM26.5751 10H23.718C22.9323 10 22.2224 10.317 21.7046 10.8304C23.5037 11.817 24.7805 13.5982 25.0573 15.7143H28.0037C28.7939 15.7143 29.4323 15.0759 29.4323 14.2857V12.8571C29.4323 11.2812 28.151 10 26.5751 10ZM18.7046 11H18.3341C17.4055 11.4464 16.3742 11.7143 15.276 11.7143C14.1778 11.7143 13.151 11.4464 12.218 11H11.8474C9.00816 11 6.70459 13.3036 6.70459 16.1429V17.4286C6.70459 18.6116 7.66441 19.5714 8.84745 19.5714H21.7046C22.8876 19.5714 23.8474 18.6116 23.8474 17.4286V16.1429C23.8474 13.3036 21.5439 11 18.7046 11ZM6.41888 10C7.20459 10 7.91441 10.317 8.43227 10.8304C6.63316 11.817 5.35638 13.5982 5.07513 15.7143H2.13316C1.34298 15.7143 0.70459 15.0759 0.70459 14.2857V12.8571C0.70459 11.2812 1.98584 10 3.56173 10H6.41888Z" fill="#485799"/>
</svg>
