<svg width="22" height="21" viewBox="0 0 22 21" fill="none" xmlns="http://www.w3.org/2000/svg">
<path d="M17.5785 10.2348L17.5968 10.2487L17.6159 10.2614C17.9317 10.472 18.2964 10.5749 18.6569 10.5749C19.1316 10.5749 19.6811 10.3708 20.033 9.90671C20.6269 9.14331 20.4788 8.00633 19.6948 7.43919L17.2082 5.57431C18.4024 5.54717 19.4069 4.57512 19.4069 3.32489C19.4069 2.09818 18.3836 1.07489 17.1569 1.07489C15.8888 1.07489 14.9069 2.10839 14.9069 3.32489C14.9069 3.62353 14.9628 3.90718 15.0649 4.16613C14.904 4.09825 14.7411 4.03846 14.5786 3.98732L12.8782 3.40278L12.2028 2.05198C11.7614 1.16928 10.7109 0.849998 9.85277 1.27907C8.97007 1.72042 8.65079 2.77091 9.07986 3.62905L9.98611 5.44155L9.9921 5.45353L9.99851 5.46528C10.1047 5.66 10.24 5.84323 10.4002 6.00542C9.45984 6.48269 8.90693 7.43023 8.90693 8.44989V9.56557L7.07601 10.1759L7.06284 10.1803L7.04984 10.1851C6.49983 10.3914 6.10983 10.8492 5.96133 11.3842C5.89314 11.3537 5.8084 11.2864 5.74185 11.161C5.40287 10.397 4.51216 10.1054 3.78186 10.4554C3.03721 10.7818 2.66698 11.6991 3.04501 12.4656C3.43499 13.2809 4.11135 13.9318 5.00753 14.222L16.3785 18.3654C16.7931 18.5433 17.2184 18.5749 17.5632 18.5749C18.0458 18.5749 18.5359 18.5005 19.0341 18.256C19.8188 17.9112 20.0874 16.9785 19.7455 16.2629C19.4112 15.4974 18.5254 15.2014 17.795 15.5429C17.6211 15.6088 17.5191 15.5995 17.4355 15.566L17.4241 15.5615L17.4126 15.5573L15.5599 14.8854C15.5799 14.8245 15.5967 14.7616 15.6098 14.6971L16.2953 11.5188C16.2955 11.518 16.2957 11.5172 16.2959 11.5163C16.4832 10.6686 16.1557 9.77534 15.4478 9.25398L14.8237 8.78588L15.3462 8.54044L17.5785 10.2348ZM10.0433 12.8785L10.8606 12.5997C11.5273 12.3859 12.0269 11.8712 12.2489 11.2342L12.6971 11.5722L12.238 13.6837L10.0433 12.8785Z" fill="#FF9500" stroke="white" stroke-width="1.5" stroke-linecap="round"/>
<path d="M1.3595 19.501C1.3595 19.9152 1.69528 20.251 2.1095 20.251H16.6095C16.9726 20.251 17.2836 19.9908 17.3477 19.6334C17.4118 19.276 17.2107 18.924 16.8702 18.7977L2.37018 13.4227C2.14 13.3374 1.88264 13.3701 1.68114 13.5103C1.47963 13.6505 1.3595 13.8805 1.3595 14.126V19.501Z" fill="#FF9500" stroke="white" stroke-width="1.5" stroke-linecap="round" stroke-linejoin="round"/>
</svg>
