<svg width="26" height="21" viewBox="0 0 26 21" fill="none" xmlns="http://www.w3.org/2000/svg">
<path d="M13.4038 16.4391C10.4351 16.4391 8.01318 14.1735 7.81787 11.2438L3.71631 8.07976C3.16943 8.78288 2.66162 9.48601 2.271 10.2673C2.19287 10.4235 2.15381 10.6579 2.15381 10.8532C2.15381 11.0094 2.19287 11.2438 2.271 11.4001C4.38037 15.5407 8.59912 18.3141 13.4038 18.3141C14.4194 18.3141 15.4351 18.1579 16.4116 17.9235L14.4194 16.361C14.1069 16.4001 13.6772 16.4391 13.4038 16.4391ZM25.6304 18.7438L21.3335 15.3844C22.4272 14.4469 23.8335 12.6891 24.4976 11.4001C24.5757 11.2438 24.6147 11.0094 24.6147 10.8141C24.6147 10.6579 24.5757 10.4235 24.4976 10.2673C22.3882 6.12663 18.1694 3.31413 13.4038 3.31413C11.6851 3.3532 9.10693 3.9782 7.62256 4.79851L2.66162 0.970383C2.5835 0.892258 2.38818 0.814133 2.271 0.814133C2.11475 0.814133 1.88037 0.93132 1.80225 1.08757L1.021 2.06413C0.942871 2.14226 0.903809 2.33757 0.903809 2.45476C0.903809 2.61101 0.981934 2.84538 1.13818 2.92351L24.1069 20.6969C24.1851 20.7751 24.3804 20.8532 24.4976 20.8532C24.6538 20.8532 24.8882 20.736 25.0054 20.5798L25.7476 19.6032C25.8257 19.5251 25.9038 19.3298 25.9038 19.2126C25.9038 19.0563 25.7866 18.8219 25.6304 18.7438ZM18.4819 13.1969L16.9194 11.986C17.0366 11.6735 17.1147 11.1657 17.1538 10.8141C17.1538 10.8141 17.1538 10.8141 17.1538 10.7751C17.1538 8.74382 15.4741 7.06413 13.4429 7.06413C13.1304 7.06413 12.6616 7.14226 12.3882 7.22038C12.5835 7.49382 12.7397 8.00163 12.7788 8.31413C12.7397 8.43132 12.7397 8.62663 12.7007 8.70476L9.81006 6.51726C10.6694 5.77507 12.271 5.2282 13.4038 5.18913C16.4897 5.18913 19.0288 7.7282 19.0288 10.8141C19.0288 11.6735 18.7944 12.4548 18.4819 13.1969Z" fill="#485799"/>
</svg>
