<svg width="38" height="51" viewBox="0 0 38 51" fill="none" xmlns="http://www.w3.org/2000/svg">
<path d="M31.1566 38.0344C31.2779 37.8014 31.3075 37.5313 31.2395 37.2776C30.6525 35.0868 29.2204 32.9708 27.5403 31.1626C26.0921 29.604 24.4097 28.2204 22.7929 27.157L25.8714 20.5896C26.5462 19.3661 26.1135 17.7972 24.8985 17.0957C23.6767 16.3903 22.0909 16.8086 21.3743 18.0201L14.045 29.4637L13.3287 28.4041C12.5057 27.1588 11.5662 26.1923 10.4734 25.7536C9.2982 25.2819 8.11678 25.4865 7.0538 26.2315L6.93605 26.3093C6.54576 26.5669 6.37296 27.0517 6.51222 27.4982L10.3729 39.8748L9.51793 41.3556C9.22798 41.8578 9.40005 42.5 9.90226 42.7899L21.1173 49.2649C21.6195 49.5549 22.2617 49.3828 22.5516 48.8806L23.793 46.7304C24.8494 46.303 25.9081 45.4504 26.9158 44.3661C28.0774 43.1161 29.2602 41.461 30.3903 39.5037C30.3979 39.4905 30.4052 39.4772 30.4122 39.4637L31.1566 38.0344Z" stroke="black" stroke-width="2.1" stroke-linejoin="round"/>
<path d="M2.1544 10.0509L3.02516 9.80123C3.39917 9.69187 3.78753 9.91371 3.88512 10.2911L5.09655 14.9378L7.11536 16.0568L11.6979 14.6218C12.0683 14.5071 12.4622 14.7189 12.5691 15.0915L12.8188 15.9623C12.9259 16.3285 12.7133 16.712 12.3446 16.8177L4.71959 19.0042C4.35339 19.1113 3.96983 18.8987 3.86411 18.53L1.68021 10.9064C1.57307 10.5402 1.78569 10.1566 2.1544 10.0509Z" fill="#EC694C"/>
<path d="M20.921 6.37075C12.3592 4.87219 6.82055 8.41472 4.73741 16.7356C4.57646 17.3785 4.96716 18.0302 5.61006 18.1911C6.25296 18.3521 6.90461 17.9614 7.06556 17.3185C8.84126 10.2256 13.1778 7.45195 20.5073 8.73482C21.1601 8.84908 21.7819 8.41249 21.8962 7.75967C22.0105 7.10685 21.5739 6.48501 20.921 6.37075Z" fill="#EC694C"/>
</svg>
