<svg width="30" height="54" viewBox="0 0 30 54" fill="none" xmlns="http://www.w3.org/2000/svg">
<circle cx="13.1128" cy="8.59183" r="6.59183" transform="rotate(90 13.1128 8.59183)" fill="white" stroke="#EC694C" stroke-opacity="0.196514" stroke-width="2.1" stroke-linecap="round"/>
<circle cx="13.1128" cy="15.5918" r="6.59183" transform="rotate(90 13.1128 15.5918)" fill="white" stroke="#EC694C" stroke-opacity="0.504398" stroke-width="2.1" stroke-linecap="round"/>
<circle cx="13.1128" cy="21.5918" r="6.59183" transform="rotate(90 13.1128 21.5918)" fill="white" stroke="#EC694C" stroke-width="2.1" stroke-linecap="round"/>
<path d="M28.5507 37.768C28.4992 37.6133 28.4123 37.4728 28.2971 37.3575C27.2867 36.3472 24.5605 33.9766 20.9082 33.5461L20.2043 23.4985C20.1817 22.0974 19.0206 20.95 17.6146 20.95C16.2065 20.95 15.044 22.1008 15.0248 23.5047L14.9728 24.3793C14.5269 23.589 13.6783 23.05 12.7146 23.05C11.3038 23.05 10.1397 24.2051 10.1247 25.6126L9.49949 39.118L8.34891 38.5582C7.00271 37.8859 5.70463 37.5402 4.54073 37.7183C3.3001 37.9082 2.38245 38.666 1.8319 39.8075L1.76544 39.9404C1.55695 40.3574 1.64837 40.8619 1.98991 41.1792L11.5246 50.0377V51.75C11.5246 52.3299 11.9947 52.8 12.5746 52.8H25.5246C26.1045 52.8 26.5746 52.3299 26.5746 51.75V49.2594C26.9461 48.761 27.2331 48.1444 27.462 47.5021C27.7539 46.6828 27.9831 45.7288 28.16 44.7217C28.514 42.7064 28.6746 40.3864 28.6746 38.31C28.6746 38.1971 28.6564 38.085 28.6207 37.978L28.5507 37.768Z" fill="white" stroke="black" stroke-width="2.1" stroke-linejoin="round"/>
</svg>
