<svg width="23" height="18" viewBox="0 0 23 18" fill="none" xmlns="http://www.w3.org/2000/svg">
<path d="M11.459 9.5498C11.9336 9.0752 11.9336 8.28418 11.459 7.75684L4.28711 0.584961C3.75977 0.110352 2.96875 0.110352 2.49414 0.584961L1.28125 1.79785C0.806641 2.3252 0.806641 3.11621 1.28125 3.59082L6.39648 8.70605L1.28125 13.7686C0.806641 14.2432 0.806641 15.0342 1.28125 15.5615L2.49414 16.7217C2.96875 17.249 3.75977 17.249 4.28711 16.7217L11.459 9.5498Z" fill="#485799"/>
<path d="M22.3486 9.5498C22.8232 9.0752 22.8232 8.28418 22.3486 7.75684L15.1768 0.584961C14.6494 0.110352 13.8584 0.110352 13.3838 0.584961L12.1709 1.79785C11.6963 2.3252 11.6963 3.11621 12.1709 3.59082L17.2861 8.70605L12.1709 13.7686C11.6963 14.2432 11.6963 15.0342 12.1709 15.5615L13.3838 16.7217C13.8584 17.249 14.6494 17.249 15.1768 16.7217L22.3486 9.5498Z" fill="#485799"/>
</svg>
