<svg width="20" height="20" viewBox="0 0 20 20" fill="none" xmlns="http://www.w3.org/2000/svg">
<path d="M16.8635 4.48463L16.8416 4.50338L16.8212 4.52375L14.7801 6.56493L13.568 6.36886L13.372 5.15684L15.4131 3.11566C16.0882 2.44065 15.6635 1.41824 14.8722 1.23143C13.1538 0.795902 11.2616 1.27319 9.91834 2.61414C8.571 3.93024 8.12925 5.82053 8.53941 7.52285L2.16623 13.8663L2.16622 13.8663L2.16498 13.8675C1.09084 14.9416 1.09084 16.6978 2.16498 17.7719C3.23913 18.846 4.99525 18.846 6.06939 17.7719L12.4185 11.4228C14.1162 11.8071 15.9779 11.3634 17.3194 10.0219C18.6627 8.67859 19.1412 6.7851 18.7056 5.06543C18.4966 4.16955 17.4507 3.98132 16.8635 4.48463Z" fill="#3676C5" stroke="white" stroke-width="1.5"/>
</svg>
