<svg width="22" height="25" viewBox="0 0 22 25" fill="none" xmlns="http://www.w3.org/2000/svg">
<path d="M1.35938 8.32489C1.35938 8.9235 1.77021 9.4177 2.32812 9.54374V20.1069C1.75235 20.2411 1.35938 20.7764 1.35938 21.3249V22.3249C1.35938 23.0204 1.91391 23.5749 2.60938 23.5749H10.1094H10.8594V22.8249V20.5749H11.3594V22.8249V23.5749H12.1094H19.6094C20.2432 23.5749 20.8594 23.0501 20.8594 22.3249V21.3249C20.8594 20.956 20.6825 20.6498 20.4835 20.4508C20.3314 20.2987 20.1168 20.1596 19.8594 20.1024V9.54792C20.3959 9.43208 20.8594 8.95388 20.8594 8.32489V7.32489C20.8594 6.95597 20.6825 6.64982 20.4835 6.45081C20.2844 6.2518 19.9783 6.07489 19.6094 6.07489H2.60938C1.88415 6.07489 1.35938 6.69108 1.35938 7.32489V8.32489ZM10.8594 14.0749V13.5749H11.3594V14.0749H10.8594ZM7.35938 13.5749V14.0749H6.85938V13.5749H7.35938ZM8.98408 18.0749C9.28664 17.199 10.1089 16.5749 11.1094 16.5749C12.0885 16.5749 12.9221 17.2013 13.2312 18.0749H8.98408ZM15.3594 13.5749V14.0749H14.8594V13.5749H15.3594Z" fill="#5D2E92" stroke="white" stroke-width="1.5"/>
<path d="M15.6769 3.17181C15.6769 2.31449 14.9662 1.60376 14.1089 1.60376H8.1098C7.2253 1.60376 6.54175 2.3247 6.54175 3.17181V9.17088C6.54175 10.0453 7.23543 10.7389 8.1098 10.7389H14.1089C14.956 10.7389 15.6769 10.0554 15.6769 9.17088V3.17181Z" fill="#5D2E92" stroke="white" stroke-width="1.5"/>
</svg>
