<svg width="20" height="18" viewBox="0 0 20 18" fill="none" xmlns="http://www.w3.org/2000/svg">
<mask id="path-1-outside-1_2087_2172" maskUnits="userSpaceOnUse" x="0.109375" y="-0.17511" width="20" height="18" fill="black">
<rect fill="white" x="0.109375" y="-0.17511" width="20" height="18"/>
<path fill-rule="evenodd" clip-rule="evenodd" d="M8.78804 2.61005L7.14357 6.24413H9.33107L7.95607 11.2441L13.9873 4.80663H11.8936L14.2488 1.83455C15.0778 1.89142 15.8882 2.19869 16.5706 2.7818C18.5393 4.4693 18.6331 7.4693 16.8831 9.2818L10.8206 15.5318C10.4456 15.9381 9.78933 15.9381 9.41433 15.5318L3.35183 9.2818C1.60183 7.4693 1.69558 4.4693 3.66433 2.7818C5.13927 1.5214 7.23556 1.54973 8.78804 2.61005Z"/>
</mask>
<path fill-rule="evenodd" clip-rule="evenodd" d="M8.78804 2.61005L7.14357 6.24413H9.33107L7.95607 11.2441L13.9873 4.80663H11.8936L14.2488 1.83455C15.0778 1.89142 15.8882 2.19869 16.5706 2.7818C18.5393 4.4693 18.6331 7.4693 16.8831 9.2818L10.8206 15.5318C10.4456 15.9381 9.78933 15.9381 9.41433 15.5318L3.35183 9.2818C1.60183 7.4693 1.69558 4.4693 3.66433 2.7818C5.13927 1.5214 7.23556 1.54973 8.78804 2.61005Z" fill="#E43D48"/>
<path d="M7.14357 6.24413L5.77697 5.62573L4.81837 7.74413H7.14357V6.24413ZM8.78804 2.61005L10.1546 3.22845L10.6737 2.08144L9.63403 1.37138L8.78804 2.61005ZM9.33107 6.24413L10.7774 6.64187L11.2993 4.74413H9.33107V6.24413ZM7.95607 11.2441L6.50976 10.8464L9.0507 12.2697L7.95607 11.2441ZM13.9873 4.80663L15.082 5.83219L17.4481 3.30663H13.9873V4.80663ZM11.8936 4.80663L10.7179 3.87501L8.791 6.30663H11.8936V4.80663ZM14.2488 1.83455L14.3515 0.338063L13.5636 0.284017L13.0732 0.902924L14.2488 1.83455ZM16.5706 2.7818L17.5468 1.64292L17.5451 1.64146L16.5706 2.7818ZM16.8831 9.2818L17.9598 10.3262L17.9622 10.3237L16.8831 9.2818ZM10.8206 15.5318L9.74389 14.4874L9.73096 14.5007L9.71837 14.5144L10.8206 15.5318ZM9.41433 15.5318L10.5165 14.5144L10.5039 14.5007L10.491 14.4874L9.41433 15.5318ZM3.35183 9.2818L2.27272 10.3237L2.27514 10.3262L3.35183 9.2818ZM3.66433 2.7818L2.68985 1.64146L2.68814 1.64292L3.66433 2.7818ZM8.51016 6.86254L10.1546 3.22845L7.42145 1.99165L5.77697 5.62573L8.51016 6.86254ZM9.33107 4.74413H7.14357V7.74413H9.33107V4.74413ZM9.40237 11.6419L10.7774 6.64187L7.88476 5.8464L6.50976 10.8464L9.40237 11.6419ZM12.8927 3.78108L6.86143 10.2186L9.0507 12.2697L15.082 5.83219L12.8927 3.78108ZM11.8936 6.30663H13.9873V3.30663H11.8936V6.30663ZM13.0732 0.902924L10.7179 3.87501L13.0692 5.73826L15.4244 2.76617L13.0732 0.902924ZM17.5451 1.64146C16.607 0.839847 15.4872 0.415977 14.3515 0.338063L14.1461 3.33103C14.6684 3.36685 15.1694 3.55754 15.5961 3.92215L17.5451 1.64146ZM17.9622 10.3237C20.3029 7.8994 20.1808 3.90064 17.5468 1.64292L15.5944 3.92069C16.8979 5.03796 16.9633 7.03921 15.804 8.23991L17.9622 10.3237ZM11.8973 16.5762L17.9598 10.3262L15.8064 8.23742L9.74389 14.4874L11.8973 16.5762ZM8.31212 16.5492C9.28107 17.5989 10.9538 17.5989 11.9228 16.5492L9.71837 14.5144C9.93732 14.2772 10.2976 14.2772 10.5165 14.5144L8.31212 16.5492ZM2.27514 10.3262L8.33764 16.5762L10.491 14.4874L4.42852 8.23742L2.27514 10.3262ZM2.68814 1.64292C0.0541296 3.90064 -0.0679741 7.8994 2.27273 10.3237L4.43093 8.23991C3.27163 7.03921 3.33703 5.03796 4.64052 3.92069L2.68814 1.64292ZM9.63403 1.37138C7.59461 -0.0215157 4.7436 -0.113565 2.68985 1.64146L4.63881 3.92215C5.53494 3.15637 6.87651 3.12097 7.94205 3.84872L9.63403 1.37138Z" fill="white" mask="url(#path-1-outside-1_2087_2172)"/>
</svg>
