<svg width="26" height="20" viewBox="0 0 26 20" fill="none" xmlns="http://www.w3.org/2000/svg">
<rect x="13.3853" y="1.07489" width="6.03382" height="17.187" rx="3.01691" fill="#69C5A0" stroke="white" stroke-width="1.5"/>
<rect x="15.3821" y="8.98834" width="2.04022" height="3.30969" rx="1.02011" fill="white"/>
<rect x="7.03809" y="1.07489" width="6.03382" height="17.187" rx="3.01691" fill="#69C5A0" stroke="white" stroke-width="1.5"/>
<rect x="9.03467" y="8.98834" width="2.04022" height="3.30969" rx="1.02011" fill="white"/>
<mask id="path-5-outside-1_2303_2689" maskUnits="userSpaceOnUse" x="0.109375" y="0.278259" width="8" height="19" fill="black">
<rect fill="white" x="0.109375" y="0.278259" width="8" height="19"/>
<path fill-rule="evenodd" clip-rule="evenodd" d="M4.88634 3.00367C4.88634 2.60304 4.56156 2.27826 4.16093 2.27826C3.76029 2.27826 3.43552 2.60304 3.43552 3.00367V14.2022H2.83479C2.43415 14.2022 2.10938 14.527 2.10938 14.9276C2.10938 15.3282 2.43415 15.653 2.83479 15.653H3.43552V16.7865C3.43552 17.1871 3.76029 17.5119 4.16093 17.5119C4.56156 17.5119 4.88634 17.1871 4.88634 16.7865V15.653H5.48707C5.8877 15.653 6.21248 15.3282 6.21248 14.9276C6.21248 14.527 5.8877 14.2022 5.48707 14.2022H4.88634V3.00367Z"/>
</mask>
<path fill-rule="evenodd" clip-rule="evenodd" d="M4.88634 3.00367C4.88634 2.60304 4.56156 2.27826 4.16093 2.27826C3.76029 2.27826 3.43552 2.60304 3.43552 3.00367V14.2022H2.83479C2.43415 14.2022 2.10938 14.527 2.10938 14.9276C2.10938 15.3282 2.43415 15.653 2.83479 15.653H3.43552V16.7865C3.43552 17.1871 3.76029 17.5119 4.16093 17.5119C4.56156 17.5119 4.88634 17.1871 4.88634 16.7865V15.653H5.48707C5.8877 15.653 6.21248 15.3282 6.21248 14.9276C6.21248 14.527 5.8877 14.2022 5.48707 14.2022H4.88634V3.00367Z" fill="#69C5A0"/>
<path d="M3.43552 14.2022V15.7022H4.93552V14.2022H3.43552ZM3.43552 15.653H4.93552V14.153H3.43552V15.653ZM4.88634 15.653V14.153H3.38634V15.653H4.88634ZM4.88634 14.2022H3.38634V15.7022H4.88634V14.2022ZM4.16093 3.77826C3.73313 3.77826 3.38634 3.43146 3.38634 3.00367H6.38634C6.38634 1.77461 5.38999 0.778259 4.16093 0.778259V3.77826ZM4.93552 3.00367C4.93552 3.43146 4.58872 3.77826 4.16093 3.77826V0.778259C2.93187 0.778259 1.93552 1.77461 1.93552 3.00367H4.93552ZM4.93552 14.2022V3.00367H1.93552V14.2022H4.93552ZM2.83479 15.7022H3.43552V12.7022H2.83479V15.7022ZM3.60938 14.9276C3.60938 15.3554 3.26258 15.7022 2.83479 15.7022V12.7022C1.60572 12.7022 0.609375 13.6986 0.609375 14.9276H3.60938ZM2.83479 14.153C3.26258 14.153 3.60938 14.4998 3.60938 14.9276H0.609375C0.609375 16.1567 1.60573 17.153 2.83479 17.153V14.153ZM3.43552 14.153H2.83479V17.153H3.43552V14.153ZM4.93552 16.7865V15.653H1.93552V16.7865H4.93552ZM4.16093 16.0119C4.58872 16.0119 4.93552 16.3587 4.93552 16.7865H1.93552C1.93552 18.0155 2.93187 19.0119 4.16093 19.0119V16.0119ZM3.38634 16.7865C3.38634 16.3587 3.73313 16.0119 4.16093 16.0119V19.0119C5.38999 19.0119 6.38634 18.0155 6.38634 16.7865H3.38634ZM3.38634 15.653V16.7865H6.38634V15.653H3.38634ZM5.48707 14.153H4.88634V17.153H5.48707V14.153ZM4.71248 14.9276C4.71248 14.4998 5.05928 14.153 5.48707 14.153V17.153C6.71613 17.153 7.71248 16.1567 7.71248 14.9276H4.71248ZM5.48707 15.7022C5.05928 15.7022 4.71248 15.3554 4.71248 14.9276H7.71248C7.71248 13.6986 6.71613 12.7022 5.48707 12.7022V15.7022ZM4.88634 15.7022H5.48707V12.7022H4.88634V15.7022ZM3.38634 3.00367V14.2022H6.38634V3.00367H3.38634Z" fill="white" mask="url(#path-5-outside-1_2303_2689)"/>
<mask id="path-7-outside-2_2303_2689" maskUnits="userSpaceOnUse" x="18.2446" y="0.278259" width="8" height="19" fill="black">
<rect fill="white" x="18.2446" y="0.278259" width="8" height="19"/>
<path fill-rule="evenodd" clip-rule="evenodd" d="M23.0216 3.00367C23.0216 2.60304 22.6968 2.27826 22.2962 2.27826C21.8955 2.27826 21.5708 2.60304 21.5708 3.00367V14.2022H20.97C20.5694 14.2022 20.2446 14.527 20.2446 14.9276C20.2446 15.3282 20.5694 15.653 20.97 15.653H21.5708V16.7865C21.5708 17.1871 21.8955 17.5119 22.2962 17.5119C22.6968 17.5119 23.0216 17.1871 23.0216 16.7865V15.653H23.6223C24.023 15.653 24.3477 15.3282 24.3477 14.9276C24.3477 14.527 24.023 14.2022 23.6223 14.2022H23.0216V3.00367Z"/>
</mask>
<path fill-rule="evenodd" clip-rule="evenodd" d="M23.0216 3.00367C23.0216 2.60304 22.6968 2.27826 22.2962 2.27826C21.8955 2.27826 21.5708 2.60304 21.5708 3.00367V14.2022H20.97C20.5694 14.2022 20.2446 14.527 20.2446 14.9276C20.2446 15.3282 20.5694 15.653 20.97 15.653H21.5708V16.7865C21.5708 17.1871 21.8955 17.5119 22.2962 17.5119C22.6968 17.5119 23.0216 17.1871 23.0216 16.7865V15.653H23.6223C24.023 15.653 24.3477 15.3282 24.3477 14.9276C24.3477 14.527 24.023 14.2022 23.6223 14.2022H23.0216V3.00367Z" fill="#69C5A0"/>
<path d="M21.5708 14.2022V15.7022H23.0708V14.2022H21.5708ZM21.5708 15.653H23.0708V14.153H21.5708V15.653ZM23.0216 15.653V14.153H21.5216V15.653H23.0216ZM23.0216 14.2022H21.5216V15.7022H23.0216V14.2022ZM22.2962 3.77826C21.8684 3.77826 21.5216 3.43146 21.5216 3.00367H24.5216C24.5216 1.77461 23.5252 0.778259 22.2962 0.778259V3.77826ZM23.0708 3.00367C23.0708 3.43146 22.724 3.77826 22.2962 3.77826V0.778259C21.0671 0.778259 20.0708 1.77461 20.0708 3.00367H23.0708ZM23.0708 14.2022V3.00367H20.0708V14.2022H23.0708ZM20.97 15.7022H21.5708V12.7022H20.97V15.7022ZM21.7446 14.9276C21.7446 15.3554 21.3978 15.7022 20.97 15.7022V12.7022C19.741 12.7022 18.7446 13.6986 18.7446 14.9276H21.7446ZM20.97 14.153C21.3978 14.153 21.7446 14.4998 21.7446 14.9276H18.7446C18.7446 16.1567 19.741 17.153 20.97 17.153V14.153ZM21.5708 14.153H20.97V17.153H21.5708V14.153ZM23.0708 16.7865V15.653H20.0708V16.7865H23.0708ZM22.2962 16.0119C22.724 16.0119 23.0708 16.3587 23.0708 16.7865H20.0708C20.0708 18.0155 21.0671 19.0119 22.2962 19.0119V16.0119ZM21.5216 16.7865C21.5216 16.3587 21.8684 16.0119 22.2962 16.0119V19.0119C23.5252 19.0119 24.5216 18.0155 24.5216 16.7865H21.5216ZM21.5216 15.653V16.7865H24.5216V15.653H21.5216ZM23.6223 14.153H23.0216V17.153H23.6223V14.153ZM22.8477 14.9276C22.8477 14.4998 23.1945 14.153 23.6223 14.153V17.153C24.8514 17.153 25.8477 16.1567 25.8477 14.9276H22.8477ZM23.6223 15.7022C23.1945 15.7022 22.8477 15.3554 22.8477 14.9276H25.8477C25.8477 13.6986 24.8514 12.7022 23.6223 12.7022V15.7022ZM23.0216 15.7022H23.6223V12.7022H23.0216V15.7022ZM21.5216 3.00367V14.2022H24.5216V3.00367H21.5216Z" fill="white" mask="url(#path-7-outside-2_2303_2689)"/>
</svg>
