<svg width="24" height="16" viewBox="0 0 24 16" fill="none" xmlns="http://www.w3.org/2000/svg">
<path d="M2.00931 13.064L2.0092 13.064L2.00675 13.0762C1.8579 13.8205 2.39273 14.5671 3.21094 14.5671H4.99219C5.73955 14.5671 6.25048 13.9442 6.21992 13.2691C6.60295 13.5485 7.09075 13.7727 7.62688 13.9507C8.80546 14.3422 10.3896 14.5671 12.1172 14.5671C13.8298 14.5671 15.4134 14.342 16.595 13.951C17.1819 13.7568 17.712 13.5078 18.1108 13.1924C18.5033 12.8819 18.8672 12.4228 18.8672 11.8171V11.7675L18.8607 11.7184L18.3919 8.18714L18.342 7.81095L21.7731 6.75333C21.7736 6.75317 21.7741 6.75301 21.7746 6.75285C23.2001 6.31756 23.2001 4.34785 21.7746 3.91255C21.7741 3.91239 21.7736 3.91223 21.7731 3.91207L13.0644 1.22768C12.4468 1.02396 11.7563 1.02396 11.1387 1.22768L2.43007 3.91207C2.4296 3.91221 2.42913 3.91236 2.42867 3.9125C1.00263 4.3478 1.00294 6.31856 2.4296 6.75319C2.42976 6.75324 2.42991 6.75329 2.43007 6.75333L3.07126 6.94962C2.99611 7.15433 2.94182 7.36492 2.90748 7.57616C2.57454 7.89257 2.36719 8.32923 2.36719 8.81708C2.36719 9.21571 2.49293 9.57191 2.70578 9.86022L2.00931 13.064ZM5.62572 9.6841L5.56522 10.1724L5.49909 9.86823C5.54433 9.8103 5.58682 9.74888 5.62572 9.6841ZM5.79273 8.33609C5.72029 8.10723 5.59936 7.90192 5.44926 7.72972C5.45556 7.7172 5.46215 7.70503 5.46902 7.69321L5.85756 7.81276L5.81038 8.19361L5.79273 8.33609Z" fill="#419B77" stroke="white" stroke-width="1.5"/>
</svg>
