<svg width="29" height="17" viewBox="0 0 29 17" fill="none" xmlns="http://www.w3.org/2000/svg">
<path fill-rule="evenodd" clip-rule="evenodd" d="M26.8026 16.5C27.5859 16.5 28.1995 15.8744 28.2029 15.134L28.2035 15.1171L28.2038 15.1137L28.204 15.078L28.2032 15.0685L28.202 15.0561L28.1997 15.0364C28.1815 14.8892 28.1015 14.407 27.7816 12.5214L27.7317 12.2279L27.2931 9.64605L27.2916 9.63703C26.952 7.63911 26.4869 4.90213 25.85 1.14899C25.7374 0.485957 25.1534 0 24.4689 0H4.43995C3.75547 0 3.17154 0.485957 3.05895 1.14899C2.4292 4.85985 1.96747 7.57717 1.62905 9.56878L1.62882 9.57011L1.62855 9.57169L1.6283 9.57315L1.62817 9.57392L1.62802 9.57478L1.17751 12.2268L1.12773 12.5202C0.768002 14.6405 0.711823 14.9839 0.705306 15.0716L0.704709 15.0819L0.70459 15.0862L0.704746 15.0966L0.705533 15.1088L0.705722 15.1123L0.706 15.125C0.704699 15.8692 1.32002 16.5 2.10676 16.5H26.8026ZM17.7146 7.12499H11.7046L12.1244 3H17.2948L17.7146 7.12499ZM4.70459 7.12499H9.1179L9.53768 3H5.40455L4.70459 7.12499ZM23.5377 7.12499H19.1244L18.7046 3H22.8378L23.5377 7.12499ZM3.70459 13.8125H8.58455L9.07483 9H4.52141L3.70459 13.8125ZM18.1145 13.8125H10.7046L11.1944 9H17.6247L18.1145 13.8125ZM20.1944 13.8125H25.0748L24.258 9H19.7046L20.1944 13.8125Z" fill="#485799"/>
</svg>
