<svg width="38" height="53" viewBox="0 0 38 53" fill="none" xmlns="http://www.w3.org/2000/svg">
<mask id="mask0_1648_2022" style="mask-type:alpha" maskUnits="userSpaceOnUse" x="0" y="0" width="38" height="53">
<path fill-rule="evenodd" clip-rule="evenodd" d="M37.1515 19.2376C37.1515 9.0418 28.8846 0.776733 18.6898 0.776733C8.49579 0.776733 0.228027 9.0418 0.228027 19.2376C0.228027 33.0798 18.3121 52.0397 18.3121 52.0397C18.3121 52.0397 37.1515 33.2075 37.1515 19.2376Z" fill="#5B4178"/>
</mask>
<g mask="url(#mask0_1648_2022)">
<rect x="0.228027" y="-0.747925" width="9.2309" height="53.2334" fill="#FED038"/>
<rect x="9.45947" y="-0.747925" width="9.2309" height="53.2334" fill="#DBDBDB"/>
<rect x="18.6896" y="-0.747925" width="9.2309" height="53.2334" fill="#A24EC8"/>
<rect x="27.9207" y="-0.747925" width="9.2309" height="53.2334" fill="#1B191B"/>
</g>
<path fill-rule="evenodd" clip-rule="evenodd" d="M30.4234 20.3771C30.4234 26.7807 25.2329 31.9739 18.8257 31.9739C12.4185 31.9739 7.22803 26.7807 7.22803 20.3771C7.22803 13.9699 12.4185 8.77673 18.8257 8.77673C25.2329 8.77673 30.4234 13.9699 30.4234 20.3771Z" fill="white"/>
<path d="M10.7227 22.8969C10.7227 22.8969 12.1339 28.4093 18.644 28.4093C25.1536 28.4093 26.9286 22.8969 26.9286 22.8969" stroke="#A24EC8" stroke-width="1.5" stroke-linecap="round" stroke-linejoin="round"/>
<path fill-rule="evenodd" clip-rule="evenodd" d="M30.4235 19.1889C30.1425 16.9109 29.2603 14.8296 27.9463 13.1237C25.739 11.4143 21.8269 10.7585 18.9038 10.721C15.7147 10.6803 11.3492 11.5377 9.30423 13.6185C8.24664 15.1438 7.5172 16.9318 7.22803 18.873C7.39884 19.5707 10.0313 22.1911 12.6584 22.3453C15.7939 22.5294 17.7132 18.7482 18.9038 18.7501C20.0947 18.7482 22.0143 22.5294 25.1495 22.3453C27.4697 22.2091 29.7942 20.1493 30.4235 19.1889Z" fill="#A24EC8"/>
<path fill-rule="evenodd" clip-rule="evenodd" d="M29.6574 17.9546C29.3978 16.2816 28.705 14.7864 27.4915 13.5335C25.4535 12.2779 21.7209 11.7628 19.0226 11.7354C16.0784 11.7056 12.0477 12.3354 10.1596 13.8636C9.18359 14.9835 8.50997 16.297 8.24316 17.7227C8.40098 18.2351 10.8313 20.1598 13.2564 20.2728C16.1513 20.4083 17.9231 17.631 19.0226 17.6322C20.1215 17.631 21.8937 20.4083 24.7883 20.2728C26.93 20.173 29.0762 18.66 29.6574 17.9546Z" fill="#FED038"/>
</svg>
