<svg width="33" height="28" viewBox="0 0 33 28" fill="none" xmlns="http://www.w3.org/2000/svg">
<mask id="mask0_0_208988" style="mask-type:alpha" maskUnits="userSpaceOnUse" x="0" y="10" width="33" height="18">
<path fill-rule="evenodd" clip-rule="evenodd" d="M0.70459 10H32.3496V27.3615H0.70459V10Z" fill="white"/>
</mask>
<g mask="url(#mask0_0_208988)">
<path fill-rule="evenodd" clip-rule="evenodd" d="M12.7046 22.5217L14.0729 16L15.1979 16.8883C15.2263 16.9317 15.2513 16.9533 15.2813 16.9983L17.2563 21.0967L17.2579 21.0983L12.7046 22.5217ZM31.8106 14.6783C31.3972 14.55 30.9506 14.78 30.8156 15.1933C30.2372 16.9367 28.4222 17.5417 28.4089 17.5467L19.5722 20.3083C19.5539 20.19 19.5339 20.07 19.4772 19.9583L17.5022 15.86C17.3172 15.505 17.0406 15.1617 16.7289 14.915L14.5956 13.24L14.9056 11.6017L15.5789 11.3933L18.2172 10.58L17.5739 10.56C16.9356 10.5317 16.3489 10.335 15.8589 10L1.14557 14.5383C0.815568 14.64 0.630568 14.99 0.732235 15.32C0.815568 15.5883 1.06223 15.76 1.33057 15.76C1.39057 15.76 1.45223 15.7517 1.5139 15.7333L10.8039 12.8683C10.9172 13.2267 11.0956 13.5617 11.4122 13.8083L11.7306 14.0617L10.0622 22.115C9.98057 22.5083 10.0556 22.9033 10.2389 23.2267L1.8939 25.8333C1.47557 25.9633 1.2389 26.4033 1.36223 26.815C1.48557 27.2267 1.9239 27.455 2.34057 27.325L28.8556 19.0367C28.9072 19.02 29.5389 18.8167 30.2689 18.3133C31.0239 17.7917 31.8839 16.9467 32.3106 15.6567C32.4456 15.2433 32.2222 14.805 31.8106 14.6783Z" fill="#E43D48"/>
</g>
<path fill-rule="evenodd" clip-rule="evenodd" d="M29.2229 7.22336C29.5529 7.12003 29.7379 6.7717 29.6363 6.4417C29.5346 6.11336 29.1846 5.92503 28.8546 6.02836L21.7179 8.23003C21.8079 8.4467 21.8596 8.68003 21.8496 8.92836C21.8413 9.14503 21.7879 9.35003 21.7046 9.54336L29.2229 7.22336Z" fill="#E43D48"/>
<mask id="mask1_0_208988" style="mask-type:alpha" maskUnits="userSpaceOnUse" x="10" y="0" width="6" height="5">
<path fill-rule="evenodd" clip-rule="evenodd" d="M10.7046 0H15.4299V4.72466H10.7046V0Z" fill="white"/>
</mask>
<g mask="url(#mask1_0_208988)">
<path fill-rule="evenodd" clip-rule="evenodd" d="M13.093 4.7245C14.398 4.71117 15.4447 3.64283 15.4297 2.33617C15.4164 1.03117 14.3464 -0.0138337 13.0414 -0.00050038C11.7364 0.0144996 10.6914 1.08283 10.7047 2.3895C10.7197 3.69283 11.788 4.7395 13.093 4.7245Z" fill="#E43D48"/>
</g>
<path fill-rule="evenodd" clip-rule="evenodd" d="M9.88564 11.1084L10.5973 9.22505C10.689 9.00171 10.829 8.79671 11.024 8.65505C11.1123 8.59838 11.1756 8.54338 11.239 8.48838L11.0056 10.7617L15.5206 9.37005L15.6773 8.54505C15.784 8.65005 15.8673 8.75838 15.9756 8.88671C16.4406 9.42005 17.1123 9.71671 17.824 9.75005L19.999 9.81838C20.5906 9.84171 21.0773 9.38338 21.1006 8.79005C21.124 8.19838 20.6656 7.71171 20.074 7.68838L17.8973 7.62005C17.7556 7.61338 17.654 7.55505 17.574 7.47005C15.4706 5.06005 15.0823 4.96338 14.5456 5.00671L12.789 5.09838C12.4606 5.11338 12.134 5.13005 9.73897 6.97338C9.24397 7.36171 8.85731 7.88005 8.62231 8.47171L7.76397 10.7417C7.64231 11.0834 7.71564 11.4384 7.91064 11.7167L9.88564 11.1084Z" fill="#E43D48"/>
</svg>
