<svg width="42" height="38" viewBox="0 0 42 38" fill="none" xmlns="http://www.w3.org/2000/svg">
<circle cx="8.29642" cy="8.59183" r="6.59183" fill="white" stroke="#EC694C" stroke-opacity="0.196514" stroke-width="2.1" stroke-linecap="round"/>
<circle cx="15.2964" cy="8.59183" r="6.59183" fill="white" stroke="#EC694C" stroke-opacity="0.504398" stroke-width="2.1" stroke-linecap="round"/>
<circle cx="21.2964" cy="8.59183" r="6.59183" fill="white" stroke="#EC694C" stroke-width="2.1" stroke-linecap="round"/>
<path d="M40.6036 21.9544C40.5922 21.6919 40.4828 21.4433 40.2971 21.2575C38.6933 19.6538 36.395 18.5373 34.0359 17.8114C32.0025 17.1858 29.8536 16.8287 27.9218 16.7162L27.3041 9.48942C27.2767 8.09242 26.1176 6.95 24.7146 6.95C23.3038 6.95 22.1396 8.10513 22.1247 9.51269L21.4992 23.0878L20.349 22.5283C19.0137 21.8613 17.7168 21.494 16.5511 21.6606C15.2974 21.8396 14.3766 22.6076 13.8285 23.7842L13.7654 23.9104C13.5563 24.3287 13.649 24.8349 13.9929 25.152L23.5246 33.9401V35.65C23.5246 36.2299 23.9947 36.7 24.5746 36.7H37.5246C38.1045 36.7 38.5746 36.2299 38.5746 35.65V33.1672C39.2757 32.2688 39.7663 31.0011 40.0968 29.5582C40.4778 27.8949 40.6746 25.8702 40.6746 23.61C40.6746 23.5948 40.6743 23.5796 40.6736 23.5644L40.6036 21.9544Z" fill="white" stroke="black" stroke-width="2.1" stroke-linejoin="round"/>
</svg>
