<svg width="43" height="53" viewBox="0 0 43 53" fill="none" xmlns="http://www.w3.org/2000/svg">
<path d="M36.1566 40.0344C36.2779 39.8014 36.3075 39.5313 36.2395 39.2776C35.6525 37.0868 34.2204 34.9708 32.5403 33.1626C31.0921 31.604 29.4097 30.2204 27.7929 29.157L30.8714 22.5896C31.5462 21.3661 31.1135 19.7972 29.8985 19.0957C28.6767 18.3903 27.0909 18.8086 26.3743 20.0201L19.045 31.4637L18.3287 30.4041C17.5057 29.1588 16.5662 28.1923 15.4734 27.7536C14.2982 27.2819 13.1168 27.4865 12.0538 28.2315L11.9361 28.3093C11.5458 28.5669 11.373 29.0517 11.5122 29.4982L15.3729 41.8748L14.5179 43.3556C14.228 43.8578 14.4001 44.5 14.9023 44.7899L26.1173 51.2649C26.6195 51.5549 27.2617 51.3828 27.5516 50.8806L28.793 48.7304C29.8494 48.303 30.9081 47.4504 31.9158 46.3661C33.0774 45.1161 34.2602 43.461 35.3903 41.5037C35.3979 41.4905 35.4052 41.4772 35.4122 41.4637L36.1566 40.0344Z" stroke="black" stroke-width="2.1" stroke-linejoin="round"/>
<path d="M16.1373 5.0359V5.94176C16.1352 6.33143 16.4555 6.64359 16.8452 6.63337L21.6458 6.51708L15.7823 12.3806C15.5109 12.652 15.5109 13.0886 15.7823 13.3599L16.4351 14.0128C16.7065 14.2841 17.1431 14.2841 17.4144 14.0128L23.278 8.14923L23.1617 12.9498C23.1535 13.3375 23.4657 13.6578 23.8533 13.6578L24.7591 13.6578C25.1407 13.6598 25.4508 13.3497 25.4508 12.9662L25.4508 5.03387C25.4528 4.65233 25.1427 4.34223 24.7591 4.34223L16.8289 4.34429C16.4474 4.34223 16.1373 4.65235 16.1373 5.0359Z" fill="#EC694C"/>
<path d="M14.2719 23.9641V23.0582C14.2739 22.6686 13.9536 22.3564 13.5639 22.3666L8.76337 22.4829L14.6269 16.6194C14.8982 16.348 14.8982 15.9114 14.6269 15.6401L13.974 14.9872C13.7027 14.7159 13.2661 14.7159 12.9947 14.9872L7.13121 20.8508L7.24751 16.0502C7.25568 15.6625 6.94353 15.3422 6.55589 15.3422L5.65004 15.3422C5.26852 15.3402 4.9584 15.6503 4.95842 16.0338L4.9584 23.9661C4.95637 24.3477 5.26646 24.6578 5.65004 24.6578L13.5803 24.6557C13.9618 24.6578 14.2719 24.3477 14.2719 23.9641Z" fill="#EC694C"/>
</svg>
