<svg width="22" height="21" viewBox="0 0 22 21" fill="none" xmlns="http://www.w3.org/2000/svg">
<path d="M17.5784 10.2348L17.5967 10.2487L17.6158 10.2614C17.9316 10.472 18.2963 10.5749 18.6568 10.5749C19.1315 10.5749 19.681 10.3708 20.0329 9.90671C20.6268 9.14331 20.4787 8.00633 19.6946 7.43919L17.2081 5.57431C18.4022 5.54717 19.4068 4.57512 19.4068 3.32489C19.4068 2.09818 18.3835 1.07489 17.1568 1.07489C15.8887 1.07489 14.9068 2.10839 14.9068 3.32489C14.9068 3.62353 14.9627 3.90718 15.0648 4.16613C14.9039 4.09825 14.741 4.03846 14.5785 3.98732L12.878 3.40278L12.2026 2.05198C11.7613 1.16928 10.7108 0.849998 9.85265 1.27907C8.96994 1.72042 8.65067 2.77091 9.07974 3.62905L9.98599 5.44155L9.99198 5.45353L9.99839 5.46528C10.1046 5.66 10.2399 5.84323 10.4001 6.00542C9.45971 6.48269 8.90681 7.43023 8.90681 8.44989V9.56557L7.07589 10.1759L7.06272 10.1803L7.04972 10.1851C6.49971 10.3914 6.1097 10.8492 5.96121 11.3842C5.89302 11.3537 5.80828 11.2864 5.74173 11.161C5.40275 10.397 4.51203 10.1054 3.78174 10.4554C3.03708 10.7818 2.66686 11.6991 3.04489 12.4656C3.43487 13.2809 4.11123 13.9318 5.00741 14.222L16.3783 18.3654C16.793 18.5433 17.2182 18.5749 17.5631 18.5749C18.0457 18.5749 18.5358 18.5005 19.034 18.256C19.8186 17.9112 20.0873 16.9785 19.7453 16.2629C19.4111 15.4974 18.5253 15.2014 17.7949 15.5429C17.621 15.6088 17.5189 15.5995 17.4354 15.566L17.424 15.5615L17.4125 15.5573L15.5598 14.8854C15.5798 14.8245 15.5965 14.7616 15.6097 14.6971L16.2952 11.5188C16.2954 11.518 16.2956 11.5172 16.2958 11.5163C16.4831 10.6686 16.1556 9.77534 15.4477 9.25398L14.8236 8.78588L15.3461 8.54044L17.5784 10.2348ZM10.0431 12.8785L10.8604 12.5997C11.5272 12.3859 12.0268 11.8712 12.2487 11.2342L12.6969 11.5722L12.2379 13.6837L10.0431 12.8785Z" fill="#69C5A0" stroke="white" stroke-width="1.5"/>
<path d="M1.35938 19.501V20.251H2.10938H16.6094L16.8701 18.7977L2.37006 13.4227L1.35938 13.0481V14.126V19.501Z" fill="#69C5A0" stroke="white" stroke-width="1.5"/>
</svg>
