<svg width="20" height="20" viewBox="0 0 20 20" fill="none" xmlns="http://www.w3.org/2000/svg">
<path d="M9.6794 3.59695L9.67947 3.59702C10.019 3.94889 10.116 4.47274 9.91109 4.92521L9.6794 3.59695ZM9.6794 3.59695L7.6022 1.44497L7.60186 1.44462M9.6794 3.59695L7.60186 1.44462M7.60186 1.44462C7.1255 0.951753 6.29685 0.951475 5.82037 1.44481L5.82022 1.44497M7.60186 1.44462L5.82022 1.44497M5.82022 1.44497L3.74302 3.59695C3.74302 3.59695 3.74302 3.59695 3.74302 3.59695C3.40282 3.9494 3.30683 4.47347 3.51126 4.92527L4.17418 4.62532M5.82022 1.44497L4.17418 4.62532M4.17418 4.62532L3.51126 4.92527C3.5578 5.02813 3.61722 5.12156 3.68689 5.20448C2.37038 5.42636 1.35938 6.56765 1.35938 7.93195V16.0842C1.35938 17.6699 2.59682 18.9369 4.15462 18.9369H16.4261C17.9631 18.9369 19.2213 17.6925 19.2213 16.1704V7.96071C19.2213 6.41842 17.9684 5.16547 16.4261 5.16547H14.8639M4.17418 4.62532L14.8639 5.16547M14.8639 5.16547L16.8376 3.12081L16.299 2.60092L16.8376 3.1208C17.1776 2.76855 17.2738 2.24487 17.0693 1.79271L16.3859 2.10173L17.071 1.79635C16.9577 1.54224 16.7668 1.36646 16.5861 1.25773C16.4068 1.14983 16.1836 1.07498 15.9467 1.07498H11.7923C11.3202 1.07498 10.8727 1.3443 10.6698 1.79217M14.8639 5.16547H9.76682M9.76682 5.16547H12.8748L10.9012 3.12087L10.9012 3.1208C10.5614 2.76866 10.4648 2.24455 10.6698 1.79217M9.76682 5.16547C9.82298 5.09269 9.87154 5.01253 9.91089 4.92565L9.76682 5.16547ZM10.6698 1.79217L11.3529 2.10179L10.6696 1.79261C10.6697 1.79246 10.6697 1.79232 10.6698 1.79217ZM12.5743 10.5173C12.5743 10.0881 12.9221 9.7365 13.3582 9.73334C13.7943 9.7365 14.1422 10.0881 14.1422 10.5173C14.1422 10.9458 13.7946 11.298 13.3582 11.3012C12.9221 11.298 12.5743 10.9464 12.5743 10.5173ZM6.43855 10.5173C6.43855 10.0881 6.78637 9.7365 7.22249 9.73334C7.6586 9.7365 8.00642 10.0881 8.00642 10.5173C8.00642 10.9458 7.65884 11.298 7.22248 11.3012C6.78637 11.298 6.43855 10.9464 6.43855 10.5173ZM5.41593 15.3917V14.6078C5.41593 14.1751 5.76722 13.8238 6.19986 13.8238H8.24511C8.67807 13.8238 9.02904 14.1748 9.02904 14.6078V15.3917H5.41593ZM11.5517 15.3917V14.6078C11.5517 14.1748 11.9026 13.8238 12.3356 13.8238H14.3808C14.8138 13.8238 15.1648 14.1748 15.1648 14.6078V15.3917H11.5517Z" fill="#FF9500" stroke="white" stroke-width="1.5" stroke-linecap="round"/>
</svg>
