<svg width="18" height="17" viewBox="0 0 18 17" fill="none" xmlns="http://www.w3.org/2000/svg">
<circle cx="9.05564" cy="8.35105" r="8.35105" fill="#084655"/>
<path fill-rule="evenodd" clip-rule="evenodd" d="M9.32381 13.5774C9.50644 13.5774 9.65436 13.4294 9.65436 13.2468V12.1957C11.3141 11.9166 12.6212 10.6095 12.9003 8.94977H13.9514C14.134 8.94977 14.282 8.80185 14.282 8.61922V7.95814C14.282 7.77552 14.134 7.6276 13.9514 7.6276H12.9003C12.6212 5.96786 11.3141 4.66076 9.65436 4.38167V3.33054C9.65436 3.14792 9.50644 3 9.32381 3H8.66273C8.48011 3 8.33219 3.14792 8.33219 3.33054V4.38167C6.67245 4.66076 5.36535 5.96786 5.08626 7.6276H4.03513C3.85251 7.6276 3.70459 7.77552 3.70459 7.95814V8.61922C3.70459 8.80185 3.85251 8.94977 4.03513 8.94977H5.08626C5.36535 10.6095 6.67245 11.9166 8.33219 12.1957V13.2468C8.33219 13.4294 8.48011 13.5774 8.66273 13.5774H9.32381ZM9.34893 11.2887C7.88834 11.2887 6.70459 10.1047 6.70459 8.64434C6.70459 8.49014 6.71779 8.33902 6.74312 8.19205C6.91559 9.01662 7.64678 9.63597 8.52257 9.63597C9.52659 9.63597 10.3406 8.822 10.3406 7.81798C10.3406 6.94219 9.72121 6.211 8.89663 6.03852C9.0436 6.0132 9.19472 6 9.34893 6C10.8095 6 11.9933 7.18395 11.9933 8.64434C11.9933 10.1047 10.8095 11.2887 9.34893 11.2887ZM8.89663 6.03852C7.79856 6.22775 6.93234 7.09408 6.74312 8.19205C6.71787 8.07133 6.70459 7.9462 6.70459 7.81798C6.70459 6.81397 7.51856 6 8.52257 6C8.65079 6 8.77591 6.01327 8.89663 6.03852Z" fill="white"/>
</svg>
