<svg width="21" height="21" viewBox="0 0 21 21" fill="none" xmlns="http://www.w3.org/2000/svg">
<path d="M6.02246 8.0625C6.78613 8.0625 7.45996 7.43359 7.45996 6.625C7.45996 5.86133 6.78613 5.1875 6.02246 5.1875C5.21387 5.1875 4.58496 5.86133 4.58496 6.625C4.58496 7.43359 5.21387 8.0625 6.02246 8.0625ZM18.96 0.875H1.70996C0.901367 0.875 0.272461 1.54883 0.272461 2.3125V19.5625C0.272461 20.3711 0.901367 21 1.70996 21H18.96C19.7236 21 20.3975 20.3711 20.3975 19.5625V2.3125C20.3975 1.54883 19.7236 0.875 18.96 0.875ZM17.5225 15.25H3.14746V3.75H17.5225V15.25ZM12.3115 8.87109C12.1768 8.69141 11.9971 8.55664 11.7275 8.55664C11.5029 8.55664 11.3232 8.69141 11.1885 8.87109L8.94238 11.791L8.04395 10.3984C7.90918 10.2188 7.68457 10.084 7.41504 10.084C7.19043 10.084 6.96582 10.2188 6.83105 10.3984L4.58496 13.8125H16.085L12.3115 8.87109Z" fill="#485799"/>
</svg>
