<svg width="20" height="20" viewBox="0 0 20 20" fill="none" xmlns="http://www.w3.org/2000/svg">
<path d="M7.39062 9.88739C7.39062 10.1839 7.42947 10.4753 7.49776 10.7547L7.32283 10.7633C6.59828 10.7986 5.85277 10.9606 5.18205 11.4011C4.57415 11.8003 4.08225 12.3923 3.71779 13.2038C3.62112 13.1452 3.51194 13.0738 3.39495 12.9941C3.24315 12.8907 3.09173 12.7826 2.95055 12.6817C2.93424 12.6701 2.91807 12.6585 2.90205 12.6471C2.76118 12.5465 2.60523 12.4353 2.49525 12.3693L1.34305 11.6779L1.35943 13.0215C1.37621 14.3976 1.69383 15.7725 2.46585 16.8236C3.26241 17.908 4.4918 18.5749 6.14062 18.5749C7.45139 18.5749 8.64564 18.1982 9.52142 17.4096C10.4077 16.6115 10.8906 15.4601 10.8906 14.0749C10.8906 13.9634 10.8733 13.8614 10.8662 13.8191C10.8657 13.8161 10.8652 13.8134 10.8648 13.811C10.8619 13.7936 10.8603 13.7828 10.8594 13.7769V13.5674C10.934 13.5724 11.0073 13.5749 11.0781 13.5749C11.6692 13.5749 12.2354 13.4671 12.802 13.1629C13.3557 12.8657 13.8635 12.4056 14.3835 11.7745C15.4081 10.5309 16.6063 8.4615 18.3643 5.17897L18.3692 5.1697L18.3739 5.1603C18.5926 4.72308 18.8906 4.08151 18.8906 3.38739C18.8906 1.97714 17.6464 1.07489 16.4219 1.07489C15.7181 1.07489 15.1094 1.40003 14.6693 1.79939C13.3545 2.97889 12.2741 3.92782 11.3904 4.70398C10.1566 5.78768 9.30617 6.53459 8.73638 7.10207C8.23929 7.59714 7.88342 8.02311 7.66563 8.48047C7.4365 8.96163 7.39062 9.41246 7.39062 9.88739ZM3.97765 13.3403C3.97771 13.3405 3.97545 13.3398 3.97066 13.3381C3.97519 13.3394 3.97758 13.3402 3.97765 13.3403Z" fill="#3676C5" stroke="white" stroke-width="1.5"/>
</svg>
