<svg width="38" height="52" viewBox="0 0 38 52" fill="none" xmlns="http://www.w3.org/2000/svg">
<mask id="mask0_1648_2018" style="mask-type:alpha" maskUnits="userSpaceOnUse" x="0" y="0" width="38" height="52">
<path fill-rule="evenodd" clip-rule="evenodd" d="M37.6281 18.5164C37.6281 8.32067 29.3612 0.055603 19.1663 0.055603C8.97235 0.055603 0.70459 8.32067 0.70459 18.5164C0.70459 32.3587 18.7886 51.3186 18.7886 51.3186C18.7886 51.3186 37.6281 32.4864 37.6281 18.5164Z" fill="#5B4178"/>
</mask>
<g mask="url(#mask0_1648_2018)">
<rect x="19.0697" y="-12.7848" width="6.37402" height="55.1381" transform="rotate(35.4988 19.0697 -12.7848)" fill="#FB0032"/>
<rect x="24.2592" y="-9.08331" width="6.37402" height="55.1381" transform="rotate(35.4988 24.2592 -9.08331)" fill="#FC7428"/>
<rect x="29.4482" y="-5.38214" width="6.37402" height="55.1381" transform="rotate(35.4988 29.4482 -5.38214)" fill="#FEDD3A"/>
<rect x="34.6377" y="-1.68073" width="6.37402" height="55.1381" transform="rotate(35.4988 34.6377 -1.68073)" fill="#1AA742"/>
<rect x="39.827" y="2.02075" width="6.37402" height="55.1381" transform="rotate(35.4988 39.827 2.02075)" fill="#105AF6"/>
<rect x="45.0166" y="5.72217" width="6.37402" height="55.1381" transform="rotate(35.4988 45.0166 5.72217)" fill="#7A0CA0"/>
</g>
<path fill-rule="evenodd" clip-rule="evenodd" d="M30.9 19.656C30.9 26.0596 25.7095 31.2528 19.3023 31.2528C12.8951 31.2528 7.70459 26.0596 7.70459 19.656C7.70459 13.2488 12.8951 8.0556 19.3023 8.0556C25.7095 8.0556 30.9 13.2488 30.9 19.656Z" fill="white"/>
<path fill-rule="evenodd" clip-rule="evenodd" d="M15.4186 15.819C15.4186 16.792 15.0346 17.5816 14.5625 17.5816C14.0877 17.5816 13.7046 16.792 13.7046 15.819C13.7046 14.8452 14.0877 14.0556 14.5625 14.0556C15.0346 14.0556 15.4186 14.8452 15.4186 15.819Z" fill="#5B4178"/>
<path fill-rule="evenodd" clip-rule="evenodd" d="M25.4204 15.819C25.4204 16.792 25.0364 17.5816 24.5625 17.5816C24.0904 17.5816 23.7046 16.792 23.7046 15.819C23.7046 14.8452 24.0904 14.0556 24.5625 14.0556C25.0364 14.0556 25.4204 14.8452 25.4204 15.819Z" fill="#5B4178"/>
<path fill-rule="evenodd" clip-rule="evenodd" d="M26.4011 21.0556C26.4011 21.0556 25.2977 27.7299 19.0515 27.7299C12.5634 27.7299 11.7046 21.0556 11.7046 21.0556H26.4011Z" fill="#5B4178"/>
</svg>
