<svg width="22" height="22" viewBox="0 0 22 22" fill="none" xmlns="http://www.w3.org/2000/svg">
<path d="M19.7233 4.60177L19.7229 4.60159L11.8494 1.22714C11.8492 1.22701 11.8489 1.22689 11.8486 1.22677C11.3783 1.02426 10.8407 1.02426 10.3704 1.22679C10.3701 1.22691 10.3698 1.22702 10.3696 1.22714L2.49576 4.60159L2.49464 4.60207C1.67871 4.95331 1.21838 5.83051 1.39786 6.70108C1.52844 7.337 1.95817 7.79972 2.48203 8.03239C2.59704 8.6181 3.03942 9.07784 3.57787 9.2507V9.69989V16.2184L2.19532 17.1401C2.19522 17.1402 2.19512 17.1403 2.19501 17.1403C1.50628 17.5983 1.20069 18.454 1.43992 19.2442C1.676 20.0241 2.39694 20.5749 3.20287 20.5749H18.9845C19.8108 20.5749 20.5379 20.0351 20.7779 19.2448C21.0176 18.4556 20.7145 17.5995 20.0263 17.1407L18.6095 16.1962V9.69989V9.24951C19.1666 9.07405 19.5626 8.61031 19.6722 8.04947C20.2308 7.82618 20.685 7.36374 20.8196 6.70079C21.0005 5.83027 20.5411 4.95284 19.7233 4.60177ZM10.9841 9.69989V9.32489H11.2033V9.69989V15.6999H10.9841V9.69989ZM4.12665 15.8836C4.12607 15.8837 4.12539 15.8839 4.12462 15.8841C4.13039 15.8825 4.1324 15.8819 4.12724 15.8834L4.12665 15.8836ZM11.4845 5.19989C11.4845 5.40795 11.3176 5.57489 11.1095 5.57489C10.9015 5.57489 10.7345 5.40795 10.7345 5.19989C10.7345 4.99244 10.9019 4.82489 11.1095 4.82489C11.3171 4.82489 11.4845 4.99244 11.4845 5.19989Z" fill="#3676C5" stroke="white" stroke-width="1.5"/>
</svg>
