<svg width="20" height="19" viewBox="0 0 20 19" fill="none" xmlns="http://www.w3.org/2000/svg">
<path d="M10.6622 9.29242C10.9586 9.12939 11.2965 8.94064 11.5526 8.70688C11.8432 8.44157 12.0781 8.07381 12.0781 7.57489C12.0781 6.90531 11.6426 6.44526 11.2475 6.19287C10.8453 5.93588 10.3457 5.79364 9.89062 5.79364C9.32845 5.79364 8.86862 5.93513 8.46028 6.22511C8.18913 6.41767 7.9581 6.66548 7.74629 6.92176L7.23079 6.53883C7.55478 6.10347 7.90292 5.78117 8.29239 5.55678C8.75221 5.29185 9.31457 5.13739 10.0469 5.13739C10.7544 5.13739 11.5016 5.41471 12.0657 5.88002C12.6267 6.34274 12.9531 6.94213 12.9531 7.57489C12.9531 8.04005 12.8328 8.3516 12.6767 8.58232C12.5127 8.82464 12.2809 9.01952 11.9972 9.20404C11.855 9.29659 11.7103 9.38005 11.5562 9.46868L11.543 9.47625C11.4005 9.5582 11.239 9.65104 11.0952 9.74809C10.8938 9.88396 10.5404 10.1457 10.4098 10.5749H9.37909C9.48048 9.96986 9.96544 9.68627 10.6622 9.29242ZM7.04732 6.80129C7.04686 6.80201 7.04638 6.80272 7.04591 6.80342L7.04732 6.80129ZM18.3594 9.57489C18.3594 4.91068 14.5236 1.07489 9.85938 1.07489C5.16195 1.07489 1.35938 4.91264 1.35938 9.57489C1.35938 14.2704 5.16391 18.0749 9.85938 18.0749C14.5216 18.0749 18.3594 14.2723 18.3594 9.57489ZM9.85938 12.8874C10.2264 12.8874 10.5469 13.2079 10.5469 13.5749C10.5469 13.9626 10.2371 14.2624 9.85938 14.2624C9.46109 14.2624 9.17188 13.9732 9.17188 13.5749C9.17188 13.1972 9.47168 12.8874 9.85938 12.8874Z" fill="#419B77" stroke="white" stroke-width="1.5"/>
</svg>
