<svg width="22" height="26" viewBox="0 0 22 26" fill="none" xmlns="http://www.w3.org/2000/svg">
<rect x="9.04956" y="0.323486" width="3.22941" height="23.6824" fill="#BDAE74"/>
<path fill-rule="evenodd" clip-rule="evenodd" d="M7.04956 4.82349C7.04956 4.54734 7.27342 4.32349 7.54956 4.32349H19.0453C19.1917 4.32349 19.3308 4.38771 19.4258 4.49919L21.2931 6.69036C21.4523 6.87724 21.4523 7.15209 21.2931 7.33896L19.4258 9.53014C19.3308 9.64162 19.1917 9.70584 19.0453 9.70584H7.54956C7.27342 9.70584 7.04956 9.48198 7.04956 9.20584V4.82349Z" fill="#69C4A0" stroke="white"/>
<path fill-rule="evenodd" clip-rule="evenodd" d="M17.0496 10.8235C17.0496 10.5473 16.8257 10.3235 16.5496 10.3235H3.26621C3.13144 10.3235 3.00238 10.3779 2.90828 10.4744L0.771112 12.6655C0.581696 12.8598 0.581696 13.1696 0.771112 13.3638L2.90828 15.555C3.00238 15.6514 3.13144 15.7058 3.26621 15.7058H16.5496C16.8257 15.7058 17.0496 15.482 17.0496 15.2058V10.8235Z" fill="#E16634" stroke="white"/>
<rect x="9.04956" y="6.32349" width="8.24071" height="1.07647" rx="0.5" fill="#3F8E92"/>
<rect x="4.04956" y="12.3235" width="10.7647" height="1.07647" rx="0.5" fill="#A03A3D"/>
<path fill-rule="evenodd" clip-rule="evenodd" d="M12.3049 25.5652H10.2777C10.5821 25.7198 10.9266 25.8069 11.2913 25.8069C11.6561 25.8069 12.0005 25.7198 12.3049 25.5652ZM13.5202 23.3235H9.0625C9.18304 22.1991 10.1349 21.3235 11.2913 21.3235C12.4477 21.3235 13.3996 22.1991 13.5202 23.3235Z" fill="#3F8E92"/>
<path fill-rule="evenodd" clip-rule="evenodd" d="M9.15645 24.6142H7.52409C7.7465 24.796 8.03065 24.905 8.34027 24.905C8.64989 24.905 8.93405 24.796 9.15645 24.6142ZM9.59815 23.3235H7.0824C7.21427 22.7506 7.72739 22.3235 8.34027 22.3235C8.95316 22.3235 9.46627 22.7506 9.59815 23.3235Z" fill="#3F8E92"/>
</svg>
