<svg width="16" height="20" viewBox="0 0 16 20" fill="none" xmlns="http://www.w3.org/2000/svg">
<path d="M5.13281 4.07489C5.13281 4.18372 5.13852 4.29114 5.14967 4.39688L4.35804 3.61435C3.69094 2.90801 2.55393 2.9055 1.88349 3.60682C1.18157 4.27782 1.18468 5.4162 1.89282 6.08306L4.63281 8.82305V16.8249C4.63281 17.8016 5.4061 18.5749 6.38281 18.5749H6.88281C7.35785 18.5749 7.80411 18.3771 8.12709 18.0515C8.44352 18.3756 8.88695 18.5749 9.38281 18.5749H9.88281C10.813 18.5749 11.6328 17.8167 11.6328 16.8249V8.82073L14.3432 6.0815C15.0497 5.41443 15.0523 4.2773 14.3509 3.60682C13.6804 2.9055 12.5434 2.908 11.8763 3.61435L11.1191 4.36291C11.1282 4.26819 11.1328 4.17212 11.1328 4.07489C11.1328 2.44193 9.76578 1.07489 8.13281 1.07489C6.46185 1.07489 5.13281 2.44871 5.13281 4.07489Z" fill="#419B77" stroke="white" stroke-width="1.5"/>
</svg>
