<svg width="38" height="52" viewBox="0 0 38 52" fill="none" xmlns="http://www.w3.org/2000/svg">
<path fill-rule="evenodd" clip-rule="evenodd" d="M37.6272 18.4608C37.6272 8.26507 29.3612 0 19.1663 0C8.97055 0 0.70459 8.26507 0.70459 18.4608C0.70459 32.3031 18.7877 51.263 18.7877 51.263C18.7877 51.263 37.6272 32.4308 37.6272 18.4608Z" fill="#485799"/>
<path fill-rule="evenodd" clip-rule="evenodd" d="M30.7642 19.4048C30.7642 25.8085 25.5737 31.0017 19.1665 31.0017C12.7593 31.0017 7.56702 25.8085 7.56702 19.4048C7.56702 12.9976 12.7593 7.80444 19.1665 7.80444C25.5737 7.80444 30.7642 12.9976 30.7642 19.4048Z" fill="white"/>
<path fill-rule="evenodd" clip-rule="evenodd" d="M14.6926 15.9818C14.6926 16.9961 14.2915 17.8163 13.7987 17.8163C13.305 17.8163 12.9039 16.9961 12.9039 15.9818C12.9039 14.9692 13.305 14.1482 13.7987 14.1482C14.2915 14.1482 14.6926 14.9692 14.6926 15.9818Z" fill="#485799"/>
<path fill-rule="evenodd" clip-rule="evenodd" d="M25.5609 15.9818C25.5609 16.9961 25.1599 17.8163 24.6644 17.8163C24.1689 17.8163 23.7705 16.9961 23.7705 15.9818C23.7705 14.9692 24.1689 14.1482 24.6644 14.1482C25.1599 14.1482 25.5609 14.9692 25.5609 15.9818Z" fill="#485799"/>
<path fill-rule="evenodd" clip-rule="evenodd" d="M26.7747 20.7099C26.7747 20.7099 25.6246 27.6549 19.1023 27.6549C12.3273 27.6549 11.4325 20.7099 11.4325 20.7099H26.7747Z" fill="#485799"/>
</svg>
