<svg width="25" height="22" viewBox="0 0 25 22" fill="none" xmlns="http://www.w3.org/2000/svg">
<path d="M24.3042 9.8457L21.9253 7.71289V2.09375C21.9253 1.76562 21.5972 1.4375 21.269 1.4375H18.644C18.2749 1.4375 17.9878 1.76562 17.9878 2.09375V4.22656L13.8042 0.576172C13.5581 0.330078 13.0659 0.125 12.7378 0.125C12.3687 0.125 11.8765 0.330078 11.6304 0.576172L1.13037 9.8457C1.00732 9.96875 0.925293 10.1328 0.925293 10.3379C0.925293 10.502 0.966309 10.625 1.08936 10.748L1.95068 11.7324C2.07373 11.8555 2.23779 11.9375 2.44287 11.9375C2.60693 11.9375 2.771 11.8965 2.89404 11.7734L3.55029 11.1992V19.8125C3.55029 20.5508 4.12451 21.125 4.86279 21.125H20.6128C21.3101 21.125 21.9253 20.5508 21.9253 19.8125V11.1992L22.5405 11.7734C22.6636 11.8965 22.8276 11.9375 22.9917 11.9375C23.1968 11.9375 23.3608 11.8555 23.4839 11.7324L24.3452 10.748C24.4683 10.625 24.5093 10.502 24.5503 10.3379C24.5093 10.1328 24.4272 9.96875 24.3042 9.8457Z" fill="#485799"/>
</svg>
