<svg width="43" height="54" viewBox="0 0 43 54" fill="none" xmlns="http://www.w3.org/2000/svg">
<path d="M36.1567 41.0344C36.2781 40.8014 36.3077 40.5313 36.2397 40.2776C35.6527 38.0868 34.2205 35.9708 32.5404 34.1626C31.0922 32.604 29.4098 31.2204 27.793 30.157L30.8715 23.5896C31.5463 22.3661 31.1137 20.7972 29.8986 20.0957C28.6768 19.3903 27.0911 19.8086 26.3744 21.0201L19.0451 32.4637L18.3288 31.4041C17.5058 30.1588 16.5663 29.1923 15.4736 28.7536C14.2983 28.2819 13.1169 28.4865 12.0539 29.2315L11.9362 29.3093C11.5459 29.5669 11.3731 30.0517 11.5123 30.4982L15.373 42.8748L14.5181 44.3556C14.2281 44.8578 14.4002 45.5 14.9024 45.7899L26.1174 52.2649C26.6196 52.5549 27.2618 52.3828 27.5517 51.8806L28.7931 49.7304C29.8495 49.303 30.9083 48.4504 31.9159 47.3661C33.0775 46.1161 34.2603 44.461 35.3904 42.5037C35.398 42.4905 35.4053 42.4772 35.4123 42.4637L36.1567 41.0344Z" stroke="black" stroke-width="2.1" stroke-linejoin="round"/>
<path d="M25.272 13.9641V13.0582C25.2741 12.6686 24.9538 12.3564 24.5641 12.3666L19.7635 12.4829L25.627 6.61939C25.8984 6.34805 25.8984 5.91144 25.627 5.64009L24.9742 4.98723C24.7028 4.71589 24.2662 4.71589 23.9949 4.98723L18.1313 10.8508L18.2476 6.05019C18.2558 5.66255 17.9437 5.34223 17.556 5.34223L16.6502 5.34223C16.2686 5.34018 15.9585 5.6503 15.9585 6.03385L15.9585 13.9661C15.9565 14.3477 16.2666 14.6578 16.6502 14.6578L24.5804 14.6557C24.9619 14.6578 25.272 14.3477 25.272 13.9641Z" fill="#EC694C"/>
<path d="M5.1374 17.0359V17.9418C5.13537 18.3314 5.45566 18.6436 5.84535 18.6334L10.6459 18.5171L4.7824 24.3806C4.51106 24.652 4.51106 25.0886 4.7824 25.3599L5.43526 26.0128C5.7066 26.2841 6.14321 26.2841 6.41456 26.0128L12.2781 20.1492L12.1618 24.9498C12.1536 25.3375 12.4658 25.6578 12.8534 25.6578L13.7593 25.6578C14.1408 25.6598 14.4509 25.3497 14.4509 24.9662L14.4509 17.0339C14.4529 16.6523 14.1428 16.3422 13.7593 16.3422L5.82902 16.3443C5.44749 16.3422 5.13738 16.6523 5.1374 17.0359Z" fill="#EC694C"/>
</svg>
