<svg width="28" height="29" viewBox="0 0 28 29" fill="none" xmlns="http://www.w3.org/2000/svg">
<mask id="mask0_0_208999" style="mask-type:alpha" maskUnits="userSpaceOnUse" x="0" y="16" width="28" height="13">
<path fill-rule="evenodd" clip-rule="evenodd" d="M0.70459 16H27.3567V28.2667H0.70459V16Z" fill="white"/>
</mask>
<g mask="url(#mask0_0_208999)">
<path fill-rule="evenodd" clip-rule="evenodd" d="M26.7112 18.9423C26.0362 18.9718 25.5308 18.9977 25.0254 19.0271V18.1964V17.4608C25.5879 17.4037 26.1487 17.3465 26.7112 17.3206C27.0764 17.3206 27.3568 17.0108 27.3568 16.6456C27.3568 16.2804 27.0764 16 26.7112 16C23.9108 16.1437 21.1917 16.7062 18.4969 17.3898L19.544 19.967C19.7656 20.4741 19.7708 21.0366 19.5579 21.5524C19.3467 22.0647 18.9313 22.4749 18.419 22.6774C18.1888 22.7708 17.9846 22.8158 17.7613 22.8279L17.6696 22.8314H17.6454C16.8198 22.8314 16.0669 22.3399 15.7138 21.5506L14.4642 18.4733C14.2686 18.5287 14.0713 18.5823 13.874 18.636L12.6849 22.9422C12.4219 23.8699 11.6396 24.5276 10.7326 24.5778L10.6409 24.5812H10.6167C10.4038 24.5812 10.1892 24.5483 9.94858 24.4739C8.82011 24.0828 8.19183 22.8297 8.52241 21.6216L8.98626 19.922C6.48182 20.5225 3.95142 20.9916 1.35005 21.0816C0.984855 21.0816 0.704468 21.3914 0.704468 21.7566C0.704468 22.1218 0.984855 22.4022 1.35005 22.4022C1.91255 22.3745 2.47506 22.3468 3.03583 22.2914V23.1862V23.9131C2.53044 23.9703 2.02505 23.9979 1.35005 23.9979C0.984855 23.9979 0.704468 24.3078 0.704468 24.673V24.6764C0.704468 25.0416 0.984855 25.3237 1.35005 25.3237C2.02505 25.296 2.53044 25.2666 3.03583 25.2389V25.6578V26.8347C2.47506 26.8918 1.91255 26.9472 1.35005 26.9472C0.984855 26.9472 0.704468 27.257 0.704468 27.6222C0.704468 27.9874 0.984855 28.2678 1.35005 28.2678C10.0559 27.958 18.0054 23.6328 26.7112 23.1827C27.0764 23.1827 27.3568 22.8729 27.3568 22.5095C27.3568 22.1443 27.0764 21.8362 26.7112 21.8622C26.1487 21.8916 25.5879 21.947 25.0254 22.0041V21.7739V20.3512C25.5308 20.2958 26.0362 20.2698 26.7112 20.2698C27.0764 20.2698 27.3568 19.96 27.3568 19.5948V19.5914V19.5879C27.3568 19.2227 27.0764 18.9423 26.7112 18.9423Z" fill="#E43D48"/>
</g>
<path fill-rule="evenodd" clip-rule="evenodd" d="M8.30847 11.6191C8.47289 11.6779 8.63732 11.716 8.79828 11.7074C9.16694 11.6866 9.52348 11.4581 9.6879 11.1016L10.6727 8.92253C10.7766 8.70792 10.9271 8.5158 11.1279 8.38945C11.2179 8.33753 11.2837 8.28734 11.3512 8.23714L10.7973 11.5481C10.6952 12.2006 10.9185 12.8583 11.4291 13.3135L11.7268 13.5818L9.58406 21.398C9.37809 22.1596 9.77271 22.9678 10.4598 23.205C10.6121 23.2534 10.7627 23.2707 10.9116 23.2638C11.4343 23.2344 11.912 22.8467 12.0781 22.2565L13.9301 15.5635L14.9789 16.5086C15.0066 16.5536 15.0291 16.5743 15.0551 16.6193L16.7443 20.7732C16.9555 21.2457 17.4332 21.5417 17.9403 21.514C18.0787 21.5071 18.1912 21.4759 18.328 21.4222C18.9372 21.1799 19.2436 20.4703 18.9787 19.8628L17.2895 15.7072C17.132 15.3472 16.881 14.9924 16.5885 14.7328L14.5947 12.9518L15.711 8.56945C15.808 8.68022 15.8841 8.79099 15.9845 8.92253C16.4085 9.47811 17.0507 9.81042 17.7482 9.88658L19.8822 10.0891C20.4638 10.1479 20.9709 9.72735 21.0315 9.14753C21.0903 8.56599 20.6697 8.05887 20.0899 8.00003L17.9524 7.79752C17.8139 7.78022 17.7187 7.71791 17.6443 7.62964C15.7249 5.12866 15.3476 5.01096 14.8179 5.01789L13.0854 5.00058C12.7618 4.99539 12.4381 4.99019 9.96829 6.65348C9.45771 7.00483 9.04578 7.48944 8.77751 8.05887L7.7927 10.2397C7.5677 10.7606 7.78577 11.3699 8.30847 11.6191Z" fill="#E43D48"/>
<mask id="mask1_0_208999" style="mask-type:alpha" maskUnits="userSpaceOnUse" x="11" y="0" width="6" height="5">
<path fill-rule="evenodd" clip-rule="evenodd" d="M11.7046 0H16.3617V4.657H11.7046V0Z" fill="white"/>
</mask>
<g mask="url(#mask1_0_208999)">
<path fill-rule="evenodd" clip-rule="evenodd" d="M13.9111 4.65373C15.1954 4.72123 16.291 3.73468 16.3585 2.45044C16.426 1.16447 15.4377 0.0706175 14.1552 0.00311701C12.8692 -0.0643835 11.7754 0.923893 11.7079 2.20813C11.6404 3.49064 12.6269 4.58623 13.9111 4.65373Z" fill="#E43D48"/>
</g>
</svg>
