<svg width="22" height="16" viewBox="0 0 22 16" fill="none" xmlns="http://www.w3.org/2000/svg">
<path d="M20.1094 7.07489H20.8594V6.32489V3.32489C20.8594 2.09818 19.8361 1.07489 18.6094 1.07489H3.60938C2.34127 1.07489 1.35938 2.10839 1.35938 3.32489V6.32489V7.07489H2.10938C2.50766 7.07489 2.85938 7.4266 2.85938 7.82489C2.85938 8.24429 2.51787 8.57489 2.10938 8.57489H1.35938V9.32489V12.3249C1.35938 13.5829 2.35141 14.5749 3.60938 14.5749H18.6094C19.8259 14.5749 20.8594 13.593 20.8594 12.3249V9.32489V8.57489H20.1094C19.6798 8.57489 19.3594 8.25443 19.3594 7.82489C19.3594 7.41639 19.69 7.07489 20.1094 7.07489Z" fill="#419B77" stroke="white" stroke-width="1.5"/>
</svg>
