<svg width="28" height="27" viewBox="0 0 28 27" fill="none" xmlns="http://www.w3.org/2000/svg">
<path d="M13.3081 0.158203L2.33936 4.27148C1.3374 4.64062 0.70459 5.58984 0.70459 6.64453V18.5098C0.70459 19.459 1.23193 20.3555 2.07568 20.7773L13.0444 26.2617C13.7827 26.6309 14.5737 26.6309 15.312 26.2617L26.2808 20.7773C27.1245 20.3555 27.6519 19.459 27.6519 18.5098V6.64453C27.6519 5.58984 27.019 4.64062 26.0171 4.27148L15.0483 0.158203C14.521 -0.0527344 13.8882 -0.0527344 13.3081 0.158203ZM14.2046 3.42773L24.3296 7.22461V7.27734L14.2046 11.3906L4.07959 7.27734V7.22461L14.2046 3.42773ZM15.8921 22.2012V14.3438L24.3296 10.916V17.9824L15.8921 22.2012Z" fill="#D7C684"/>
</svg>
