<svg width="17" height="16" viewBox="0 0 17 16" fill="none" xmlns="http://www.w3.org/2000/svg">
<path d="M8.70459 5.25C7.17334 5.25 5.95459 6.5 5.95459 8C5.95459 9.53125 7.17334 10.75 8.70459 10.75C10.2046 10.75 11.4546 9.53125 11.4546 8C11.4546 6.5 10.2046 5.25 8.70459 5.25ZM8.70459 9.25C7.98584 9.25 7.45459 8.71875 7.45459 8C7.45459 7.3125 7.98584 6.75 8.70459 6.75C9.39209 6.75 9.95459 7.3125 9.95459 8C9.95459 8.71875 9.39209 9.25 8.70459 9.25ZM16.2046 7.25H14.6421C14.2983 4.5625 12.1421 2.40625 9.45459 2.0625V0.5C9.45459 0.25 9.20459 0 8.95459 0H8.45459C8.17334 0 7.95459 0.25 7.95459 0.5V2.0625C5.23584 2.40625 3.07959 4.5625 2.73584 7.25H1.20459C0.92334 7.25 0.70459 7.5 0.70459 7.75V8.25C0.70459 8.53125 0.92334 8.75 1.20459 8.75H2.73584C3.07959 11.4688 5.23584 13.625 7.95459 13.9688V15.5C7.95459 15.7812 8.17334 16 8.45459 16H8.95459C9.20459 16 9.45459 15.7812 9.45459 15.5V13.9688C12.1421 13.625 14.2983 11.4688 14.6421 8.75H16.2046C16.4546 8.75 16.7046 8.53125 16.7046 8.25V7.75C16.7046 7.5 16.4546 7.25 16.2046 7.25ZM8.70459 12.5C6.20459 12.5 4.20459 10.5 4.20459 8C4.20459 5.53125 6.20459 3.5 8.70459 3.5C11.1733 3.5 13.2046 5.53125 13.2046 8C13.2046 10.5 11.1733 12.5 8.70459 12.5Z" fill="black"/>
</svg>
