<svg width="38" height="52" viewBox="0 0 38 52" fill="none" xmlns="http://www.w3.org/2000/svg">
<path fill-rule="evenodd" clip-rule="evenodd" d="M37.95 18.6214C37.95 8.33693 29.6113 0 19.3269 0C9.04424 0 0.70459 8.33693 0.70459 18.6214C0.70459 32.584 18.9459 51.7088 18.9459 51.7088C18.9459 51.7088 37.95 32.7128 37.95 18.6214Z" fill="#5B4178"/>
<path fill-rule="evenodd" clip-rule="evenodd" d="M31.0264 19.5738C31.0264 26.0331 25.7899 31.2715 19.327 31.2715C12.8641 31.2715 7.62842 26.0331 7.62842 19.5738C7.62842 13.1109 12.8641 7.87256 19.327 7.87256C25.7899 7.87256 31.0264 13.1109 31.0264 19.5738Z" fill="white"/>
<path d="M11 17.8124C11 16.4926 12.318 15.4214 13.9462 15.4214C15.5698 15.4214 16.8887 16.4926 16.8887 17.8124" stroke="#5B4178" stroke-width="1.2" stroke-linecap="round" stroke-linejoin="round"/>
<path d="M21.7661 17.8124C21.7661 16.4926 23.0841 15.4214 24.7105 15.4214C26.3341 15.4214 27.6549 16.4926 27.6549 17.8124" stroke="#5B4178" stroke-width="1.2" stroke-linecap="round" stroke-linejoin="round"/>
<path d="M11.3535 21.8813C11.3535 21.8813 12.7422 27.3057 19.1498 27.3057C25.5556 27.3057 27.3017 21.8813 27.3017 21.8813" stroke="#5B4178" stroke-width="1.2" stroke-linecap="round" stroke-linejoin="round"/>
</svg>
