<svg width="38" height="52" viewBox="0 0 38 52" fill="none" xmlns="http://www.w3.org/2000/svg">
<path fill-rule="evenodd" clip-rule="evenodd" d="M37.625 18.4601C37.625 8.2654 29.3598 0 19.1654 0C8.9707 0 0.70459 8.2654 0.70459 18.4601C0.70459 32.3023 18.7866 51.2619 18.7866 51.2619C18.7866 51.2619 37.625 32.4298 37.625 18.4601Z" fill="#5B4178"/>
<path fill-rule="evenodd" clip-rule="evenodd" d="M30.9001 19.6006C30.9001 26.0041 25.7096 31.1967 19.3023 31.1967C12.8951 31.1967 7.70459 26.0041 7.70459 19.6006C7.70459 13.1936 12.8951 8 19.3023 8C25.7096 8 30.9001 13.1936 30.9001 19.6006Z" fill="#69C4A0"/>
<path fill-rule="evenodd" clip-rule="evenodd" d="M30.8996 19.6006C30.8996 26.0041 25.7086 31.1967 19.3019 31.1967C12.8946 31.1967 7.70459 26.0041 7.70459 19.6006C7.70459 13.1936 12.8946 8 19.3019 8C25.7086 8 30.8996 13.1936 30.8996 19.6006Z" fill="#FFFFFE"/>
<path d="M10.7046 17.3703C10.7046 16.0618 12.0124 15 13.6255 15C15.2361 15 16.5429 16.0618 16.5429 17.3703" stroke="#69C4A0" stroke-width="0.9"/>
<path d="M21.7046 17.3703C21.7046 16.0618 23.0105 15 24.6229 15C26.2337 15 27.5429 16.0618 27.5429 17.3703" stroke="#69C4A0" stroke-width="0.9"/>
<path d="M11.7046 22C11.7046 22 13.0811 27.3778 19.4325 27.3778C25.7832 27.3778 27.5146 22 27.5146 22" stroke="#5C3A82" stroke-width="0.9" stroke-linecap="round" stroke-linejoin="round"/>
<path fill-rule="evenodd" clip-rule="evenodd" d="M0.70459 18.2612C10.3644 18.2563 31.9353 18.245 37.4731 18.242C37.3753 17.1314 37.1788 16.0496 36.893 15.004L1.2876 15C0.99938 16.0527 0.802227 17.1424 0.70459 18.2612Z" fill="#E16634"/>
<path fill-rule="evenodd" clip-rule="evenodd" d="M30.7027 18.0576C30.4241 15.8903 29.5496 13.9103 28.2465 12.2871C26.0579 10.6608 22.1791 10.037 19.2812 10.0013C16.119 9.96259 11.7903 10.7784 9.76273 12.7579C8.71429 14.2089 7.99093 15.9103 7.70459 17.7569C7.87358 18.4207 10.4837 20.9137 13.0885 21.0604C16.1974 21.2357 18.1004 17.6382 19.2812 17.6401C20.4616 17.6382 22.365 21.2357 25.4735 21.0604C27.7738 20.9309 30.0786 18.9713 30.7027 18.0576Z" fill="#D7C684"/>
<path fill-rule="evenodd" clip-rule="evenodd" d="M29.596 17.0686C29.343 15.4362 28.667 13.9777 27.4832 12.7554C25.495 11.5305 21.8535 11.028 19.2211 11.001C16.3485 10.9721 12.4162 11.5866 10.5745 13.0772C9.62206 14.17 8.96511 15.4515 8.70459 16.8423C8.85856 17.3423 11.2296 19.2197 13.5954 19.3302C16.4196 19.4621 18.1482 16.7529 19.2211 16.7541C20.2932 16.7529 22.022 19.4621 24.8458 19.3302C26.9354 19.2326 29.0292 17.7567 29.596 17.0686Z" fill="#E16634"/>
</svg>
