<svg width="21" height="19" viewBox="0 0 21 19" fill="none" xmlns="http://www.w3.org/2000/svg">
<path d="M8.32623 12.7441C8.21205 12.6584 8.07696 12.5502 7.92765 12.4178C7.5519 12.0846 7.08453 11.5969 6.6341 10.9289C5.49246 10.7365 4.4009 10.3067 3.46001 9.63055L8.32623 12.7441ZM8.32623 12.7441V13.6816H7.6875C7.02647 13.6816 6.3825 13.8744 5.88973 14.2868C5.38364 14.7104 5.08586 15.3275 5.08586 16.0518V16.3989C5.08586 17.0157 5.5663 17.4961 6.18304 17.4961H14.7469C15.2937 17.4961 15.8441 17.0555 15.8441 16.3989V16.0518C15.8441 15.3188 15.5322 14.7031 15.0263 14.2842C14.5336 13.8763 13.8928 13.6816 13.2424 13.6816H12.6037V12.7386C12.7152 12.653 12.8471 12.545 12.9931 12.413C13.3612 12.0803 13.8202 11.5941 14.2673 10.9288C15.4088 10.7364 16.5002 10.3067 17.441 9.63055C18.689 8.73453 19.5474 7.46322 19.5474 6.09918V4.47899C19.5474 3.68866 18.8933 3.03463 18.103 3.03463H15.8441M8.32623 12.7441L15.8441 3.03463M15.8441 3.03463V2.62735C15.8441 1.83702 15.19 1.18298 14.3997 1.18298H6.53022C5.69062 1.18298 5.08586 1.85766 5.08586 2.62735V3.03463H2.82693C1.98733 3.03463 1.38257 3.70931 1.38257 4.47899V6.09918C1.38257 7.45293 2.20084 8.72641 3.45969 9.63032L15.8441 3.03463ZM5.1303 6.38627C5.13999 6.49217 5.15102 6.59662 5.16329 6.69962C5.03723 6.58855 4.94354 6.48137 4.8762 6.38627H5.1303ZM16.0403 6.38627C16.0368 6.39082 16.0332 6.39541 16.0296 6.40003C15.9485 6.50369 15.8475 6.60744 15.7373 6.70273C15.7498 6.59872 15.7609 6.49323 15.7707 6.38627H16.0403Z" fill="#A13A3D" stroke="white" stroke-width="1.5"/>
</svg>
