<svg width="38" height="52" viewBox="0 0 38 52" fill="none" xmlns="http://www.w3.org/2000/svg">
<path fill-rule="evenodd" clip-rule="evenodd" d="M37.6252 18.4599C37.6252 8.26517 29.3601 0 19.1651 0C8.9707 0 0.70459 8.26517 0.70459 18.4599C0.70459 32.3023 18.7868 51.2619 18.7868 51.2619C18.7868 51.2619 37.6252 32.4298 37.6252 18.4599Z" fill="#AAAAAA"/>
<path fill-rule="evenodd" clip-rule="evenodd" d="M30.9003 19.6006C30.9003 26.0041 25.7096 31.1967 19.3023 31.1967C12.8953 31.1967 7.70459 26.0041 7.70459 19.6006C7.70459 13.1936 12.8953 8 19.3023 8C25.7096 8 30.9003 13.1936 30.9003 19.6006Z" fill="#FFFFFE"/>
<path fill-rule="evenodd" clip-rule="evenodd" d="M30.8994 19.6006C30.8994 26.0041 25.7086 31.1967 19.3016 31.1967C12.8944 31.1967 7.70459 26.0041 7.70459 19.6006C7.70459 13.1936 12.8944 8 19.3016 8C25.7086 8 30.8994 13.1936 30.8994 19.6006Z" fill="#FFFFFE"/>
<path d="M10.7046 17.3703C10.7046 16.0618 12.0121 15 13.6253 15C15.2361 15 16.5427 16.0618 16.5427 17.3703" stroke="#1A5763" stroke-width="0.9" stroke-linecap="round" stroke-linejoin="round"/>
<path d="M21.7046 17.3703C21.7046 16.0618 23.0103 15 24.6229 15C26.2335 15 27.5427 16.0618 27.5427 17.3703" stroke="#1A5763" stroke-width="0.9" stroke-linecap="round" stroke-linejoin="round"/>
<path d="M11.7046 22C11.7046 22 13.0814 27.3778 19.4325 27.3778C25.7832 27.3778 27.5148 22 27.5148 22" stroke="#AAAAAA" stroke-width="0.9" stroke-linecap="round" stroke-linejoin="round"/>
<path fill-rule="evenodd" clip-rule="evenodd" d="M0.70459 17.2612C10.3646 17.2563 31.9353 17.245 37.4734 17.242C37.3753 16.1314 37.1791 15.0496 36.893 14.004L1.2876 14C0.99938 15.0527 0.802227 16.1424 0.70459 17.2612Z" fill="#727272"/>
<path fill-rule="evenodd" clip-rule="evenodd" d="M30.9466 17.6874C30.6649 15.6196 29.9129 13.772 28.5958 12.2234C26.3841 10.672 22.3326 10.0353 19.404 10.0012C16.2082 9.96462 11.8335 10.7429 9.78455 12.6313C8.72509 14.0156 7.99398 15.6389 7.70459 17.4006C7.87546 18.034 10.5133 20.4123 13.1455 20.5524C16.2875 20.7195 18.2105 17.2874 19.404 17.2891C20.5967 17.2874 22.5204 20.7195 25.6617 20.5524C27.9865 20.4287 30.3157 18.5591 30.9466 17.6874Z" fill="#727272"/>
<path fill-rule="evenodd" clip-rule="evenodd" d="M29.6446 17.0496C29.3909 15.4224 28.5945 13.9357 27.4083 12.7172C25.4156 11.4962 21.8838 11.0277 19.2452 11.001C16.3661 10.9719 12.4249 11.5845 10.579 13.0706C9.62417 14.1599 8.96558 15.4374 8.70459 16.8238C8.85879 17.3223 11.2354 19.1941 13.6069 19.3042C16.4374 19.4356 18.1703 16.7349 19.2452 16.7363C20.3202 16.7349 22.053 19.4356 24.8833 19.3042C26.9778 19.2068 29.0764 17.7356 29.6446 17.0496Z" fill="#AAAAAA"/>
</svg>
