<svg width="32" height="19" viewBox="0 0 32 19" fill="none" xmlns="http://www.w3.org/2000/svg">
<path d="M31.0879 4.38232L17.4648 0.183105C16.7324 -0.0610352 15.9023 -0.0610352 15.1699 0.183105L1.54688 4.38232C0.423828 4.72412 0.423828 6.23779 1.54688 6.57959L3.93945 7.31201C3.40234 7.94678 3.10938 8.77686 3.06055 9.60693C2.57227 9.8999 2.2793 10.3882 2.2793 10.9253C2.2793 11.4624 2.52344 11.9019 2.91406 12.1948L1.69336 17.8101C1.5957 18.2983 1.9375 18.7378 2.42578 18.7378H5.20898C5.69727 18.7378 6.03906 18.2983 5.94141 17.8101L4.7207 12.1948C5.11133 11.9019 5.4043 11.4624 5.4043 10.9253C5.4043 10.3882 5.0625 9.8999 4.62305 9.65576C4.67188 8.92334 5.01367 8.23975 5.64844 7.84912L15.1699 10.7788C15.6094 10.9253 16.4883 11.0718 17.4648 10.7788L31.0879 6.57959C32.2109 6.23779 32.2109 4.72412 31.0879 4.38232ZM17.9043 12.2925C16.5371 12.6831 15.3164 12.4878 14.7305 12.2925L7.65039 10.0952L6.9668 15.6128C6.9668 17.3706 11.1172 18.7378 16.3418 18.7378C21.5176 18.7378 25.7168 17.3706 25.7168 15.6128L24.9844 10.0952L17.9043 12.2925Z" fill="#3D79C3"/>
</svg>
