<svg width="17" height="20" viewBox="0 0 17 20" fill="none" xmlns="http://www.w3.org/2000/svg">
<path d="M6.94015 1.33369C6.86088 1.38345 6.78415 1.44261 6.71331 1.51109C6.63541 1.4339 6.55007 1.36857 6.46223 1.3151C6.18773 1.14801 5.87459 1.0827 5.59375 1.0827C5.31291 1.0827 4.99977 1.14801 4.72527 1.3151C4.63743 1.36857 4.55209 1.4339 4.47419 1.51109C4.40335 1.44261 4.32662 1.38345 4.24735 1.33369C3.97019 1.15973 3.65263 1.08982 3.36771 1.08666C3.08305 1.08349 2.76605 1.14622 2.48795 1.31091C2.20263 1.47988 1.9377 1.77446 1.87009 2.19785C1.82754 2.41445 1.71161 3.11889 1.60513 3.86774C1.48544 4.70943 1.35938 5.7314 1.35938 6.32489C1.35938 8.05184 2.16072 9.39171 3.4595 10.0805L3.11066 16.9993C3.05162 17.8977 3.7714 18.5749 4.60938 18.5749H6.60938C7.44962 18.5749 8.10938 17.8753 8.10938 17.0436V17.0232L8.10826 17.0027L7.73012 10.0799C8.49378 9.67621 9.09657 9.04753 9.46305 8.2442C9.46842 8.26945 9.47399 8.29472 9.47976 8.31999C9.74195 9.4681 10.4019 10.5799 11.5488 11.563L11.1134 16.9327C10.9954 17.8739 11.7914 18.5749 12.6094 18.5749H14.3594C15.1592 18.5749 15.8594 17.9469 15.8594 17.0749V2.57489C15.8594 1.75443 15.1798 1.07489 14.3594 1.07489C13.465 1.07489 12.5409 1.54125 11.7755 2.18417C10.9933 2.84107 10.2875 3.75446 9.841 4.80497C9.81157 4.87421 9.78323 4.94417 9.75603 5.01479C9.70943 4.62894 9.65248 4.22747 9.59702 3.86107C9.48236 3.10359 9.35894 2.40059 9.3166 2.19284C9.2477 1.77214 8.98375 1.47921 8.69955 1.31091C8.42145 1.14622 8.10444 1.08349 7.81979 1.08666C7.53487 1.08982 7.21731 1.15973 6.94015 1.33369Z" fill="#E16634" stroke="white" stroke-width="1.5"/>
</svg>
