<svg width="22" height="20" viewBox="0 0 22 20" fill="none" xmlns="http://www.w3.org/2000/svg">
<path d="M16.3594 14.8249V14.5749H17.1094C18.0396 14.5749 18.8594 13.8167 18.8594 12.8249V11.6686C18.8594 9.94329 17.6821 8.46252 16.014 8.03578L16.0115 8.03514L12.8594 7.2405V6.82489V5.82489V5.57489V5.07489V4.82489V2.32489C12.8594 1.95597 12.6825 1.64982 12.4835 1.45081C12.2844 1.2518 11.9783 1.07489 11.6094 1.07489H10.6094C9.90929 1.07489 9.396 1.6491 9.36125 2.25906L4.34083 3.6975C4.34073 3.69753 4.34063 3.69755 4.34053 3.69758C4.34045 3.69761 4.34038 3.69763 4.3403 3.69765C3.12929 4.04391 2.35938 5.13037 2.35938 6.35614V12.8249C2.35938 13.8016 3.13266 14.5749 4.10938 14.5749H4.35938V14.8249V15.5749H2.35938C1.72882 15.5749 1.35938 16.0984 1.35938 16.5749V17.5749C1.35938 17.8034 1.43087 18.0742 1.64545 18.2888C1.86003 18.5034 2.13087 18.5749 2.35938 18.5749H18.1094C19.6097 18.5749 20.8594 17.3717 20.8594 15.8249V15.0749C20.8594 14.7685 20.7137 14.5248 20.5616 14.3727C20.4094 14.2206 20.1658 14.0749 19.8594 14.0749H18.8594C18.2288 14.0749 17.8594 14.5984 17.8594 15.0749V15.5749H16.3594V14.8249ZM13.3594 14.5749V14.8249V15.5749H7.35938V14.8249V14.5749H13.3594Z" fill="#FF9500" stroke="white" stroke-width="1.5" stroke-linecap="round"/>
</svg>
