<svg width="18" height="20" viewBox="0 0 18 20" fill="none" xmlns="http://www.w3.org/2000/svg">
<path d="M14.6094 8.07489V6.57489C14.6094 3.56693 12.1173 1.07489 9.10938 1.07489C6.06696 1.07489 3.60938 3.57014 3.60938 6.57489V8.07489C2.34127 8.07489 1.35938 9.10839 1.35938 10.3249V16.3249C1.35938 17.5829 2.35141 18.5749 3.60938 18.5749H14.6094C15.8259 18.5749 16.8594 17.593 16.8594 16.3249V10.3249C16.8594 9.09818 15.8361 8.07489 14.6094 8.07489ZM7.60938 8.07489V6.57489C7.60938 5.76357 8.28034 5.07489 9.10938 5.07489C9.91391 5.07489 10.6094 5.77035 10.6094 6.57489V8.07489H7.60938Z" fill="#419B77" stroke="white" stroke-width="1.5"/>
</svg>
