<svg width="23" height="22" viewBox="0 0 23 22" fill="none" xmlns="http://www.w3.org/2000/svg">
<path fill-rule="evenodd" clip-rule="evenodd" d="M12.3921 21.9999C12.7719 21.9999 13.0796 21.6923 13.0796 21.3124V19.1262C16.5317 18.5457 19.2503 15.8271 19.8308 12.375H22.017C22.3969 12.375 22.7045 12.0673 22.7045 11.6875V10.3125C22.7045 9.93264 22.3969 9.62498 22.017 9.62498H19.8308C19.2503 6.17288 16.5317 3.45423 13.0796 2.87374V0.687498C13.0796 0.307662 12.7719 0 12.3921 0H11.0171C10.6372 0 10.3296 0.307662 10.3296 0.687498V2.87374C6.87747 3.45423 4.15882 6.17288 3.57833 9.62498H1.39209C1.01225 9.62498 0.70459 9.93264 0.70459 10.3125V11.6875C0.70459 12.0673 1.01225 12.375 1.39209 12.375H3.57833C4.15882 15.8271 6.87747 18.5457 10.3296 19.1262V21.3124C10.3296 21.6923 10.6372 21.9999 11.0171 21.9999H12.3921ZM12.2046 16C9.16669 16 6.70459 13.5375 6.70459 10.5C6.70459 7.46251 9.16669 5 12.2046 5C15.2425 5 17.7046 7.46251 17.7046 10.5C17.7046 13.5375 15.2425 16 12.2046 16ZM15.2671 10.7812C15.2671 12.8695 13.5741 14.5625 11.4858 14.5625C9.39757 14.5625 7.70459 12.8695 7.70459 10.7812C7.70459 8.69298 9.39757 7 11.4858 7C13.5741 7 15.2671 8.69298 15.2671 10.7812Z" fill="#485799"/>
</svg>
