<svg width="29" height="28" viewBox="0 0 29 28" fill="none" xmlns="http://www.w3.org/2000/svg">
<circle cx="14.7044" cy="14" r="8.90909" transform="rotate(-180 14.7044 14)" fill="#E43D48"/>
<path d="M12.33 11.2294L11.2693 12.2901L11.2693 12.2901L12.33 11.2294ZM12.1885 11.3708L11.1279 12.4315L11.1279 12.4315L12.1885 11.3708ZM14.8177 14L15.8784 15.0607L16.939 14L15.8784 12.9393L14.8177 14ZM12.1885 16.6292L11.1279 15.5685L11.1279 15.5685L12.1885 16.6292ZM12.1885 16.7706L13.2492 15.7099L13.2492 15.7099L12.1885 16.7706ZM14.9591 14.1414L16.0198 13.0808L14.9591 12.0201L13.8985 13.0808L14.9591 14.1414ZM17.5883 16.7706L18.6489 15.7099L18.6489 15.7099L17.5883 16.7706ZM17.7297 16.6292L18.7903 15.5685L18.7903 15.5685L17.7297 16.6292ZM15.1005 14L14.0399 12.9393L12.9792 14L14.0399 15.0607L15.1005 14ZM17.5883 11.2294L18.6489 12.2901L18.6489 12.2901L17.5883 11.2294ZM14.9591 13.8586L13.8985 14.9192L14.9591 15.9799L16.0198 14.9192L14.9591 13.8586ZM13.2492 12.2901C12.7025 12.8368 11.816 12.8368 11.2693 12.2901L13.3906 10.1688C12.7658 9.54393 11.7527 9.54393 11.1279 10.1688L13.2492 12.2901ZM13.2492 10.3102C13.7959 10.8569 13.7959 11.7434 13.2492 12.2901L11.1279 10.1688C10.503 10.7936 10.503 11.8067 11.1279 12.4315L13.2492 10.3102ZM15.8784 12.9393L13.2492 10.3102L11.1279 12.4315L13.757 15.0607L15.8784 12.9393ZM13.2492 17.6898L15.8784 15.0607L13.757 12.9393L11.1279 15.5685L13.2492 17.6898ZM13.2492 15.7099C13.7959 16.2566 13.7959 17.1431 13.2492 17.6898L11.1279 15.5685C10.503 16.1933 10.503 17.2064 11.1279 17.8312L13.2492 15.7099ZM11.2693 15.7099C11.816 15.1632 12.7025 15.1632 13.2492 15.7099L11.1279 17.8312C11.7527 18.4561 12.7658 18.4561 13.3906 17.8312L11.2693 15.7099ZM13.8985 13.0808L11.2693 15.7099L13.3906 17.8312L16.0198 15.2021L13.8985 13.0808ZM18.6489 15.7099L16.0198 13.0808L13.8985 15.2021L16.5276 17.8312L18.6489 15.7099ZM16.669 15.7099C17.2158 15.1632 18.1022 15.1632 18.6489 15.7099L16.5276 17.8312C17.1524 18.4561 18.1655 18.4561 18.7903 17.8312L16.669 15.7099ZM16.669 17.6898C16.1223 17.1431 16.1223 16.2566 16.669 15.7099L18.7903 17.8312C19.4152 17.2064 19.4152 16.1933 18.7903 15.5685L16.669 17.6898ZM14.0399 15.0607L16.669 17.6898L18.7903 15.5685L16.1612 12.9393L14.0399 15.0607ZM16.669 10.3102L14.0399 12.9393L16.1612 15.0607L18.7903 12.4315L16.669 10.3102ZM16.669 12.2901C16.1223 11.7434 16.1223 10.8569 16.669 10.3102L18.7903 12.4315C19.4152 11.8067 19.4152 10.7936 18.7903 10.1688L16.669 12.2901ZM18.6489 12.2901C18.1022 12.8368 17.2158 12.8368 16.669 12.2901L18.7903 10.1688C18.1655 9.54393 17.1524 9.54392 16.5276 10.1688L18.6489 12.2901ZM16.0198 14.9192L18.6489 12.2901L16.5276 10.1688L13.8985 12.7979L16.0198 14.9192ZM11.2693 12.2901L13.8985 14.9192L16.0198 12.7979L13.3906 10.1688L11.2693 12.2901Z" fill="white"/>
</svg>
